M48
;Layer_Color=9474304
;FILE_FORMAT=4:2
METRIC,LZ
;TYPE=PLATED
T1F00S00C0.30
T2F00S00C0.33
T3F00S00C0.40
T4F00S00C0.70
T5F00S00C0.90
T6F00S00C1.00
T7F00S00C1.10
T8F00S00C1.50
T9F00S00C1.95
T10F00S00C2.00
T11F00S00C2.30
T12F00S00C3.50
%
T01
X00185Y00119
X00193
X00308Y001255
X00315
X00322
X0037Y0011
X00441Y00078
X00485Y00043
X00573Y00037
X00583
X00593
X00609
X00618
X00628
X00638
X00648
X00658
X00668
X00678
X00688
X00698
X00708
X00718
X00728
X00723Y0007
X00713Y00061
X00703Y0007
X00693Y00061
X00683Y0007
X00673Y00061
X00663Y0007
X00653Y00061
X00643Y0007
X00633Y00061
X00623Y0007
X00614Y00061
X00599Y00065
X00738Y00075
X00753Y00066
X0082Y00082
X00816Y00131
X00826
X00796Y00119
X01106Y00026
X01137
X01241Y00141
X01241Y0018
X01199Y00215
X01199Y00325
X01205Y00338
X01214Y0035
Y00363
X012212Y003758
X01224Y00388
X01236Y00401
X0124Y00414
X01244Y00427
X01249Y0044
X01252Y00465
X01257Y00478
X0126Y00493
X01118Y00473
X01106
X01099Y00466
X0108Y00459
X0105Y00467
X01024Y00469
X00985
X009788Y00474
X00972Y00469
X00961Y00474
X00941
X00952Y00535
X01004Y00506
X01011Y005
X01055Y00504
X01065
X01073Y005
Y00523
X01065Y0053
X01038Y00535
X01005Y00375
X01011Y00321
Y00313
Y00295
Y00287
X01038Y00333
X01061Y00227
X011168Y001538
X0092Y00241
X0089Y00241
X00844Y00181
X00844Y00173
X00817Y0019
X00785Y00155
X00703Y00195
X00695
Y00229
X00703
X00683Y00236
X00653Y00246
X00643
Y00236
Y00226
X00643Y00256
X00633Y00246
X00623
Y00236
X00603Y00246
X00593
X00583
Y00236
X00573Y00246
Y00256
X00563Y00256
Y00266
Y00276
Y00286
X00553Y00286
Y00296
Y00306
X00563
Y00316
X00553
Y00326
Y00336
Y00346
Y00356
X00563
X00573Y00346
Y00336
X00563
X00593
Y00346
X00603Y00356
X00623
Y00346
X00613
X00633
X00633Y00356
X00643
X00653
Y00346
Y00336
Y00326
X00653Y00316
Y00306
X00643
X00633Y00306
X00623Y00306
X00613
Y00316
X00623
X00633
Y00336
X00623
X00593Y00326
Y00306
X00603Y00306
X00613Y00286
X00623
X00633
Y00276
X00613
X00593
Y00286
X00573Y00266
X00553
Y00256
X00543
X00553Y00276
Y00236
X00563Y00226
X00549Y00198
X00589Y00202
Y00194
Y00182
Y00174
X00627
Y00182
Y00194
X00663Y00256
Y00266
X00673
X00663Y00276
Y00296
X00653
Y00286
X00663Y00306
X00673
X00673Y00316
X00663Y00316
X00673Y00336
Y00346
Y00356
X00663
Y00346
Y00366
X00653
X00693Y00376
X00703Y00385
X007115Y003933
X00719Y00401
X00672Y0041
X00673Y00419
Y00429
X00676Y00462
X00681Y00474
X00654
X00628Y00473
X00629Y00444
X00645Y00443
X00642Y00435
X00608Y00416
X00602Y00422
X00595Y00416
X00577Y00405
Y00397
X00615
Y00405
X00598Y00379
X0054Y00398
X00554Y00422
X00559Y00445
X00548
X00552Y0047
X00562
X00571Y00473
X00587
X00541Y0047
X00582Y00535
X00634Y00506
X00641Y005
X00682Y00501
X00701Y00506
X0071
Y00523
X00701Y0053
X00668Y00535
X00736Y00499
X007292Y004719
X00744Y00473
X0071
X00772Y00509
X00866Y00535
X00874Y00474
X00885Y00469
X008918Y00474
X00898Y00469
X009175
X009243Y00474
X009305Y00469
X008635Y004615
X0089Y00393
X0092Y00393
X00751Y0032
X00743
X00732Y00312
X00724
Y00274
X00732
X0053Y00281
X00503Y00273
X00495
Y00311
X00503
X00493Y00344
X00487Y0035
X00481Y00356
X00475Y00362
X00474Y0037
X00468Y00376
X00461Y00383
X00455Y00398
X00461Y00406
X00479Y00408
X00483Y00426
X00468
X00495Y00472
X00506
X005153Y0047
X00528
X00522Y00463
X00496Y00535
X00361Y00505
X00354Y00499
X00374Y00477
X00315Y00504
X00279Y005015
X002665Y00504
X002598Y00499
X00243Y00466
X00234Y00463
X00227Y00458
X00188Y00454
X00179Y00453
X00173Y00447
X00156Y00443
X00147Y00438
X00161Y00378
Y00355
X00173Y00355
Y00345
Y00305
Y00295
X00185Y00228
X00179Y0022
X00215Y00232
X00226Y00232
X00246
X00254
X00276Y00232
X0028Y0026
X0027
X0025Y0026
X0023
X00295
X00309
X00325
X00321Y00232
X00311
X00335Y00232
X0036Y00231
Y00222
X00368Y00217
X00359Y00239
X00353Y00246
X00364Y00262
X00365Y00277
X00365Y00287
X00337Y00282
X00337Y00352
X00365Y00348
X00386Y00347
X00392Y00341
X00394Y00332
X00398Y00324
X00402Y00314
X00406Y00304
X0041Y00293
X00414Y00283
X0045Y00301
X00444Y00315
X00441Y00327
X00436Y00335
X00433Y00347
X00426Y00359
X0042Y00368
X00414Y00383
X00325Y00384
X00323Y00413
X00272Y00413
X00252
X0024Y00384
X0027
X00275Y00337
X0026
X0026Y00322
X00275
X00275Y00307
X0026
X0029Y00307
X0029Y00322
X0029Y00337
X0029Y00152
X00298
X0028
X00272
X00332Y001553
Y00168
X00383
X00533Y00167
X005371Y001841
X00533Y00216
Y00376
X00293Y00535
X00207
X00194Y00472
X001958Y001862
X002014Y001806
X00187Y00162
X00181Y00155
X001409Y001489
X00128Y00195
Y00204
X0014Y00431
X00123Y00471
X0012Y00535
X00059Y00479
X0003
X00027Y00447
X00064Y00588
X0012Y00557
X00207
X00293
X00496
X00582
X00668
X00866
X00952
X01038
T02
X00749Y00116
Y00128
Y0014
X00761Y0014
X00773Y0014
Y00128
X00761
Y00116
X00773
T03
X00125Y00128
X00162Y00109
X00154Y00097
X00519Y00036
X00549
X0075
X00782Y00046
X01029Y00063
Y00073
X01039
Y00063
X01045Y00042
Y00031
X01029Y00084
X01034Y00112
X01028Y00141
X01042
X01144Y0012
X01154
X01164
X01174
X01169Y0011
X01159
X01149
X01199Y00093
X01217Y00089
X01233
X01245Y00154
Y00167
X01232Y00234
X01218
X01185Y00216
X01168Y00197
X01158
X01148
X01153Y00187
X01143
X01163
X01173
X011Y00164
X01107Y00157
X011Y0015
X01092Y00157
X01041
Y00176
X01028
X01034Y00206
X01026Y00236
X01016Y00235
X01018Y00246
X01028
X01038
X01076Y00284
X01076Y00294
X01085Y00289
Y00299
X01079Y00335
X01058Y00328
X01086Y00361
X0113Y00314
Y00302
X01146Y0028
X01156
Y00269
X01146
X00994Y00455
X00818Y00473
X00249Y00194
Y00152
X00161Y00194
X0015Y00228
T04
X003719Y000597
X003972
Y000851
X003719
X003846Y000978
Y00047
T05
X002067Y000533
Y000724
Y000914
X002258
Y000724
Y000533
X002449
X002639
X00283
X00302
X00321
X003401
Y000724
Y000914
X00321Y000912
Y000724
X003017Y000724
X00283Y000724
Y000914
X003017Y000914
X002639Y000914
Y000724
X002449
Y000914
X011496Y002996
X01175
Y00325
X011496
Y003504
X01175
Y003758
X011496
Y004012
X01175
Y004266
X011496
Y00452
X01175
Y004774
X011496
X00525Y005756
Y00601
X003786Y006
Y005746
X003532
Y006
X003278
Y005746
X003024
Y006
X00277
Y005746
X002516
Y006
X002262
Y005746
X002008
Y006
X001754
Y005746
X0015
Y006
X005504Y00601
X005758
X006012
X006266
X00652
X006774
X007028
X007282
X007536
Y005756
X007282
X007028
X006774
X00652
X006266
X006012
X005758
X005504
X00895Y00575
X009204
Y006004
X00895
X009458
X009712
X009966
X01022
X010474
X010728
X010982
X011236
Y00575
X010982
X010728
X010474
X01022
X009966
X009712
X009458
T06
X009175Y001006
Y001206
X009425
Y001006
X00911Y00179
X00867
X003768Y00196
X003514
X00326
X001Y00432
X00022
T07
X000483Y002902
X000737
Y003156
X000483
Y00341
Y003664
X000737
Y003918
X000483
X000737Y00341
T08
X001Y001606
Y002114
T09
X001484Y000533
X004557Y000531
T10
X002067Y0002
X003972
T11
X008698Y000734
X009902
T12
X0005Y0005
X01225
X0005Y0065
X01225
M30
