G04 Layer_Color=16711935*
%FSLAX42Y42*%
%MOMM*%
G71*
G01*
G75*
%ADD10C,1.00*%
%ADD67C,1.50*%
%ADD73R,1.50X1.50*%
%ADD155R,1.50X1.50*%
G04:AMPARAMS|DCode=157|XSize=0.7mm|YSize=0.8mm|CornerRadius=0.16mm|HoleSize=0mm|Usage=FLASHONLY|Rotation=270.000|XOffset=0mm|YOffset=0mm|HoleType=Round|Shape=RoundedRectangle|*
%AMROUNDEDRECTD157*
21,1,0.70,0.47,0,0,270.0*
21,1,0.38,0.80,0,0,270.0*
1,1,0.33,-0.24,-0.19*
1,1,0.33,-0.24,0.19*
1,1,0.33,0.24,0.19*
1,1,0.33,0.24,-0.19*
%
%ADD157ROUNDEDRECTD157*%
G04:AMPARAMS|DCode=160|XSize=1.1mm|YSize=0.9mm|CornerRadius=0.19mm|HoleSize=0mm|Usage=FLASHONLY|Rotation=180.000|XOffset=0mm|YOffset=0mm|HoleType=Round|Shape=RoundedRectangle|*
%AMROUNDEDRECTD160*
21,1,1.10,0.53,0,0,180.0*
21,1,0.72,0.90,0,0,180.0*
1,1,0.38,-0.36,0.26*
1,1,0.38,0.36,0.26*
1,1,0.38,0.36,-0.26*
1,1,0.38,-0.36,-0.26*
%
%ADD160ROUNDEDRECTD160*%
G04:AMPARAMS|DCode=161|XSize=1.1mm|YSize=0.9mm|CornerRadius=0.19mm|HoleSize=0mm|Usage=FLASHONLY|Rotation=270.000|XOffset=0mm|YOffset=0mm|HoleType=Round|Shape=RoundedRectangle|*
%AMROUNDEDRECTD161*
21,1,1.10,0.53,0,0,270.0*
21,1,0.72,0.90,0,0,270.0*
1,1,0.38,-0.26,-0.36*
1,1,0.38,-0.26,0.36*
1,1,0.38,0.26,0.36*
1,1,0.38,0.26,-0.36*
%
%ADD161ROUNDEDRECTD161*%
G04:AMPARAMS|DCode=166|XSize=1.1mm|YSize=1mm|CornerRadius=0.2mm|HoleSize=0mm|Usage=FLASHONLY|Rotation=180.000|XOffset=0mm|YOffset=0mm|HoleType=Round|Shape=RoundedRectangle|*
%AMROUNDEDRECTD166*
21,1,1.10,0.60,0,0,180.0*
21,1,0.70,1.00,0,0,180.0*
1,1,0.40,-0.35,0.30*
1,1,0.40,0.35,0.30*
1,1,0.40,0.35,-0.30*
1,1,0.40,-0.35,-0.30*
%
%ADD166ROUNDEDRECTD166*%
G04:AMPARAMS|DCode=176|XSize=1.5mm|YSize=1.2mm|CornerRadius=0.23mm|HoleSize=0mm|Usage=FLASHONLY|Rotation=90.000|XOffset=0mm|YOffset=0mm|HoleType=Round|Shape=RoundedRectangle|*
%AMROUNDEDRECTD176*
21,1,1.50,0.75,0,0,90.0*
21,1,1.05,1.20,0,0,90.0*
1,1,0.45,0.38,0.53*
1,1,0.45,0.38,-0.53*
1,1,0.45,-0.38,-0.53*
1,1,0.45,-0.38,0.53*
%
%ADD176ROUNDEDRECTD176*%
G04:AMPARAMS|DCode=177|XSize=0.7mm|YSize=0.8mm|CornerRadius=0.16mm|HoleSize=0mm|Usage=FLASHONLY|Rotation=180.000|XOffset=0mm|YOffset=0mm|HoleType=Round|Shape=RoundedRectangle|*
%AMROUNDEDRECTD177*
21,1,0.70,0.47,0,0,180.0*
21,1,0.38,0.80,0,0,180.0*
1,1,0.33,-0.19,0.24*
1,1,0.33,0.19,0.24*
1,1,0.33,0.19,-0.24*
1,1,0.33,-0.19,-0.24*
%
%ADD177ROUNDEDRECTD177*%
G04:AMPARAMS|DCode=185|XSize=1.5mm|YSize=0.9mm|CornerRadius=0.19mm|HoleSize=0mm|Usage=FLASHONLY|Rotation=90.000|XOffset=0mm|YOffset=0mm|HoleType=Round|Shape=RoundedRectangle|*
%AMROUNDEDRECTD185*
21,1,1.50,0.53,0,0,90.0*
21,1,1.13,0.90,0,0,90.0*
1,1,0.38,0.26,0.56*
1,1,0.38,0.26,-0.56*
1,1,0.38,-0.26,-0.56*
1,1,0.38,-0.26,0.56*
%
%ADD185ROUNDEDRECTD185*%
G04:AMPARAMS|DCode=195|XSize=1.5mm|YSize=1.2mm|CornerRadius=0.23mm|HoleSize=0mm|Usage=FLASHONLY|Rotation=0.000|XOffset=0mm|YOffset=0mm|HoleType=Round|Shape=RoundedRectangle|*
%AMROUNDEDRECTD195*
21,1,1.50,0.75,0,0,0.0*
21,1,1.05,1.20,0,0,0.0*
1,1,0.45,0.53,-0.38*
1,1,0.45,-0.53,-0.38*
1,1,0.45,-0.53,0.38*
1,1,0.45,0.53,0.38*
%
%ADD195ROUNDEDRECTD195*%
%ADD198C,1.70*%
%ADD199C,1.40*%
%ADD200C,3.20*%
%ADD201C,2.15*%
%ADD202R,1.70X1.70*%
%ADD203R,1.70X1.70*%
%ADD204R,1.85X1.85*%
%ADD205C,1.85*%
%ADD206C,2.70*%
%ADD207R,2.70X2.70*%
%ADD208C,1.72*%
%ADD209C,4.00*%
%ADD210R,1.72X1.72*%
%ADD211C,1.80*%
%ADD212R,1.80X1.80*%
%ADD213C,6.20*%
%ADD214C,0.86*%
D10*
X1500Y2280D02*
D03*
X1540Y970D02*
D03*
X9940Y4550D02*
D03*
X10860Y3610D02*
D03*
X1620Y1090D02*
D03*
X1610Y1940D02*
D03*
X1250Y1280D02*
D03*
X2490Y1520D02*
D03*
Y1940D02*
D03*
D67*
X2258Y914D02*
D03*
X3401D02*
D03*
Y724D02*
D03*
Y533D02*
D03*
X3210Y912D02*
D03*
Y724D02*
D03*
Y533D02*
D03*
X3017Y914D02*
D03*
Y724D02*
D03*
X3020Y533D02*
D03*
X2830Y914D02*
D03*
Y724D02*
D03*
Y533D02*
D03*
X2639Y914D02*
D03*
Y724D02*
D03*
Y533D02*
D03*
X2067Y724D02*
D03*
Y533D02*
D03*
X2258D02*
D03*
Y724D02*
D03*
X2449Y914D02*
D03*
Y724D02*
D03*
Y533D02*
D03*
D73*
X2067Y914D02*
D03*
D155*
X500Y6000D02*
D03*
X12500Y1000D02*
D03*
D157*
X5810Y3280D02*
D03*
X5710D02*
D03*
X6330Y3230D02*
D03*
X6230D02*
D03*
X5930Y3110D02*
D03*
X6030D02*
D03*
X5930Y2980D02*
D03*
X5830D02*
D03*
X6130D02*
D03*
X6030D02*
D03*
X6230Y2980D02*
D03*
X6330D02*
D03*
X6010Y3880D02*
D03*
X5910D02*
D03*
X6800Y3300D02*
D03*
X6900D02*
D03*
X6710Y2990D02*
D03*
X6810D02*
D03*
X6720Y2570D02*
D03*
X6820D02*
D03*
X6530Y2380D02*
D03*
X6630D02*
D03*
X5731Y2852D02*
D03*
X5831D02*
D03*
X5731Y2752D02*
D03*
X5831D02*
D03*
X6130Y2130D02*
D03*
X6030D02*
D03*
X3560Y3500D02*
D03*
X3460D02*
D03*
X3560Y2840D02*
D03*
X3460D02*
D03*
D160*
X6910Y4410D02*
D03*
Y4550D02*
D03*
X6760Y4410D02*
D03*
Y4550D02*
D03*
X6600Y4410D02*
D03*
Y4550D02*
D03*
D161*
X11260Y1540D02*
D03*
X11400D02*
D03*
X5590Y4340D02*
D03*
X5450D02*
D03*
D166*
X5540Y4035D02*
D03*
Y3885D02*
D03*
D176*
X5750Y1980D02*
D03*
X5570D02*
D03*
X5870Y4010D02*
D03*
X6050D02*
D03*
X5990Y1780D02*
D03*
X6170D02*
D03*
X5990Y1980D02*
D03*
X6170D02*
D03*
D177*
X5950Y3530D02*
D03*
Y3630D02*
D03*
X6160Y3560D02*
D03*
Y3660D02*
D03*
X6030Y3400D02*
D03*
Y3500D02*
D03*
X6430Y3380D02*
D03*
Y3480D02*
D03*
X6620Y3360D02*
D03*
Y3260D02*
D03*
X6130Y3231D02*
D03*
Y3331D02*
D03*
X6440Y3160D02*
D03*
Y3260D02*
D03*
X5720Y3160D02*
D03*
Y3060D02*
D03*
X5990Y2760D02*
D03*
Y2860D02*
D03*
X6070Y2860D02*
D03*
Y2760D02*
D03*
X6390Y2860D02*
D03*
Y2760D02*
D03*
X6230Y2790D02*
D03*
Y2690D02*
D03*
X6070Y2560D02*
D03*
Y2660D02*
D03*
Y3640D02*
D03*
Y3740D02*
D03*
X6790Y2760D02*
D03*
Y2660D02*
D03*
X5824Y2561D02*
D03*
Y2661D02*
D03*
X5730Y2360D02*
D03*
Y2260D02*
D03*
X5900Y2390D02*
D03*
Y2290D02*
D03*
X5990Y2390D02*
D03*
Y2290D02*
D03*
X6170Y2460D02*
D03*
Y2360D02*
D03*
X6090Y2460D02*
D03*
Y2360D02*
D03*
X6330Y2390D02*
D03*
Y2290D02*
D03*
X7130Y2980D02*
D03*
Y2880D02*
D03*
X5120Y2970D02*
D03*
Y2870D02*
D03*
X2450Y4030D02*
D03*
Y3930D02*
D03*
X2720Y4030D02*
D03*
Y3930D02*
D03*
X3230Y4030D02*
D03*
Y3930D02*
D03*
X2270Y2410D02*
D03*
Y2510D02*
D03*
X2460Y2410D02*
D03*
Y2510D02*
D03*
X2550Y2410D02*
D03*
Y2510D02*
D03*
X2780Y2410D02*
D03*
Y2510D02*
D03*
X3090Y2410D02*
D03*
Y2510D02*
D03*
X3220Y2410D02*
D03*
Y2510D02*
D03*
D185*
X6902Y3480D02*
D03*
X7092D02*
D03*
X5755Y1780D02*
D03*
X5565D02*
D03*
D195*
X7470Y2840D02*
D03*
Y3020D02*
D03*
X7280Y2840D02*
D03*
Y3020D02*
D03*
X4990Y2830D02*
D03*
Y3010D02*
D03*
X6990Y2210D02*
D03*
Y2030D02*
D03*
X10380Y2160D02*
D03*
Y2340D02*
D03*
D198*
X8670Y1790D02*
D03*
X1000Y4320D02*
D03*
X220D02*
D03*
X9110Y1790D02*
D03*
X11750Y2996D02*
D03*
X11496D02*
D03*
X11750Y3250D02*
D03*
X11496D02*
D03*
X11750Y3504D02*
D03*
X11496D02*
D03*
X11750Y3758D02*
D03*
X11496D02*
D03*
X11750Y4012D02*
D03*
X11496D02*
D03*
X11750Y4266D02*
D03*
X11496D02*
D03*
X11750Y4520D02*
D03*
X11496D02*
D03*
X11750Y4774D02*
D03*
X3786Y6000D02*
D03*
Y5746D02*
D03*
X3532Y6000D02*
D03*
Y5746D02*
D03*
X3278Y6000D02*
D03*
Y5746D02*
D03*
X3024Y6000D02*
D03*
Y5746D02*
D03*
X2770Y6000D02*
D03*
Y5746D02*
D03*
X2516Y6000D02*
D03*
Y5746D02*
D03*
X2262Y6000D02*
D03*
Y5746D02*
D03*
X2008Y6000D02*
D03*
Y5746D02*
D03*
X1754Y6000D02*
D03*
Y5746D02*
D03*
X1500Y6000D02*
D03*
X7536Y6010D02*
D03*
Y5756D02*
D03*
X7282Y6010D02*
D03*
Y5756D02*
D03*
X7028Y6010D02*
D03*
Y5756D02*
D03*
X6774Y6010D02*
D03*
Y5756D02*
D03*
X6520Y6010D02*
D03*
Y5756D02*
D03*
X6266Y6010D02*
D03*
Y5756D02*
D03*
X6012Y6010D02*
D03*
Y5756D02*
D03*
X5758Y6010D02*
D03*
Y5756D02*
D03*
X5504Y6010D02*
D03*
Y5756D02*
D03*
X5250Y6010D02*
D03*
X11236Y6004D02*
D03*
Y5750D02*
D03*
X10982Y6004D02*
D03*
Y5750D02*
D03*
X10728Y6004D02*
D03*
Y5750D02*
D03*
X10474Y6004D02*
D03*
Y5750D02*
D03*
X10220Y6004D02*
D03*
Y5750D02*
D03*
X9966Y6004D02*
D03*
Y5750D02*
D03*
X9712Y6004D02*
D03*
Y5750D02*
D03*
X9458Y6004D02*
D03*
Y5750D02*
D03*
X9204Y6004D02*
D03*
Y5750D02*
D03*
X8950Y6004D02*
D03*
D199*
X3972Y597D02*
D03*
X3719D02*
D03*
Y851D02*
D03*
X3972D02*
D03*
X3846Y978D02*
D03*
Y470D02*
D03*
D200*
X4557Y531D02*
D03*
X1484Y533D02*
D03*
D201*
X3972Y200D02*
D03*
X2067D02*
D03*
D202*
X11496Y4774D02*
D03*
D203*
X1500Y5746D02*
D03*
X5250Y5756D02*
D03*
X8950Y5750D02*
D03*
D204*
X3260Y1960D02*
D03*
D205*
X3514D02*
D03*
X3768D02*
D03*
D206*
X1000Y1606D02*
D03*
D207*
Y2114D02*
D03*
D208*
X9175Y1206D02*
D03*
Y1006D02*
D03*
X9425D02*
D03*
D209*
X9902Y734D02*
D03*
X8698D02*
D03*
D210*
X9425Y1206D02*
D03*
D211*
X483Y2902D02*
D03*
X737D02*
D03*
X483Y3156D02*
D03*
X737D02*
D03*
X483Y3410D02*
D03*
Y3664D02*
D03*
X737Y3918D02*
D03*
Y3410D02*
D03*
Y3664D02*
D03*
D212*
X483Y3918D02*
D03*
D213*
X500Y500D02*
D03*
Y6500D02*
D03*
X12250D02*
D03*
Y500D02*
D03*
D214*
X7490Y1400D02*
D03*
X7610Y1400D02*
D03*
X7730Y1400D02*
D03*
X7490Y1280D02*
D03*
X7610D02*
D03*
X7730D02*
D03*
X7490Y1160D02*
D03*
X7610D02*
D03*
X7730D02*
D03*
M02*
