G04 Layer_Physical_Order=1*
G04 Layer_Color=255*
%FSLAX42Y42*%
%MOMM*%
G71*
G01*
G75*
%ADD10C,1.00*%
G04:AMPARAMS|DCode=11|XSize=0.9mm|YSize=0.8mm|CornerRadius=0.1mm|HoleSize=0mm|Usage=FLASHONLY|Rotation=270.000|XOffset=0mm|YOffset=0mm|HoleType=Round|Shape=RoundedRectangle|*
%AMROUNDEDRECTD11*
21,1,0.90,0.60,0,0,270.0*
21,1,0.70,0.80,0,0,270.0*
1,1,0.20,-0.30,-0.35*
1,1,0.20,-0.30,0.35*
1,1,0.20,0.30,0.35*
1,1,0.20,0.30,-0.35*
%
%ADD11ROUNDEDRECTD11*%
G04:AMPARAMS|DCode=12|XSize=0.5mm|YSize=0.6mm|CornerRadius=0.06mm|HoleSize=0mm|Usage=FLASHONLY|Rotation=270.000|XOffset=0mm|YOffset=0mm|HoleType=Round|Shape=RoundedRectangle|*
%AMROUNDEDRECTD12*
21,1,0.50,0.47,0,0,270.0*
21,1,0.38,0.60,0,0,270.0*
1,1,0.13,-0.24,-0.19*
1,1,0.13,-0.24,0.19*
1,1,0.13,0.24,0.19*
1,1,0.13,0.24,-0.19*
%
%ADD12ROUNDEDRECTD12*%
%ADD13O,0.35X1.70*%
%ADD14R,0.70X1.50*%
G04:AMPARAMS|DCode=15|XSize=0.9mm|YSize=0.7mm|CornerRadius=0.09mm|HoleSize=0mm|Usage=FLASHONLY|Rotation=180.000|XOffset=0mm|YOffset=0mm|HoleType=Round|Shape=RoundedRectangle|*
%AMROUNDEDRECTD15*
21,1,0.90,0.53,0,0,180.0*
21,1,0.72,0.70,0,0,180.0*
1,1,0.17,-0.36,0.26*
1,1,0.17,0.36,0.26*
1,1,0.17,0.36,-0.26*
1,1,0.17,-0.36,-0.26*
%
%ADD15ROUNDEDRECTD15*%
G04:AMPARAMS|DCode=16|XSize=0.9mm|YSize=0.7mm|CornerRadius=0.09mm|HoleSize=0mm|Usage=FLASHONLY|Rotation=270.000|XOffset=0mm|YOffset=0mm|HoleType=Round|Shape=RoundedRectangle|*
%AMROUNDEDRECTD16*
21,1,0.90,0.53,0,0,270.0*
21,1,0.72,0.70,0,0,270.0*
1,1,0.17,-0.26,-0.36*
1,1,0.17,-0.26,0.36*
1,1,0.17,0.26,0.36*
1,1,0.17,0.26,-0.36*
%
%ADD16ROUNDEDRECTD16*%
G04:AMPARAMS|DCode=17|XSize=0.35mm|YSize=1.2mm|CornerRadius=0.04mm|HoleSize=0mm|Usage=FLASHONLY|Rotation=90.000|XOffset=0mm|YOffset=0mm|HoleType=Round|Shape=RoundedRectangle|*
%AMROUNDEDRECTD17*
21,1,0.35,1.11,0,0,90.0*
21,1,0.26,1.20,0,0,90.0*
1,1,0.09,0.56,0.13*
1,1,0.09,0.56,-0.13*
1,1,0.09,-0.56,-0.13*
1,1,0.09,-0.56,0.13*
%
%ADD17ROUNDEDRECTD17*%
%ADD18R,1.10X0.60*%
%ADD19O,0.80X2.00*%
G04:AMPARAMS|DCode=20|XSize=1.7mm|YSize=1.1mm|CornerRadius=0.14mm|HoleSize=0mm|Usage=FLASHONLY|Rotation=90.000|XOffset=0mm|YOffset=0mm|HoleType=Round|Shape=RoundedRectangle|*
%AMROUNDEDRECTD20*
21,1,1.70,0.82,0,0,90.0*
21,1,1.43,1.10,0,0,90.0*
1,1,0.28,0.41,0.71*
1,1,0.28,0.41,-0.71*
1,1,0.28,-0.41,-0.71*
1,1,0.28,-0.41,0.71*
%
%ADD20ROUNDEDRECTD20*%
G04:AMPARAMS|DCode=21|XSize=0.9mm|YSize=0.8mm|CornerRadius=0.1mm|HoleSize=0mm|Usage=FLASHONLY|Rotation=180.000|XOffset=0mm|YOffset=0mm|HoleType=Round|Shape=RoundedRectangle|*
%AMROUNDEDRECTD21*
21,1,0.90,0.60,0,0,180.0*
21,1,0.70,0.80,0,0,180.0*
1,1,0.20,-0.35,0.30*
1,1,0.20,0.35,0.30*
1,1,0.20,0.35,-0.30*
1,1,0.20,-0.35,-0.30*
%
%ADD21ROUNDEDRECTD21*%
%ADD22O,0.55X1.65*%
%ADD23R,1.40X0.80*%
%ADD24R,1.40X1.00*%
%ADD25O,1.50X0.60*%
%ADD26R,1.02X0.89*%
G04:AMPARAMS|DCode=27|XSize=0.95mm|YSize=0.9mm|CornerRadius=0.23mm|HoleSize=0mm|Usage=FLASHONLY|Rotation=180.000|XOffset=0mm|YOffset=0mm|HoleType=Round|Shape=RoundedRectangle|*
%AMROUNDEDRECTD27*
21,1,0.95,0.45,0,0,180.0*
21,1,0.50,0.90,0,0,180.0*
1,1,0.45,-0.25,0.23*
1,1,0.45,0.25,0.23*
1,1,0.45,0.25,-0.23*
1,1,0.45,-0.25,-0.23*
%
%ADD27ROUNDEDRECTD27*%
G04:AMPARAMS|DCode=28|XSize=2.65mm|YSize=1.75mm|CornerRadius=0.22mm|HoleSize=0mm|Usage=FLASHONLY|Rotation=0.000|XOffset=0mm|YOffset=0mm|HoleType=Round|Shape=RoundedRectangle|*
%AMROUNDEDRECTD28*
21,1,2.65,1.31,0,0,0.0*
21,1,2.21,1.75,0,0,0.0*
1,1,0.44,1.11,-0.66*
1,1,0.44,-1.11,-0.66*
1,1,0.44,-1.11,0.66*
1,1,0.44,1.11,0.66*
%
%ADD28ROUNDEDRECTD28*%
G04:AMPARAMS|DCode=29|XSize=2.65mm|YSize=1.75mm|CornerRadius=0mm|HoleSize=0mm|Usage=FLASHONLY|Rotation=0.000|XOffset=0mm|YOffset=0mm|HoleType=Round|Shape=Octagon|*
%AMOCTAGOND29*
4,1,8,1.32,-0.44,1.32,0.44,0.89,0.88,-0.89,0.88,-1.32,0.44,-1.32,-0.44,-0.89,-0.88,0.89,-0.88,1.32,-0.44,0.0*
%
%ADD29OCTAGOND29*%

G04:AMPARAMS|DCode=30|XSize=3.2mm|YSize=3.2mm|CornerRadius=0.4mm|HoleSize=0mm|Usage=FLASHONLY|Rotation=90.000|XOffset=0mm|YOffset=0mm|HoleType=Round|Shape=RoundedRectangle|*
%AMROUNDEDRECTD30*
21,1,3.20,2.40,0,0,90.0*
21,1,2.40,3.20,0,0,90.0*
1,1,0.80,1.20,1.20*
1,1,0.80,1.20,-1.20*
1,1,0.80,-1.20,-1.20*
1,1,0.80,-1.20,1.20*
%
%ADD30ROUNDEDRECTD30*%
G04:AMPARAMS|DCode=31|XSize=1.3mm|YSize=1mm|CornerRadius=0.13mm|HoleSize=0mm|Usage=FLASHONLY|Rotation=90.000|XOffset=0mm|YOffset=0mm|HoleType=Round|Shape=RoundedRectangle|*
%AMROUNDEDRECTD31*
21,1,1.30,0.75,0,0,90.0*
21,1,1.05,1.00,0,0,90.0*
1,1,0.25,0.38,0.53*
1,1,0.25,0.38,-0.53*
1,1,0.25,-0.38,-0.53*
1,1,0.25,-0.38,0.53*
%
%ADD31ROUNDEDRECTD31*%
G04:AMPARAMS|DCode=32|XSize=0.5mm|YSize=0.6mm|CornerRadius=0.06mm|HoleSize=0mm|Usage=FLASHONLY|Rotation=180.000|XOffset=0mm|YOffset=0mm|HoleType=Round|Shape=RoundedRectangle|*
%AMROUNDEDRECTD32*
21,1,0.50,0.47,0,0,180.0*
21,1,0.38,0.60,0,0,180.0*
1,1,0.13,-0.19,0.24*
1,1,0.13,0.19,0.24*
1,1,0.13,0.19,-0.24*
1,1,0.13,-0.19,-0.24*
%
%ADD32ROUNDEDRECTD32*%
G04:AMPARAMS|DCode=33|XSize=0.6mm|YSize=1mm|CornerRadius=0.07mm|HoleSize=0mm|Usage=FLASHONLY|Rotation=270.000|XOffset=0mm|YOffset=0mm|HoleType=Round|Shape=RoundedRectangle|*
%AMROUNDEDRECTD33*
21,1,0.60,0.85,0,0,270.0*
21,1,0.45,1.00,0,0,270.0*
1,1,0.15,-0.42,-0.23*
1,1,0.15,-0.42,0.23*
1,1,0.15,0.42,0.23*
1,1,0.15,0.42,-0.23*
%
%ADD33ROUNDEDRECTD33*%
%ADD34R,3.30X3.30*%
%ADD35O,0.30X1.05*%
%ADD36O,1.05X0.30*%
%ADD37C,0.50*%
%ADD38O,2.20X0.60*%
%ADD39R,1.75X4.50*%
G04:AMPARAMS|DCode=40|XSize=1.3mm|YSize=0.7mm|CornerRadius=0.09mm|HoleSize=0mm|Usage=FLASHONLY|Rotation=90.000|XOffset=0mm|YOffset=0mm|HoleType=Round|Shape=RoundedRectangle|*
%AMROUNDEDRECTD40*
21,1,1.30,0.53,0,0,90.0*
21,1,1.13,0.70,0,0,90.0*
1,1,0.17,0.26,0.56*
1,1,0.17,0.26,-0.56*
1,1,0.17,-0.26,-0.56*
1,1,0.17,-0.26,0.56*
%
%ADD40ROUNDEDRECTD40*%
G04:AMPARAMS|DCode=41|XSize=0.6mm|YSize=0.5mm|CornerRadius=0.06mm|HoleSize=0mm|Usage=FLASHONLY|Rotation=180.000|XOffset=0mm|YOffset=0mm|HoleType=Round|Shape=RoundedRectangle|*
%AMROUNDEDRECTD41*
21,1,0.60,0.38,0,0,180.0*
21,1,0.47,0.50,0,0,180.0*
1,1,0.13,-0.24,0.19*
1,1,0.13,0.24,0.19*
1,1,0.13,0.24,-0.19*
1,1,0.13,-0.24,-0.19*
%
%ADD41ROUNDEDRECTD41*%
%ADD42R,1.80X1.50*%
%ADD43R,0.30X1.25*%
G04:AMPARAMS|DCode=44|XSize=1.3mm|YSize=0.9mm|CornerRadius=0.11mm|HoleSize=0mm|Usage=FLASHONLY|Rotation=0.000|XOffset=0mm|YOffset=0mm|HoleType=Round|Shape=RoundedRectangle|*
%AMROUNDEDRECTD44*
21,1,1.30,0.68,0,0,0.0*
21,1,1.07,0.90,0,0,0.0*
1,1,0.23,0.54,-0.34*
1,1,0.23,-0.54,-0.34*
1,1,0.23,-0.54,0.34*
1,1,0.23,0.54,0.34*
%
%ADD44ROUNDEDRECTD44*%
%ADD45O,0.30X1.80*%
%ADD46O,1.80X0.30*%
%ADD47R,5.30X5.30*%
G04:AMPARAMS|DCode=48|XSize=1.75mm|YSize=1.05mm|CornerRadius=0.13mm|HoleSize=0mm|Usage=FLASHONLY|Rotation=180.000|XOffset=0mm|YOffset=0mm|HoleType=Round|Shape=RoundedRectangle|*
%AMROUNDEDRECTD48*
21,1,1.75,0.79,0,0,180.0*
21,1,1.49,1.05,0,0,180.0*
1,1,0.26,-0.74,0.39*
1,1,0.26,0.74,0.39*
1,1,0.26,0.74,-0.39*
1,1,0.26,-0.74,-0.39*
%
%ADD48ROUNDEDRECTD48*%
G04:AMPARAMS|DCode=49|XSize=1.4mm|YSize=1.2mm|CornerRadius=0.3mm|HoleSize=0mm|Usage=FLASHONLY|Rotation=270.000|XOffset=0mm|YOffset=0mm|HoleType=Round|Shape=RoundedRectangle|*
%AMROUNDEDRECTD49*
21,1,1.40,0.60,0,0,270.0*
21,1,0.80,1.20,0,0,270.0*
1,1,0.60,-0.30,-0.40*
1,1,0.60,-0.30,0.40*
1,1,0.60,0.30,0.40*
1,1,0.60,0.30,-0.40*
%
%ADD49ROUNDEDRECTD49*%
G04:AMPARAMS|DCode=50|XSize=1.3mm|YSize=1mm|CornerRadius=0.13mm|HoleSize=0mm|Usage=FLASHONLY|Rotation=0.000|XOffset=0mm|YOffset=0mm|HoleType=Round|Shape=RoundedRectangle|*
%AMROUNDEDRECTD50*
21,1,1.30,0.75,0,0,0.0*
21,1,1.05,1.00,0,0,0.0*
1,1,0.25,0.53,-0.38*
1,1,0.25,-0.53,-0.38*
1,1,0.25,-0.53,0.38*
1,1,0.25,0.53,0.38*
%
%ADD50ROUNDEDRECTD50*%
%ADD51O,0.60X2.20*%
G04:AMPARAMS|DCode=52|XSize=1.3mm|YSize=0.7mm|CornerRadius=0.09mm|HoleSize=0mm|Usage=FLASHONLY|Rotation=0.000|XOffset=0mm|YOffset=0mm|HoleType=Round|Shape=RoundedRectangle|*
%AMROUNDEDRECTD52*
21,1,1.30,0.53,0,0,0.0*
21,1,1.13,0.70,0,0,0.0*
1,1,0.17,0.56,-0.26*
1,1,0.17,-0.56,-0.26*
1,1,0.17,-0.56,0.26*
1,1,0.17,0.56,0.26*
%
%ADD52ROUNDEDRECTD52*%
%ADD53C,0.50*%
%ADD54C,0.20*%
%ADD55C,0.25*%
%ADD56C,0.51*%
%ADD57C,0.30*%
%ADD58C,0.20*%
%ADD59C,0.30*%
%ADD60C,0.64*%
%ADD61C,1.50*%
%ADD62C,0.25*%
%ADD63C,0.40*%
%ADD64C,0.60*%
%ADD65C,0.80*%
%ADD66C,1.00*%
%ADD67C,1.50*%
%ADD68C,1.20*%
%ADD69C,3.00*%
%ADD70C,1.30*%
%ADD71R,1.30X1.30*%
%ADD72C,1.95*%
%ADD73R,1.50X1.50*%
%ADD74R,1.50X1.50*%
%ADD75R,1.65X1.65*%
%ADD76C,1.65*%
%ADD77C,2.50*%
%ADD78R,2.50X2.50*%
%ADD79C,1.52*%
%ADD80C,3.80*%
%ADD81R,1.52X1.52*%
%ADD82C,1.60*%
%ADD83R,1.60X1.60*%
%ADD84C,6.00*%
%ADD85C,0.60*%
%ADD86C,0.80*%
%ADD87C,0.66*%
G36*
X11350Y1125D02*
X11407Y1068D01*
Y990D01*
X11380Y962D01*
X11332D01*
X11215Y1080D01*
Y1343D01*
X11232Y1360D01*
X11350D01*
Y1125D01*
D02*
G37*
G36*
X10220Y870D02*
Y50D01*
X8408D01*
X8394Y64D01*
X8405Y1100D01*
X9026Y1100D01*
X9082Y1045D01*
X9076Y1032D01*
X9073Y1006D01*
X9076Y979D01*
X9087Y954D01*
X9103Y933D01*
X9124Y917D01*
X9149Y907D01*
X9175Y903D01*
X9201Y907D01*
X9226Y917D01*
X9247Y933D01*
X9263Y954D01*
X9274Y979D01*
X9277Y1006D01*
X9274Y1032D01*
X9263Y1057D01*
X9247Y1078D01*
X9244Y1080D01*
X9251Y1100D01*
X9349D01*
X9356Y1080D01*
X9353Y1078D01*
X9337Y1057D01*
X9326Y1032D01*
X9323Y1006D01*
X9326Y979D01*
X9337Y954D01*
X9353Y933D01*
X9374Y917D01*
X9399Y907D01*
X9425Y903D01*
X9451Y907D01*
X9476Y917D01*
X9497Y933D01*
X9513Y954D01*
X9524Y979D01*
X9527Y1006D01*
X9524Y1032D01*
X9513Y1057D01*
X9497Y1078D01*
X9494Y1080D01*
X9501Y1100D01*
X9790D01*
X9890Y1200D01*
X10220Y870D01*
D02*
G37*
G36*
X11335Y1418D02*
Y1389D01*
X11331Y1386D01*
X11219D01*
X11208Y1383D01*
X11198Y1377D01*
X11192Y1367D01*
X11189Y1356D01*
Y1352D01*
X11150Y1312D01*
X11150Y612D01*
X10938D01*
Y1123D01*
X10643Y1125D01*
Y1398D01*
X10670Y1425D01*
X10685D01*
X10690Y1421D01*
X10700Y1420D01*
X11203D01*
X11205Y1420D01*
X11208D01*
X11210Y1421D01*
X11213Y1421D01*
X11215Y1423D01*
X11217Y1424D01*
X11218Y1424D01*
X11221Y1425D01*
X11328D01*
X11335Y1418D01*
D02*
G37*
G36*
X10445Y2247D02*
Y2244D01*
X10444Y2242D01*
Y2138D01*
X10445Y2136D01*
Y2125D01*
X10446Y2115D01*
X10452Y2107D01*
X10460Y2101D01*
X10470Y2100D01*
X10481D01*
X10482Y2099D01*
X10557D01*
X10559Y2100D01*
X10855D01*
X10857Y2100D01*
X10868D01*
X10876Y2080D01*
X10837Y2040D01*
X10715D01*
X10705Y2039D01*
X10697Y2033D01*
X10696Y2033D01*
X10694D01*
X10638Y1976D01*
Y1965D01*
X10637Y1962D01*
Y1752D01*
X10639Y1743D01*
X10644Y1734D01*
X10680Y1699D01*
X10676Y1695D01*
X10675Y1685D01*
Y1624D01*
X10674Y1623D01*
Y1518D01*
X10675Y1516D01*
Y1450D01*
X10670D01*
X10660Y1449D01*
X10652Y1443D01*
X10624Y1416D01*
X10619Y1407D01*
X10617Y1398D01*
Y1125D01*
X10618Y1120D01*
X10619Y1115D01*
X10619Y1115D01*
X10619Y1115D01*
X10622Y1111D01*
X10622Y1110D01*
X10618Y1098D01*
X10617Y1095D01*
X10613Y1090D01*
X10559D01*
X10557Y1091D01*
X10482D01*
X10481Y1090D01*
X10470D01*
X10460Y1089D01*
X10452Y1083D01*
X10446Y1075D01*
X10445Y1065D01*
Y1054D01*
X10444Y1052D01*
Y948D01*
X10445Y946D01*
Y925D01*
X10280D01*
Y940D01*
X10200Y1020D01*
Y2265D01*
X10430D01*
X10445Y2247D01*
D02*
G37*
G36*
X10394Y484D02*
X10407Y473D01*
X10423Y467D01*
X10440Y464D01*
X10483D01*
X10606Y341D01*
X10620Y331D01*
X10636Y324D01*
X10636Y324D01*
X10638Y321D01*
X10651Y312D01*
X10666Y309D01*
X10814D01*
X10829Y312D01*
X10842Y321D01*
X10843Y322D01*
X10883D01*
X10894Y302D01*
X10892Y299D01*
X10889Y286D01*
Y234D01*
X10892Y221D01*
X10899Y209D01*
X10911Y202D01*
X10919Y200D01*
Y180D01*
X10911Y178D01*
X10899Y171D01*
X10892Y159D01*
X10890Y148D01*
X10853D01*
Y152D01*
X10850Y167D01*
X10842Y179D01*
X10829Y188D01*
X10814Y191D01*
X10666D01*
X10651Y188D01*
X10638Y179D01*
X10630Y167D01*
X10627Y152D01*
Y73D01*
X10627Y70D01*
X10613Y50D01*
X10280D01*
Y525D01*
X10353D01*
X10394Y484D01*
D02*
G37*
G36*
X10825Y615D02*
X10470D01*
Y1065D01*
X10825D01*
Y615D01*
D02*
G37*
G36*
X10445D02*
X10446Y605D01*
X10450Y600D01*
Y560D01*
X10440Y550D01*
X10250D01*
Y900D01*
X10445D01*
Y615D01*
D02*
G37*
G36*
X6598Y805D02*
X6610Y797D01*
X6623Y794D01*
X7290D01*
Y745D01*
X7270Y739D01*
X7270Y740D01*
X7251Y752D01*
X7230Y756D01*
X7209Y752D01*
X7190Y740D01*
X7178Y721D01*
X7174Y700D01*
X7178Y679D01*
X7186Y667D01*
X7185Y662D01*
X7183Y660D01*
X7162Y654D01*
X7151Y662D01*
X7130Y666D01*
X7109Y662D01*
X7098Y654D01*
X7077Y660D01*
X7075Y662D01*
X7074Y667D01*
X7082Y679D01*
X7086Y700D01*
X7082Y721D01*
X7070Y740D01*
X7051Y752D01*
X7030Y756D01*
X7009Y752D01*
X6990Y740D01*
X6978Y721D01*
X6974Y700D01*
X6978Y679D01*
X6986Y667D01*
X6985Y662D01*
X6983Y660D01*
X6962Y654D01*
X6951Y662D01*
X6930Y666D01*
X6909Y662D01*
X6898Y654D01*
X6877Y660D01*
X6875Y662D01*
X6874Y667D01*
X6882Y679D01*
X6886Y700D01*
X6882Y721D01*
X6870Y740D01*
X6851Y752D01*
X6830Y756D01*
X6809Y752D01*
X6790Y740D01*
X6778Y721D01*
X6774Y700D01*
X6778Y679D01*
X6786Y667D01*
X6785Y662D01*
X6783Y660D01*
X6762Y654D01*
X6751Y662D01*
X6730Y666D01*
X6709Y662D01*
X6698Y654D01*
X6677Y660D01*
X6675Y662D01*
X6674Y667D01*
X6682Y679D01*
X6686Y700D01*
X6682Y721D01*
X6670Y740D01*
X6651Y752D01*
X6630Y756D01*
X6609Y752D01*
X6590Y740D01*
X6578Y721D01*
X6574Y700D01*
X6578Y679D01*
X6586Y667D01*
X6585Y662D01*
X6583Y660D01*
X6562Y654D01*
X6551Y662D01*
X6530Y666D01*
X6509Y662D01*
X6498Y654D01*
X6477Y660D01*
X6475Y662D01*
X6474Y667D01*
X6482Y679D01*
X6486Y700D01*
X6482Y721D01*
X6470Y740D01*
X6451Y752D01*
X6430Y756D01*
X6409Y752D01*
X6390Y740D01*
X6378Y721D01*
X6374Y700D01*
X6378Y679D01*
X6386Y667D01*
X6385Y662D01*
X6383Y660D01*
X6362Y654D01*
X6351Y662D01*
X6330Y666D01*
X6309Y662D01*
X6304Y659D01*
X6280Y664D01*
X6277Y671D01*
X6282Y679D01*
X6286Y700D01*
X6282Y721D01*
X6270Y740D01*
X6251Y752D01*
X6230Y756D01*
X6209Y752D01*
X6190Y740D01*
X6178Y721D01*
X6174Y700D01*
X6178Y679D01*
X6183Y672D01*
X6168Y657D01*
X6161Y662D01*
X6140Y666D01*
X6119Y662D01*
X6100Y650D01*
X6088Y631D01*
X6088Y630D01*
X6071Y629D01*
X6067Y629D01*
X6060Y640D01*
X6045Y655D01*
X6042Y671D01*
X6030Y689D01*
X6090Y749D01*
X6136D01*
X6149Y752D01*
X6161Y759D01*
X6168Y771D01*
X6171Y784D01*
Y836D01*
X6168Y849D01*
X6168Y850D01*
X6178Y870D01*
X6533D01*
X6598Y805D01*
D02*
G37*
G36*
X1503Y727D02*
X1494Y708D01*
X1484Y709D01*
X1449Y705D01*
X1416Y695D01*
X1386Y679D01*
X1359Y657D01*
X1337Y631D01*
X1321Y600D01*
X1313Y573D01*
X1484D01*
Y533D01*
X1523D01*
Y362D01*
X1551Y371D01*
X1581Y387D01*
X1608Y409D01*
X1630Y435D01*
X1646Y466D01*
X1656Y499D01*
X1659Y533D01*
X1658Y543D01*
X1678Y552D01*
X1880Y350D01*
X3870D01*
X4200Y680D01*
X4431D01*
X4438Y660D01*
X4432Y655D01*
X4410Y628D01*
X4394Y598D01*
X4386Y571D01*
X4557D01*
Y531D01*
X4597D01*
Y360D01*
X4624Y368D01*
X4654Y384D01*
X4681Y406D01*
X4690Y417D01*
X4710Y410D01*
Y50D01*
X830D01*
Y880D01*
X840Y890D01*
X1340D01*
X1503Y727D01*
D02*
G37*
G36*
X11335Y1649D02*
X11331Y1646D01*
X11219D01*
X11208Y1643D01*
X11198Y1637D01*
X11192Y1627D01*
X11189Y1616D01*
Y1610D01*
X11169Y1593D01*
X11168Y1594D01*
X11146Y1589D01*
X11128Y1577D01*
X11116Y1559D01*
X11111Y1538D01*
X11116Y1516D01*
X11128Y1498D01*
X11146Y1486D01*
X11168Y1481D01*
X11189Y1486D01*
X11205Y1497D01*
X11208D01*
X11208Y1497D01*
X11219Y1494D01*
X11331D01*
X11335Y1491D01*
Y1455D01*
X11331Y1451D01*
X11219D01*
X11208Y1448D01*
X11203Y1445D01*
X10700D01*
Y1685D01*
X11335D01*
Y1649D01*
D02*
G37*
G36*
X11350Y2900D02*
X11348Y2895D01*
X11270D01*
X11260Y2894D01*
X11252Y2888D01*
X11246Y2880D01*
X11245Y2870D01*
Y2630D01*
X11246Y2620D01*
X11252Y2612D01*
X11260Y2606D01*
X11270Y2605D01*
X11284D01*
Y2545D01*
X11280Y2539D01*
X11277Y2520D01*
Y2475D01*
X11280Y2456D01*
X11291Y2441D01*
X11306Y2430D01*
X11325Y2427D01*
X11375D01*
X11394Y2430D01*
X11409Y2441D01*
X11420Y2456D01*
X11423Y2475D01*
Y2520D01*
X11420Y2539D01*
X11416Y2545D01*
Y2605D01*
X11630D01*
X11640Y2606D01*
X11648Y2612D01*
X11654Y2620D01*
X11655Y2630D01*
Y2850D01*
X12700D01*
Y52D01*
X12698Y50D01*
X11538D01*
X11532Y66D01*
X11531Y70D01*
X11538Y81D01*
X11541Y94D01*
Y146D01*
X11538Y159D01*
X11531Y171D01*
X11519Y178D01*
X11511Y180D01*
Y200D01*
X11519Y202D01*
X11531Y209D01*
X11538Y221D01*
X11541Y234D01*
Y286D01*
X11538Y299D01*
X11531Y311D01*
X11519Y318D01*
X11506Y321D01*
X11434D01*
X11421Y318D01*
X11409Y311D01*
X11397Y308D01*
X11391Y312D01*
X11370Y316D01*
X11362Y314D01*
X11350Y332D01*
X11350Y333D01*
X11353Y348D01*
Y427D01*
X11350Y442D01*
X11342Y454D01*
X11329Y463D01*
X11314Y466D01*
X11249D01*
X11245Y473D01*
X11244Y486D01*
X11254Y494D01*
X11382Y622D01*
X11385D01*
X11404Y625D01*
X11406Y627D01*
X11662D01*
X11679Y629D01*
X11695Y636D01*
X11709Y646D01*
X11896Y834D01*
X11907Y847D01*
X11913Y863D01*
X11916Y880D01*
Y987D01*
X11918Y991D01*
X11921Y1004D01*
Y1056D01*
X11918Y1069D01*
X11911Y1081D01*
X11899Y1088D01*
X11891Y1090D01*
Y1110D01*
X11899Y1112D01*
X11911Y1119D01*
X11929D01*
X11941Y1112D01*
X11954Y1109D01*
X12026D01*
X12039Y1112D01*
X12051Y1119D01*
X12058Y1131D01*
X12061Y1144D01*
Y1196D01*
X12058Y1209D01*
X12051Y1221D01*
X12039Y1228D01*
X12026Y1231D01*
X11954D01*
X11941Y1228D01*
X11929Y1221D01*
X11911D01*
X11899Y1228D01*
X11886Y1231D01*
X11886D01*
Y1299D01*
X11901D01*
X11912Y1302D01*
X11922Y1308D01*
X11928Y1318D01*
X11931Y1329D01*
Y1355D01*
X11933Y1357D01*
X11950Y1363D01*
X12061Y1251D01*
X12074Y1242D01*
X12090Y1239D01*
X12090Y1239D01*
X12110D01*
X12112Y1231D01*
X12120Y1220D01*
X12122Y1218D01*
X12122Y1208D01*
X12119Y1196D01*
X12110Y1190D01*
X12102Y1179D01*
X12099Y1165D01*
Y1105D01*
X12102Y1091D01*
X12110Y1080D01*
X12121Y1072D01*
X12135Y1069D01*
X12205D01*
X12219Y1072D01*
X12230Y1080D01*
X12238Y1091D01*
X12240Y1102D01*
X12259Y1104D01*
X12262Y1091D01*
X12269Y1079D01*
X12281Y1072D01*
X12294Y1069D01*
X12366D01*
X12375Y1071D01*
X12389Y1063D01*
X12394Y1058D01*
Y930D01*
X12397Y916D01*
X12405Y905D01*
X12416Y897D01*
X12430Y894D01*
X12570D01*
X12584Y897D01*
X12595Y905D01*
X12603Y916D01*
X12606Y930D01*
Y1070D01*
X12603Y1084D01*
X12595Y1095D01*
X12584Y1103D01*
X12570Y1106D01*
X12430D01*
X12421Y1104D01*
X12406Y1112D01*
X12401Y1117D01*
Y1156D01*
X12398Y1169D01*
X12391Y1181D01*
X12379Y1188D01*
X12366Y1191D01*
X12366D01*
Y1211D01*
X12369Y1212D01*
X12380Y1220D01*
X12388Y1231D01*
X12391Y1245D01*
Y1315D01*
X12388Y1329D01*
X12384Y1334D01*
X12393Y1353D01*
X12393Y1354D01*
X12410D01*
X12431Y1358D01*
X12450Y1370D01*
X12462Y1389D01*
X12466Y1410D01*
X12462Y1431D01*
X12450Y1450D01*
X12431Y1462D01*
X12410Y1466D01*
X12374D01*
X12371Y1471D01*
X12359Y1478D01*
X12346Y1481D01*
X12294D01*
X12281Y1478D01*
X12269Y1471D01*
X12262Y1459D01*
X12260Y1451D01*
X12240D01*
X12238Y1459D01*
X12231Y1471D01*
X12237Y1490D01*
X12238Y1491D01*
X12241Y1505D01*
Y1575D01*
X12238Y1589D01*
X12230Y1600D01*
Y1610D01*
X12238Y1621D01*
X12241Y1635D01*
Y1705D01*
X12238Y1719D01*
X12237Y1720D01*
X12231Y1739D01*
X12238Y1751D01*
X12240Y1759D01*
X12260D01*
X12262Y1751D01*
X12269Y1739D01*
X12281Y1732D01*
X12294Y1729D01*
X12346D01*
X12359Y1732D01*
X12371Y1739D01*
X12374Y1744D01*
X12410D01*
X12431Y1748D01*
X12450Y1760D01*
X12462Y1779D01*
X12466Y1800D01*
X12462Y1821D01*
X12450Y1840D01*
X12431Y1852D01*
X12410Y1856D01*
X12393D01*
X12393Y1857D01*
X12384Y1876D01*
X12388Y1881D01*
X12391Y1895D01*
Y1965D01*
X12388Y1979D01*
X12380Y1990D01*
X12369Y1998D01*
X12366Y1999D01*
Y2031D01*
X12369Y2032D01*
X12381Y2039D01*
X12388Y2051D01*
X12391Y2064D01*
Y2116D01*
X12388Y2129D01*
X12381Y2141D01*
X12369Y2148D01*
X12356Y2151D01*
X12284D01*
X12271Y2148D01*
X12259Y2141D01*
X12255Y2140D01*
X12237Y2143D01*
X12229Y2148D01*
X12215Y2151D01*
X12145D01*
X12131Y2148D01*
X12120Y2140D01*
X12112Y2129D01*
X12109Y2115D01*
Y2055D01*
X12112Y2041D01*
X12120Y2030D01*
X12131Y2022D01*
X12134Y2021D01*
Y1999D01*
X12131Y1998D01*
X12120Y1990D01*
X12112Y1979D01*
X12109Y1965D01*
Y1937D01*
X12081Y1908D01*
X12061Y1917D01*
Y1946D01*
X12058Y1959D01*
X12051Y1971D01*
X12039Y1978D01*
X12031Y1980D01*
Y2000D01*
X12039Y2002D01*
X12051Y2009D01*
X12058Y2021D01*
X12061Y2034D01*
Y2086D01*
X12058Y2099D01*
X12051Y2111D01*
X12046Y2114D01*
Y2150D01*
X12042Y2171D01*
X12030Y2190D01*
X12011Y2202D01*
X11990Y2206D01*
X11969Y2202D01*
X11950Y2190D01*
X11938Y2171D01*
X11934Y2150D01*
Y2114D01*
X11929Y2111D01*
X11922Y2099D01*
X11919Y2086D01*
Y2034D01*
X11922Y2021D01*
X11929Y2009D01*
X11941Y2002D01*
X11949Y2000D01*
Y1980D01*
X11941Y1978D01*
X11929Y1971D01*
X11911D01*
X11899Y1978D01*
X11886Y1981D01*
X11814D01*
X11801Y1978D01*
X11789Y1971D01*
X11782Y1959D01*
X11779Y1946D01*
Y1894D01*
X11782Y1881D01*
X11789Y1869D01*
X11801Y1862D01*
X11804Y1861D01*
Y1841D01*
X11789D01*
X11778Y1838D01*
X11768Y1832D01*
X11762Y1822D01*
X11759Y1811D01*
Y1784D01*
X11762Y1773D01*
X11767Y1765D01*
X11762Y1757D01*
X11759Y1746D01*
Y1719D01*
X11762Y1708D01*
X11767Y1700D01*
X11762Y1692D01*
X11759Y1681D01*
Y1654D01*
X11762Y1643D01*
X11767Y1635D01*
X11762Y1627D01*
X11759Y1616D01*
Y1589D01*
X11762Y1578D01*
X11767Y1570D01*
X11762Y1562D01*
X11759Y1551D01*
Y1524D01*
X11762Y1513D01*
X11767Y1505D01*
X11762Y1497D01*
X11759Y1486D01*
Y1459D01*
X11762Y1448D01*
X11767Y1440D01*
X11762Y1432D01*
X11759Y1421D01*
Y1394D01*
X11762Y1383D01*
X11767Y1375D01*
X11762Y1367D01*
X11759Y1356D01*
Y1329D01*
X11762Y1318D01*
X11768Y1308D01*
X11778Y1302D01*
X11789Y1299D01*
X11804D01*
Y1229D01*
X11801Y1228D01*
X11789Y1221D01*
X11782Y1209D01*
X11779Y1196D01*
Y1144D01*
X11782Y1131D01*
X11789Y1119D01*
X11801Y1112D01*
X11809Y1110D01*
Y1090D01*
X11801Y1088D01*
X11789Y1081D01*
X11782Y1069D01*
X11779Y1056D01*
Y1004D01*
X11782Y991D01*
X11784Y987D01*
Y907D01*
X11635Y758D01*
X11406D01*
X11404Y760D01*
X11385Y763D01*
X11335D01*
X11316Y760D01*
X11301Y749D01*
X11290Y734D01*
X11287Y715D01*
Y712D01*
X11195Y621D01*
X11175Y629D01*
X11175Y1058D01*
X11195Y1064D01*
X11197Y1062D01*
X11290Y969D01*
X11290Y966D01*
X11301Y951D01*
X11316Y940D01*
X11323Y939D01*
X11323Y939D01*
X11332Y937D01*
X11333D01*
X11335Y937D01*
X11385D01*
X11404Y940D01*
X11419Y951D01*
X11430Y966D01*
X11433Y985D01*
Y1030D01*
X11433Y1032D01*
Y1068D01*
X11431Y1077D01*
X11426Y1086D01*
X11375Y1136D01*
Y1360D01*
X11374Y1370D01*
X11368Y1378D01*
X11360Y1384D01*
X11360Y1385D01*
X11360Y1387D01*
X11360Y1388D01*
X11360Y1389D01*
Y1393D01*
X11361Y1394D01*
Y1421D01*
X11358Y1432D01*
X11354Y1438D01*
X11359Y1445D01*
X11360Y1455D01*
Y1459D01*
X11361Y1459D01*
Y1486D01*
X11360Y1486D01*
Y1491D01*
X11360Y1492D01*
X11360Y1493D01*
X11359Y1497D01*
X11359Y1501D01*
X11358Y1502D01*
X11357Y1503D01*
X11355Y1506D01*
X11354Y1507D01*
X11358Y1513D01*
X11361Y1524D01*
Y1551D01*
X11358Y1562D01*
X11352Y1572D01*
X11342Y1578D01*
X11331Y1581D01*
X11224D01*
X11219Y1585D01*
X11215Y1593D01*
X11213Y1600D01*
X11213Y1600D01*
X11214Y1604D01*
X11215Y1607D01*
X11229Y1620D01*
X11331D01*
X11334Y1621D01*
X11338Y1621D01*
X11339Y1622D01*
X11340Y1622D01*
X11343Y1624D01*
X11347Y1626D01*
X11351Y1629D01*
X11352Y1630D01*
X11353Y1631D01*
X11355Y1634D01*
X11357Y1637D01*
X11358Y1638D01*
X11359Y1639D01*
X11359Y1643D01*
X11360Y1647D01*
X11360Y1648D01*
X11360Y1649D01*
Y1654D01*
X11361Y1654D01*
Y1681D01*
X11360Y1681D01*
Y1685D01*
X11359Y1695D01*
X11354Y1702D01*
X11358Y1708D01*
X11361Y1719D01*
Y1746D01*
X11360Y1747D01*
Y1751D01*
X11360Y1752D01*
X11360Y1753D01*
X11360Y1755D01*
X11360Y1756D01*
X11368Y1762D01*
X11374Y1770D01*
X11375Y1780D01*
Y1874D01*
X11416Y1914D01*
X11421Y1923D01*
X11423Y1933D01*
Y2158D01*
X11423Y2160D01*
Y2205D01*
X11420Y2224D01*
X11409Y2239D01*
X11394Y2250D01*
X11375Y2253D01*
X11325D01*
X11323Y2253D01*
X11265D01*
X11255Y2251D01*
X11247Y2246D01*
X11224Y2223D01*
X11205Y2230D01*
Y2533D01*
X11205Y2535D01*
Y2600D01*
X11140D01*
X11138Y2600D01*
X10957D01*
X10948Y2599D01*
X10939Y2593D01*
X10934Y2585D01*
X10932Y2575D01*
Y2136D01*
X10900Y2104D01*
X10880Y2112D01*
Y2123D01*
X10880Y2125D01*
Y2575D01*
X10880Y2577D01*
Y2600D01*
X10857D01*
X10855Y2600D01*
X10470D01*
X10460Y2599D01*
X10452Y2593D01*
X10446Y2585D01*
X10445Y2575D01*
Y2563D01*
X10430Y2545D01*
X10382D01*
X10374Y2564D01*
X10453Y2643D01*
X10462Y2642D01*
X10470Y2636D01*
X10480Y2635D01*
X11130D01*
X11140Y2636D01*
X11148Y2642D01*
X11154Y2650D01*
X11155Y2660D01*
Y2870D01*
X11154Y2880D01*
X11148Y2888D01*
X11140Y2894D01*
X11130Y2895D01*
X10925D01*
Y3080D01*
X10924Y3090D01*
X10918Y3098D01*
X10910Y3104D01*
X10900Y3105D01*
X10661D01*
Y3126D01*
X10658Y3137D01*
X10652Y3147D01*
X10642Y3153D01*
X10631Y3156D01*
X10589D01*
X10575Y3158D01*
X10510D01*
Y3450D01*
X11350D01*
Y2900D01*
D02*
G37*
G36*
X11630Y2630D02*
X11270D01*
Y2870D01*
X11630D01*
Y2630D01*
D02*
G37*
G36*
X5489Y856D02*
Y822D01*
X5489Y820D01*
X5489Y818D01*
Y784D01*
X5492Y771D01*
X5499Y759D01*
X5511Y752D01*
X5524Y749D01*
X5576D01*
X5589Y752D01*
X5601Y759D01*
X5607Y769D01*
X5650D01*
X5661Y762D01*
X5669Y760D01*
Y720D01*
X5669Y720D01*
X5672Y704D01*
X5681Y691D01*
X5766Y606D01*
X5759Y588D01*
X5740D01*
Y412D01*
X5768D01*
X5779Y392D01*
X5778Y391D01*
X5774Y370D01*
X5778Y349D01*
X5790Y330D01*
X5809Y318D01*
X5830Y314D01*
X5851Y318D01*
X5870Y330D01*
X5870Y331D01*
X5890D01*
X5890Y330D01*
X5909Y318D01*
X5930Y314D01*
X5951Y318D01*
X5970Y330D01*
X5982Y349D01*
X5986Y370D01*
X5982Y391D01*
X5981Y392D01*
X5992Y412D01*
X6070D01*
Y487D01*
X6090Y478D01*
Y412D01*
X6118D01*
X6129Y392D01*
X6128Y391D01*
X6124Y370D01*
X6128Y349D01*
X6140Y330D01*
X6159Y318D01*
X6180Y314D01*
X6201Y318D01*
X6217Y329D01*
X6225Y331D01*
X6235D01*
X6243Y329D01*
X6259Y318D01*
X6280Y314D01*
X6301Y318D01*
X6317Y329D01*
X6325Y331D01*
X6335D01*
X6343Y329D01*
X6359Y318D01*
X6380Y314D01*
X6401Y318D01*
X6417Y329D01*
X6425Y331D01*
X6435D01*
X6443Y329D01*
X6459Y318D01*
X6480Y314D01*
X6501Y318D01*
X6517Y329D01*
X6525Y331D01*
X6535D01*
X6543Y329D01*
X6559Y318D01*
X6580Y314D01*
X6601Y318D01*
X6620Y330D01*
X6620Y331D01*
X6640D01*
X6640Y330D01*
X6659Y318D01*
X6680Y314D01*
X6701Y318D01*
X6720Y330D01*
X6720Y331D01*
X6740D01*
X6740Y330D01*
X6759Y318D01*
X6780Y314D01*
X6801Y318D01*
X6820Y330D01*
X6820Y331D01*
X6840D01*
X6840Y330D01*
X6859Y318D01*
X6880Y314D01*
X6901Y318D01*
X6920Y330D01*
X6920Y331D01*
X6940D01*
X6940Y330D01*
X6959Y318D01*
X6980Y314D01*
X7001Y318D01*
X7020Y330D01*
X7020Y331D01*
X7040D01*
X7040Y330D01*
X7059Y318D01*
X7080Y314D01*
X7101Y318D01*
X7120Y330D01*
X7120Y331D01*
X7140D01*
X7140Y330D01*
X7159Y318D01*
X7180Y314D01*
X7201Y318D01*
X7220Y330D01*
X7220Y331D01*
X7240D01*
X7240Y330D01*
X7259Y318D01*
X7280Y314D01*
X7301Y318D01*
X7320Y330D01*
X7332Y349D01*
X7336Y370D01*
X7332Y391D01*
X7331Y392D01*
X7342Y412D01*
X7370D01*
Y476D01*
X7372Y478D01*
X7390Y469D01*
Y412D01*
X7520D01*
Y580D01*
X7520Y588D01*
X7535Y600D01*
X7870D01*
Y50D01*
X5050D01*
Y870D01*
X5472D01*
X5489Y856D01*
D02*
G37*
G36*
X10900Y2870D02*
X11130D01*
Y2660D01*
X10480D01*
Y2840D01*
X10670D01*
Y3000D01*
X10640Y3030D01*
X10550D01*
Y3060D01*
X10632D01*
X10646Y3075D01*
X10652Y3078D01*
X10653Y3080D01*
X10900D01*
Y2870D01*
D02*
G37*
G36*
X11397Y2202D02*
Y1933D01*
X11350Y1885D01*
Y1780D01*
X11222D01*
X11215Y1788D01*
Y2177D01*
X11265Y2227D01*
X11372D01*
X11397Y2202D01*
D02*
G37*
G36*
X10855Y2125D02*
X10470D01*
Y2575D01*
X10855D01*
Y2125D01*
D02*
G37*
G36*
X11180Y2533D02*
Y2018D01*
X11179Y2015D01*
Y1945D01*
X11180Y1942D01*
Y1795D01*
X11189Y1786D01*
Y1784D01*
X11192Y1773D01*
X11198Y1763D01*
X11208Y1757D01*
X11219Y1754D01*
X11331D01*
X11335Y1751D01*
Y1727D01*
X11322Y1715D01*
X10700D01*
X10662Y1752D01*
Y1962D01*
X10715Y2015D01*
X10847D01*
X10957Y2125D01*
Y2575D01*
X11138D01*
X11180Y2533D01*
D02*
G37*
G36*
X10430Y2290D02*
X10120D01*
Y2473D01*
X10167Y2520D01*
X10430D01*
Y2290D01*
D02*
G37*
%LPC*%
G36*
X8658Y695D02*
X8486D01*
X8486Y692D01*
X8498Y652D01*
X8518Y614D01*
X8545Y582D01*
X8578Y555D01*
X8615Y535D01*
X8656Y523D01*
X8658Y522D01*
Y695D01*
D02*
G37*
G36*
X9942Y947D02*
Y774D01*
X10114D01*
X10114Y777D01*
X10102Y817D01*
X10082Y855D01*
X10055Y887D01*
X10022Y914D01*
X9985Y934D01*
X9944Y946D01*
X9942Y947D01*
D02*
G37*
G36*
X9862D02*
X9860Y946D01*
X9819Y934D01*
X9782Y914D01*
X9749Y887D01*
X9722Y855D01*
X9702Y817D01*
X9690Y777D01*
X9690Y774D01*
X9862D01*
Y947D01*
D02*
G37*
G36*
X8738D02*
Y774D01*
X8910D01*
X8910Y777D01*
X8898Y817D01*
X8878Y855D01*
X8851Y887D01*
X8818Y914D01*
X8781Y934D01*
X8740Y946D01*
X8738Y947D01*
D02*
G37*
G36*
X9862Y695D02*
X9690D01*
X9690Y692D01*
X9702Y652D01*
X9722Y614D01*
X9749Y582D01*
X9782Y555D01*
X9819Y535D01*
X9860Y523D01*
X9862Y522D01*
Y695D01*
D02*
G37*
G36*
X8910D02*
X8738D01*
Y522D01*
X8740Y523D01*
X8781Y535D01*
X8818Y555D01*
X8851Y582D01*
X8878Y614D01*
X8898Y652D01*
X8910Y692D01*
X8910Y695D01*
D02*
G37*
G36*
X8658Y947D02*
X8656Y946D01*
X8615Y934D01*
X8578Y914D01*
X8545Y887D01*
X8518Y855D01*
X8498Y817D01*
X8486Y777D01*
X8486Y774D01*
X8658D01*
Y947D01*
D02*
G37*
G36*
X10114Y695D02*
X9942D01*
Y522D01*
X9944Y523D01*
X9985Y535D01*
X10022Y555D01*
X10055Y582D01*
X10082Y614D01*
X10102Y652D01*
X10114Y692D01*
X10114Y695D01*
D02*
G37*
G36*
X1444Y493D02*
X1313D01*
X1321Y466D01*
X1337Y435D01*
X1359Y409D01*
X1386Y387D01*
X1416Y371D01*
X1444Y362D01*
Y493D01*
D02*
G37*
G36*
X3972Y326D02*
X3940Y322D01*
X3909Y309D01*
X3883Y289D01*
X3863Y263D01*
X3851Y233D01*
X3846Y200D01*
X3851Y167D01*
X3863Y137D01*
X3883Y111D01*
X3909Y91D01*
X3940Y78D01*
X3972Y74D01*
X4005Y78D01*
X4036Y91D01*
X4062Y111D01*
X4082Y137D01*
X4094Y167D01*
X4099Y200D01*
X4094Y233D01*
X4082Y263D01*
X4062Y289D01*
X4036Y309D01*
X4005Y322D01*
X3972Y326D01*
D02*
G37*
G36*
X2067D02*
X2035Y322D01*
X2004Y309D01*
X1978Y289D01*
X1958Y263D01*
X1946Y233D01*
X1941Y200D01*
X1946Y167D01*
X1958Y137D01*
X1978Y111D01*
X2004Y91D01*
X2035Y78D01*
X2067Y74D01*
X2100Y78D01*
X2131Y91D01*
X2157Y111D01*
X2177Y137D01*
X2189Y167D01*
X2194Y200D01*
X2189Y233D01*
X2177Y263D01*
X2157Y289D01*
X2131Y309D01*
X2100Y322D01*
X2067Y326D01*
D02*
G37*
G36*
X4517Y491D02*
X4386D01*
X4394Y463D01*
X4410Y433D01*
X4432Y406D01*
X4459Y384D01*
X4489Y368D01*
X4517Y360D01*
Y491D01*
D02*
G37*
G36*
X12250Y826D02*
X12199Y822D01*
X12149Y810D01*
X12102Y790D01*
X12058Y764D01*
X12019Y731D01*
X11986Y692D01*
X11960Y648D01*
X11940Y601D01*
X11928Y551D01*
X11924Y500D01*
X11928Y449D01*
X11940Y399D01*
X11960Y352D01*
X11986Y308D01*
X12019Y269D01*
X12058Y236D01*
X12102Y210D01*
X12149Y190D01*
X12199Y178D01*
X12250Y174D01*
X12301Y178D01*
X12351Y190D01*
X12398Y210D01*
X12442Y236D01*
X12481Y269D01*
X12514Y308D01*
X12540Y352D01*
X12560Y399D01*
X12572Y449D01*
X12576Y500D01*
X12572Y551D01*
X12560Y601D01*
X12540Y648D01*
X12514Y692D01*
X12481Y731D01*
X12442Y764D01*
X12398Y790D01*
X12351Y810D01*
X12301Y822D01*
X12250Y826D01*
D02*
G37*
G36*
X11056Y3421D02*
X11004D01*
X10991Y3418D01*
X10979Y3411D01*
X10972Y3399D01*
X10969Y3386D01*
Y3314D01*
X10972Y3301D01*
X10979Y3289D01*
X10991Y3282D01*
X11004Y3279D01*
X11056D01*
X11069Y3282D01*
X11081Y3289D01*
X11082Y3292D01*
X11086Y3293D01*
X11104Y3283D01*
Y3221D01*
X11089D01*
X11078Y3218D01*
X11068Y3212D01*
X11062Y3202D01*
X11059Y3191D01*
Y3164D01*
X11062Y3153D01*
X11068Y3143D01*
X11078Y3137D01*
X11089Y3134D01*
X11201D01*
X11212Y3137D01*
X11222Y3143D01*
X11228Y3153D01*
X11231Y3164D01*
Y3191D01*
X11228Y3202D01*
X11222Y3212D01*
X11212Y3218D01*
X11201Y3221D01*
X11186D01*
Y3315D01*
X11186Y3315D01*
X11183Y3331D01*
X11174Y3344D01*
X11174Y3344D01*
X11139Y3379D01*
X11126Y3388D01*
X11110Y3391D01*
X11110Y3391D01*
X11090D01*
X11088Y3399D01*
X11081Y3411D01*
X11069Y3418D01*
X11056Y3421D01*
D02*
G37*
G36*
X11201Y3026D02*
X11089D01*
X11078Y3023D01*
X11068Y3017D01*
X11062Y3007D01*
X11059Y2996D01*
Y2969D01*
X11062Y2958D01*
X11068Y2948D01*
X11078Y2942D01*
X11089Y2939D01*
X11201D01*
X11212Y2942D01*
X11222Y2948D01*
X11228Y2958D01*
X11231Y2969D01*
Y2996D01*
X11228Y3007D01*
X11222Y3017D01*
X11212Y3023D01*
X11201Y3026D01*
D02*
G37*
G36*
X5720Y588D02*
X5490D01*
Y412D01*
X5720D01*
Y588D01*
D02*
G37*
%LPD*%
D10*
X7300Y4120D02*
D03*
X11490Y5170D02*
D03*
X4690Y3980D02*
D03*
D11*
X9125Y2410D02*
D03*
X8975Y2410D02*
D03*
X10365Y2910D02*
D03*
X10215D02*
D03*
X11095Y1980D02*
D03*
X11245D02*
D03*
X11255Y1190D02*
D03*
X11105D02*
D03*
X10225Y3160D02*
D03*
X10375D02*
D03*
X1475Y2150D02*
D03*
X1625D02*
D03*
X12175Y1540D02*
D03*
X12325D02*
D03*
Y1280D02*
D03*
X12175D02*
D03*
Y1670D02*
D03*
X12325D02*
D03*
X12175Y1930D02*
D03*
X12325D02*
D03*
X10175Y420D02*
D03*
X10325D02*
D03*
X9125Y3930D02*
D03*
X8975D02*
D03*
X8030Y4975D02*
D03*
X8180D02*
D03*
D12*
X480Y4790D02*
D03*
X380D02*
D03*
X8030Y1630D02*
D03*
X8130D02*
D03*
X7360Y660D02*
D03*
X7460D02*
D03*
X2250Y2220D02*
D03*
X2150D02*
D03*
X5100Y1260D02*
D03*
X5200D02*
D03*
D13*
X1923Y5435D02*
D03*
X1858Y5435D02*
D03*
X1792Y5435D02*
D03*
X1727Y5435D02*
D03*
X1598D02*
D03*
X1662D02*
D03*
X1532D02*
D03*
X1858Y4865D02*
D03*
X1923Y4865D02*
D03*
X1792D02*
D03*
X1598Y4865D02*
D03*
X1532D02*
D03*
X1727D02*
D03*
X1662D02*
D03*
X1468Y5435D02*
D03*
X1338D02*
D03*
X1402Y5435D02*
D03*
Y4865D02*
D03*
X1468Y4865D02*
D03*
X1338D02*
D03*
X3672Y5435D02*
D03*
X3608Y5435D02*
D03*
X3542Y5435D02*
D03*
X3478Y5435D02*
D03*
X3347D02*
D03*
X3412D02*
D03*
X3283D02*
D03*
X3608Y4865D02*
D03*
X3672Y4865D02*
D03*
X3542D02*
D03*
X3347Y4865D02*
D03*
X3283D02*
D03*
X3478D02*
D03*
X3412D02*
D03*
X3217Y5435D02*
D03*
X3088D02*
D03*
X3152Y5435D02*
D03*
Y4865D02*
D03*
X3217Y4865D02*
D03*
X3088D02*
D03*
X2792Y5435D02*
D03*
X2727Y5435D02*
D03*
X2662Y5435D02*
D03*
X2598Y5435D02*
D03*
X2467D02*
D03*
X2533D02*
D03*
X2402D02*
D03*
X2727Y4865D02*
D03*
X2792Y4865D02*
D03*
X2662D02*
D03*
X2467Y4865D02*
D03*
X2402D02*
D03*
X2598D02*
D03*
X2533D02*
D03*
X2338Y5435D02*
D03*
X2208D02*
D03*
X2273Y5435D02*
D03*
Y4865D02*
D03*
X2338Y4865D02*
D03*
X2208D02*
D03*
X9243Y5435D02*
D03*
X9307D02*
D03*
X9178D02*
D03*
X9372D02*
D03*
X9047D02*
D03*
X9112D02*
D03*
X8982D02*
D03*
X9372Y4865D02*
D03*
X9307D02*
D03*
X9243D02*
D03*
X9047D02*
D03*
X8982D02*
D03*
X9178D02*
D03*
X9112D02*
D03*
X8918Y5435D02*
D03*
X8788D02*
D03*
X8853D02*
D03*
Y4865D02*
D03*
X8918D02*
D03*
X8788D02*
D03*
X10992Y5435D02*
D03*
X11057D02*
D03*
X10927D02*
D03*
X11122D02*
D03*
X10797D02*
D03*
X10862D02*
D03*
X10732D02*
D03*
X11122Y4865D02*
D03*
X11057D02*
D03*
X10992D02*
D03*
X10797D02*
D03*
X10732D02*
D03*
X10927D02*
D03*
X10862D02*
D03*
X10667Y5435D02*
D03*
X10537D02*
D03*
X10602D02*
D03*
Y4865D02*
D03*
X10667D02*
D03*
X10537D02*
D03*
X10112Y5435D02*
D03*
X10178D02*
D03*
X10047D02*
D03*
X10243D02*
D03*
X9918D02*
D03*
X9982D02*
D03*
X9853D02*
D03*
X10243Y4865D02*
D03*
X10178D02*
D03*
X10112D02*
D03*
X9918D02*
D03*
X9853D02*
D03*
X10047D02*
D03*
X9982D02*
D03*
X9788Y5435D02*
D03*
X9657D02*
D03*
X9722D02*
D03*
Y4865D02*
D03*
X9788D02*
D03*
X9657D02*
D03*
X5672Y5435D02*
D03*
X5608Y5435D02*
D03*
X5542Y5435D02*
D03*
X5478Y5435D02*
D03*
X5412D02*
D03*
X5347D02*
D03*
X5283D02*
D03*
X5217Y5435D02*
D03*
X5153Y5435D02*
D03*
X5088Y5435D02*
D03*
X5672Y4865D02*
D03*
X5608Y4865D02*
D03*
X5542Y4865D02*
D03*
X5478Y4865D02*
D03*
X5412D02*
D03*
X5347D02*
D03*
X5283D02*
D03*
X5217Y4865D02*
D03*
X5153Y4865D02*
D03*
X5088Y4865D02*
D03*
X6543Y5435D02*
D03*
X6478Y5435D02*
D03*
X6412Y5435D02*
D03*
X6347Y5435D02*
D03*
X6283D02*
D03*
X6217D02*
D03*
X6153D02*
D03*
X6088Y5435D02*
D03*
X6022Y5435D02*
D03*
X5958Y5435D02*
D03*
X6543Y4865D02*
D03*
X6478Y4865D02*
D03*
X6412Y4865D02*
D03*
X6347Y4865D02*
D03*
X6283D02*
D03*
X6217D02*
D03*
X6153D02*
D03*
X6088Y4865D02*
D03*
X6022Y4865D02*
D03*
X5958Y4865D02*
D03*
X7422Y5435D02*
D03*
X7357Y5435D02*
D03*
X7292Y5435D02*
D03*
X7227Y5435D02*
D03*
X7162D02*
D03*
X7097D02*
D03*
X7032D02*
D03*
X6967Y5435D02*
D03*
X6902Y5435D02*
D03*
X6837Y5435D02*
D03*
X7422Y4865D02*
D03*
X7357Y4865D02*
D03*
X7292Y4865D02*
D03*
X7227Y4865D02*
D03*
X7162D02*
D03*
X7097D02*
D03*
X7032D02*
D03*
X6967Y4865D02*
D03*
X6902Y4865D02*
D03*
X6837Y4865D02*
D03*
D14*
X10721Y4439D02*
D03*
X10594D02*
D03*
X10721Y3741D02*
D03*
X10593D02*
D03*
X10467Y4439D02*
D03*
X10339D02*
D03*
X10467Y3741D02*
D03*
X10339D02*
D03*
D15*
X6100Y810D02*
D03*
Y950D02*
D03*
X1290Y2530D02*
D03*
Y2390D02*
D03*
X4020Y1880D02*
D03*
Y2020D02*
D03*
X7720Y4630D02*
D03*
Y4770D02*
D03*
Y4880D02*
D03*
Y5020D02*
D03*
X12320Y2090D02*
D03*
Y2230D02*
D03*
X11990Y1170D02*
D03*
Y1030D02*
D03*
X11850D02*
D03*
Y1170D02*
D03*
X12330Y1130D02*
D03*
Y990D02*
D03*
X11850Y1920D02*
D03*
Y2060D02*
D03*
X11990D02*
D03*
Y1920D02*
D03*
X11470Y120D02*
D03*
Y260D02*
D03*
X10960Y120D02*
D03*
Y260D02*
D03*
X8200Y730D02*
D03*
Y590D02*
D03*
X7700Y760D02*
D03*
Y900D02*
D03*
X7560Y760D02*
D03*
Y900D02*
D03*
X5660Y4080D02*
D03*
Y4220D02*
D03*
X780Y5120D02*
D03*
Y4980D02*
D03*
X1350Y3050D02*
D03*
Y3190D02*
D03*
X1110Y3050D02*
D03*
Y3190D02*
D03*
X3760Y2800D02*
D03*
Y2940D02*
D03*
X5960Y950D02*
D03*
Y810D02*
D03*
X5500Y1130D02*
D03*
Y1270D02*
D03*
X5710Y820D02*
D03*
Y960D02*
D03*
X1290Y2130D02*
D03*
Y2270D02*
D03*
X1290Y1850D02*
D03*
Y1710D02*
D03*
D16*
X1430Y1590D02*
D03*
X1290D02*
D03*
X1630Y1400D02*
D03*
X1770D02*
D03*
X11140Y4340D02*
D03*
X11000D02*
D03*
X11140Y4210D02*
D03*
X11000D02*
D03*
X11140Y4080D02*
D03*
X11000D02*
D03*
X11140Y3950D02*
D03*
X11000D02*
D03*
X1490Y1240D02*
D03*
X1350D02*
D03*
Y1090D02*
D03*
X1490D02*
D03*
X10080Y4340D02*
D03*
X9940D02*
D03*
X10080Y4080D02*
D03*
X9940D02*
D03*
X10080Y4210D02*
D03*
X9940D02*
D03*
X10080Y3950D02*
D03*
X9940D02*
D03*
X10370Y2360D02*
D03*
X10510D02*
D03*
X10370Y840D02*
D03*
X10510D02*
D03*
X10520Y2770D02*
D03*
X10380D02*
D03*
X550Y2590D02*
D03*
X690D02*
D03*
X510Y4470D02*
D03*
X370D02*
D03*
X1110Y2590D02*
D03*
X970D02*
D03*
X12320Y1410D02*
D03*
X12180D02*
D03*
X12320Y1800D02*
D03*
X12180D02*
D03*
X8030Y1750D02*
D03*
X7890D02*
D03*
X11030Y3350D02*
D03*
X10890D02*
D03*
X5040Y3980D02*
D03*
X4900D02*
D03*
X3750Y2670D02*
D03*
X3890D02*
D03*
X5550Y820D02*
D03*
X5410D02*
D03*
X3220Y1540D02*
D03*
X3080D02*
D03*
X3220Y1680D02*
D03*
X3080D02*
D03*
D17*
X1469Y1958D02*
D03*
Y1892D02*
D03*
Y1828D02*
D03*
Y1762D02*
D03*
X1811Y1958D02*
D03*
Y1892D02*
D03*
Y1828D02*
D03*
Y1762D02*
D03*
X10575Y3177D02*
D03*
Y3112D02*
D03*
Y3048D02*
D03*
Y2983D02*
D03*
X11145Y3177D02*
D03*
Y3112D02*
D03*
Y3048D02*
D03*
Y2983D02*
D03*
X11275Y1798D02*
D03*
Y1733D02*
D03*
Y1667D02*
D03*
Y1602D02*
D03*
Y1538D02*
D03*
Y1473D02*
D03*
Y1407D02*
D03*
Y1343D02*
D03*
X11845Y1798D02*
D03*
Y1733D02*
D03*
Y1667D02*
D03*
Y1602D02*
D03*
Y1538D02*
D03*
Y1473D02*
D03*
Y1407D02*
D03*
Y1343D02*
D03*
D18*
X2370Y1395D02*
D03*
Y1490D02*
D03*
Y1585D02*
D03*
X2130D02*
D03*
Y1490D02*
D03*
Y1395D02*
D03*
X2370Y1805D02*
D03*
Y1900D02*
D03*
Y1995D02*
D03*
X2130D02*
D03*
Y1900D02*
D03*
Y1805D02*
D03*
X8295Y4630D02*
D03*
Y4725D02*
D03*
Y4820D02*
D03*
X8055D02*
D03*
Y4725D02*
D03*
Y4630D02*
D03*
D19*
X4497Y1325D02*
D03*
X4243D02*
D03*
Y2055D02*
D03*
X4497D02*
D03*
D20*
X11055Y2760D02*
D03*
X11345D02*
D03*
D21*
X7870Y4635D02*
D03*
Y4785D02*
D03*
X2770Y1405D02*
D03*
Y1255D02*
D03*
X12170Y985D02*
D03*
Y1135D02*
D03*
X12180Y2235D02*
D03*
Y2085D02*
D03*
D22*
X8850Y2612D02*
D03*
X8690D02*
D03*
X8770D02*
D03*
X8930D02*
D03*
X8530Y3728D02*
D03*
X8450Y3728D02*
D03*
X8210Y3728D02*
D03*
X8290D02*
D03*
X8370Y3728D02*
D03*
X8610D02*
D03*
X8850Y3728D02*
D03*
X8690D02*
D03*
X8770D02*
D03*
X8930Y3728D02*
D03*
X9330Y2612D02*
D03*
X9170D02*
D03*
X9250D02*
D03*
X9410Y2612D02*
D03*
X9810Y2612D02*
D03*
X9730D02*
D03*
X9490Y2612D02*
D03*
X9570D02*
D03*
X9650Y2612D02*
D03*
X9890Y2612D02*
D03*
X8210Y2612D02*
D03*
X8290D02*
D03*
X8370D02*
D03*
X8450D02*
D03*
X8530Y2612D02*
D03*
X8610Y2612D02*
D03*
X9010Y2612D02*
D03*
X9090Y2612D02*
D03*
X9010Y3728D02*
D03*
X9090D02*
D03*
X9170D02*
D03*
X9250Y3728D02*
D03*
X9330D02*
D03*
X9410D02*
D03*
X9490Y3728D02*
D03*
X9570D02*
D03*
X9650Y3728D02*
D03*
X9730D02*
D03*
X9810Y3728D02*
D03*
X9890D02*
D03*
D23*
X370Y4945D02*
D03*
Y5135D02*
D03*
X590D02*
D03*
D24*
Y4965D02*
D03*
D25*
X4778Y1841D02*
D03*
Y1714D02*
D03*
Y1586D02*
D03*
Y1460D02*
D03*
X5483Y1841D02*
D03*
Y1714D02*
D03*
Y1586D02*
D03*
Y1460D02*
D03*
D26*
X370Y5395D02*
D03*
Y5805D02*
D03*
X530D02*
D03*
Y5395D02*
D03*
D27*
X11360Y693D02*
D03*
Y1007D02*
D03*
X11350Y2498D02*
D03*
Y2183D02*
D03*
D28*
X9505Y1920D02*
D03*
X10345Y1270D02*
D03*
X10365Y1920D02*
D03*
D29*
X9935D02*
D03*
X10775Y1270D02*
D03*
X10795Y1920D02*
D03*
D30*
X11560Y1570D02*
D03*
D31*
X8170Y1770D02*
D03*
X8350D02*
D03*
X10520Y1000D02*
D03*
X10340D02*
D03*
X10750Y1570D02*
D03*
X10570D02*
D03*
X10520Y2190D02*
D03*
X10340D02*
D03*
X7860Y4450D02*
D03*
X8040D02*
D03*
X1340Y1400D02*
D03*
X1520D02*
D03*
D32*
X5590Y4610D02*
D03*
Y4510D02*
D03*
X10380Y5410D02*
D03*
Y5510D02*
D03*
X9520Y5410D02*
D03*
Y5510D02*
D03*
X8660Y5410D02*
D03*
Y5510D02*
D03*
X6680Y5410D02*
D03*
Y5510D02*
D03*
X5820Y5410D02*
D03*
Y5510D02*
D03*
X4960Y5410D02*
D03*
Y5510D02*
D03*
X2930Y5410D02*
D03*
Y5510D02*
D03*
X2070Y5410D02*
D03*
Y5510D02*
D03*
X1200Y5410D02*
D03*
Y5510D02*
D03*
X1810Y3550D02*
D03*
Y3450D02*
D03*
X1630Y3610D02*
D03*
Y3710D02*
D03*
X1810Y3050D02*
D03*
Y2950D02*
D03*
D33*
X8340Y1215D02*
D03*
Y1310D02*
D03*
Y1405D02*
D03*
X8080D02*
D03*
Y1310D02*
D03*
Y1215D02*
D03*
D34*
X7610Y1280D02*
D03*
D35*
X7760Y1043D02*
D03*
X7710Y1043D02*
D03*
X7660D02*
D03*
X7610D02*
D03*
X7560D02*
D03*
X7510D02*
D03*
X7460D02*
D03*
Y1518D02*
D03*
X7510D02*
D03*
X7560D02*
D03*
X7610Y1518D02*
D03*
X7660D02*
D03*
X7710D02*
D03*
X7760Y1518D02*
D03*
D36*
X7372Y1130D02*
D03*
Y1180D02*
D03*
Y1230D02*
D03*
Y1280D02*
D03*
Y1330D02*
D03*
Y1380D02*
D03*
X7372Y1430D02*
D03*
X7847D02*
D03*
X7847Y1380D02*
D03*
Y1330D02*
D03*
X7847Y1280D02*
D03*
Y1230D02*
D03*
Y1180D02*
D03*
Y1130D02*
D03*
D37*
X6880Y3710D02*
D03*
Y3610D02*
D03*
Y3510D02*
D03*
Y3410D02*
D03*
Y3310D02*
D03*
Y3210D02*
D03*
Y3110D02*
D03*
Y3010D02*
D03*
Y2910D02*
D03*
Y2810D02*
D03*
Y2710D02*
D03*
Y2610D02*
D03*
Y2510D02*
D03*
Y2410D02*
D03*
Y2310D02*
D03*
Y2210D02*
D03*
X6780Y3710D02*
D03*
Y3610D02*
D03*
Y3510D02*
D03*
Y3410D02*
D03*
Y3310D02*
D03*
Y3210D02*
D03*
Y3110D02*
D03*
Y3010D02*
D03*
Y2910D02*
D03*
Y2810D02*
D03*
Y2710D02*
D03*
Y2610D02*
D03*
Y2510D02*
D03*
Y2410D02*
D03*
Y2310D02*
D03*
Y2210D02*
D03*
X6680Y3710D02*
D03*
Y3610D02*
D03*
Y3510D02*
D03*
Y3410D02*
D03*
Y3310D02*
D03*
Y3210D02*
D03*
Y3110D02*
D03*
Y3010D02*
D03*
Y2910D02*
D03*
Y2810D02*
D03*
Y2710D02*
D03*
Y2610D02*
D03*
Y2510D02*
D03*
Y2410D02*
D03*
Y2310D02*
D03*
Y2210D02*
D03*
X6580Y3710D02*
D03*
Y3610D02*
D03*
Y3510D02*
D03*
Y3410D02*
D03*
Y3310D02*
D03*
Y3210D02*
D03*
Y3110D02*
D03*
Y3010D02*
D03*
Y2910D02*
D03*
Y2810D02*
D03*
Y2710D02*
D03*
Y2610D02*
D03*
Y2510D02*
D03*
Y2410D02*
D03*
Y2310D02*
D03*
Y2210D02*
D03*
X6480Y3710D02*
D03*
Y3610D02*
D03*
Y3510D02*
D03*
Y3410D02*
D03*
Y3310D02*
D03*
Y3210D02*
D03*
Y3110D02*
D03*
Y3010D02*
D03*
Y2910D02*
D03*
Y2810D02*
D03*
Y2710D02*
D03*
Y2610D02*
D03*
Y2510D02*
D03*
Y2410D02*
D03*
Y2310D02*
D03*
Y2210D02*
D03*
X6380Y3710D02*
D03*
Y3610D02*
D03*
Y3510D02*
D03*
Y3410D02*
D03*
Y3310D02*
D03*
Y3210D02*
D03*
Y3110D02*
D03*
Y3010D02*
D03*
Y2910D02*
D03*
Y2810D02*
D03*
Y2710D02*
D03*
Y2610D02*
D03*
Y2510D02*
D03*
Y2410D02*
D03*
Y2310D02*
D03*
Y2210D02*
D03*
X6280Y3710D02*
D03*
Y3610D02*
D03*
Y3510D02*
D03*
Y3410D02*
D03*
Y3310D02*
D03*
Y3210D02*
D03*
Y3110D02*
D03*
Y3010D02*
D03*
Y2910D02*
D03*
Y2810D02*
D03*
Y2710D02*
D03*
Y2610D02*
D03*
Y2510D02*
D03*
Y2410D02*
D03*
Y2310D02*
D03*
Y2210D02*
D03*
X6180Y3710D02*
D03*
Y3610D02*
D03*
Y3510D02*
D03*
Y3410D02*
D03*
Y3310D02*
D03*
Y3210D02*
D03*
Y3110D02*
D03*
Y3010D02*
D03*
Y2910D02*
D03*
Y2810D02*
D03*
Y2710D02*
D03*
Y2610D02*
D03*
Y2510D02*
D03*
Y2410D02*
D03*
Y2310D02*
D03*
Y2210D02*
D03*
X6080Y3710D02*
D03*
Y3610D02*
D03*
Y3510D02*
D03*
Y3410D02*
D03*
Y3310D02*
D03*
Y3210D02*
D03*
Y3110D02*
D03*
Y3010D02*
D03*
Y2910D02*
D03*
Y2810D02*
D03*
Y2710D02*
D03*
Y2610D02*
D03*
Y2510D02*
D03*
Y2410D02*
D03*
Y2310D02*
D03*
Y2210D02*
D03*
X5980Y3710D02*
D03*
Y3610D02*
D03*
Y3510D02*
D03*
Y3410D02*
D03*
Y3310D02*
D03*
Y3210D02*
D03*
Y3110D02*
D03*
Y3010D02*
D03*
Y2910D02*
D03*
Y2810D02*
D03*
Y2710D02*
D03*
Y2610D02*
D03*
Y2510D02*
D03*
Y2410D02*
D03*
Y2310D02*
D03*
Y2210D02*
D03*
X5880Y3710D02*
D03*
Y3610D02*
D03*
Y3510D02*
D03*
Y3410D02*
D03*
Y3310D02*
D03*
Y3210D02*
D03*
Y3110D02*
D03*
Y3010D02*
D03*
Y2910D02*
D03*
Y2810D02*
D03*
Y2710D02*
D03*
Y2610D02*
D03*
Y2510D02*
D03*
Y2410D02*
D03*
Y2310D02*
D03*
Y2210D02*
D03*
X5780Y3710D02*
D03*
Y3610D02*
D03*
Y3510D02*
D03*
Y3410D02*
D03*
Y3310D02*
D03*
Y3210D02*
D03*
Y3110D02*
D03*
Y3010D02*
D03*
Y2910D02*
D03*
Y2810D02*
D03*
Y2710D02*
D03*
Y2610D02*
D03*
Y2510D02*
D03*
Y2410D02*
D03*
Y2310D02*
D03*
Y2210D02*
D03*
X5680Y3710D02*
D03*
Y3610D02*
D03*
Y3510D02*
D03*
Y3410D02*
D03*
Y3310D02*
D03*
Y3210D02*
D03*
Y3110D02*
D03*
Y3010D02*
D03*
Y2910D02*
D03*
Y2810D02*
D03*
Y2710D02*
D03*
Y2610D02*
D03*
Y2510D02*
D03*
Y2410D02*
D03*
Y2310D02*
D03*
Y2210D02*
D03*
X5580Y3710D02*
D03*
Y3610D02*
D03*
Y3510D02*
D03*
Y3410D02*
D03*
Y3310D02*
D03*
Y3210D02*
D03*
Y3110D02*
D03*
Y3010D02*
D03*
Y2910D02*
D03*
Y2810D02*
D03*
Y2710D02*
D03*
Y2610D02*
D03*
Y2510D02*
D03*
Y2410D02*
D03*
Y2310D02*
D03*
Y2210D02*
D03*
X5480Y3710D02*
D03*
Y3610D02*
D03*
Y3510D02*
D03*
Y3410D02*
D03*
Y3310D02*
D03*
Y3210D02*
D03*
Y3110D02*
D03*
Y3010D02*
D03*
Y2910D02*
D03*
Y2810D02*
D03*
Y2710D02*
D03*
Y2610D02*
D03*
Y2510D02*
D03*
Y2410D02*
D03*
Y2310D02*
D03*
Y2210D02*
D03*
X5380Y3710D02*
D03*
Y3610D02*
D03*
Y3510D02*
D03*
Y3410D02*
D03*
Y3310D02*
D03*
Y3210D02*
D03*
Y3110D02*
D03*
Y3010D02*
D03*
Y2910D02*
D03*
Y2810D02*
D03*
Y2710D02*
D03*
Y2610D02*
D03*
Y2510D02*
D03*
Y2410D02*
D03*
Y2310D02*
D03*
Y2210D02*
D03*
D38*
X3490Y1681D02*
D03*
Y1553D02*
D03*
Y1427D02*
D03*
Y1299D02*
D03*
X3970Y1681D02*
D03*
Y1553D02*
D03*
Y1427D02*
D03*
Y1299D02*
D03*
D39*
X11062Y840D02*
D03*
X10738D02*
D03*
X11093Y2350D02*
D03*
X10768D02*
D03*
D40*
X10345Y240D02*
D03*
X10155D02*
D03*
D41*
X5480Y4605D02*
D03*
Y4515D02*
D03*
D42*
X5345Y362D02*
D03*
X7665D02*
D03*
D43*
X7430Y500D02*
D03*
X7380D02*
D03*
X7330D02*
D03*
X7480D02*
D03*
X7280D02*
D03*
X7230D02*
D03*
X7180D02*
D03*
X7130D02*
D03*
X7080D02*
D03*
X7030D02*
D03*
X6980D02*
D03*
X6930D02*
D03*
X6880D02*
D03*
X6830D02*
D03*
X6780D02*
D03*
X6730D02*
D03*
X6680D02*
D03*
X6630D02*
D03*
X6580D02*
D03*
X6530D02*
D03*
X6480D02*
D03*
X6430D02*
D03*
X6380D02*
D03*
X6330D02*
D03*
X6280D02*
D03*
X6230D02*
D03*
X6180D02*
D03*
X6130D02*
D03*
X6080D02*
D03*
X6030D02*
D03*
X5980D02*
D03*
X5930D02*
D03*
X5880D02*
D03*
X5830D02*
D03*
X5780D02*
D03*
X5730D02*
D03*
X5680D02*
D03*
X5630D02*
D03*
X5580D02*
D03*
X5530D02*
D03*
D44*
X2940Y1255D02*
D03*
Y1425D02*
D03*
D45*
X3000Y2460D02*
D03*
X3050D02*
D03*
X2350D02*
D03*
X2400D02*
D03*
X3350D02*
D03*
X3300D02*
D03*
X3250D02*
D03*
X3200D02*
D03*
X3150D02*
D03*
X3100D02*
D03*
X2950D02*
D03*
X2900D02*
D03*
X2850D02*
D03*
X2800Y2460D02*
D03*
X2750D02*
D03*
X2700D02*
D03*
X2650Y2460D02*
D03*
X2600D02*
D03*
X2550D02*
D03*
X2500D02*
D03*
X2450D02*
D03*
X2300D02*
D03*
X2250D02*
D03*
X2200D02*
D03*
X2150D02*
D03*
Y3980D02*
D03*
X2200D02*
D03*
X2400D02*
D03*
X2450D02*
D03*
X2500D02*
D03*
X2550D02*
D03*
X2600D02*
D03*
X2650D02*
D03*
X2700Y3980D02*
D03*
X2750D02*
D03*
X3050Y3980D02*
D03*
X3100D02*
D03*
X3150D02*
D03*
X3200D02*
D03*
X3250D02*
D03*
X3300D02*
D03*
X3350D02*
D03*
X3000D02*
D03*
X2900D02*
D03*
X2850D02*
D03*
X2800Y3980D02*
D03*
X2950Y3980D02*
D03*
X2350D02*
D03*
X2300D02*
D03*
X2250D02*
D03*
D46*
X3510Y3320D02*
D03*
Y3370D02*
D03*
X3510Y3420D02*
D03*
X3510Y3770D02*
D03*
Y3720D02*
D03*
Y3570D02*
D03*
Y3620D02*
D03*
Y3670D02*
D03*
Y3820D02*
D03*
X1990Y2620D02*
D03*
Y2670D02*
D03*
Y2720D02*
D03*
Y2770D02*
D03*
Y2820D02*
D03*
Y2870D02*
D03*
Y2920D02*
D03*
Y2970D02*
D03*
Y3020D02*
D03*
Y3070D02*
D03*
Y3120D02*
D03*
X1990Y3170D02*
D03*
Y3220D02*
D03*
Y3270D02*
D03*
X1990Y3320D02*
D03*
Y3370D02*
D03*
Y3420D02*
D03*
Y3470D02*
D03*
Y3520D02*
D03*
Y3570D02*
D03*
Y3620D02*
D03*
Y3670D02*
D03*
Y3720D02*
D03*
Y3770D02*
D03*
Y3820D02*
D03*
X3510Y3520D02*
D03*
Y3470D02*
D03*
X3510Y3270D02*
D03*
Y3220D02*
D03*
Y3170D02*
D03*
X3510Y3120D02*
D03*
X3510Y3070D02*
D03*
Y3020D02*
D03*
Y2970D02*
D03*
Y2920D02*
D03*
Y2870D02*
D03*
Y2820D02*
D03*
Y2770D02*
D03*
Y2720D02*
D03*
Y2670D02*
D03*
Y2620D02*
D03*
D47*
X2750Y3220D02*
D03*
D48*
X8200Y397D02*
D03*
Y123D02*
D03*
X11240Y112D02*
D03*
Y388D02*
D03*
X10740Y112D02*
D03*
Y388D02*
D03*
D49*
X5945Y4610D02*
D03*
Y4390D02*
D03*
X5775D02*
D03*
Y4610D02*
D03*
D50*
X8475Y4595D02*
D03*
Y4775D02*
D03*
D51*
X1474Y3900D02*
D03*
X1347D02*
D03*
X1220D02*
D03*
X1093D02*
D03*
X1474Y3420D02*
D03*
X1347Y3420D02*
D03*
X1220Y3420D02*
D03*
X1093D02*
D03*
D52*
X900Y1045D02*
D03*
Y855D02*
D03*
D53*
X7855Y4630D02*
X7860Y4625D01*
X7115Y3933D02*
X7191Y4009D01*
X7975Y4725D02*
X8055D01*
X7885Y4635D02*
X7975Y4725D01*
X7870Y4635D02*
X7885D01*
X7720Y4630D02*
X7855D01*
X7870Y4785D02*
X7905Y4820D01*
X8055D01*
X7855Y4770D02*
X7870Y4785D01*
X7720Y4770D02*
X7855D01*
X7190Y4010D02*
X7300Y4120D01*
X7630Y4450D01*
X1520Y1400D02*
X1630D01*
X2770Y1255D02*
X2770Y1255D01*
X2940D01*
X8350Y1810D02*
X8440D01*
X8350Y1730D02*
X8440D01*
X8350Y1670D02*
Y1770D01*
X1610Y3710D02*
Y3780D01*
X3700Y1100D02*
X3770Y1170D01*
X3080Y1255D02*
X3220D01*
X6530Y3260D02*
Y3260D01*
X3715Y2087D02*
X3788Y2160D01*
X4200D01*
X4243Y2117D01*
X3514Y1960D02*
X3641Y2087D01*
X3715D01*
X4243Y2055D02*
Y2117D01*
Y1243D02*
Y1325D01*
X4170Y1170D02*
X4243Y1243D01*
X3770Y1170D02*
X4170D01*
X4410Y780D02*
X4497Y867D01*
Y1325D01*
X4850Y430D02*
Y900D01*
X5100Y1130D02*
Y1360D01*
Y1130D02*
X5500D01*
X5080D02*
X5100D01*
X4850Y900D02*
X5080Y1130D01*
X4778Y1460D02*
X5001D01*
X5100Y1360D01*
X5500Y1130D02*
X5500Y1130D01*
X5200Y1260D02*
Y1740D01*
X5301Y1841D01*
X5371D01*
X5483D02*
X5483Y1841D01*
X5371Y1841D02*
X5483D01*
X7720Y4770D02*
Y4880D01*
Y4630D02*
X7720Y4630D01*
X7860Y4450D02*
Y4625D01*
X7630Y4450D02*
X7860D01*
X370Y4470D02*
X370Y4470D01*
X270Y4470D02*
X370D01*
X10110Y2870D02*
X10200D01*
X10110Y2950D02*
X10200D01*
X10110Y3130D02*
X10200D01*
X10110Y3210D02*
X10200D01*
X1610Y3550D02*
Y3610D01*
X540Y2480D02*
Y2590D01*
Y2480D02*
X550Y2470D01*
X1110Y2510D02*
Y2590D01*
X1070Y2470D02*
X1110Y2510D01*
X550Y2470D02*
X1070D01*
X1110Y3050D02*
X1110Y3050D01*
Y2590D02*
Y3050D01*
X1480Y3580D02*
X1510Y3610D01*
X1480Y3440D02*
Y3580D01*
X1330Y3710D02*
X1350Y3690D01*
Y3437D02*
Y3690D01*
X1090Y3750D02*
Y3890D01*
Y3750D02*
X1130Y3710D01*
X1220Y3730D02*
Y3887D01*
X1200Y3710D02*
X1220Y3730D01*
X1350D02*
Y3883D01*
X1330Y3710D02*
X1350Y3730D01*
X1470Y3710D02*
Y3890D01*
X3264Y1299D02*
X3490D01*
X3220Y1255D02*
X3264Y1299D01*
X8080Y1310D02*
X8160D01*
X8260D02*
X8340D01*
X8310Y1630D02*
X8350Y1670D01*
X8130Y1630D02*
X8310D01*
X8200Y820D02*
X8200Y820D01*
Y730D02*
Y820D01*
X4850Y430D02*
X4850Y430D01*
X8330Y4905D02*
X8595D01*
X8635Y4865D01*
Y4615D02*
Y4865D01*
X8615Y4595D02*
X8635Y4615D01*
X8475Y4595D02*
X8615D01*
X8295Y4870D02*
X8330Y4905D01*
X8295Y4820D02*
Y4870D01*
X8030Y4895D02*
Y4975D01*
Y4895D02*
X8055Y4870D01*
Y4820D02*
Y4870D01*
X8330Y4595D02*
X8475D01*
X8295Y4630D02*
X8330Y4595D01*
X3790Y1550D02*
Y1640D01*
Y1427D02*
Y1550D01*
X3794Y1553D01*
X3970D01*
X3790Y1427D02*
X3970D01*
X3490D02*
X3790D01*
Y1360D02*
Y1427D01*
Y1640D02*
X3830Y1680D01*
X3790Y1360D02*
X3851Y1299D01*
X3970D01*
X3830Y1680D02*
X3831Y1681D01*
X3970D01*
X3760Y2800D02*
X3850D01*
X3890Y2760D01*
Y2670D02*
Y2760D01*
X2980Y1430D02*
Y1520D01*
X2900Y1430D02*
Y1520D01*
X10380Y5510D02*
Y5570D01*
Y5350D02*
Y5410D01*
X9520Y5510D02*
Y5570D01*
Y5350D02*
Y5410D01*
X8660Y5510D02*
Y5570D01*
Y5350D02*
Y5410D01*
X6680Y5510D02*
Y5570D01*
Y5350D02*
Y5410D01*
X4960Y5510D02*
Y5570D01*
Y5350D02*
Y5410D01*
X5820Y5510D02*
Y5570D01*
Y5350D02*
Y5410D01*
X2930Y5510D02*
Y5570D01*
Y5350D02*
Y5410D01*
X1200Y5510D02*
Y5570D01*
Y5350D02*
Y5410D01*
X2070Y5350D02*
Y5410D01*
X2070Y5570D02*
X2070Y5570D01*
Y5510D02*
Y5570D01*
X1200Y3710D02*
X1330D01*
X1130D02*
X1200D01*
X1470D02*
X1610D01*
X1330D02*
X1470D01*
X1610Y3780D02*
X1610Y3780D01*
X1610Y3550D02*
X1610Y3550D01*
X1510Y3610D02*
X1610D01*
X2960Y1255D02*
X3080D01*
Y1540D02*
Y1680D01*
Y1255D02*
Y1540D01*
X2955Y1260D02*
X2960Y1255D01*
X9010Y3728D02*
Y3895D01*
X8975Y3930D02*
X9010Y3895D01*
X9090Y3728D02*
Y3895D01*
X9125Y3930D01*
X8900Y3930D02*
X8975D01*
X8900Y3930D02*
X8900Y3930D01*
X9125Y3930D02*
X9200D01*
X8900Y2410D02*
X8975D01*
X9200Y2410D02*
X9200Y2410D01*
X9125Y2410D02*
X9200D01*
X8975Y2410D02*
X9010Y2445D01*
Y2612D01*
X9090Y2445D02*
X9125Y2410D01*
X9090Y2445D02*
Y2612D01*
X1730Y3550D02*
X1810D01*
X1730Y3450D02*
X1810D01*
X1730Y2950D02*
X1810D01*
X1730Y3050D02*
X1810D01*
X5590Y4450D02*
X5590Y4450D01*
X5590Y4450D02*
Y4510D01*
Y4610D02*
X5945D01*
X5480Y4605D02*
X5585D01*
X5590Y4610D01*
Y4510D02*
X5660D01*
X5775Y4395D01*
Y4390D02*
Y4395D01*
X5945Y4610D02*
X5945Y4610D01*
X5540Y820D02*
X5710D01*
D54*
X10200Y3530D02*
X10540D01*
X9810Y3140D02*
X10200Y3530D01*
X9810Y2612D02*
Y3140D01*
X10170Y3570D02*
X10450D01*
X9730Y3130D02*
X10170Y3570D01*
X9730Y2612D02*
Y3130D01*
X10130Y3610D02*
X10310D01*
X9650Y3130D02*
X10130Y3610D01*
X9650Y2612D02*
Y3130D01*
X6730Y2460D02*
X6920D01*
X6680Y2410D02*
X6730Y2460D01*
X10927Y5233D02*
Y5435D01*
Y5233D02*
X10990Y5170D01*
X11490D01*
X2345Y1780D02*
X2370Y1805D01*
X2300Y1780D02*
X2345D01*
X2180Y1660D02*
X2300Y1780D01*
X2439Y1790D02*
X2560Y1911D01*
X2385Y1790D02*
X2439D01*
X2370Y1805D02*
X2385Y1790D01*
X4730Y4080D02*
X5420D01*
X5480Y3900D02*
Y4020D01*
X5420Y4080D02*
X5480Y4020D01*
X5530Y3930D02*
Y4060D01*
X5400Y4190D02*
X5530Y4060D01*
X4750Y4190D02*
X5400D01*
X4680Y4260D02*
X4750Y4190D01*
X5500Y4380D02*
X5660Y4220D01*
X5160Y4380D02*
X5500D01*
X4940Y4600D02*
X5160Y4380D01*
X4410Y5130D02*
X4940Y4600D01*
X4380Y5130D02*
X4410D01*
X4370Y5140D02*
X4380Y5130D01*
X3540Y5140D02*
X4370D01*
X5380Y4280D02*
X5580Y4080D01*
X4850Y4280D02*
X5380D01*
X4830Y4260D02*
X4850Y4280D01*
X6000Y650D02*
X6035Y615D01*
X5990Y700D02*
X6100Y810D01*
X5990Y650D02*
X6000D01*
X5990D02*
Y700D01*
X6230Y640D02*
Y700D01*
X6330Y500D02*
Y610D01*
X6430Y500D02*
Y700D01*
X6530Y500D02*
Y610D01*
X6630Y500D02*
Y700D01*
X6730Y500D02*
Y610D01*
X6830Y500D02*
Y700D01*
X6930Y500D02*
Y610D01*
X7030Y500D02*
Y700D01*
X7130Y500D02*
Y610D01*
X7230Y500D02*
Y700D01*
X6135Y605D02*
X6140Y610D01*
X6230Y640D02*
X6250Y620D01*
X6035Y505D02*
Y615D01*
X6250Y590D02*
Y620D01*
X6230Y570D02*
X6250Y590D01*
X6230Y500D02*
Y570D01*
X6135Y505D02*
Y605D01*
X6130Y500D02*
X6135Y505D01*
X5920Y630D02*
X5975Y575D01*
Y505D02*
Y575D01*
X5920Y630D02*
Y770D01*
X5975Y505D02*
X5980Y500D01*
X5920Y770D02*
X5960Y810D01*
X4410Y1560D02*
X4470D01*
X4090Y1880D02*
X4410Y1560D01*
X4050Y2020D02*
X4190Y1880D01*
X4020Y2020D02*
X4050D01*
X10790Y4080D02*
X11000D01*
X10467Y4403D02*
X10790Y4080D01*
X10467Y4403D02*
Y4439D01*
X10770Y4220D02*
X10990D01*
X10594Y4396D02*
X10770Y4220D01*
X10594Y4396D02*
Y4439D01*
X10721Y3741D02*
Y3779D01*
X10160Y4340D02*
X10721Y3779D01*
X10080Y4340D02*
X10160D01*
X10467Y3741D02*
Y3783D01*
X10170Y4080D02*
X10467Y3783D01*
X10080Y4080D02*
X10170D01*
X10593Y3741D02*
Y3787D01*
X10170Y4210D02*
X10593Y3787D01*
X10080Y4210D02*
X10170D01*
X6380Y3010D02*
X6430Y3060D01*
X6530Y3060D02*
Y3060D01*
Y3160D02*
Y3160D01*
X6330Y3360D02*
X6401D01*
X6230Y3260D02*
Y3360D01*
X6430Y3460D02*
Y3560D01*
X6830Y3060D02*
X7036D01*
X6780Y3010D02*
X6830Y3060D01*
Y3460D02*
X6977D01*
X6780Y3410D02*
X6830Y3460D01*
X6030Y500D02*
X6035Y505D01*
X5730Y3560D02*
Y3910D01*
X5660Y3980D02*
X5730Y3910D01*
X5660Y3980D02*
Y4080D01*
X1290Y2270D02*
Y2390D01*
X1080Y3200D02*
Y3420D01*
X1790Y2200D02*
Y2413D01*
X1230Y2973D02*
X1790Y2413D01*
X1230Y2973D02*
Y3105D01*
X10339Y3741D02*
Y3810D01*
X10200Y3950D02*
X10339Y3810D01*
X10080Y3950D02*
X10200D01*
X10770Y4340D02*
X11000D01*
X10721Y4389D02*
X10770Y4340D01*
X10721Y4389D02*
Y4439D01*
X10780Y3950D02*
X11000D01*
X10339Y4390D02*
X10780Y3950D01*
X10339Y4390D02*
Y4439D01*
X10990Y4220D02*
X11000Y4210D01*
X10721Y3621D02*
Y3741D01*
X10590Y3490D02*
X10721Y3621D01*
X10240Y3490D02*
X10590D01*
X10540Y3530D02*
X10580Y3570D01*
Y3727D01*
X10339Y3640D02*
Y3741D01*
X10310Y3610D02*
X10339Y3640D01*
X10467Y3587D02*
Y3741D01*
X10450Y3570D02*
X10467Y3587D01*
X10580Y3727D02*
X10593Y3741D01*
X9890Y3140D02*
X10240Y3490D01*
X9890Y2612D02*
Y3140D01*
X1290Y1850D02*
Y1940D01*
X1280Y1950D02*
X1290Y1940D01*
X1330Y1280D02*
X1350Y1260D01*
X1250Y1280D02*
X1330D01*
X1350Y1120D02*
Y1260D01*
X3045Y1975D02*
Y2355D01*
X2465Y1395D02*
X3045Y1975D01*
X2370Y1395D02*
X2465D01*
X2645Y2135D02*
Y2355D01*
X2560Y2050D02*
X2645Y2135D01*
X2560Y1911D02*
Y2050D01*
X2180Y1585D02*
Y1587D01*
X2605Y2154D02*
Y2355D01*
X2446Y1995D02*
X2605Y2154D01*
X3220Y1680D02*
X3490D01*
X2370Y1995D02*
X2446D01*
X2355Y2185D02*
Y2355D01*
X2165Y1995D02*
X2355Y2185D01*
X2130Y1995D02*
X2165D01*
X2395Y2165D02*
Y2355D01*
X2215Y1985D02*
X2395Y2165D01*
X2215Y1858D02*
Y1985D01*
X1402Y1762D02*
X1469D01*
X1350Y1710D02*
X1402Y1762D01*
X1290Y1710D02*
X1350D01*
X1370Y1859D02*
Y2220D01*
Y1859D02*
X1402Y1828D01*
X1320Y2270D02*
X1370Y2220D01*
X1290Y2270D02*
X1320D01*
X1280Y2040D02*
X1280Y2040D01*
Y2130D01*
X1402Y1828D02*
X1469D01*
X1110Y3190D02*
X1145D01*
X1100D02*
X1110D01*
X3520Y2460D02*
X5630D01*
X1206Y3253D02*
Y3420D01*
X1850Y2280D02*
Y2410D01*
X1270Y2990D02*
X1850Y2410D01*
X1270Y2990D02*
Y3180D01*
X1810Y1762D02*
X1811Y1762D01*
X1810Y1550D02*
Y1762D01*
X1811Y1828D02*
X1813Y1830D01*
X1890D01*
X1920Y1800D01*
Y1670D02*
Y1800D01*
X1870Y1620D02*
X1920Y1670D01*
X2053Y1700D02*
X2160D01*
X1870Y1517D02*
X2053Y1700D01*
X1870Y1210D02*
Y1517D01*
X2070Y1660D02*
X2180D01*
X1910Y1500D02*
X2070Y1660D01*
X1910Y1210D02*
Y1500D01*
X2338Y1995D02*
X2370D01*
X2285Y1942D02*
X2338Y1995D01*
X2285Y1825D02*
Y1942D01*
X2160Y1700D02*
X2285Y1825D01*
X2015Y1805D02*
X2130D01*
X2014Y1806D02*
X2015Y1805D01*
X2177Y1820D02*
X2215Y1858D01*
X2145Y1820D02*
X2177D01*
X2130Y1805D02*
X2145Y1820D01*
X1958Y1862D02*
X2090Y1995D01*
X2130D01*
X2278Y1685D02*
X2505D01*
X2522Y1645D02*
X2895Y2018D01*
X2295Y1645D02*
X2522D01*
X2378Y1593D02*
X2607D01*
X2180Y1587D02*
X2278Y1685D01*
X2130Y1585D02*
X2180D01*
X2075D02*
X2130D01*
X2040Y1550D02*
X2075Y1585D01*
X2040Y1180D02*
Y1550D01*
X1870Y953D02*
X2130Y1213D01*
Y1395D01*
X2175D01*
X2220Y1440D01*
Y1570D01*
X2295Y1645D01*
X2323Y1570D02*
X2355D01*
X2320D02*
X2323D01*
X2285Y1532D02*
X2323Y1570D01*
X2393Y1070D02*
X3450D01*
X2330Y1133D02*
X2393Y1070D01*
X2330Y1133D02*
Y1290D01*
X2285Y1335D02*
X2330Y1290D01*
X2285Y1335D02*
Y1532D01*
X2355Y1570D02*
X2370Y1585D01*
X2410Y1110D02*
X3467D01*
X2370Y1150D02*
X2410Y1110D01*
X2370Y1150D02*
Y1395D01*
Y1585D02*
X2378Y1593D01*
X9900Y3840D02*
X9960D01*
X9410Y4330D02*
X9900Y3840D01*
X7650Y4330D02*
X9410D01*
X9890Y3728D02*
Y3784D01*
X7694Y4290D02*
X9384D01*
X9810Y3728D02*
Y3784D01*
X9344Y4250D02*
X9810Y3784D01*
X7710Y4250D02*
X9344D01*
X9384Y4290D02*
X9890Y3784D01*
X9730Y3728D02*
Y3784D01*
X9304Y4210D02*
X9730Y3784D01*
X7727Y4210D02*
X9304D01*
X9264Y4170D02*
X9628Y3806D01*
X7743Y4170D02*
X9264D01*
X9628Y3772D02*
Y3806D01*
X9570Y3728D02*
Y3784D01*
X9224Y4130D02*
X9570Y3784D01*
X7760Y4130D02*
X9224D01*
X9628Y3772D02*
X9650Y3750D01*
Y3728D02*
Y3750D01*
X9490Y3728D02*
Y3784D01*
X7780Y4090D02*
X9184D01*
X9490Y3784D01*
X9960Y3840D02*
X10050Y3750D01*
X6977Y3460D02*
X7727Y4210D01*
X7840Y5140D02*
X10770D01*
X7810Y5170D02*
X7840Y5140D01*
X7620Y5170D02*
X7810D01*
X7590Y5140D02*
X7620Y5170D01*
X7160Y5140D02*
X7590D01*
X6730Y3460D02*
X6730D01*
X6680Y3510D02*
X6730Y3560D01*
X5580Y2160D02*
Y2210D01*
X5380Y1960D02*
X5580Y2160D01*
X5190Y1960D02*
X5380D01*
X5530Y2190D02*
Y2260D01*
X5530Y2190D02*
X5530Y2190D01*
X5530Y2189D02*
Y2190D01*
X5501Y2160D02*
X5530Y2189D01*
X5500Y2160D02*
X5501D01*
X5370Y2030D02*
X5500Y2160D01*
X5195Y2030D02*
X5370D01*
X3770Y2260D02*
X5430D01*
X5480Y2310D01*
X3680Y2170D02*
X3770Y2260D01*
X3600Y2220D02*
X3690Y2310D01*
X3600D02*
X3610D01*
X3590Y2390D02*
X3610Y2410D01*
X3520Y2460D02*
X3530D01*
X3690Y2310D02*
X5380D01*
X3660Y2360D02*
X5430D01*
X3610Y2310D02*
X3660Y2360D01*
X5430D02*
X5480Y2410D01*
X4020Y1880D02*
X4090D01*
X4470Y1560D02*
X4760Y1270D01*
X3630Y1553D02*
X3680Y1603D01*
X3490Y1553D02*
X3630D01*
X4760Y390D02*
Y1270D01*
Y390D02*
X4810Y340D01*
X4930D01*
X5000Y410D01*
Y890D01*
X5030Y920D01*
X5620D01*
X5650Y890D01*
X5820D01*
X5880Y950D01*
X5960D01*
X4190Y1880D02*
X4390D01*
X4497Y1987D01*
Y2055D01*
X5600Y2120D02*
X5680Y2200D01*
X5600Y1750D02*
Y2120D01*
X5563Y1714D02*
X5600Y1750D01*
X5640Y2099D02*
X5730Y2189D01*
X5640Y1630D02*
Y2099D01*
X5680Y2080D02*
X5780Y2180D01*
X5680Y1530D02*
Y2080D01*
X5597Y1586D02*
X5640Y1630D01*
X5610Y1460D02*
X5680Y1530D01*
X5730Y2070D02*
X5830Y2170D01*
X5730Y1580D02*
Y2070D01*
Y1580D02*
X5960Y1350D01*
X5330Y1270D02*
Y1670D01*
Y1270D02*
X5400Y1200D01*
X5610D01*
X5710Y1100D01*
Y960D02*
Y1100D01*
X4777Y1841D02*
X4881D01*
X5140Y2100D02*
X5370D01*
X4777Y1841D02*
X4778Y1841D01*
X4761Y1841D02*
X4777D01*
X4881D02*
X5140Y2100D01*
X4778Y1714D02*
X4933D01*
X5010Y1790D01*
Y1845D01*
X5195Y2030D01*
X5060Y1830D02*
X5190Y1960D01*
X4778Y1586D02*
X4967D01*
X5060Y1680D02*
Y1830D01*
X4967Y1586D02*
X5060Y1680D01*
X5483Y1714D02*
X5563D01*
X5503Y1586D02*
X5597D01*
X5500Y1457D02*
X5503Y1460D01*
X5500Y1270D02*
Y1457D01*
X5503Y1460D02*
X5610D01*
X4800Y2120D02*
X4850D01*
Y2170D01*
Y2120D02*
X4900D01*
X4850Y2070D02*
Y2120D01*
X4780Y2190D02*
X4920D01*
X4780Y2050D02*
Y2190D01*
Y2050D02*
X4920D01*
Y2190D01*
X7250Y4400D02*
X7300D01*
Y4450D01*
Y4400D02*
X7350D01*
X7300Y4350D02*
Y4400D01*
X7230Y4470D02*
X7370D01*
X7230Y4330D02*
Y4470D01*
Y4330D02*
X7370D01*
Y4470D01*
X570Y930D02*
Y1070D01*
X430Y930D02*
X570D01*
X430D02*
Y1070D01*
X570D01*
X500Y950D02*
Y1000D01*
X550D01*
X500D02*
Y1050D01*
X450Y1000D02*
X500D01*
X570Y5930D02*
Y6070D01*
X430Y5930D02*
X570D01*
X430D02*
Y6070D01*
X570D01*
X500Y5950D02*
Y6000D01*
X550D01*
X500D02*
Y6050D01*
X450Y6000D02*
X500D01*
X12450D02*
X12500D01*
Y6050D01*
Y6000D02*
X12550D01*
X12500Y5950D02*
Y6000D01*
X12430Y6070D02*
X12570D01*
X12430Y5930D02*
Y6070D01*
Y5930D02*
X12570D01*
Y6070D01*
X12450Y1000D02*
X12500D01*
Y1050D01*
Y1000D02*
X12550D01*
X12500Y950D02*
Y1000D01*
X12430Y1070D02*
X12570D01*
X12430Y930D02*
Y1070D01*
Y930D02*
X12570D01*
Y1070D01*
X6930Y3610D02*
X7650Y4330D01*
X6964Y3560D02*
X7694Y4290D01*
X6970Y3510D02*
X7710Y4250D01*
X6983Y3410D02*
X7743Y4170D01*
X6990Y3360D02*
X7760Y4130D01*
X7000Y3310D02*
X7780Y4090D01*
X7799Y4050D02*
X8400D01*
X7280Y3531D02*
X7799Y4050D01*
X7816Y4010D02*
X8360D01*
X7320Y3514D02*
X7816Y4010D01*
X7833Y3970D02*
X8320D01*
X7360Y3497D02*
X7833Y3970D01*
X7849Y3930D02*
X8280D01*
X7400Y3481D02*
X7849Y3930D01*
X7866Y3890D02*
X8240D01*
X7440Y3464D02*
X7866Y3890D01*
X7882Y3850D02*
X8200D01*
X7480Y3448D02*
X7882Y3850D01*
X7357Y4687D02*
Y4865D01*
X7112Y4442D02*
X7357Y4687D01*
X7112Y4066D02*
Y4442D01*
X590Y2720D02*
X705Y2605D01*
X410Y2720D02*
X590D01*
X481Y2900D02*
Y2939D01*
X810Y2610D01*
X950D01*
X4370Y5140D02*
X7160D01*
X5040Y3980D02*
X5400D01*
X4650Y3890D02*
X5427D01*
X4560Y3980D02*
X4650Y3890D01*
X4550Y3980D02*
X4560D01*
X4610Y4060D02*
X4690Y3980D01*
X4130Y4540D02*
X4610Y4060D01*
X2830Y4540D02*
X4130D01*
X2450Y4160D02*
X2830Y4540D01*
X2450Y3980D02*
Y4160D01*
X4280Y4660D02*
X4680Y4260D01*
X2680Y4660D02*
X4280D01*
X2300Y4280D02*
X2680Y4660D01*
X4210Y4600D02*
X4730Y4080D01*
X2730Y4600D02*
X4210D01*
X2350Y4220D02*
X2730Y4600D01*
X320Y3247D02*
X483Y3410D01*
X320Y2810D02*
Y3247D01*
Y2810D02*
X410Y2720D01*
X950Y2610D02*
X970Y2590D01*
X510Y3850D02*
Y4470D01*
X440Y3920D02*
X510Y3850D01*
X1145Y3190D02*
X1230Y3105D01*
X1270Y3180D02*
X1280Y3190D01*
X1350D01*
X1270D02*
X1280D01*
X4283Y3720D02*
X4623Y3380D01*
X4250Y3720D02*
X4283D01*
X4267Y3680D02*
X4637Y3310D01*
X4200Y3680D02*
X4267D01*
X7899Y3490D02*
X8570D01*
X7369Y2960D02*
X7899Y3490D01*
X7915Y3450D02*
X8610D01*
X7385Y2920D02*
X7915Y3450D01*
X7932Y3410D02*
X8650D01*
X7402Y2880D02*
X7932Y3410D01*
X7948Y3370D02*
X8690D01*
X7418Y2840D02*
X7948Y3370D01*
X7965Y3330D02*
X8900D01*
X7435Y2800D02*
X7965Y3330D01*
X7982Y3290D02*
X8940D01*
X7372Y2680D02*
X7982Y3290D01*
X7998Y3250D02*
X8980D01*
X7388Y2640D02*
X7998Y3250D01*
X8015Y3210D02*
X9020D01*
X7405Y2600D02*
X8015Y3210D01*
X8031Y3170D02*
X8970D01*
X7421Y2560D02*
X8031Y3170D01*
X8048Y3130D02*
X8930D01*
X7438Y2520D02*
X8048Y3130D01*
X8064Y3090D02*
X8890D01*
X7454Y2480D02*
X8064Y3090D01*
X8081Y3050D02*
X8850D01*
X7471Y2440D02*
X8081Y3050D01*
X8098Y3010D02*
X8650D01*
X7438Y2350D02*
X8098Y3010D01*
X8114Y2970D02*
X8610D01*
X7454Y2310D02*
X8114Y2970D01*
X8131Y2930D02*
X8570D01*
X7471Y2270D02*
X8131Y2930D01*
X8147Y2890D02*
X8530D01*
X7487Y2230D02*
X8147Y2890D01*
X8930Y3130D02*
X9330Y2730D01*
Y2612D02*
Y2730D01*
X2662Y4865D02*
Y5038D01*
X2665Y5040D01*
X8853Y4692D02*
Y4865D01*
X8850Y4690D02*
X8853Y4692D01*
X8982D02*
Y4865D01*
X8980Y4690D02*
X8982Y4692D01*
X9178Y4692D02*
Y4865D01*
X9175Y4690D02*
X9178Y4692D01*
X9305Y4690D02*
Y4863D01*
X9307Y4865D01*
X9722Y4692D02*
Y4865D01*
X9720Y4690D02*
X9722Y4692D01*
X2400Y2360D02*
Y2460D01*
X2395Y2355D02*
X2400Y2360D01*
X2600D02*
Y2460D01*
Y2360D02*
X2605Y2355D01*
X2650Y2360D02*
Y2460D01*
X2645Y2355D02*
X2650Y2360D01*
X3510Y3420D02*
X3730D01*
X3510Y3370D02*
X3750D01*
X3510Y3320D02*
X3940D01*
X3510Y3270D02*
X3830D01*
X3510Y3220D02*
X3810D01*
X4133Y3000D02*
X4503Y2630D01*
X4100Y3000D02*
X4133D01*
X4060Y3040D02*
X4100Y3000D01*
X3870Y3620D02*
X4445Y3045D01*
X4465D01*
X4500Y3010D01*
X5542Y4770D02*
Y4865D01*
X5520Y4747D02*
X5542Y4770D01*
X5520Y4700D02*
Y4747D01*
X5608Y4762D02*
Y4865D01*
Y4762D02*
X5620Y4750D01*
Y4700D02*
Y4750D01*
X5217Y4632D02*
Y4865D01*
Y4632D02*
X5220Y4630D01*
X5283Y4703D02*
Y4865D01*
X5280Y4700D02*
X5283Y4703D01*
X6412Y4865D02*
Y4997D01*
X6410Y5000D02*
X6412Y4997D01*
X9853Y4692D02*
Y4865D01*
X9850Y4690D02*
X9853Y4692D01*
X10550Y5040D02*
Y5040D01*
X10650Y4980D02*
Y5040D01*
X10550Y5040D02*
X10602Y4988D01*
Y4865D02*
Y4988D01*
X10730Y5000D02*
X10732Y4998D01*
X6820Y5010D02*
X6870D01*
X9243Y4740D02*
Y4865D01*
X8918Y4740D02*
Y4865D01*
X1850Y1190D02*
X1870Y1210D01*
X1910D02*
X1930Y1190D01*
X3576Y570D02*
X3586D01*
X3513Y623D02*
X3523D01*
X3423Y533D02*
X3513Y623D01*
X3555Y665D02*
X3580Y690D01*
X3608Y593D02*
Y602D01*
X3586Y570D02*
X3608Y593D01*
X3523Y623D02*
X3576Y570D01*
X3555Y655D02*
X3555Y665D01*
X3555Y655D02*
X3608Y602D01*
X3467Y1110D02*
X3580Y997D01*
Y690D02*
Y997D01*
X1870Y858D02*
Y953D01*
X1877Y715D02*
X1952D01*
X1870Y858D02*
X1877Y851D01*
X1952D01*
X1877Y760D02*
X1952D01*
Y715D02*
X1959Y721D01*
X1952Y851D02*
X1959Y844D01*
X1870Y799D02*
X1877Y805D01*
X1870Y708D02*
X1877Y715D01*
X1952Y805D02*
X1959Y812D01*
X1877Y805D02*
X1952D01*
X1870Y767D02*
X1877Y760D01*
X1952D02*
X1959Y753D01*
X1870Y767D02*
Y799D01*
X1959Y812D02*
Y844D01*
X1870Y647D02*
Y708D01*
X1959Y721D02*
Y753D01*
X1984Y533D02*
X2067D01*
X1870Y647D02*
X1984Y533D01*
X2505Y1685D02*
X2855Y2035D01*
X2607Y1593D02*
X3005Y1992D01*
X6430Y2360D02*
X6430D01*
X6380Y2410D02*
X6430Y2360D01*
X6480Y2310D02*
X6530Y2260D01*
X9788Y4740D02*
Y4865D01*
X8400Y4050D02*
X8610Y3840D01*
X8360Y4010D02*
X8530Y3840D01*
X8320Y3970D02*
X8450Y3840D01*
X8280Y3930D02*
X8370Y3840D01*
X6880Y3610D02*
X6930D01*
X6630Y2070D02*
Y2260D01*
X6580Y2310D02*
X6630Y2260D01*
X7472Y1680D02*
X7692D01*
X7232Y1440D02*
X7472Y1680D01*
X7456Y1720D02*
X7676D01*
X7216Y1480D02*
X7456Y1720D01*
X6270Y1480D02*
X7216D01*
X7439Y1760D02*
X7659D01*
X7199Y1520D02*
X7439Y1760D01*
X6287Y1520D02*
X7199D01*
X7423Y1800D02*
X7643D01*
X7183Y1560D02*
X7423Y1800D01*
X7406Y1840D02*
X7626D01*
X7166Y1600D02*
X7406Y1840D01*
X6320Y1600D02*
X7166D01*
X7389Y1880D02*
X7609D01*
X7149Y1640D02*
X7389Y1880D01*
X7373Y1920D02*
X7593D01*
X7133Y1680D02*
X7373Y1920D01*
X6737Y1680D02*
X7133D01*
X7356Y1960D02*
X7576D01*
X7116Y1720D02*
X7356Y1960D01*
X7340Y2000D02*
X7560D01*
X7100Y1760D02*
X7340Y2000D01*
X7323Y2040D02*
X7543D01*
X7083Y1800D02*
X7323Y2040D01*
X7307Y2080D02*
X7527D01*
X7067Y1840D02*
X7307Y2080D01*
X6803Y1840D02*
X7067D01*
X7290Y2120D02*
X7510D01*
X7050Y1880D02*
X7290Y2120D01*
X6820Y1880D02*
X7050D01*
X7240Y2230D02*
X7487D01*
X7030Y2020D02*
X7240Y2230D01*
X7010Y2020D02*
X7030D01*
X7010Y2020D02*
X7010Y2020D01*
X7223Y2270D02*
X7471D01*
X7013Y2060D02*
X7223Y2270D01*
X6993Y2060D02*
X7013D01*
X6993Y2060D02*
X6993Y2060D01*
X7207Y2310D02*
X7454D01*
X6997Y2100D02*
X7207Y2310D01*
X6840Y2100D02*
X6997D01*
X7190Y2350D02*
X7438D01*
X6980Y2140D02*
X7190Y2350D01*
X6860Y2140D02*
X6980D01*
X6080Y1670D02*
X6270Y1480D01*
X6030Y1664D02*
X6254Y1440D01*
X6130Y1677D02*
X6287Y1520D01*
X6170Y1693D02*
X6303Y1560D01*
X6210Y1710D02*
X6320Y1600D01*
X6210Y1710D02*
Y2100D01*
X5780Y1673D02*
X6623Y830D01*
X6610Y900D02*
X7560D01*
X5820Y1690D02*
X6610Y900D01*
X5820Y1690D02*
Y2030D01*
X5960Y950D02*
Y1350D01*
X5580Y3940D02*
Y4080D01*
X11370Y260D02*
X11470D01*
X11462Y112D02*
X11470Y120D01*
X11240Y112D02*
X11462D01*
X10960Y260D02*
X11060D01*
X10953Y112D02*
X10960Y120D01*
X10740Y112D02*
X10953D01*
X8200Y590D02*
X8200Y590D01*
X8200Y397D02*
Y590D01*
X7710Y1630D02*
X7830Y1750D01*
X7710Y1518D02*
Y1630D01*
X4610Y3830D02*
X5420D01*
X5480Y3770D01*
X5300Y3160D02*
X5430D01*
X4600Y3170D02*
X5290D01*
X5300Y3160D01*
X5223Y2870D02*
X5349D01*
X5203Y2850D02*
X5223Y2870D01*
X5110Y2850D02*
X5203D01*
X5110Y2850D02*
X5110Y2850D01*
X5206Y2910D02*
X5380D01*
X5186Y2890D02*
X5206Y2910D01*
X5090Y2890D02*
X5186D01*
X5090Y2890D02*
X5090Y2890D01*
X5200Y2960D02*
X5430D01*
X5170Y2930D02*
X5200Y2960D01*
X5070Y2930D02*
X5170D01*
X5070Y2930D02*
X5070Y2930D01*
X5193Y3010D02*
X5380D01*
X5153Y2970D02*
X5193Y3010D01*
X5050Y2970D02*
X5153D01*
X5050Y2970D02*
X5050Y2970D01*
X5359Y3060D02*
X5430D01*
X5349Y3070D02*
X5359Y3060D01*
X5197Y3070D02*
X5349D01*
X5137Y3010D02*
X5197Y3070D01*
X4610Y3010D02*
X5137D01*
X5180Y3110D02*
X5380D01*
X5120Y3050D02*
X5180Y3110D01*
X4630Y3050D02*
X5120D01*
X5183Y2610D02*
X5380D01*
X5163Y2590D02*
X5183Y2610D01*
X5070Y2590D02*
X5163D01*
X5070Y2590D02*
X5070Y2590D01*
X5177Y2660D02*
X5430D01*
X5147Y2630D02*
X5177Y2660D01*
X4503Y2630D02*
X5147D01*
X5170Y2710D02*
X5380D01*
X5130Y2670D02*
X5170Y2710D01*
X4520Y2670D02*
X5130D01*
X5225Y2755D02*
X5335D01*
X5170Y2810D02*
X5225Y2755D01*
X4436Y2810D02*
X5170D01*
X5780Y1673D02*
Y2050D01*
X5880Y2150D01*
X5820Y2030D02*
X5930Y2140D01*
X5730Y2260D02*
X5780Y2310D01*
X5730Y2189D02*
Y2260D01*
X5830Y370D02*
X5880Y420D01*
Y500D01*
X5680Y2200D02*
Y2210D01*
X5780Y2180D02*
Y2210D01*
X5530Y2260D02*
X5580Y2310D01*
X5370Y2100D02*
X5480Y2210D01*
X6290Y3960D02*
Y4440D01*
X3680Y1603D02*
Y1872D01*
X3768Y1960D01*
X4147Y2930D02*
X4487Y2590D01*
X4100Y2930D02*
X4147D01*
X3790Y3120D02*
X3980Y2930D01*
X4100D01*
X3780Y3070D02*
X4020Y2830D01*
X4140D01*
X4150D02*
X4470Y2510D01*
X4050Y3140D02*
X4520Y2670D01*
X4006Y3240D02*
X4436Y2810D01*
X4460Y2850D02*
X5110D01*
X3990Y3320D02*
X4460Y2850D01*
X4477Y2890D02*
X5090D01*
X3957Y3410D02*
X4477Y2890D01*
X4493Y2930D02*
X5070D01*
X3953Y3470D02*
X4493Y2930D01*
X3610Y2410D02*
X5380D01*
X3000Y2360D02*
X3005Y2355D01*
Y1992D02*
Y2355D01*
X3233Y1553D02*
X3320D01*
X3490D01*
X6480Y3010D02*
X6530Y3060D01*
X6401Y3360D02*
X6430Y3331D01*
Y3160D02*
Y3331D01*
X6380Y3110D02*
X6430Y3160D01*
X6480Y3110D02*
X6530Y3160D01*
X6230Y3260D02*
X6280Y3210D01*
X12410Y4300D02*
X12440Y4270D01*
X9330Y5920D02*
X9458Y5792D01*
Y5750D02*
Y5792D01*
X12360Y4180D02*
X12400Y4140D01*
X9458Y6004D02*
Y6098D01*
X12310Y4060D02*
X12360Y4010D01*
X10220Y6120D02*
X10570Y6470D01*
X10220Y6004D02*
Y6120D01*
X12310Y3670D02*
Y3950D01*
X12140Y3500D02*
X12310Y3670D01*
X12270Y3990D02*
X12310Y3950D01*
X10350Y5880D02*
Y6090D01*
X10220Y5750D02*
X10350Y5880D01*
X11290Y6160D02*
X12040Y5410D01*
X10930Y6160D02*
X11290D01*
X10860Y6090D02*
X10930Y6160D01*
X10860Y5940D02*
Y6090D01*
X11110Y5876D02*
X11354D01*
X11910Y3180D02*
Y5060D01*
X11236Y5734D02*
Y5750D01*
X12240Y3880D02*
Y3930D01*
X12220Y3950D02*
X12240Y3930D01*
X10474Y6004D02*
Y6124D01*
X12180Y3850D02*
X12212Y3818D01*
Y3758D02*
Y3818D01*
X10600Y5930D02*
Y6130D01*
Y5930D02*
X10728Y5802D01*
Y5750D02*
Y5802D01*
X10600Y5654D02*
Y5830D01*
X10474Y5956D02*
X10600Y5830D01*
X10474Y5956D02*
Y6004D01*
X10860Y5654D02*
Y5820D01*
X10728Y5952D02*
Y6004D01*
Y5952D02*
X10860Y5820D01*
X10728Y6004D02*
Y6148D01*
X12040Y3390D02*
X12050Y3380D01*
X10860Y5940D02*
X10982Y5818D01*
Y5750D02*
Y5818D01*
X11950Y3290D02*
X11990Y3250D01*
X11496Y2996D02*
X11620Y3120D01*
X11850D01*
X11910Y3180D01*
X9918Y5439D02*
Y5551D01*
X9966Y5600D01*
Y5750D01*
X9853Y5439D02*
Y5863D01*
X9712Y6004D02*
X9853Y5863D01*
X9788Y5439D02*
Y5674D01*
X9712Y5750D02*
X9788Y5674D01*
X9458Y6004D02*
X9580Y5882D01*
X9372Y5439D02*
Y5537D01*
X10112Y5439D02*
Y5622D01*
X10090Y5644D02*
X10112Y5622D01*
X10090Y5644D02*
Y5874D01*
X10220Y6004D01*
X10178Y5439D02*
Y5592D01*
X10220Y5634D01*
Y5750D01*
X10668Y5439D02*
Y5587D01*
X10600Y5654D02*
X10668Y5587D01*
X10732Y5439D02*
Y5746D01*
X10728Y5750D02*
X10732Y5746D01*
X10797Y5439D02*
Y5592D01*
X10860Y5654D01*
X10928Y5439D02*
Y5572D01*
X10982Y5626D01*
Y5750D01*
X11057Y5439D02*
Y5572D01*
X11110Y5624D01*
Y5876D01*
X10982Y6004D02*
X11110Y5876D01*
X11122Y5439D02*
Y5537D01*
X11236Y5650D01*
Y5750D01*
X9307Y5439D02*
Y5599D01*
X9458Y5750D01*
X9372Y5537D02*
X9470Y5634D01*
X9520D01*
X9580Y5694D01*
Y5882D01*
X6217Y5445D02*
Y5558D01*
X6266Y5606D01*
Y5756D01*
X6153Y5445D02*
Y5870D01*
X6012Y6010D02*
X6153Y5870D01*
X6088Y5445D02*
Y5681D01*
X6012Y5756D02*
X6088Y5681D01*
X5758Y6010D02*
X5880Y5888D01*
X5672Y5445D02*
Y5543D01*
X5542Y5445D02*
Y5623D01*
X5630Y5710D01*
Y5884D01*
X5504Y6010D02*
X5630Y5884D01*
X5347Y5445D02*
Y5558D01*
X5504Y5714D01*
Y5756D01*
X5283Y5445D02*
Y5572D01*
X5380Y5670D01*
Y5880D01*
X5250Y6010D02*
X5380Y5880D01*
X6412Y5445D02*
Y5628D01*
X6390Y5650D02*
X6412Y5628D01*
X6390Y5650D02*
Y5880D01*
X6520Y6010D01*
X6478Y5445D02*
Y5598D01*
X6520Y5640D01*
Y5756D01*
X6968Y5445D02*
Y5593D01*
X6900Y5660D02*
X6968Y5593D01*
X6900Y5660D02*
Y5884D01*
X6774Y6010D02*
X6900Y5884D01*
X7032Y5445D02*
Y5752D01*
X7028Y5756D02*
X7032Y5752D01*
X7097Y5445D02*
Y5598D01*
X7160Y5660D01*
Y5878D01*
X7028Y6010D02*
X7160Y5878D01*
X7228Y5445D02*
Y5578D01*
X7282Y5632D01*
Y5756D01*
X7357Y5445D02*
Y5578D01*
X7410Y5630D01*
Y5882D01*
X7282Y6010D02*
X7410Y5882D01*
X7422Y5445D02*
Y5543D01*
X7536Y5656D01*
Y5756D01*
X5217Y5598D02*
X5250Y5630D01*
Y5756D01*
X5217Y5445D02*
Y5598D01*
X5608Y5445D02*
Y5606D01*
X5758Y5756D01*
X5672Y5543D02*
X5770Y5640D01*
X5820D01*
X5880Y5700D01*
Y5888D01*
X2130Y5690D02*
Y5878D01*
X2070Y5630D02*
X2130Y5690D01*
X2020Y5630D02*
X2070D01*
X1923Y5533D02*
X2020Y5630D01*
X481Y3920D02*
X483Y3918D01*
X440Y3920D02*
X481D01*
X483Y3410D02*
X483Y3410D01*
X481Y2900D02*
X483Y2902D01*
X6950Y2920D02*
X7385D01*
X6940Y2910D02*
X6950Y2920D01*
X6880Y2910D02*
X6940D01*
X6970Y2880D02*
X7402D01*
X6950Y2860D02*
X6970Y2880D01*
X6830Y2860D02*
X6950D01*
X7000Y2840D02*
X7418D01*
X6970Y2810D02*
X7000Y2840D01*
X7020Y2800D02*
X7333D01*
X6980Y2760D02*
X7020Y2800D01*
X6780Y2810D02*
X6830Y2860D01*
X6880Y2810D02*
X6970D01*
X6830Y2960D02*
X7369D01*
X6780Y2910D02*
X6830Y2960D01*
X6480Y2810D02*
X6530Y2860D01*
X6480Y2910D02*
X6530Y2960D01*
X6580Y2910D02*
X6630Y2960D01*
X1830Y970D02*
X2040Y1180D01*
X3540Y707D02*
Y980D01*
X3461Y628D02*
X3540Y707D01*
X3362Y628D02*
X3461D01*
X3401Y533D02*
X3423D01*
X3210D02*
X3267D01*
X3362Y628D01*
X3050Y2360D02*
Y2460D01*
X3045Y2355D02*
X3050Y2360D01*
X3000D02*
Y2460D01*
X3450Y1070D02*
X3540Y980D01*
X3220Y1540D02*
X3233Y1553D01*
X3260Y1840D02*
Y1960D01*
X3220Y1800D02*
X3260Y1840D01*
X3220Y1680D02*
Y1800D01*
X3490Y1680D02*
X3490Y1681D01*
X3520Y2460D02*
X3520Y2460D01*
X1830Y630D02*
Y970D01*
X9260Y2260D02*
X9490Y2490D01*
X7989Y2260D02*
X9260D01*
X9300Y2220D02*
X9570Y2490D01*
X8006Y2220D02*
X9300D01*
X9340Y2180D02*
X9650Y2490D01*
X8023Y2180D02*
X9340D01*
X9380Y2140D02*
X9730Y2490D01*
X8039Y2140D02*
X9380D01*
X8056Y2100D02*
X9420D01*
X8072Y2060D02*
X9460D01*
X5630Y2460D02*
X5680Y2410D01*
X1280Y2040D02*
X1280Y2040D01*
X2350Y2360D02*
X2355Y2355D01*
X2350Y2360D02*
Y2460D01*
X1206Y3253D02*
X1270Y3190D01*
X5830Y2170D02*
Y2260D01*
X5880Y2310D01*
Y2150D02*
Y2210D01*
X5930Y2140D02*
Y2260D01*
X6130Y1677D02*
Y1901D01*
X6130Y1901D02*
X6130Y1901D01*
X4470Y2510D02*
X5380D01*
X5340Y2760D02*
X5430D01*
X5335Y2755D02*
X5340Y2760D01*
X5930Y2260D02*
X5980Y2310D01*
X4410Y3270D02*
X4630Y3050D01*
X4540Y3080D02*
X4610Y3010D01*
X4510Y3080D02*
X4540D01*
X4487Y2590D02*
X5070D01*
X4140Y2830D02*
X4150D01*
X4540Y2970D02*
X5050D01*
X5359Y2860D02*
X5430D01*
X5349Y2870D02*
X5359Y2860D01*
X4500Y3010D02*
X4540Y2970D01*
X4380Y3210D02*
X4440Y3150D01*
X4510Y3080D01*
X3887Y3660D02*
X4337Y3210D01*
X4380D01*
X4333Y3270D02*
X4410D01*
X3903Y3700D02*
X4333Y3270D01*
X4420Y3350D02*
X4600Y3170D01*
X4397Y3430D02*
X4617Y3210D01*
X4250Y3460D02*
X4360Y3350D01*
X4420D01*
X4330Y3470D02*
X4370Y3430D01*
X4397D01*
X4300Y3590D02*
X4630Y3260D01*
X3870Y4190D02*
X4620Y3440D01*
X3887Y4230D02*
X4617Y3500D01*
X4613Y3560D02*
X4810D01*
X3903Y4270D02*
X4613Y3560D01*
X4610Y3620D02*
X4750D01*
X3920Y4310D02*
X4610Y3620D01*
X4590Y3700D02*
X4740D01*
X3940Y4350D02*
X4590Y3700D01*
X4617Y3210D02*
X5380D01*
X4623Y3380D02*
X5260D01*
X4620Y3440D02*
X4930D01*
X4617Y3500D02*
X4870D01*
X3920Y3740D02*
X4200Y3460D01*
X4250D01*
X4630Y3260D02*
X5430D01*
X3936Y3780D02*
X4206Y3510D01*
X4290D01*
X4330Y3470D01*
X4637Y3310D02*
X5380D01*
X4260Y3590D02*
X4300D01*
X3953Y3820D02*
X4183Y3590D01*
X4260D01*
X4140Y3830D02*
X4250Y3720D01*
X3350Y3980D02*
X3900D01*
X4200Y3680D01*
X3860Y4110D02*
X4140Y3830D01*
X3510Y3820D02*
X3953D01*
X3609Y3780D02*
X3936D01*
X3625Y3740D02*
X3920D01*
X3642Y3700D02*
X3903D01*
X3658Y3660D02*
X3887D01*
X3675Y3620D02*
X3870D01*
X3960Y4390D02*
X4590Y3760D01*
X3330Y4110D02*
X3860D01*
X3146Y4310D02*
X3920D01*
X3163Y4270D02*
X3903D01*
X3180Y4230D02*
X3887D01*
X3200Y4190D02*
X3870D01*
X4590Y3760D02*
X4680D01*
X3130Y4350D02*
X3940D01*
X3113Y4390D02*
X3960D01*
X4010Y4430D02*
X4610Y3830D01*
X3097Y4430D02*
X4010D01*
X5427Y3890D02*
X5530Y3787D01*
X4060Y4470D02*
X4550Y3980D01*
X3080Y4470D02*
X4060D01*
X4690Y3980D02*
X4900D01*
X5280Y3360D02*
X5430D01*
X5260Y3380D02*
X5280Y3360D01*
X5290Y3410D02*
X5380D01*
X5260Y3440D02*
X5290Y3410D01*
X4930Y3440D02*
X5260D01*
X5303Y3460D02*
X5430D01*
X5263Y3500D02*
X5303Y3460D01*
X5310Y3510D02*
X5380D01*
X5260Y3560D02*
X5310Y3510D01*
X5430Y3460D02*
X5480Y3410D01*
X4870Y3500D02*
X5263D01*
X4810Y3560D02*
X5260D01*
X4750Y3620D02*
X5260D01*
X5320Y3560D01*
X4740Y3700D02*
X5240D01*
X5330Y3610D01*
X4680Y3760D02*
X5240D01*
X5340Y3660D01*
X3860Y3470D02*
X3953D01*
X3920Y3410D02*
X3957D01*
X3940Y3320D02*
X3990D01*
X5320Y3560D02*
X5430D01*
X5330Y3610D02*
X5380D01*
X5340Y3660D02*
X5430D01*
X3510Y3070D02*
X3780D01*
X3750Y3370D02*
X3790Y3410D01*
X3730Y3420D02*
X3780Y3470D01*
X2300Y3980D02*
Y4280D01*
X2350Y3980D02*
Y4220D01*
X3150Y4140D02*
X3200Y4190D01*
X3100Y4150D02*
X3180Y4230D01*
X3050Y4157D02*
X3163Y4270D01*
X3000Y4164D02*
X3146Y4310D01*
X2950Y4170D02*
X3130Y4350D01*
X2900Y4177D02*
X3113Y4390D01*
X2850Y4183D02*
X3097Y4430D01*
X2800Y4190D02*
X3080Y4470D01*
X3050Y3980D02*
Y4157D01*
X3000Y3980D02*
Y4164D01*
X2950Y3980D02*
Y4170D01*
X2900Y3980D02*
Y4177D01*
X2850Y3980D02*
Y4183D01*
X2800Y3980D02*
Y4190D01*
X3100Y3980D02*
Y4150D01*
X3150Y3980D02*
Y4140D01*
X3300Y4080D02*
X3330Y4110D01*
X3300Y3980D02*
Y4080D01*
X2250Y3980D02*
Y4350D01*
X6230Y3780D02*
X6450Y4000D01*
X6420Y4350D02*
X6450Y4320D01*
Y4000D02*
Y4320D01*
X6280Y3770D02*
X6490Y3980D01*
X6330Y3760D02*
X6540Y3970D01*
X6380Y3753D02*
X6580Y3953D01*
X6380Y3710D02*
Y3753D01*
X6430Y3747D02*
X6620Y3937D01*
X6430Y3660D02*
Y3747D01*
X6230Y3660D02*
Y3780D01*
X6280Y3710D02*
Y3770D01*
X6330Y3660D02*
Y3760D01*
X6450Y4430D02*
X6490Y4390D01*
Y3980D02*
Y4390D01*
X6540Y3800D02*
X6660Y3920D01*
X6540Y3770D02*
Y3800D01*
X6660Y3920D02*
Y4150D01*
X6620Y3937D02*
Y4170D01*
X6180Y3850D02*
X6290Y3960D01*
X6210Y3940D02*
Y4460D01*
X6130Y3860D02*
X6210Y3940D01*
X5880Y3710D02*
Y3845D01*
X5950Y3915D02*
Y4160D01*
X5880Y3845D02*
X5950Y3915D01*
X5990Y3900D02*
X6020Y3930D01*
X5990Y3898D02*
Y3900D01*
X5920Y3828D02*
X5990Y3898D01*
X5920Y3760D02*
Y3828D01*
X6030Y3760D02*
X6080Y3810D01*
X6022Y4717D02*
X6090Y4650D01*
X6130Y3660D02*
Y3860D01*
X6090Y4580D02*
Y4650D01*
Y4580D02*
X6210Y4460D01*
X6180Y3710D02*
Y3850D01*
X6080Y3810D02*
Y4160D01*
X6020Y3930D02*
Y4220D01*
X1858Y4610D02*
Y4865D01*
Y4610D02*
X1880Y4588D01*
Y4540D02*
Y4588D01*
X1792Y4533D02*
Y4865D01*
X1790Y4530D02*
X1792Y4533D01*
X1727Y4472D02*
Y4865D01*
Y4472D02*
X1730Y4470D01*
X1532Y4458D02*
Y4865D01*
Y4458D02*
X1560Y4430D01*
X1468Y4383D02*
Y4865D01*
Y4383D02*
X1470Y4380D01*
X1402Y4312D02*
Y4865D01*
X1400Y4310D02*
X1402Y4312D01*
X2338Y4633D02*
Y4865D01*
X2273Y4583D02*
Y4865D01*
X7130Y2600D02*
X7130Y2600D01*
X6957Y2600D02*
X7130D01*
X6947Y2610D02*
X6957Y2600D01*
X6880Y2610D02*
X6947D01*
X6953Y2660D02*
X6973Y2640D01*
X6830Y2660D02*
X6953D01*
X6990Y2680D02*
X7372D01*
X6960Y2710D02*
X6990Y2680D01*
X6880Y2710D02*
X6960D01*
X6370Y1991D02*
X6721Y1640D01*
X6410Y2007D02*
X6737Y1680D01*
X6630Y2070D02*
X6820Y1880D01*
X8610Y3450D02*
X8770Y3610D01*
X8650Y3410D02*
X8850Y3610D01*
X8690Y3370D02*
X8930Y3610D01*
X8940Y3290D02*
X9250Y3600D01*
X8980Y3250D02*
X9330Y3600D01*
X9020Y3210D02*
X9410Y3600D01*
X8900Y3330D02*
X9170Y3600D01*
X8570Y3490D02*
X8690Y3610D01*
X7333Y2800D02*
X7435D01*
X6973Y2640D02*
X7388D01*
X7400Y2600D02*
X7405D01*
X7418Y2560D02*
X7421D01*
X7434Y2520D02*
X7438D01*
X7451Y2480D02*
X7454D01*
X7467Y2440D02*
X7471D01*
X7333Y2800D02*
X7333Y2800D01*
X6830Y3783D02*
X7100Y4053D01*
X6780Y3790D02*
X7060Y4070D01*
X3412Y4865D02*
Y5012D01*
X7032Y4099D02*
Y4865D01*
X6967Y4091D02*
Y4865D01*
X6902Y4082D02*
Y4865D01*
X6780Y3710D02*
Y3790D01*
X6830Y3660D02*
Y3783D01*
X6660Y4150D02*
X6660Y4150D01*
X6620Y4170D02*
X6620Y4170D01*
X6580Y4190D02*
X6580Y4190D01*
X6580Y3953D02*
Y4190D01*
X2022Y438D02*
X2107D01*
X1830Y630D02*
X2022Y438D01*
X2107D02*
X2202Y533D01*
X2258D01*
X2850Y2360D02*
X2855Y2355D01*
Y2035D02*
Y2355D01*
X2850Y2360D02*
Y2460D01*
X2900Y2360D02*
Y2460D01*
X2895Y2355D02*
X2900Y2360D01*
X2895Y2018D02*
Y2355D01*
X1858Y5596D02*
X2008Y5746D01*
X1858Y5435D02*
Y5596D01*
X1468Y5435D02*
Y5588D01*
X1500Y5620D02*
Y5746D01*
X1468Y5588D02*
X1500Y5620D01*
X3786Y5646D02*
Y5746D01*
X3672Y5533D02*
X3786Y5646D01*
X3672Y5435D02*
Y5533D01*
X3532Y6000D02*
X3660Y5872D01*
Y5620D02*
Y5872D01*
X3608Y5567D02*
X3660Y5620D01*
X3608Y5435D02*
Y5567D01*
X3532Y5622D02*
Y5746D01*
X3478Y5567D02*
X3532Y5622D01*
X3478Y5435D02*
Y5567D01*
X3278Y6000D02*
X3410Y5868D01*
Y5650D02*
Y5868D01*
X3347Y5588D02*
X3410Y5650D01*
X3347Y5435D02*
Y5588D01*
X3278Y5746D02*
X3283Y5742D01*
Y5435D02*
Y5742D01*
X3024Y6000D02*
X3150Y5874D01*
Y5650D02*
Y5874D01*
Y5650D02*
X3217Y5583D01*
Y5435D02*
Y5583D01*
X2770Y5630D02*
Y5746D01*
X2727Y5588D02*
X2770Y5630D01*
X2727Y5435D02*
Y5588D01*
X2640Y5870D02*
X2770Y6000D01*
X2640Y5640D02*
Y5870D01*
Y5640D02*
X2662Y5617D01*
Y5435D02*
Y5617D01*
X1500Y6000D02*
X1630Y5870D01*
Y5660D02*
Y5870D01*
X1532Y5562D02*
X1630Y5660D01*
X1532Y5435D02*
Y5562D01*
X1754Y5704D02*
Y5746D01*
X1598Y5547D02*
X1754Y5704D01*
X1598Y5435D02*
Y5547D01*
X1754Y6000D02*
X1880Y5874D01*
Y5700D02*
Y5874D01*
X1792Y5612D02*
X1880Y5700D01*
X1792Y5435D02*
Y5612D01*
X1923Y5435D02*
Y5533D01*
X2008Y6000D02*
X2130Y5878D01*
X2262Y5746D02*
X2338Y5671D01*
Y5435D02*
Y5671D01*
X2262Y6000D02*
X2402Y5860D01*
Y5435D02*
Y5860D01*
X2516Y5596D02*
Y5746D01*
X2467Y5547D02*
X2516Y5596D01*
X2467Y5435D02*
Y5547D01*
X5830Y3560D02*
Y4180D01*
X5945Y4295D01*
Y4390D01*
X5680Y3710D02*
Y3840D01*
X5580Y3940D02*
X5680Y3840D01*
X5630Y3660D02*
Y3830D01*
X5530Y3930D02*
X5630Y3830D01*
X5480Y3900D02*
X5580Y3800D01*
Y3710D02*
Y3800D01*
X6730Y3660D02*
Y3797D01*
X6680Y3710D02*
Y3803D01*
X6640Y3770D02*
Y3820D01*
X6830Y3560D02*
X6964D01*
X6880Y3510D02*
X6970D01*
X6880Y3410D02*
X6983D01*
X7467Y2440D02*
X7467Y2440D01*
X7451Y2480D02*
X7451Y2480D01*
X7434Y2520D02*
X7434Y2520D01*
X7418Y2560D02*
X7418Y2560D01*
X7400Y2600D02*
X7400Y2600D01*
X6030Y1664D02*
Y2260D01*
X7280Y3530D02*
Y3531D01*
X7010Y3260D02*
X7280Y3530D01*
X7320Y3513D02*
Y3514D01*
X7017Y3210D02*
X7320Y3513D01*
X7360Y3497D02*
Y3497D01*
X7023Y3160D02*
X7360Y3497D01*
X7400Y3480D02*
Y3481D01*
X7030Y3110D02*
X7400Y3480D01*
X7440Y3464D02*
Y3464D01*
X7036Y3060D02*
X7440Y3464D01*
X7480Y3447D02*
Y3448D01*
X7043Y3010D02*
X7480Y3447D01*
X6280Y2130D02*
X6370Y2040D01*
Y1991D02*
Y2040D01*
X6330Y2148D02*
X6410Y2068D01*
Y2007D02*
Y2068D01*
X6530Y2057D02*
X6787Y1800D01*
X6450Y2024D02*
X6754Y1720D01*
X6490Y2040D02*
X6770Y1760D01*
X6580Y2063D02*
X6803Y1840D01*
X7510Y2120D02*
X7890Y2500D01*
X7692Y1680D02*
X8072Y2060D01*
X7676Y1720D02*
X8056Y2100D01*
X7659Y1760D02*
X8039Y2140D01*
X7643Y1800D02*
X8023Y2180D01*
X7626Y1840D02*
X8006Y2220D01*
X7609Y1880D02*
X7989Y2260D01*
X7973Y2300D02*
X8410D01*
X7593Y1920D02*
X7973Y2300D01*
X7956Y2340D02*
X8370D01*
X7576Y1960D02*
X7956Y2340D01*
X7940Y2380D02*
X8330D01*
X7560Y2000D02*
X7940Y2380D01*
X7923Y2420D02*
X8290D01*
X7543Y2040D02*
X7923Y2420D01*
X7907Y2460D02*
X8250D01*
X7527Y2080D02*
X7907Y2460D01*
X7890Y2500D02*
X8210D01*
X6580Y3710D02*
X6640Y3770D01*
X6030Y2260D02*
X6080Y2310D01*
Y1670D02*
Y2210D01*
X6130Y1901D02*
Y2260D01*
X6170Y1693D02*
Y2120D01*
X6130Y2260D02*
X6180Y2310D01*
X6170Y2120D02*
X6180Y2130D01*
Y2210D01*
X6210Y2100D02*
X6230Y2120D01*
Y2260D01*
X6280Y2310D01*
Y2130D02*
Y2210D01*
X6330Y2148D02*
Y2360D01*
X6450Y2024D02*
Y2140D01*
X6490Y2040D02*
Y2200D01*
X6530Y2057D02*
Y2260D01*
X6580Y2063D02*
Y2210D01*
X6680Y2140D02*
Y2210D01*
Y2140D02*
X6800Y2020D01*
X6730Y2147D02*
X6817Y2060D01*
X6730Y2147D02*
Y2260D01*
X6780Y2160D02*
X6840Y2100D01*
X6780Y2160D02*
Y2210D01*
X6830Y2170D02*
X6860Y2140D01*
X6830Y2170D02*
Y2260D01*
X6960Y2440D02*
X7467D01*
X6940Y2480D02*
X7451D01*
X6890Y2520D02*
X7434D01*
X6830Y2560D02*
X7418D01*
X7130Y2600D02*
X7400D01*
X6780Y2310D02*
X6830Y2260D01*
Y2760D02*
X6980D01*
X9420Y2100D02*
X9810Y2490D01*
X9460Y2060D02*
X9890Y2490D01*
Y2612D01*
X9810Y2490D02*
Y2612D01*
X9730Y2490D02*
Y2612D01*
X9490Y2490D02*
Y2612D01*
X9570Y2490D02*
Y2612D01*
X9650Y2490D02*
Y2612D01*
X6280Y2410D02*
X6330Y2360D01*
X6380Y2210D02*
X6450Y2140D01*
X6480Y2210D02*
X6490Y2200D01*
X8250Y2460D02*
X8290Y2500D01*
X8290Y2420D02*
X8370Y2500D01*
X8330Y2380D02*
X8450Y2500D01*
X8370Y2340D02*
X8530Y2500D01*
X8410Y2300D02*
X8610Y2500D01*
Y2612D01*
X8530Y2500D02*
Y2612D01*
X8450Y2500D02*
Y2612D01*
X8210Y2500D02*
Y2612D01*
X8290Y2500D02*
Y2612D01*
X8370Y2500D02*
Y2612D01*
X6680Y2310D02*
X6730Y2260D01*
X8530Y2890D02*
X8690Y2730D01*
X8570Y2930D02*
X8770Y2730D01*
X8610Y2970D02*
X8850Y2730D01*
X8650Y3010D02*
X8930Y2730D01*
X8850Y2612D02*
Y2730D01*
X8690Y2612D02*
Y2730D01*
X8770Y2612D02*
Y2730D01*
X8930Y2612D02*
Y2730D01*
X6930Y2410D02*
X6960Y2440D01*
X6880Y2410D02*
X6930D01*
X6920Y2460D02*
X6940Y2480D01*
X6880Y2510D02*
X6890Y2520D01*
X6780Y2510D02*
X6830Y2560D01*
X6880Y3110D02*
X7030D01*
X6830Y3160D02*
X7023D01*
X6880Y3210D02*
X7017D01*
X6830Y3260D02*
X7010D01*
X6880Y3310D02*
X7000D01*
X6830Y3360D02*
X6990D01*
X8850Y3050D02*
X9170Y2730D01*
X8890Y3090D02*
X9250Y2730D01*
X8970Y3170D02*
X9410Y2730D01*
Y2612D02*
Y2730D01*
X9170Y2612D02*
Y2730D01*
X9250Y2612D02*
Y2730D01*
X6780Y2610D02*
X6830Y2660D01*
X6780Y2710D02*
X6830Y2760D01*
X6880Y3010D02*
X7043D01*
X9410Y3600D02*
Y3728D01*
X9330Y3600D02*
Y3728D01*
X9170Y3600D02*
Y3728D01*
X9250Y3600D02*
Y3728D01*
X8930Y3610D02*
Y3728D01*
X8850Y3610D02*
Y3728D01*
X8690Y3610D02*
Y3728D01*
X8770Y3610D02*
Y3728D01*
X6780Y3110D02*
X6830Y3160D01*
X6780Y3210D02*
X6830Y3260D01*
X8200Y3850D02*
X8210Y3840D01*
Y3728D02*
Y3840D01*
X8240Y3890D02*
X8290Y3840D01*
Y3728D02*
Y3840D01*
X8370Y3728D02*
Y3840D01*
X8450Y3728D02*
Y3840D01*
X8530Y3728D02*
Y3840D01*
X8610Y3728D02*
Y3840D01*
X6780Y3310D02*
X6830Y3360D01*
X6780Y3510D02*
X6830Y3560D01*
X6180Y3610D02*
X6230Y3660D01*
X6080Y3610D02*
X6130Y3660D01*
X5930Y3660D02*
Y3750D01*
X5920Y3760D02*
X5930Y3750D01*
X5380Y3410D02*
X5380Y3410D01*
X7280Y370D02*
Y500D01*
X5430Y3560D02*
X5480Y3510D01*
X7180Y370D02*
Y500D01*
X3612Y3670D02*
X3642Y3700D01*
X3510Y3670D02*
X3612D01*
X3618Y3620D02*
X3658Y3660D01*
X3510Y3620D02*
X3618D01*
X3625Y3570D02*
X3675Y3620D01*
X3510Y3570D02*
X3625D01*
X5530Y3660D02*
Y3787D01*
Y3660D02*
X5580Y3610D01*
X5480Y3710D02*
Y3770D01*
X5430Y3660D02*
X5480Y3610D01*
X2598Y4865D02*
Y4990D01*
X6680Y3210D02*
X6730Y3160D01*
X6680Y3310D02*
X6730Y3360D01*
X6380Y3410D02*
X6430Y3460D01*
X6480Y3510D02*
X6530Y3560D01*
X6088Y4742D02*
Y4865D01*
X6022Y4717D02*
Y4865D01*
X6680Y3610D02*
X6730Y3660D01*
X6480Y3710D02*
X6540Y3770D01*
X6380Y3610D02*
X6430Y3660D01*
X5430Y2660D02*
X5480Y2610D01*
X5430Y2760D02*
X5480Y2710D01*
X5430Y2960D02*
X5480Y2910D01*
X5380Y2910D02*
X5380Y2910D01*
X6180Y370D02*
Y500D01*
X5430Y2860D02*
X5480Y2810D01*
X5830Y3560D02*
X5880Y3510D01*
X5680D02*
X5730Y3560D01*
X5630Y3660D02*
X5680Y3610D01*
X5930Y370D02*
Y500D01*
X6780Y3610D02*
X6830Y3660D01*
X6680Y3410D02*
X6730Y3460D01*
X3780Y3470D02*
X3860D01*
X3790Y3410D02*
X3920D01*
X3830Y3270D02*
X3860Y3240D01*
X3980D01*
X4006D01*
X4020Y3140D02*
X4050D01*
X3510Y3170D02*
X3800D01*
X3930Y3040D02*
X4060D01*
X3510Y3120D02*
X3790D01*
X3810Y3220D02*
X3890Y3140D01*
X4020D01*
X3800Y3170D02*
X3930Y3040D01*
X5430Y3360D02*
X5480Y3310D01*
X5430Y3260D02*
X5480Y3210D01*
X3510Y3720D02*
X3605D01*
X3625Y3740D01*
X5430Y3160D02*
X5480Y3110D01*
X3510Y3770D02*
X3599D01*
X3609Y3780D01*
X5430Y3060D02*
X5480Y3010D01*
X5530Y3460D02*
X5580Y3410D01*
X5530Y3360D02*
X5580Y3310D01*
X5630Y3360D02*
X5680Y3310D01*
X5530Y3060D02*
X5580Y3010D01*
X5530Y2960D02*
X5580Y2910D01*
X5530Y2860D02*
X5580Y2810D01*
X5530Y2760D02*
X5580Y2710D01*
X5630Y3460D02*
Y3560D01*
Y3460D02*
X5680Y3410D01*
X5530Y3260D02*
X5580Y3210D01*
X6280Y3610D02*
X6330Y3660D01*
X5880Y3610D02*
X5930Y3660D01*
X5980Y3610D02*
X6030Y3660D01*
Y3760D01*
X5530Y2360D02*
X5580Y2410D01*
X5530Y2560D02*
X5580Y2510D01*
X5530Y2660D02*
X5580Y2610D01*
X10350Y6090D02*
X10690Y6430D01*
X10600Y6130D02*
X10820Y6350D01*
X10474Y6124D02*
X10740Y6390D01*
X10728Y6148D02*
X10890Y6310D01*
X11307D01*
X10820Y6350D02*
X11323D01*
X10740Y6390D02*
X11340D01*
X10690Y6430D02*
X11360D01*
X10570Y6470D02*
X11390D01*
X9330Y5920D02*
Y6110D01*
X9458Y6098D02*
X9870Y6510D01*
X9330Y6110D02*
X9770Y6550D01*
X9870Y6510D02*
X11410D01*
X9770Y6550D02*
X11430D01*
X11500Y6710D02*
X12570Y5640D01*
X11307Y6310D02*
X12140Y5477D01*
X9047Y5439D02*
Y5551D01*
X9204Y5708D01*
X9080Y5930D02*
X9204Y5806D01*
X9080Y5930D02*
Y6140D01*
X9570Y6630D01*
X9204Y5708D02*
Y5750D01*
Y5806D01*
Y5946D02*
X9330Y5820D01*
X9204Y5946D02*
Y6004D01*
Y6154D01*
X9640Y6590D01*
X9243Y5439D02*
Y5617D01*
X9330Y5704D01*
Y5820D01*
X8950Y5980D02*
X9080Y5850D01*
X8950Y5980D02*
Y6004D01*
Y6110D01*
X9510Y6670D01*
X8982Y5439D02*
Y5567D01*
X9080Y5664D01*
Y5850D01*
X8918Y5592D02*
X8950Y5624D01*
X8820Y5880D02*
Y6100D01*
Y5880D02*
X8950Y5750D01*
X8820Y6100D02*
X9430Y6710D01*
X8918Y5439D02*
Y5592D01*
X8950Y5624D02*
Y5750D01*
X9570Y6630D02*
X11467D01*
X9640Y6590D02*
X11450D01*
X9510Y6670D02*
X11483D01*
X9430Y6710D02*
X11500D01*
X12450Y4440D02*
X12490Y4400D01*
Y4680D02*
X12520Y4650D01*
X12530Y4820D02*
X12570Y4780D01*
Y4960D02*
X12600Y4930D01*
X12570Y4960D02*
Y5640D01*
X3542Y4865D02*
Y4988D01*
X3540Y4990D02*
X3542Y4988D01*
X3608Y4865D02*
Y5047D01*
X3412Y5012D02*
X3540Y5140D01*
X10770D02*
X10862Y5048D01*
Y4865D02*
Y5048D01*
X7162Y4865D02*
Y5138D01*
X7160Y5140D02*
X7162Y5138D01*
X10990Y4660D02*
X10992Y4662D01*
Y4865D01*
X11057Y4733D02*
Y4865D01*
Y4733D02*
X11060Y4730D01*
X10732Y4865D02*
Y4998D01*
X12530Y4820D02*
Y5623D01*
X11483Y6670D02*
X12530Y5623D01*
X12490Y4680D02*
Y5607D01*
X11467Y6630D02*
X12490Y5607D01*
X12450Y4440D02*
Y5590D01*
X11450Y6590D02*
X12450Y5590D01*
X12410Y4300D02*
Y5570D01*
X11430Y6550D02*
X12410Y5570D01*
X12360Y4180D02*
Y5560D01*
X11410Y6510D02*
X12360Y5560D01*
X12310Y4060D02*
Y5550D01*
X11390Y6470D02*
X12310Y5550D01*
X12270Y3990D02*
Y5520D01*
X11360Y6430D02*
X12270Y5520D01*
X12220Y3950D02*
Y5510D01*
X11340Y6390D02*
X12220Y5510D01*
X12180Y3850D02*
Y5493D01*
X11323Y6350D02*
X12180Y5493D01*
X12140Y3630D02*
Y5477D01*
X12040Y3390D02*
Y5410D01*
X11354Y5876D02*
X11950Y5280D01*
Y3290D02*
Y5280D01*
X11236Y5734D02*
X11910Y5060D01*
X10650Y4980D02*
X10667Y4963D01*
Y4865D02*
Y4963D01*
X3283Y4865D02*
Y5003D01*
X3510Y5230D01*
X3217Y4865D02*
Y4997D01*
X3490Y5270D01*
X3152Y4865D02*
Y5038D01*
X3150Y5040D02*
X3152Y5038D01*
X3608Y5047D02*
X3610Y5050D01*
X10112Y4865D02*
Y4997D01*
X10110Y5000D02*
X10112Y4997D01*
X10047Y4865D02*
Y5053D01*
X10040Y5060D02*
X10047Y5053D01*
X5478Y4767D02*
Y4865D01*
X5153Y4700D02*
Y4865D01*
X5410Y4700D02*
X5478Y4767D01*
X7292Y4719D02*
Y4865D01*
X7357Y4865D02*
Y4987D01*
X7360Y4990D01*
X3490Y5270D02*
X6910D01*
X10620D02*
X10650Y5300D01*
X7060Y4070D02*
Y4070D01*
X7100Y4053D02*
Y4054D01*
X6680Y3803D02*
X6967Y4091D01*
X6730Y3797D02*
X7032Y4099D01*
X7060Y4070D02*
X7072Y4083D01*
Y4499D01*
X7292Y4719D01*
X7100Y4054D02*
X7112Y4066D01*
X6640Y3820D02*
X6902Y4082D01*
X6347Y4865D02*
Y5053D01*
X6340Y5060D02*
X6347Y5053D01*
X6902Y4865D02*
Y4978D01*
X6870Y5010D02*
X6902Y4978D01*
X7210Y5300D02*
X7240Y5270D01*
X10620D01*
X7100Y5230D02*
X10730D01*
X3510D02*
X7100D01*
X7032Y4992D02*
X7100Y5060D01*
X7032Y4865D02*
Y4992D01*
X6967Y4865D02*
Y5017D01*
X7010Y5060D01*
Y5300D02*
X7210D01*
X6910Y5270D02*
X6940Y5300D01*
X7010D01*
X6800Y2020D02*
X7010D01*
X6817Y2060D02*
X6993D01*
X6254Y1440D02*
X7232D01*
X6303Y1560D02*
X7183D01*
X6721Y1640D02*
X7149D01*
X6754Y1720D02*
X7116D01*
X6770Y1760D02*
X7100D01*
X6787Y1800D02*
X7083D01*
X7080Y370D02*
Y500D01*
X6480Y370D02*
Y500D01*
X6380Y370D02*
Y500D01*
X6580Y370D02*
Y500D01*
X6280Y370D02*
Y500D01*
X6680Y370D02*
Y500D01*
X6780Y370D02*
Y500D01*
X6880Y370D02*
Y500D01*
X6980Y370D02*
Y500D01*
X4380Y4710D02*
X4830Y4260D01*
X3347Y4783D02*
Y4865D01*
Y4783D02*
X3380Y4750D01*
X3478Y4758D02*
Y4865D01*
X3470Y4750D02*
X3478Y4758D01*
X2610Y4710D02*
X4380D01*
X3680Y4750D02*
X3700Y4770D01*
X3380Y4750D02*
X3470D01*
X3680D01*
X6540Y3970D02*
Y4430D01*
X6580Y4190D02*
Y4460D01*
X6347Y4753D02*
Y4865D01*
Y4753D02*
X6620Y4480D01*
Y4170D02*
Y4480D01*
X6412Y4758D02*
Y4865D01*
Y4758D02*
X6660Y4510D01*
Y4150D02*
Y4510D01*
X6250Y4580D02*
X6390D01*
X6540Y4430D01*
X6410Y4630D02*
X6580Y4460D01*
X6088Y4742D02*
X6250Y4580D01*
X6153Y4738D02*
Y4865D01*
Y4738D02*
X6260Y4630D01*
X6410D01*
X7560Y900D02*
X7610Y950D01*
Y1043D01*
X7660Y940D02*
Y1043D01*
Y940D02*
X7700Y900D01*
Y850D02*
Y900D01*
X7680Y830D02*
X7700Y850D01*
X6623Y830D02*
X7680D01*
X7830Y1750D02*
X7890D01*
X590Y5135D02*
X765D01*
X780Y5120D01*
X1060D01*
X1230Y4950D01*
Y4710D02*
Y4950D01*
X2270Y4580D02*
X2273Y4583D01*
X2402Y4688D02*
Y4865D01*
Y4688D02*
X2430Y4660D01*
X2250Y4350D02*
X2610Y4710D01*
X2338Y4633D02*
X2340Y4630D01*
D55*
X5730Y2560D02*
X5780Y2610D01*
X6580Y2510D02*
X6630Y2560D01*
X6580Y3410D02*
X6630Y3460D01*
X5630Y2560D02*
X5680Y2510D01*
X9044Y1206D02*
X9175D01*
X8918Y1332D02*
X9044Y1206D01*
X8439Y1332D02*
X8918D01*
X8893Y1288D02*
X9175Y1006D01*
X8439Y1288D02*
X8893D01*
X7890Y1282D02*
X7986D01*
X7847Y1280D02*
X7847Y1280D01*
X7888D01*
X7890Y1282D01*
X8053Y1405D02*
X8080D01*
X7978Y1330D02*
X8053Y1405D01*
X7847Y1330D02*
X7978D01*
X2750Y2330D02*
Y2460D01*
Y2330D02*
X2760Y2320D01*
X5630Y3160D02*
X5680Y3110D01*
X5630Y3160D02*
X5630D01*
X5880Y3410D02*
X5930Y3460D01*
X5980Y3410D01*
X5930Y3460D02*
X5930D01*
X5980Y3110D02*
X6030Y3060D01*
X6680Y3010D02*
X6730Y3060D01*
X6080Y2910D02*
X6120Y2870D01*
X5980Y2050D02*
Y2210D01*
X5890Y2020D02*
X5950D01*
X5980Y2050D01*
X6180Y2410D02*
X6230Y2360D01*
X6180Y3510D02*
X6230Y3560D01*
X6380Y2310D02*
X6430Y2260D01*
X5980Y3710D02*
Y3790D01*
Y3510D02*
X6030Y3560D01*
X5300Y2810D02*
X5380D01*
X6180Y2510D02*
X6230Y2460D01*
X6280Y2510D02*
X6330Y2460D01*
X6380Y2510D02*
X6430Y2460D01*
X5630Y3060D02*
X5680Y3010D01*
X6080Y3410D02*
X6130Y3460D01*
X6180Y3410D02*
X6230Y3460D01*
X6280Y3410D02*
X6330Y3460D01*
X6580Y3010D02*
X6630Y3060D01*
X6580Y3110D02*
X6630Y3160D01*
X6280Y2910D02*
X6330Y2860D01*
X6280Y3010D02*
X6330Y3060D01*
X6180Y2910D02*
X6230Y2860D01*
X5930D02*
X5980Y2910D01*
X6180Y3010D02*
X6230Y3060D01*
X6080Y3010D02*
X6130Y3060D01*
X5930D02*
X5980Y3010D01*
X6280Y3110D02*
X6330Y3160D01*
X6180Y3110D02*
X6230Y3160D01*
X6080Y3110D02*
X6130Y3160D01*
X6280Y2810D02*
X6330Y2760D01*
X6080Y2810D02*
X6130Y2760D01*
X5930D02*
X5980Y2810D01*
X5330Y2160D02*
X5380Y2210D01*
X5630Y2260D02*
X5680Y2310D01*
X6780Y2410D02*
X6830Y2360D01*
X6480Y2510D02*
X6530Y2460D01*
X6480Y3210D02*
X6530Y3260D01*
X6280Y3510D02*
X6330Y3560D01*
X6580Y3610D02*
X6630Y3660D01*
X6580Y3510D02*
X6630Y3560D01*
X5330Y3760D02*
X5380Y3710D01*
X5530Y3560D02*
X5580Y3510D01*
X5730Y3460D02*
X5780Y3410D01*
X5430Y2560D02*
X5480Y2510D01*
X5680Y2610D02*
X5730Y2660D01*
X5630Y2660D02*
X5680Y2710D01*
X5630Y2760D02*
X5680Y2810D01*
X6030Y2460D02*
X6080Y2510D01*
X5930Y2460D02*
X5980Y2510D01*
X5730Y2460D02*
X5780Y2510D01*
X6580Y2710D02*
X6630Y2660D01*
X6580Y2810D02*
X6630Y2760D01*
X6680Y2710D02*
X6730Y2660D01*
X5930Y3260D02*
X5980Y3210D01*
X6480Y3610D02*
X6530Y3660D01*
X5830Y2460D02*
X5880Y2510D01*
X5830Y2360D02*
X5880Y2410D01*
X6880Y3710D02*
X6930Y3760D01*
X5880Y3310D02*
X5930Y3360D01*
X5730D02*
X5780Y3310D01*
X6480Y3410D02*
X6530Y3460D01*
X6480Y3310D02*
X6530Y3360D01*
X6430Y2560D02*
X6480Y2610D01*
X5530Y3160D02*
X5580Y3110D01*
X5630Y2860D02*
X5680Y2910D01*
X8367Y1215D02*
X8439Y1288D01*
X7986Y1282D02*
X8053Y1215D01*
X8340D02*
X8367D01*
X8340Y1405D02*
X8367D01*
X8439Y1332D01*
X8053Y1215D02*
X8080D01*
D56*
X1630Y1400D02*
X1630Y1400D01*
X1620Y1390D02*
X1630Y1400D01*
X1620Y1250D02*
Y1390D01*
X1399Y1489D02*
X1409D01*
X1370Y1460D02*
X1399Y1489D01*
X1370Y1430D02*
Y1460D01*
X1340Y1400D02*
X1370Y1430D01*
X2720Y1455D02*
X2770Y1405D01*
X2720Y1455D02*
Y1520D01*
X2800Y1520D02*
X2800Y1520D01*
X2800Y1435D02*
Y1520D01*
X2770Y1405D02*
X2800Y1435D01*
X2150Y2220D02*
Y2320D01*
X1475Y2255D02*
X1500Y2280D01*
X1475Y2150D02*
Y2255D01*
X1490Y1020D02*
X1540Y970D01*
X1490Y1020D02*
Y1120D01*
X9940Y4550D02*
X9940D01*
X9930D02*
X9940D01*
X9940Y4340D02*
Y4550D01*
Y4210D02*
Y4340D01*
Y4080D02*
Y4210D01*
Y3950D02*
Y4080D01*
X1490Y1260D02*
X1500Y1250D01*
X1620D01*
Y1090D02*
Y1250D01*
X2460Y1490D02*
X2490Y1520D01*
X2370Y1490D02*
X2460D01*
X2450Y1900D02*
X2490Y1940D01*
X2370Y1900D02*
X2450D01*
X1475Y1963D02*
Y2150D01*
D57*
X1290Y1710D02*
X1290Y1710D01*
Y1590D02*
Y1710D01*
X1917Y393D02*
X2863D01*
X1620Y1090D02*
X1653Y1057D01*
Y657D02*
Y1057D01*
Y657D02*
X1917Y393D01*
X2863D02*
X2910Y440D01*
X1683Y2057D02*
X1782Y1958D01*
X1625Y2115D02*
X1680Y2060D01*
X1625Y2115D02*
Y2150D01*
X1782Y1958D02*
X1811D01*
Y1892D02*
X1895D01*
X1910Y1907D01*
Y1940D01*
X1892Y1958D02*
X1910Y1940D01*
X1811Y1958D02*
X1892D01*
D58*
X6080Y500D02*
X6080Y500D01*
X6080Y500D02*
Y635D01*
X6200Y755D01*
Y830D01*
X2910Y440D02*
X2925Y455D01*
Y576D01*
D59*
X2792Y4865D02*
Y5017D01*
X3500Y2620D02*
X3640D01*
X7360Y730D02*
X7380Y750D01*
X7390Y760D01*
X6080Y380D02*
Y500D01*
X1110Y2590D02*
X1230D01*
X1290Y2530D01*
X1573Y1892D02*
X1591Y1911D01*
Y1691D02*
Y1911D01*
X1480Y1580D02*
X1591Y1691D01*
X1430Y1580D02*
X1480D01*
X10860Y3610D02*
X11140Y3890D01*
Y3950D01*
Y4080D02*
Y4340D01*
Y3950D02*
Y4080D01*
X1469Y1892D02*
X1573D01*
X7390Y760D02*
X7700D01*
X8068Y123D02*
X8200D01*
X8010Y180D02*
X8068Y123D01*
X8010Y180D02*
Y550D01*
X7820Y740D02*
X8010Y550D01*
X7720Y740D02*
X7820D01*
X7700Y760D02*
X7720Y740D01*
X6530Y3260D02*
X6580Y3210D01*
X3300Y2364D02*
Y2460D01*
X3280Y2344D02*
X3300Y2364D01*
X3280Y2270D02*
Y2344D01*
Y2270D02*
X3310Y2240D01*
X3450Y2270D02*
Y2490D01*
X3490Y2530D01*
X3920D01*
X8030Y1490D02*
Y1750D01*
X1460Y3100D02*
Y3420D01*
X3200Y2320D02*
Y2460D01*
X3100Y2320D02*
Y2460D01*
X1350Y3050D02*
X1410D01*
X1320D02*
X1350D01*
X2250Y2220D02*
Y2460D01*
X2450Y2330D02*
Y2460D01*
Y2330D02*
X2460Y2320D01*
X2550Y2460D02*
X2550Y2460D01*
Y2330D02*
Y2460D01*
X2540Y2320D02*
X2550Y2330D01*
X2500Y3980D02*
Y4090D01*
X2520Y4110D01*
Y4130D01*
X3510Y3470D02*
X3640D01*
X3650Y3480D01*
X7227Y4757D02*
Y4865D01*
X7200Y4730D02*
X7227Y4757D01*
X7100Y4730D02*
X7200D01*
X7097Y4733D02*
Y4865D01*
Y4733D02*
X7100Y4730D01*
X9047Y4865D02*
Y4988D01*
X9080Y5020D01*
X9110D01*
X5630Y3160D02*
X5680Y3210D01*
X6630Y3160D02*
Y3160D01*
Y3160D02*
X6680Y3110D01*
X10178Y4692D02*
Y4865D01*
X9980Y4690D02*
X10180D01*
X10240D02*
X10243Y4692D01*
X10180Y4690D02*
X10240D01*
X6950Y2230D02*
Y2290D01*
X6930Y2210D02*
X6950Y2230D01*
X6880Y2210D02*
X6930D01*
X11145Y3177D02*
Y3315D01*
X11110Y3350D02*
X11145Y3315D01*
X11030Y3350D02*
X11110D01*
X7920Y1230D02*
X7960Y1190D01*
X7847Y1230D02*
X7920D01*
X7818Y1518D02*
X7850Y1550D01*
X7760Y1518D02*
X7818D01*
X6080Y380D02*
X6090Y370D01*
X5730D02*
Y500D01*
X5870Y4730D02*
X5910D01*
X3760Y2940D02*
X3830D01*
X3980Y2790D01*
Y2590D02*
Y2790D01*
X3920Y2530D02*
X3980Y2590D01*
X3420Y2240D02*
X3450Y2270D01*
X3310Y2240D02*
X3420D01*
X3626Y2940D02*
X3760D01*
X3606Y2920D02*
X3626Y2940D01*
X3510Y2920D02*
X3606D01*
X3650Y2870D02*
X3720Y2800D01*
X3760D01*
X3730Y2690D02*
X3750Y2670D01*
X3636Y2690D02*
X3730D01*
X3606Y2720D02*
X3636Y2690D01*
X3510Y2720D02*
X3606D01*
X737Y3664D02*
X950Y3451D01*
Y3080D02*
Y3451D01*
Y3080D02*
X980Y3050D01*
X1070D01*
X1410D02*
X1460Y3100D01*
X6130Y2860D02*
X6180Y2810D01*
X6120Y2870D02*
X6130Y2860D01*
X6180Y2810D02*
Y2810D01*
X6330Y3160D02*
X6380Y3210D01*
X3350Y2320D02*
Y2460D01*
X1894Y3470D02*
X1990D01*
X1874Y3450D02*
X1894Y3470D01*
X1810Y3450D02*
X1874D01*
X1894Y3520D02*
X1990D01*
X1864Y3550D02*
X1894Y3520D01*
X1810Y3550D02*
X1864D01*
X1810Y3050D02*
X1864D01*
X1894Y3020D01*
X1990D01*
X1810Y2950D02*
X1874D01*
X1894Y2970D01*
X1990D01*
X2700Y2460D02*
Y2600D01*
X3510Y2770D02*
X3650D01*
X2800Y2460D02*
Y2600D01*
X2150Y2320D02*
Y2460D01*
X2300D02*
Y2600D01*
X2500Y2460D02*
Y2600D01*
X2950Y2460D02*
Y2600D01*
X3250Y2460D02*
Y2600D01*
X3510Y2870D02*
X3650D01*
X3370Y2820D02*
X3510D01*
X3370Y2820D02*
X3370Y2820D01*
Y3520D02*
X3370Y3520D01*
X3510D01*
X2400Y3840D02*
X2400Y3840D01*
Y3980D01*
X3200Y4100D02*
X3230Y4130D01*
X3200Y3980D02*
Y4100D01*
X2700Y3840D02*
X2700Y3840D01*
Y3980D01*
X2720Y4130D02*
X2750Y4100D01*
Y3980D02*
Y4100D01*
X3250Y3840D02*
Y3980D01*
X6530Y3360D02*
Y3360D01*
Y3360D02*
X6580Y3310D01*
X5710Y720D02*
Y820D01*
Y720D02*
X5830Y600D01*
Y500D02*
Y600D01*
X11845Y1407D02*
X11962D01*
X12090Y1280D01*
X12175D01*
Y1140D02*
Y1280D01*
X12170Y1135D02*
X12175Y1140D01*
X12325Y1135D02*
Y1280D01*
Y1135D02*
X12330Y1130D01*
X11845Y1473D02*
X11997D01*
X12060Y1410D01*
X12180D01*
X11845Y1538D02*
X12173D01*
X12175Y1540D01*
X11845Y1602D02*
X12032D01*
X12100Y1670D01*
X12175D01*
X11845Y1667D02*
X11988D01*
X12120Y1800D01*
X12180D01*
X11845Y1733D02*
X11962D01*
X12160Y1930D01*
X12175D01*
Y2080D01*
X12180Y2085D01*
X12325Y1930D02*
Y2085D01*
X12320Y2090D02*
X12325Y2085D01*
X11845Y1798D02*
Y1915D01*
X11850Y1920D01*
X11990D01*
X11845Y1175D02*
Y1343D01*
Y1175D02*
X11850Y1170D01*
X11990D01*
X11162Y1538D02*
X11168D01*
X11275D01*
X1312Y5410D02*
X1338Y5435D01*
X1200Y5410D02*
X1312D01*
X1402Y5435D02*
Y5538D01*
X1370Y5570D02*
X1402Y5538D01*
X1200Y5570D02*
X1370D01*
X1923Y4738D02*
Y4865D01*
Y4738D02*
X1940Y4720D01*
X1598Y4865D02*
Y4988D01*
X1620Y5010D01*
X1890D02*
X1923Y4978D01*
Y4865D02*
Y4978D01*
X1662Y4865D02*
Y5008D01*
X1660Y5010D02*
X1662Y5008D01*
X1620Y5010D02*
X1660D01*
X1890D01*
X1338Y4865D02*
Y5435D01*
X2208Y4865D02*
Y5435D01*
X2273Y5435D02*
Y5528D01*
X2230Y5570D02*
X2273Y5528D01*
X2070Y5570D02*
X2230D01*
X2070Y5410D02*
X2183D01*
X2208Y5435D01*
X2790Y5015D02*
X2792Y5017D01*
X2727Y4865D02*
Y4997D01*
X2745Y5015D01*
X2790D01*
X2467Y4865D02*
Y5038D01*
X2550Y5120D02*
X2750D01*
X2790Y5080D01*
Y5015D02*
Y5080D01*
X2533Y4865D02*
Y5103D01*
X2550Y5120D01*
X2467Y5038D02*
X2533Y5103D01*
X3088Y4865D02*
Y4983D01*
X3070Y5000D02*
X3088Y4983D01*
X3070Y5000D02*
Y5290D01*
X3088Y5308D01*
Y5435D01*
X3152Y5435D02*
Y5547D01*
X3130Y5570D02*
X3152Y5547D01*
X2930Y5570D02*
X3130D01*
X3062Y5410D02*
X3088Y5435D01*
X2930Y5410D02*
X3062D01*
X3672Y4797D02*
Y4865D01*
Y4797D02*
X3700Y4770D01*
X3740D01*
X5672Y4767D02*
Y4865D01*
Y4767D02*
X5710Y4730D01*
X5347Y4865D02*
Y4978D01*
X5380Y5010D01*
X5630D02*
X5672Y4967D01*
Y4865D02*
Y4967D01*
X5412Y4865D02*
Y5003D01*
X5420Y5010D01*
X5380D02*
X5420D01*
X5630D01*
X5088Y4747D02*
Y4865D01*
X5060Y4720D02*
X5088Y4747D01*
X5153Y5435D02*
Y5528D01*
X5110Y5570D02*
X5153Y5528D01*
X4960Y5570D02*
X5110D01*
X5062Y5410D02*
X5088Y5435D01*
X4960Y5410D02*
X5062D01*
X5958Y4778D02*
Y4865D01*
X5910Y4730D02*
X5958Y4778D01*
X6283Y4733D02*
Y4865D01*
X6280Y4730D02*
X6283Y4733D01*
X6217Y4753D02*
Y4865D01*
Y4753D02*
X6240Y4730D01*
X6280D01*
X6543Y4742D02*
Y4865D01*
X6540Y4740D02*
X6543Y4742D01*
X6478Y4762D02*
Y4865D01*
Y4762D02*
X6500Y4740D01*
X6540D01*
X6022Y5435D02*
Y5538D01*
X5990Y5570D02*
X6022Y5538D01*
X5820Y5570D02*
X5990D01*
X5932Y5410D02*
X5958Y5435D01*
X5820Y5410D02*
X5932D01*
X6902Y5435D02*
Y5528D01*
X6860Y5570D02*
X6902Y5528D01*
X6680Y5570D02*
X6860D01*
X6812Y5410D02*
X6837Y5435D01*
X6680Y5410D02*
X6812D01*
X6837Y4767D02*
Y4865D01*
X6810Y4740D02*
X6837Y4767D01*
X7422Y4748D02*
Y4865D01*
Y4748D02*
X7440Y4730D01*
X9372Y4778D02*
Y4865D01*
Y4778D02*
X9410Y4740D01*
X9340Y5020D02*
X9372Y4988D01*
Y4865D02*
Y4988D01*
X9112Y4865D02*
Y5017D01*
X9110Y5020D02*
X9112Y5017D01*
X9110Y5020D02*
X9340D01*
X8788Y4788D02*
Y4865D01*
X8740Y4740D02*
X8788Y4788D01*
X8853Y5435D02*
Y5547D01*
X8830Y5570D02*
X8853Y5547D01*
X8660Y5570D02*
X8830D01*
X8762Y5410D02*
X8788Y5435D01*
X8660Y5410D02*
X8762D01*
X9722Y5435D02*
Y5528D01*
X9680Y5570D02*
X9722Y5528D01*
X9520Y5570D02*
X9680D01*
X9632Y5410D02*
X9657Y5435D01*
X9520Y5410D02*
X9632D01*
X9657Y4788D02*
Y4865D01*
X9610Y4740D02*
X9657Y4788D01*
X10243Y4692D02*
Y4865D01*
X9918Y4722D02*
Y4865D01*
Y4722D02*
X9950Y4690D01*
X10178Y4692D02*
X10180Y4690D01*
X9982Y4692D02*
Y4865D01*
X9980Y4690D02*
X9982Y4692D01*
X9950Y4690D02*
X9980D01*
X10602Y5435D02*
Y5538D01*
X10570Y5570D02*
X10602Y5538D01*
X10380Y5570D02*
X10570D01*
X10512Y5410D02*
X10537Y5435D01*
X10380Y5410D02*
X10512D01*
X10537Y4707D02*
Y4865D01*
X10500Y4670D02*
X10537Y4707D01*
X11122Y4788D02*
Y4865D01*
Y4788D02*
X11180Y4730D01*
X10797Y4593D02*
Y4865D01*
Y4593D02*
X10800Y4590D01*
X10927Y4865D02*
Y4977D01*
X10950Y5000D01*
X11100D01*
X11122Y4978D01*
Y4865D02*
Y4978D01*
X7330Y500D02*
Y630D01*
X7360Y660D01*
Y730D01*
X7380Y500D02*
Y579D01*
X7460Y659D01*
Y660D01*
X7530D01*
X7530Y660D01*
X7847Y1380D02*
X7920D01*
X7847Y1430D02*
X7970D01*
X7920Y1380D02*
X7970Y1430D01*
X8030Y1490D01*
X780Y4790D02*
Y4980D01*
X690Y4700D02*
X780Y4790D01*
X400Y4700D02*
X690D01*
X380Y4720D02*
X400Y4700D01*
X380Y4720D02*
Y4790D01*
X6330Y3560D02*
X6380Y3510D01*
D60*
X6160Y950D02*
X6200Y910D01*
Y830D02*
Y910D01*
X6100Y950D02*
X6160D01*
D61*
X9427Y1206D02*
Y1647D01*
X9505Y1725D01*
Y1920D01*
D62*
X2925Y576D02*
X3017Y669D01*
Y724D01*
X1683Y1487D02*
X1770Y1400D01*
X1683Y1487D02*
Y2057D01*
X1680Y2060D02*
X1683Y2057D01*
D63*
X10380Y3170D02*
X10438Y3112D01*
X5480Y4450D02*
Y4515D01*
X10438Y3112D02*
X10575D01*
X10453Y2983D02*
X10575D01*
X10380Y2910D02*
X10453Y2983D01*
D64*
X900Y1506D02*
X1000Y1606D01*
X900Y1045D02*
Y1506D01*
X7720Y5090D02*
X7720Y5090D01*
Y5020D02*
Y5090D01*
X8040Y4450D02*
X8140D01*
X8180Y4490D01*
Y4730D01*
X565Y5805D02*
X640Y5880D01*
X530Y5805D02*
X565D01*
X8185Y4725D02*
X8295D01*
X8180Y4730D02*
X8185Y4725D01*
X8180Y4730D02*
Y4975D01*
X8425Y4725D02*
X8475Y4775D01*
X8295Y4725D02*
X8425D01*
X10380Y3170D02*
Y3330D01*
X8030Y1750D02*
X8150D01*
X8170Y1770D01*
Y1900D01*
X12320Y1410D02*
X12410D01*
X12320Y1410D02*
X12320Y1410D01*
X12320Y1800D02*
X12410D01*
X11990Y2060D02*
Y2150D01*
X530Y5395D02*
Y5805D01*
X370Y5135D02*
X370Y5135D01*
X370Y5135D02*
Y5395D01*
Y5805D01*
X370Y4800D02*
Y4945D01*
Y4800D02*
X380Y4790D01*
X300D02*
X380D01*
X300Y4790D02*
X300Y4790D01*
X480D02*
X590D01*
X590Y4790D01*
Y4965D01*
D65*
X10390Y580D02*
Y630D01*
Y580D02*
X10440Y530D01*
X10510D01*
X10653Y388D01*
X10740D01*
X11850Y880D02*
Y1020D01*
X11662Y693D02*
X11850Y880D01*
X11360Y693D02*
X11662D01*
X11207Y540D02*
X11360Y693D01*
X10840Y540D02*
X11207D01*
X10738Y643D02*
X10840Y540D01*
X10738Y643D02*
Y840D01*
X11350Y2498D02*
Y2755D01*
X11345Y2760D02*
X11350Y2755D01*
X2935Y1250D02*
X2940Y1255D01*
X10740Y388D02*
X11240D01*
D66*
X10380Y2740D02*
Y2910D01*
X10275Y2635D02*
X10380Y2740D01*
X9935Y1920D02*
Y2395D01*
X10175Y2635D02*
X10275D01*
X9935Y2395D02*
X10175Y2635D01*
D67*
X8670Y1790D02*
D03*
X1000Y4320D02*
D03*
X220D02*
D03*
X9110Y1790D02*
D03*
X11750Y2996D02*
D03*
X11496D02*
D03*
X11750Y3250D02*
D03*
X11496D02*
D03*
X11750Y3504D02*
D03*
X11496D02*
D03*
X11750Y3758D02*
D03*
X11496D02*
D03*
X11750Y4012D02*
D03*
X11496D02*
D03*
X11750Y4266D02*
D03*
X11496D02*
D03*
X11750Y4520D02*
D03*
X11496D02*
D03*
X11750Y4774D02*
D03*
X3786Y6000D02*
D03*
Y5746D02*
D03*
X3532Y6000D02*
D03*
Y5746D02*
D03*
X3278Y6000D02*
D03*
Y5746D02*
D03*
X3024Y6000D02*
D03*
Y5746D02*
D03*
X2770Y6000D02*
D03*
Y5746D02*
D03*
X2516Y6000D02*
D03*
Y5746D02*
D03*
X2262Y6000D02*
D03*
Y5746D02*
D03*
X2008Y6000D02*
D03*
Y5746D02*
D03*
X1754Y6000D02*
D03*
Y5746D02*
D03*
X1500Y6000D02*
D03*
X7536Y6010D02*
D03*
Y5756D02*
D03*
X7282Y6010D02*
D03*
Y5756D02*
D03*
X7028Y6010D02*
D03*
Y5756D02*
D03*
X6774Y6010D02*
D03*
Y5756D02*
D03*
X6520Y6010D02*
D03*
Y5756D02*
D03*
X6266Y6010D02*
D03*
Y5756D02*
D03*
X6012Y6010D02*
D03*
Y5756D02*
D03*
X5758Y6010D02*
D03*
Y5756D02*
D03*
X5504Y6010D02*
D03*
Y5756D02*
D03*
X5250Y6010D02*
D03*
X11236Y6004D02*
D03*
Y5750D02*
D03*
X10982Y6004D02*
D03*
Y5750D02*
D03*
X10728Y6004D02*
D03*
Y5750D02*
D03*
X10474Y6004D02*
D03*
Y5750D02*
D03*
X10220Y6004D02*
D03*
Y5750D02*
D03*
X9966Y6004D02*
D03*
Y5750D02*
D03*
X9712Y6004D02*
D03*
Y5750D02*
D03*
X9458Y6004D02*
D03*
Y5750D02*
D03*
X9204Y6004D02*
D03*
Y5750D02*
D03*
X8950Y6004D02*
D03*
D68*
X3972Y597D02*
D03*
X3719D02*
D03*
Y851D02*
D03*
X3972D02*
D03*
X3846Y978D02*
D03*
Y470D02*
D03*
D69*
X4557Y531D02*
D03*
X1484Y533D02*
D03*
D70*
X2258Y914D02*
D03*
X3401D02*
D03*
Y724D02*
D03*
Y533D02*
D03*
X3210Y912D02*
D03*
Y724D02*
D03*
Y533D02*
D03*
X3017Y914D02*
D03*
Y724D02*
D03*
X3020Y533D02*
D03*
X2830Y914D02*
D03*
Y724D02*
D03*
Y533D02*
D03*
X2639Y914D02*
D03*
Y724D02*
D03*
Y533D02*
D03*
X2067Y724D02*
D03*
Y533D02*
D03*
X2258D02*
D03*
Y724D02*
D03*
X2449Y914D02*
D03*
Y724D02*
D03*
Y533D02*
D03*
D71*
X2067Y914D02*
D03*
D72*
X3972Y200D02*
D03*
X2067D02*
D03*
D73*
X11496Y4774D02*
D03*
D74*
X1500Y5746D02*
D03*
X5250Y5756D02*
D03*
X8950Y5750D02*
D03*
D75*
X3260Y1960D02*
D03*
D76*
X3514D02*
D03*
X3768D02*
D03*
D77*
X1000Y1606D02*
D03*
D78*
Y2114D02*
D03*
D79*
X9175Y1206D02*
D03*
Y1006D02*
D03*
X9425D02*
D03*
D80*
X9902Y734D02*
D03*
X8698D02*
D03*
D81*
X9425Y1206D02*
D03*
D82*
X483Y2902D02*
D03*
X737D02*
D03*
X483Y3156D02*
D03*
X737D02*
D03*
X483Y3410D02*
D03*
Y3664D02*
D03*
X737Y3918D02*
D03*
Y3410D02*
D03*
Y3664D02*
D03*
D83*
X483Y3918D02*
D03*
D84*
X500Y500D02*
D03*
Y6500D02*
D03*
X12250D02*
D03*
Y500D02*
D03*
D85*
X6430Y2560D02*
D03*
X6630Y2560D02*
D03*
X5730Y2560D02*
D03*
X5930Y3360D02*
D03*
X7030Y3850D02*
D03*
X5540Y4220D02*
D03*
X4950Y4720D02*
D03*
X6730Y4290D02*
D03*
X6430Y3060D02*
D03*
X6530Y3460D02*
D03*
Y3360D02*
D03*
X6530Y3160D02*
D03*
Y3060D02*
D03*
X7115Y3933D02*
D03*
X7190Y4010D02*
D03*
X1409Y1489D02*
D03*
X5990Y650D02*
D03*
X6230Y700D02*
D03*
X6330Y610D02*
D03*
X6430Y700D02*
D03*
X6530Y610D02*
D03*
X6630Y700D02*
D03*
X6730Y610D02*
D03*
X6830Y700D02*
D03*
X6930Y610D02*
D03*
X7030Y700D02*
D03*
X7130Y610D02*
D03*
X7230Y700D02*
D03*
X6140Y610D02*
D03*
X7380Y750D02*
D03*
X3700Y1100D02*
D03*
X6630Y2960D02*
D03*
X6330Y3360D02*
D03*
X6230D02*
D03*
X6430Y3560D02*
D03*
X6730Y3360D02*
D03*
X6730Y3160D02*
D03*
X6530Y2860D02*
D03*
Y2960D02*
D03*
X5770Y3970D02*
D03*
X1280Y1950D02*
D03*
X1810Y1550D02*
D03*
X1870Y1620D02*
D03*
X6730Y3460D02*
D03*
Y3560D02*
D03*
X6630Y3460D02*
D03*
X5490Y1980D02*
D03*
X5630Y2560D02*
D03*
X3600Y2220D02*
D03*
X3350Y2320D02*
D03*
X3210Y2320D02*
D03*
X3600Y2310D02*
D03*
X3590Y2390D02*
D03*
X3530Y2460D02*
D03*
X5330Y1670D02*
D03*
X4410Y780D02*
D03*
X10610Y2270D02*
D03*
X270Y4470D02*
D03*
X640Y5880D02*
D03*
X9305Y4690D02*
D03*
X5030Y3110D02*
D03*
X8980Y4690D02*
D03*
X9720D02*
D03*
X8160Y1310D02*
D03*
X8260D02*
D03*
X3220Y1255D02*
D03*
X3150D02*
D03*
X10550Y5040D02*
D03*
X10650D02*
D03*
X10730Y5000D02*
D03*
X6820Y5010D02*
D03*
X9243Y4740D02*
D03*
X8918D02*
D03*
X1930Y1190D02*
D03*
X1850D02*
D03*
X6730Y4190D02*
D03*
X6720Y4100D02*
D03*
X2600Y3070D02*
D03*
X2900Y3070D02*
D03*
X2600Y3370D02*
D03*
X2900Y3370D02*
D03*
X2750Y3370D02*
D03*
X2750Y3070D02*
D03*
X2600Y3220D02*
D03*
X2900Y3220D02*
D03*
X2750Y3220D02*
D03*
X6150Y3970D02*
D03*
X6430Y2360D02*
D03*
X7320Y2740D02*
D03*
X7430Y3200D02*
D03*
X7510D02*
D03*
X10050Y3750D02*
D03*
X10240Y4690D02*
D03*
X9788Y4740D02*
D03*
X7720Y5090D02*
D03*
X7030Y1950D02*
D03*
X6950D02*
D03*
Y2290D02*
D03*
X7030D02*
D03*
X6270Y1820D02*
D03*
Y1740D02*
D03*
X5890D02*
D03*
Y1820D02*
D03*
X6760Y4620D02*
D03*
X6030Y3060D02*
D03*
X11370Y260D02*
D03*
X11060D02*
D03*
X8635Y4615D02*
D03*
X7960Y1190D02*
D03*
X8440Y1730D02*
D03*
X8440Y1810D02*
D03*
X7850Y1550D02*
D03*
X8200Y820D02*
D03*
X8170Y1900D02*
D03*
X4850Y430D02*
D03*
X5371Y1841D02*
D03*
X4790Y4080D02*
D03*
X6090Y370D02*
D03*
X5930D02*
D03*
X5830D02*
D03*
X5730D02*
D03*
X5870Y4730D02*
D03*
X6290Y4440D02*
D03*
X10110Y3130D02*
D03*
Y3210D02*
D03*
Y2950D02*
D03*
Y2870D02*
D03*
X3830Y1680D02*
D03*
X3110Y2320D02*
D03*
X3090Y2600D02*
D03*
X2980Y1520D02*
D03*
X2900D02*
D03*
X2800D02*
D03*
X2720D02*
D03*
X3320Y1553D02*
D03*
Y1680D02*
D03*
X6730Y3060D02*
D03*
X12440Y4270D02*
D03*
X12400Y4140D02*
D03*
X12360Y4010D02*
D03*
X12140Y3500D02*
D03*
X12240Y3880D02*
D03*
X12212Y3758D02*
D03*
X12140Y3630D02*
D03*
X12050Y3380D02*
D03*
X11990Y3250D02*
D03*
X10380Y5570D02*
D03*
X10380Y5350D02*
D03*
X9520Y5570D02*
D03*
X9520Y5350D02*
D03*
X8660Y5570D02*
D03*
X8660Y5350D02*
D03*
X6680Y5570D02*
D03*
X4960D02*
D03*
X5820D02*
D03*
X2930D02*
D03*
X2930Y5350D02*
D03*
X1200Y5570D02*
D03*
X1200Y5350D02*
D03*
X2070D02*
D03*
X2070Y5570D02*
D03*
X1610Y3780D02*
D03*
Y3550D02*
D03*
X3680Y2170D02*
D03*
X8900Y3930D02*
D03*
X9200Y3930D02*
D03*
X8900Y2410D02*
D03*
X9200Y2410D02*
D03*
X1280Y2040D02*
D03*
X1958Y1862D02*
D03*
X2014Y1806D02*
D03*
X1790Y2200D02*
D03*
X1850Y2280D02*
D03*
X4500Y3010D02*
D03*
X4140Y2830D02*
D03*
X4100Y2930D02*
D03*
X4440Y3150D02*
D03*
X4410Y3270D02*
D03*
X4360Y3350D02*
D03*
X4330Y3470D02*
D03*
X4260Y3590D02*
D03*
X4200Y3680D02*
D03*
X4140Y3830D02*
D03*
X4610D02*
D03*
X4550Y3980D02*
D03*
X4610Y4060D02*
D03*
X4680Y4260D02*
D03*
X4930Y3440D02*
D03*
X4870Y3500D02*
D03*
X4810Y3560D02*
D03*
X4750Y3620D02*
D03*
X4740Y3700D02*
D03*
X4680Y3760D02*
D03*
X1730Y3550D02*
D03*
Y3450D02*
D03*
Y2950D02*
D03*
Y3050D02*
D03*
X2700Y2600D02*
D03*
X2540Y2320D02*
D03*
X2260D02*
D03*
X2460D02*
D03*
X2760Y2320D02*
D03*
X3640Y2620D02*
D03*
X3650Y2770D02*
D03*
X2800Y2600D02*
D03*
X2150Y2320D02*
D03*
X2300Y2600D02*
D03*
X2500D02*
D03*
X2950D02*
D03*
X3250D02*
D03*
X3650Y2870D02*
D03*
X3370Y2820D02*
D03*
X2520Y4130D02*
D03*
X3230Y4130D02*
D03*
X2400Y3840D02*
D03*
X2700D02*
D03*
X2720Y4130D02*
D03*
X6420Y4350D02*
D03*
X6450Y4430D02*
D03*
X5620Y4700D02*
D03*
X6080Y4160D02*
D03*
X6020Y4220D02*
D03*
X5950Y4160D02*
D03*
X1880Y4540D02*
D03*
X1790Y4530D02*
D03*
X1730Y4470D02*
D03*
X1560Y4430D02*
D03*
X1470Y4380D02*
D03*
X1400Y4310D02*
D03*
X5590Y4450D02*
D03*
X5480D02*
D03*
X5400Y3980D02*
D03*
X5890Y2020D02*
D03*
Y1940D02*
D03*
X7240Y3120D02*
D03*
X7320D02*
D03*
X7280Y370D02*
D03*
X7180D02*
D03*
X5030Y2730D02*
D03*
X4950D02*
D03*
X6150Y4050D02*
D03*
X5770D02*
D03*
X7240Y2740D02*
D03*
X4950Y3110D02*
D03*
X6270Y1940D02*
D03*
X6230Y2360D02*
D03*
X2665Y5040D02*
D03*
X2598Y4990D02*
D03*
X8850Y4690D02*
D03*
X9175D02*
D03*
X6530Y3560D02*
D03*
X6230D02*
D03*
X6180Y370D02*
D03*
X6030Y3560D02*
D03*
X3650Y3480D02*
D03*
X3370Y3520D02*
D03*
X6230Y2460D02*
D03*
X6330D02*
D03*
X6430D02*
D03*
X5630Y3060D02*
D03*
Y3160D02*
D03*
X5930Y3460D02*
D03*
X6130D02*
D03*
X6230D02*
D03*
X6330D02*
D03*
X6630Y3060D02*
D03*
Y3160D02*
D03*
X6330Y2860D02*
D03*
X6330Y3060D02*
D03*
X6230Y2860D02*
D03*
X6130D02*
D03*
X5930D02*
D03*
X6230Y3060D02*
D03*
X6130D02*
D03*
X5930D02*
D03*
X6330Y3160D02*
D03*
X6230D02*
D03*
X6130D02*
D03*
X6330Y2760D02*
D03*
X6130D02*
D03*
X5930D02*
D03*
X5330Y2160D02*
D03*
X5630Y2260D02*
D03*
X5830Y2360D02*
D03*
X6430Y2260D02*
D03*
X6830Y2360D02*
D03*
X6530Y2460D02*
D03*
Y3260D02*
D03*
X6330Y3560D02*
D03*
X6630Y3660D02*
D03*
Y3560D02*
D03*
X6930Y3760D02*
D03*
X5980Y3790D02*
D03*
X5330Y3760D02*
D03*
X5530Y3560D02*
D03*
X5730Y3460D02*
D03*
X5300Y2810D02*
D03*
X5430Y2560D02*
D03*
X5730Y2660D02*
D03*
X5630Y2660D02*
D03*
Y2760D02*
D03*
X6030Y2460D02*
D03*
X5930D02*
D03*
X5830D02*
D03*
X5730D02*
D03*
X6630Y2660D02*
D03*
Y2760D02*
D03*
X6730Y2660D02*
D03*
X3250Y3840D02*
D03*
X5930Y3260D02*
D03*
X6530Y3660D02*
D03*
X3860Y3470D02*
D03*
X3920Y3410D02*
D03*
X3940Y3320D02*
D03*
X3980Y3240D02*
D03*
X4020Y3140D02*
D03*
X4060Y3040D02*
D03*
X5730Y3360D02*
D03*
X5630Y3560D02*
D03*
X5530Y3460D02*
D03*
Y3360D02*
D03*
X5630D02*
D03*
X5530Y3160D02*
D03*
Y3060D02*
D03*
Y2960D02*
D03*
Y2860D02*
D03*
Y2760D02*
D03*
X5630Y2860D02*
D03*
X5530Y3260D02*
D03*
Y2360D02*
D03*
Y2560D02*
D03*
Y2660D02*
D03*
X12490Y4400D02*
D03*
X12520Y4650D02*
D03*
X12570Y4780D02*
D03*
X12600Y4930D02*
D03*
X3540Y4990D02*
D03*
X7292Y4719D02*
D03*
X10990Y4660D02*
D03*
X11060Y4730D02*
D03*
X3150Y5040D02*
D03*
X10650Y5300D02*
D03*
X3610Y5050D02*
D03*
X10730Y5230D02*
D03*
X10110Y5000D02*
D03*
X10040Y5060D02*
D03*
X5153Y4700D02*
D03*
X4830Y4260D02*
D03*
X5520Y4700D02*
D03*
X5410D02*
D03*
X5280D02*
D03*
X5220Y4630D02*
D03*
X7360Y4990D02*
D03*
X9850Y4690D02*
D03*
X6680Y5350D02*
D03*
X4960D02*
D03*
X5820D02*
D03*
X6340Y5060D02*
D03*
X6410Y5000D02*
D03*
X7100Y5060D02*
D03*
Y5230D02*
D03*
X7010Y5060D02*
D03*
Y5300D02*
D03*
X11168Y1538D02*
D03*
X3080Y1255D02*
D03*
X7080Y370D02*
D03*
X6480D02*
D03*
X6380D02*
D03*
X6580D02*
D03*
X6280D02*
D03*
X6680D02*
D03*
X6780D02*
D03*
X6880D02*
D03*
X6980D02*
D03*
X10380Y3330D02*
D03*
X1940Y4720D02*
D03*
X2790Y5015D02*
D03*
X3740Y4770D02*
D03*
X5710Y4730D02*
D03*
X5060Y4720D02*
D03*
X6280Y4730D02*
D03*
X6540Y4740D02*
D03*
X6810D02*
D03*
X7100Y4730D02*
D03*
X7440D02*
D03*
X9410Y4740D02*
D03*
X8740D02*
D03*
X9610D02*
D03*
X10500Y4670D02*
D03*
X11180Y4730D02*
D03*
X10800Y4590D02*
D03*
X7530Y660D02*
D03*
X12410Y1410D02*
D03*
X12410Y1800D02*
D03*
X11990Y2150D02*
D03*
X1230Y4710D02*
D03*
X2270Y4580D02*
D03*
X2430Y4660D02*
D03*
X2340Y4630D02*
D03*
X590Y4790D02*
D03*
X300D02*
D03*
D86*
X1500Y2280D02*
D03*
X1540Y970D02*
D03*
X9940Y4550D02*
D03*
X10860Y3610D02*
D03*
X1620Y1090D02*
D03*
X1610Y1940D02*
D03*
X1250Y1280D02*
D03*
X2490Y1520D02*
D03*
Y1940D02*
D03*
X11560Y2800D02*
D03*
Y2690D02*
D03*
X11460D02*
D03*
X5190Y360D02*
D03*
X5490D02*
D03*
X7500D02*
D03*
X7820Y460D02*
D03*
X8180Y4730D02*
D03*
X10790Y3350D02*
D03*
X10580Y3280D02*
D03*
X11300Y3140D02*
D03*
Y3020D02*
D03*
X10450Y420D02*
D03*
Y310D02*
D03*
X10340Y1120D02*
D03*
X10420Y1410D02*
D03*
X10280D02*
D03*
X10410Y1570D02*
D03*
Y1760D02*
D03*
X10280D02*
D03*
X10340Y2060D02*
D03*
X11850Y2160D02*
D03*
X12320Y2340D02*
D03*
X12180D02*
D03*
X12450Y1670D02*
D03*
Y1540D02*
D03*
X12330Y890D02*
D03*
X12170D02*
D03*
X11990Y930D02*
D03*
X11730Y1870D02*
D03*
X11630D02*
D03*
X11530D02*
D03*
X11430D02*
D03*
X11480Y1970D02*
D03*
X11580D02*
D03*
X11680D02*
D03*
X11490Y1100D02*
D03*
X11590D02*
D03*
X11690D02*
D03*
X11740Y1200D02*
D03*
X11640D02*
D03*
X11540D02*
D03*
X11440D02*
D03*
X11070Y1570D02*
D03*
X11000Y1500D02*
D03*
Y1640D02*
D03*
X10920Y1570D02*
D03*
X10760Y2940D02*
D03*
X10760Y2840D02*
D03*
X11460Y2800D02*
D03*
X10850Y2890D02*
D03*
Y2990D02*
D03*
X10180Y2460D02*
D03*
X10280D02*
D03*
X10380D02*
D03*
X10260Y2360D02*
D03*
X10160Y2350D02*
D03*
X10290Y730D02*
D03*
X10390D02*
D03*
X10290Y840D02*
D03*
X10390Y630D02*
D03*
X10290D02*
D03*
D87*
X7490Y1400D02*
D03*
X7610Y1400D02*
D03*
X7730Y1400D02*
D03*
X7490Y1280D02*
D03*
X7610D02*
D03*
X7730D02*
D03*
X7490Y1160D02*
D03*
X7610D02*
D03*
X7730D02*
D03*
M02*
