G04 Layer_Color=8388736*
%FSLAX42Y42*%
%MOMM*%
G71*
G01*
G75*
%ADD10C,1.00*%
%ADD67C,1.50*%
%ADD68C,1.20*%
%ADD73R,1.50X1.50*%
%ADD155R,1.50X1.50*%
G04:AMPARAMS|DCode=156|XSize=1.1mm|YSize=1mm|CornerRadius=0.2mm|HoleSize=0mm|Usage=FLASHONLY|Rotation=270.000|XOffset=0mm|YOffset=0mm|HoleType=Round|Shape=RoundedRectangle|*
%AMROUNDEDRECTD156*
21,1,1.10,0.60,0,0,270.0*
21,1,0.70,1.00,0,0,270.0*
1,1,0.40,-0.30,-0.35*
1,1,0.40,-0.30,0.35*
1,1,0.40,0.30,0.35*
1,1,0.40,0.30,-0.35*
%
%ADD156ROUNDEDRECTD156*%
G04:AMPARAMS|DCode=157|XSize=0.7mm|YSize=0.8mm|CornerRadius=0.16mm|HoleSize=0mm|Usage=FLASHONLY|Rotation=270.000|XOffset=0mm|YOffset=0mm|HoleType=Round|Shape=RoundedRectangle|*
%AMROUNDEDRECTD157*
21,1,0.70,0.47,0,0,270.0*
21,1,0.38,0.80,0,0,270.0*
1,1,0.33,-0.24,-0.19*
1,1,0.33,-0.24,0.19*
1,1,0.33,0.24,0.19*
1,1,0.33,0.24,-0.19*
%
%ADD157ROUNDEDRECTD157*%
%ADD158O,0.55X1.90*%
%ADD159R,0.90X1.70*%
G04:AMPARAMS|DCode=160|XSize=1.1mm|YSize=0.9mm|CornerRadius=0.19mm|HoleSize=0mm|Usage=FLASHONLY|Rotation=180.000|XOffset=0mm|YOffset=0mm|HoleType=Round|Shape=RoundedRectangle|*
%AMROUNDEDRECTD160*
21,1,1.10,0.53,0,0,180.0*
21,1,0.72,0.90,0,0,180.0*
1,1,0.38,-0.36,0.26*
1,1,0.38,0.36,0.26*
1,1,0.38,0.36,-0.26*
1,1,0.38,-0.36,-0.26*
%
%ADD160ROUNDEDRECTD160*%
G04:AMPARAMS|DCode=161|XSize=1.1mm|YSize=0.9mm|CornerRadius=0.19mm|HoleSize=0mm|Usage=FLASHONLY|Rotation=270.000|XOffset=0mm|YOffset=0mm|HoleType=Round|Shape=RoundedRectangle|*
%AMROUNDEDRECTD161*
21,1,1.10,0.53,0,0,270.0*
21,1,0.72,0.90,0,0,270.0*
1,1,0.38,-0.26,-0.36*
1,1,0.38,-0.26,0.36*
1,1,0.38,0.26,0.36*
1,1,0.38,0.26,-0.36*
%
%ADD161ROUNDEDRECTD161*%
G04:AMPARAMS|DCode=162|XSize=0.55mm|YSize=1.4mm|CornerRadius=0.14mm|HoleSize=0mm|Usage=FLASHONLY|Rotation=90.000|XOffset=0mm|YOffset=0mm|HoleType=Round|Shape=RoundedRectangle|*
%AMROUNDEDRECTD162*
21,1,0.55,1.11,0,0,90.0*
21,1,0.26,1.40,0,0,90.0*
1,1,0.29,0.56,0.13*
1,1,0.29,0.56,-0.13*
1,1,0.29,-0.56,-0.13*
1,1,0.29,-0.56,0.13*
%
%ADD162ROUNDEDRECTD162*%
%ADD163R,1.30X0.80*%
%ADD164O,1.00X2.20*%
G04:AMPARAMS|DCode=165|XSize=1.9mm|YSize=1.3mm|CornerRadius=0.24mm|HoleSize=0mm|Usage=FLASHONLY|Rotation=90.000|XOffset=0mm|YOffset=0mm|HoleType=Round|Shape=RoundedRectangle|*
%AMROUNDEDRECTD165*
21,1,1.90,0.82,0,0,90.0*
21,1,1.43,1.30,0,0,90.0*
1,1,0.47,0.41,0.71*
1,1,0.47,0.41,-0.71*
1,1,0.47,-0.41,-0.71*
1,1,0.47,-0.41,0.71*
%
%ADD165ROUNDEDRECTD165*%
G04:AMPARAMS|DCode=166|XSize=1.1mm|YSize=1mm|CornerRadius=0.2mm|HoleSize=0mm|Usage=FLASHONLY|Rotation=180.000|XOffset=0mm|YOffset=0mm|HoleType=Round|Shape=RoundedRectangle|*
%AMROUNDEDRECTD166*
21,1,1.10,0.60,0,0,180.0*
21,1,0.70,1.00,0,0,180.0*
1,1,0.40,-0.35,0.30*
1,1,0.40,0.35,0.30*
1,1,0.40,0.35,-0.30*
1,1,0.40,-0.35,-0.30*
%
%ADD166ROUNDEDRECTD166*%
%ADD167O,0.70X1.80*%
%ADD168R,1.60X1.00*%
%ADD169R,1.60X1.20*%
%ADD170O,1.70X0.80*%
%ADD171R,1.12X0.99*%
G04:AMPARAMS|DCode=172|XSize=1.15mm|YSize=1.1mm|CornerRadius=0.33mm|HoleSize=0mm|Usage=FLASHONLY|Rotation=180.000|XOffset=0mm|YOffset=0mm|HoleType=Round|Shape=RoundedRectangle|*
%AMROUNDEDRECTD172*
21,1,1.15,0.45,0,0,180.0*
21,1,0.50,1.10,0,0,180.0*
1,1,0.65,-0.25,0.23*
1,1,0.65,0.25,0.23*
1,1,0.65,0.25,-0.23*
1,1,0.65,-0.25,-0.23*
%
%ADD172ROUNDEDRECTD172*%
G04:AMPARAMS|DCode=173|XSize=2.85mm|YSize=1.95mm|CornerRadius=0.32mm|HoleSize=0mm|Usage=FLASHONLY|Rotation=0.000|XOffset=0mm|YOffset=0mm|HoleType=Round|Shape=RoundedRectangle|*
%AMROUNDEDRECTD173*
21,1,2.85,1.31,0,0,0.0*
21,1,2.21,1.95,0,0,0.0*
1,1,0.64,1.11,-0.66*
1,1,0.64,-1.11,-0.66*
1,1,0.64,-1.11,0.66*
1,1,0.64,1.11,0.66*
%
%ADD173ROUNDEDRECTD173*%
G04:AMPARAMS|DCode=174|XSize=2.85mm|YSize=1.95mm|CornerRadius=0mm|HoleSize=0mm|Usage=FLASHONLY|Rotation=0.000|XOffset=0mm|YOffset=0mm|HoleType=Round|Shape=Octagon|*
%AMOCTAGOND174*
4,1,8,1.43,-0.49,1.43,0.49,0.94,0.97,-0.94,0.97,-1.43,0.49,-1.43,-0.49,-0.94,-0.97,0.94,-0.97,1.43,-0.49,0.0*
%
%ADD174OCTAGOND174*%

G04:AMPARAMS|DCode=175|XSize=3.4mm|YSize=3.4mm|CornerRadius=0.5mm|HoleSize=0mm|Usage=FLASHONLY|Rotation=90.000|XOffset=0mm|YOffset=0mm|HoleType=Round|Shape=RoundedRectangle|*
%AMROUNDEDRECTD175*
21,1,3.40,2.40,0,0,90.0*
21,1,2.40,3.40,0,0,90.0*
1,1,1.00,1.20,1.20*
1,1,1.00,1.20,-1.20*
1,1,1.00,-1.20,-1.20*
1,1,1.00,-1.20,1.20*
%
%ADD175ROUNDEDRECTD175*%
G04:AMPARAMS|DCode=176|XSize=1.5mm|YSize=1.2mm|CornerRadius=0.23mm|HoleSize=0mm|Usage=FLASHONLY|Rotation=90.000|XOffset=0mm|YOffset=0mm|HoleType=Round|Shape=RoundedRectangle|*
%AMROUNDEDRECTD176*
21,1,1.50,0.75,0,0,90.0*
21,1,1.05,1.20,0,0,90.0*
1,1,0.45,0.38,0.53*
1,1,0.45,0.38,-0.53*
1,1,0.45,-0.38,-0.53*
1,1,0.45,-0.38,0.53*
%
%ADD176ROUNDEDRECTD176*%
G04:AMPARAMS|DCode=177|XSize=0.7mm|YSize=0.8mm|CornerRadius=0.16mm|HoleSize=0mm|Usage=FLASHONLY|Rotation=180.000|XOffset=0mm|YOffset=0mm|HoleType=Round|Shape=RoundedRectangle|*
%AMROUNDEDRECTD177*
21,1,0.70,0.47,0,0,180.0*
21,1,0.38,0.80,0,0,180.0*
1,1,0.33,-0.19,0.24*
1,1,0.33,0.19,0.24*
1,1,0.33,0.19,-0.24*
1,1,0.33,-0.19,-0.24*
%
%ADD177ROUNDEDRECTD177*%
G04:AMPARAMS|DCode=178|XSize=0.8mm|YSize=1.2mm|CornerRadius=0.17mm|HoleSize=0mm|Usage=FLASHONLY|Rotation=270.000|XOffset=0mm|YOffset=0mm|HoleType=Round|Shape=RoundedRectangle|*
%AMROUNDEDRECTD178*
21,1,0.80,0.85,0,0,270.0*
21,1,0.45,1.20,0,0,270.0*
1,1,0.35,-0.42,-0.23*
1,1,0.35,-0.42,0.23*
1,1,0.35,0.42,0.23*
1,1,0.35,0.42,-0.23*
%
%ADD178ROUNDEDRECTD178*%
%ADD179R,3.50X3.50*%
%ADD180O,0.50X1.25*%
%ADD181O,1.25X0.50*%
%ADD182C,0.70*%
%ADD183O,2.40X0.80*%
%ADD184R,1.95X4.70*%
G04:AMPARAMS|DCode=185|XSize=1.5mm|YSize=0.9mm|CornerRadius=0.19mm|HoleSize=0mm|Usage=FLASHONLY|Rotation=90.000|XOffset=0mm|YOffset=0mm|HoleType=Round|Shape=RoundedRectangle|*
%AMROUNDEDRECTD185*
21,1,1.50,0.53,0,0,90.0*
21,1,1.13,0.90,0,0,90.0*
1,1,0.38,0.26,0.56*
1,1,0.38,0.26,-0.56*
1,1,0.38,-0.26,-0.56*
1,1,0.38,-0.26,0.56*
%
%ADD185ROUNDEDRECTD185*%
G04:AMPARAMS|DCode=186|XSize=0.8mm|YSize=0.7mm|CornerRadius=0.16mm|HoleSize=0mm|Usage=FLASHONLY|Rotation=180.000|XOffset=0mm|YOffset=0mm|HoleType=Round|Shape=RoundedRectangle|*
%AMROUNDEDRECTD186*
21,1,0.80,0.38,0,0,180.0*
21,1,0.47,0.70,0,0,180.0*
1,1,0.33,-0.24,0.19*
1,1,0.33,0.24,0.19*
1,1,0.33,0.24,-0.19*
1,1,0.33,-0.24,-0.19*
%
%ADD186ROUNDEDRECTD186*%
%ADD187R,2.00X1.70*%
%ADD188R,0.50X1.45*%
G04:AMPARAMS|DCode=189|XSize=1.5mm|YSize=1.1mm|CornerRadius=0.21mm|HoleSize=0mm|Usage=FLASHONLY|Rotation=0.000|XOffset=0mm|YOffset=0mm|HoleType=Round|Shape=RoundedRectangle|*
%AMROUNDEDRECTD189*
21,1,1.50,0.68,0,0,0.0*
21,1,1.07,1.10,0,0,0.0*
1,1,0.42,0.54,-0.34*
1,1,0.42,-0.54,-0.34*
1,1,0.42,-0.54,0.34*
1,1,0.42,0.54,0.34*
%
%ADD189ROUNDEDRECTD189*%
%ADD190O,0.50X2.00*%
%ADD191O,2.00X0.50*%
%ADD192R,5.50X5.50*%
G04:AMPARAMS|DCode=193|XSize=1.95mm|YSize=1.25mm|CornerRadius=0.23mm|HoleSize=0mm|Usage=FLASHONLY|Rotation=180.000|XOffset=0mm|YOffset=0mm|HoleType=Round|Shape=RoundedRectangle|*
%AMROUNDEDRECTD193*
21,1,1.95,0.79,0,0,180.0*
21,1,1.49,1.25,0,0,180.0*
1,1,0.46,-0.74,0.39*
1,1,0.46,0.74,0.39*
1,1,0.46,0.74,-0.39*
1,1,0.46,-0.74,-0.39*
%
%ADD193ROUNDEDRECTD193*%
G04:AMPARAMS|DCode=194|XSize=1.6mm|YSize=1.4mm|CornerRadius=0.4mm|HoleSize=0mm|Usage=FLASHONLY|Rotation=270.000|XOffset=0mm|YOffset=0mm|HoleType=Round|Shape=RoundedRectangle|*
%AMROUNDEDRECTD194*
21,1,1.60,0.60,0,0,270.0*
21,1,0.80,1.40,0,0,270.0*
1,1,0.80,-0.30,-0.40*
1,1,0.80,-0.30,0.40*
1,1,0.80,0.30,0.40*
1,1,0.80,0.30,-0.40*
%
%ADD194ROUNDEDRECTD194*%
G04:AMPARAMS|DCode=195|XSize=1.5mm|YSize=1.2mm|CornerRadius=0.23mm|HoleSize=0mm|Usage=FLASHONLY|Rotation=0.000|XOffset=0mm|YOffset=0mm|HoleType=Round|Shape=RoundedRectangle|*
%AMROUNDEDRECTD195*
21,1,1.50,0.75,0,0,0.0*
21,1,1.05,1.20,0,0,0.0*
1,1,0.45,0.53,-0.38*
1,1,0.45,-0.53,-0.38*
1,1,0.45,-0.53,0.38*
1,1,0.45,0.53,0.38*
%
%ADD195ROUNDEDRECTD195*%
%ADD196O,0.80X2.40*%
G04:AMPARAMS|DCode=197|XSize=1.5mm|YSize=0.9mm|CornerRadius=0.19mm|HoleSize=0mm|Usage=FLASHONLY|Rotation=0.000|XOffset=0mm|YOffset=0mm|HoleType=Round|Shape=RoundedRectangle|*
%AMROUNDEDRECTD197*
21,1,1.50,0.53,0,0,0.0*
21,1,1.13,0.90,0,0,0.0*
1,1,0.38,0.56,-0.26*
1,1,0.38,-0.56,-0.26*
1,1,0.38,-0.56,0.26*
1,1,0.38,0.56,0.26*
%
%ADD197ROUNDEDRECTD197*%
%ADD198C,1.70*%
%ADD199C,1.40*%
%ADD200C,3.20*%
%ADD201C,2.15*%
%ADD202R,1.70X1.70*%
%ADD203R,1.70X1.70*%
%ADD204R,1.85X1.85*%
%ADD205C,1.85*%
%ADD206C,2.70*%
%ADD207R,2.70X2.70*%
%ADD208C,1.72*%
%ADD209C,4.00*%
%ADD210R,1.72X1.72*%
%ADD211C,1.80*%
%ADD212R,1.80X1.80*%
%ADD213C,6.20*%
D10*
X1500Y2280D02*
D03*
X1540Y970D02*
D03*
X9940Y4550D02*
D03*
X10860Y3610D02*
D03*
X1620Y1090D02*
D03*
X1610Y1940D02*
D03*
X1250Y1280D02*
D03*
X2490Y1520D02*
D03*
Y1940D02*
D03*
D67*
X2258Y914D02*
D03*
X3401D02*
D03*
Y724D02*
D03*
Y533D02*
D03*
X3210Y912D02*
D03*
Y724D02*
D03*
Y533D02*
D03*
X3017Y914D02*
D03*
Y724D02*
D03*
X3020Y533D02*
D03*
X2830Y914D02*
D03*
Y724D02*
D03*
Y533D02*
D03*
X2639Y914D02*
D03*
Y724D02*
D03*
Y533D02*
D03*
X2067Y724D02*
D03*
Y533D02*
D03*
X2258D02*
D03*
Y724D02*
D03*
X2449Y914D02*
D03*
Y724D02*
D03*
Y533D02*
D03*
D68*
X7300Y4120D02*
D03*
X11490Y5170D02*
D03*
X4690Y3980D02*
D03*
D73*
X2067Y914D02*
D03*
D155*
X4850Y2120D02*
D03*
X7300Y4400D02*
D03*
X500Y1000D02*
D03*
Y6000D02*
D03*
X12500Y6000D02*
D03*
Y1000D02*
D03*
D156*
X9125Y2410D02*
D03*
X8975Y2410D02*
D03*
X10365Y2910D02*
D03*
X10215D02*
D03*
X11095Y1980D02*
D03*
X11245D02*
D03*
X11255Y1190D02*
D03*
X11105D02*
D03*
X10225Y3160D02*
D03*
X10375D02*
D03*
X1475Y2150D02*
D03*
X1625D02*
D03*
X12175Y1540D02*
D03*
X12325D02*
D03*
Y1280D02*
D03*
X12175D02*
D03*
Y1670D02*
D03*
X12325D02*
D03*
X12175Y1930D02*
D03*
X12325D02*
D03*
X10175Y420D02*
D03*
X10325D02*
D03*
X9125Y3930D02*
D03*
X8975D02*
D03*
X8030Y4975D02*
D03*
X8180D02*
D03*
D157*
X480Y4790D02*
D03*
X380D02*
D03*
X8030Y1630D02*
D03*
X8130D02*
D03*
X7360Y660D02*
D03*
X7460D02*
D03*
X2250Y2220D02*
D03*
X2150D02*
D03*
X5100Y1260D02*
D03*
X5200D02*
D03*
D158*
X1923Y5435D02*
D03*
X1858Y5435D02*
D03*
X1792Y5435D02*
D03*
X1727Y5435D02*
D03*
X1598D02*
D03*
X1662D02*
D03*
X1532D02*
D03*
X1858Y4865D02*
D03*
X1923Y4865D02*
D03*
X1792D02*
D03*
X1598Y4865D02*
D03*
X1532D02*
D03*
X1727D02*
D03*
X1662D02*
D03*
X1468Y5435D02*
D03*
X1338D02*
D03*
X1402Y5435D02*
D03*
Y4865D02*
D03*
X1468Y4865D02*
D03*
X1338D02*
D03*
X3672Y5435D02*
D03*
X3608Y5435D02*
D03*
X3542Y5435D02*
D03*
X3478Y5435D02*
D03*
X3347D02*
D03*
X3412D02*
D03*
X3283D02*
D03*
X3608Y4865D02*
D03*
X3672Y4865D02*
D03*
X3542D02*
D03*
X3347Y4865D02*
D03*
X3283D02*
D03*
X3478D02*
D03*
X3412D02*
D03*
X3217Y5435D02*
D03*
X3088D02*
D03*
X3152Y5435D02*
D03*
Y4865D02*
D03*
X3217Y4865D02*
D03*
X3088D02*
D03*
X2792Y5435D02*
D03*
X2727Y5435D02*
D03*
X2662Y5435D02*
D03*
X2598Y5435D02*
D03*
X2467D02*
D03*
X2533D02*
D03*
X2402D02*
D03*
X2727Y4865D02*
D03*
X2792Y4865D02*
D03*
X2662D02*
D03*
X2467Y4865D02*
D03*
X2402D02*
D03*
X2598D02*
D03*
X2533D02*
D03*
X2338Y5435D02*
D03*
X2208D02*
D03*
X2273Y5435D02*
D03*
Y4865D02*
D03*
X2338Y4865D02*
D03*
X2208D02*
D03*
X9243Y5435D02*
D03*
X9307D02*
D03*
X9178D02*
D03*
X9372D02*
D03*
X9047D02*
D03*
X9112D02*
D03*
X8982D02*
D03*
X9372Y4865D02*
D03*
X9307D02*
D03*
X9243D02*
D03*
X9047D02*
D03*
X8982D02*
D03*
X9178D02*
D03*
X9112D02*
D03*
X8918Y5435D02*
D03*
X8788D02*
D03*
X8853D02*
D03*
Y4865D02*
D03*
X8918D02*
D03*
X8788D02*
D03*
X10992Y5435D02*
D03*
X11057D02*
D03*
X10927D02*
D03*
X11122D02*
D03*
X10797D02*
D03*
X10862D02*
D03*
X10732D02*
D03*
X11122Y4865D02*
D03*
X11057D02*
D03*
X10992D02*
D03*
X10797D02*
D03*
X10732D02*
D03*
X10927D02*
D03*
X10862D02*
D03*
X10667Y5435D02*
D03*
X10537D02*
D03*
X10602D02*
D03*
Y4865D02*
D03*
X10667D02*
D03*
X10537D02*
D03*
X10112Y5435D02*
D03*
X10178D02*
D03*
X10047D02*
D03*
X10243D02*
D03*
X9918D02*
D03*
X9982D02*
D03*
X9853D02*
D03*
X10243Y4865D02*
D03*
X10178D02*
D03*
X10112D02*
D03*
X9918D02*
D03*
X9853D02*
D03*
X10047D02*
D03*
X9982D02*
D03*
X9788Y5435D02*
D03*
X9657D02*
D03*
X9722D02*
D03*
Y4865D02*
D03*
X9788D02*
D03*
X9657D02*
D03*
X5672Y5435D02*
D03*
X5608Y5435D02*
D03*
X5542Y5435D02*
D03*
X5478Y5435D02*
D03*
X5412D02*
D03*
X5347D02*
D03*
X5283D02*
D03*
X5217Y5435D02*
D03*
X5153Y5435D02*
D03*
X5088Y5435D02*
D03*
X5672Y4865D02*
D03*
X5608Y4865D02*
D03*
X5542Y4865D02*
D03*
X5478Y4865D02*
D03*
X5412D02*
D03*
X5347D02*
D03*
X5283D02*
D03*
X5217Y4865D02*
D03*
X5153Y4865D02*
D03*
X5088Y4865D02*
D03*
X6543Y5435D02*
D03*
X6478Y5435D02*
D03*
X6412Y5435D02*
D03*
X6347Y5435D02*
D03*
X6283D02*
D03*
X6217D02*
D03*
X6153D02*
D03*
X6088Y5435D02*
D03*
X6022Y5435D02*
D03*
X5958Y5435D02*
D03*
X6543Y4865D02*
D03*
X6478Y4865D02*
D03*
X6412Y4865D02*
D03*
X6347Y4865D02*
D03*
X6283D02*
D03*
X6217D02*
D03*
X6153D02*
D03*
X6088Y4865D02*
D03*
X6022Y4865D02*
D03*
X5958Y4865D02*
D03*
X7422Y5435D02*
D03*
X7357Y5435D02*
D03*
X7292Y5435D02*
D03*
X7227Y5435D02*
D03*
X7162D02*
D03*
X7097D02*
D03*
X7032D02*
D03*
X6967Y5435D02*
D03*
X6902Y5435D02*
D03*
X6837Y5435D02*
D03*
X7422Y4865D02*
D03*
X7357Y4865D02*
D03*
X7292Y4865D02*
D03*
X7227Y4865D02*
D03*
X7162D02*
D03*
X7097D02*
D03*
X7032D02*
D03*
X6967Y4865D02*
D03*
X6902Y4865D02*
D03*
X6837Y4865D02*
D03*
D159*
X10721Y4439D02*
D03*
X10594D02*
D03*
X10721Y3741D02*
D03*
X10593D02*
D03*
X10467Y4439D02*
D03*
X10339D02*
D03*
X10467Y3741D02*
D03*
X10339D02*
D03*
D160*
X6100Y810D02*
D03*
Y950D02*
D03*
X1290Y2530D02*
D03*
Y2390D02*
D03*
X4020Y1880D02*
D03*
Y2020D02*
D03*
X7720Y4630D02*
D03*
Y4770D02*
D03*
Y4880D02*
D03*
Y5020D02*
D03*
X12320Y2090D02*
D03*
Y2230D02*
D03*
X11990Y1170D02*
D03*
Y1030D02*
D03*
X11850D02*
D03*
Y1170D02*
D03*
X12330Y1130D02*
D03*
Y990D02*
D03*
X11850Y1920D02*
D03*
Y2060D02*
D03*
X11990D02*
D03*
Y1920D02*
D03*
X11470Y120D02*
D03*
Y260D02*
D03*
X10960Y120D02*
D03*
Y260D02*
D03*
X8200Y730D02*
D03*
Y590D02*
D03*
X7700Y760D02*
D03*
Y900D02*
D03*
X7560Y760D02*
D03*
Y900D02*
D03*
X5660Y4080D02*
D03*
Y4220D02*
D03*
X780Y5120D02*
D03*
Y4980D02*
D03*
X1350Y3050D02*
D03*
Y3190D02*
D03*
X1110Y3050D02*
D03*
Y3190D02*
D03*
X3760Y2800D02*
D03*
Y2940D02*
D03*
X5960Y950D02*
D03*
Y810D02*
D03*
X5500Y1130D02*
D03*
Y1270D02*
D03*
X5710Y820D02*
D03*
Y960D02*
D03*
X1290Y2130D02*
D03*
Y2270D02*
D03*
X1290Y1850D02*
D03*
Y1710D02*
D03*
D161*
X1430Y1590D02*
D03*
X1290D02*
D03*
X1630Y1400D02*
D03*
X1770D02*
D03*
X11140Y4340D02*
D03*
X11000D02*
D03*
X11140Y4210D02*
D03*
X11000D02*
D03*
X11140Y4080D02*
D03*
X11000D02*
D03*
X11140Y3950D02*
D03*
X11000D02*
D03*
X1490Y1240D02*
D03*
X1350D02*
D03*
Y1090D02*
D03*
X1490D02*
D03*
X10080Y4340D02*
D03*
X9940D02*
D03*
X10080Y4080D02*
D03*
X9940D02*
D03*
X10080Y4210D02*
D03*
X9940D02*
D03*
X10080Y3950D02*
D03*
X9940D02*
D03*
X10370Y2360D02*
D03*
X10510D02*
D03*
X10370Y840D02*
D03*
X10510D02*
D03*
X10520Y2770D02*
D03*
X10380D02*
D03*
X550Y2590D02*
D03*
X690D02*
D03*
X510Y4470D02*
D03*
X370D02*
D03*
X1110Y2590D02*
D03*
X970D02*
D03*
X12320Y1410D02*
D03*
X12180D02*
D03*
X12320Y1800D02*
D03*
X12180D02*
D03*
X8030Y1750D02*
D03*
X7890D02*
D03*
X11030Y3350D02*
D03*
X10890D02*
D03*
X5040Y3980D02*
D03*
X4900D02*
D03*
X3750Y2670D02*
D03*
X3890D02*
D03*
X5550Y820D02*
D03*
X5410D02*
D03*
X3220Y1540D02*
D03*
X3080D02*
D03*
X3220Y1680D02*
D03*
X3080D02*
D03*
D162*
X1469Y1958D02*
D03*
Y1892D02*
D03*
Y1828D02*
D03*
Y1762D02*
D03*
X1811Y1958D02*
D03*
Y1892D02*
D03*
Y1828D02*
D03*
Y1762D02*
D03*
X10575Y3177D02*
D03*
Y3112D02*
D03*
Y3048D02*
D03*
Y2983D02*
D03*
X11145Y3177D02*
D03*
Y3112D02*
D03*
Y3048D02*
D03*
Y2983D02*
D03*
X11275Y1798D02*
D03*
Y1733D02*
D03*
Y1667D02*
D03*
Y1602D02*
D03*
Y1538D02*
D03*
Y1473D02*
D03*
Y1407D02*
D03*
Y1343D02*
D03*
X11845Y1798D02*
D03*
Y1733D02*
D03*
Y1667D02*
D03*
Y1602D02*
D03*
Y1538D02*
D03*
Y1473D02*
D03*
Y1407D02*
D03*
Y1343D02*
D03*
D163*
X2370Y1395D02*
D03*
Y1490D02*
D03*
Y1585D02*
D03*
X2130D02*
D03*
Y1490D02*
D03*
Y1395D02*
D03*
X2370Y1805D02*
D03*
Y1900D02*
D03*
Y1995D02*
D03*
X2130D02*
D03*
Y1900D02*
D03*
Y1805D02*
D03*
X8295Y4630D02*
D03*
Y4725D02*
D03*
Y4820D02*
D03*
X8055D02*
D03*
Y4725D02*
D03*
Y4630D02*
D03*
D164*
X4497Y1325D02*
D03*
X4243D02*
D03*
Y2055D02*
D03*
X4497D02*
D03*
D165*
X11055Y2760D02*
D03*
X11345D02*
D03*
D166*
X7870Y4635D02*
D03*
Y4785D02*
D03*
X2770Y1405D02*
D03*
Y1255D02*
D03*
X12170Y985D02*
D03*
Y1135D02*
D03*
X12180Y2235D02*
D03*
Y2085D02*
D03*
D167*
X8850Y2612D02*
D03*
X8690D02*
D03*
X8770D02*
D03*
X8930D02*
D03*
X8530Y3728D02*
D03*
X8450Y3728D02*
D03*
X8210Y3728D02*
D03*
X8290D02*
D03*
X8370Y3728D02*
D03*
X8610D02*
D03*
X8850Y3728D02*
D03*
X8690D02*
D03*
X8770D02*
D03*
X8930Y3728D02*
D03*
X9330Y2612D02*
D03*
X9170D02*
D03*
X9250D02*
D03*
X9410Y2612D02*
D03*
X9810Y2612D02*
D03*
X9730D02*
D03*
X9490Y2612D02*
D03*
X9570D02*
D03*
X9650Y2612D02*
D03*
X9890Y2612D02*
D03*
X8210Y2612D02*
D03*
X8290D02*
D03*
X8370D02*
D03*
X8450D02*
D03*
X8530Y2612D02*
D03*
X8610Y2612D02*
D03*
X9010Y2612D02*
D03*
X9090Y2612D02*
D03*
X9010Y3728D02*
D03*
X9090D02*
D03*
X9170D02*
D03*
X9250Y3728D02*
D03*
X9330D02*
D03*
X9410D02*
D03*
X9490Y3728D02*
D03*
X9570D02*
D03*
X9650Y3728D02*
D03*
X9730D02*
D03*
X9810Y3728D02*
D03*
X9890D02*
D03*
D168*
X370Y4945D02*
D03*
Y5135D02*
D03*
X590D02*
D03*
D169*
Y4965D02*
D03*
D170*
X4778Y1841D02*
D03*
Y1714D02*
D03*
Y1586D02*
D03*
Y1460D02*
D03*
X5483Y1841D02*
D03*
Y1714D02*
D03*
Y1586D02*
D03*
Y1460D02*
D03*
D171*
X370Y5395D02*
D03*
Y5805D02*
D03*
X530D02*
D03*
Y5395D02*
D03*
D172*
X11360Y693D02*
D03*
Y1007D02*
D03*
X11350Y2498D02*
D03*
Y2183D02*
D03*
D173*
X9505Y1920D02*
D03*
X10345Y1270D02*
D03*
X10365Y1920D02*
D03*
D174*
X9935D02*
D03*
X10775Y1270D02*
D03*
X10795Y1920D02*
D03*
D175*
X11560Y1570D02*
D03*
D176*
X8170Y1770D02*
D03*
X8350D02*
D03*
X10520Y1000D02*
D03*
X10340D02*
D03*
X10750Y1570D02*
D03*
X10570D02*
D03*
X10520Y2190D02*
D03*
X10340D02*
D03*
X7860Y4450D02*
D03*
X8040D02*
D03*
X1340Y1400D02*
D03*
X1520D02*
D03*
D177*
X5590Y4610D02*
D03*
Y4510D02*
D03*
X10380Y5410D02*
D03*
Y5510D02*
D03*
X9520Y5410D02*
D03*
Y5510D02*
D03*
X8660Y5410D02*
D03*
Y5510D02*
D03*
X6680Y5410D02*
D03*
Y5510D02*
D03*
X5820Y5410D02*
D03*
Y5510D02*
D03*
X4960Y5410D02*
D03*
Y5510D02*
D03*
X2930Y5410D02*
D03*
Y5510D02*
D03*
X2070Y5410D02*
D03*
Y5510D02*
D03*
X1200Y5410D02*
D03*
Y5510D02*
D03*
X1810Y3550D02*
D03*
Y3450D02*
D03*
X1630Y3610D02*
D03*
Y3710D02*
D03*
X1810Y3050D02*
D03*
Y2950D02*
D03*
D178*
X8340Y1215D02*
D03*
Y1310D02*
D03*
Y1405D02*
D03*
X8080D02*
D03*
Y1310D02*
D03*
Y1215D02*
D03*
D179*
X7610Y1280D02*
D03*
D180*
X7760Y1043D02*
D03*
X7710Y1043D02*
D03*
X7660D02*
D03*
X7610D02*
D03*
X7560D02*
D03*
X7510D02*
D03*
X7460D02*
D03*
Y1518D02*
D03*
X7510D02*
D03*
X7560D02*
D03*
X7610Y1518D02*
D03*
X7660D02*
D03*
X7710D02*
D03*
X7760Y1518D02*
D03*
D181*
X7372Y1130D02*
D03*
Y1180D02*
D03*
Y1230D02*
D03*
Y1280D02*
D03*
Y1330D02*
D03*
Y1380D02*
D03*
X7372Y1430D02*
D03*
X7847D02*
D03*
X7847Y1380D02*
D03*
Y1330D02*
D03*
X7847Y1280D02*
D03*
Y1230D02*
D03*
Y1180D02*
D03*
Y1130D02*
D03*
D182*
X6880Y3710D02*
D03*
Y3610D02*
D03*
Y3510D02*
D03*
Y3410D02*
D03*
Y3310D02*
D03*
Y3210D02*
D03*
Y3110D02*
D03*
Y3010D02*
D03*
Y2910D02*
D03*
Y2810D02*
D03*
Y2710D02*
D03*
Y2610D02*
D03*
Y2510D02*
D03*
Y2410D02*
D03*
Y2310D02*
D03*
Y2210D02*
D03*
X6780Y3710D02*
D03*
Y3610D02*
D03*
Y3510D02*
D03*
Y3410D02*
D03*
Y3310D02*
D03*
Y3210D02*
D03*
Y3110D02*
D03*
Y3010D02*
D03*
Y2910D02*
D03*
Y2810D02*
D03*
Y2710D02*
D03*
Y2610D02*
D03*
Y2510D02*
D03*
Y2410D02*
D03*
Y2310D02*
D03*
Y2210D02*
D03*
X6680Y3710D02*
D03*
Y3610D02*
D03*
Y3510D02*
D03*
Y3410D02*
D03*
Y3310D02*
D03*
Y3210D02*
D03*
Y3110D02*
D03*
Y3010D02*
D03*
Y2910D02*
D03*
Y2810D02*
D03*
Y2710D02*
D03*
Y2610D02*
D03*
Y2510D02*
D03*
Y2410D02*
D03*
Y2310D02*
D03*
Y2210D02*
D03*
X6580Y3710D02*
D03*
Y3610D02*
D03*
Y3510D02*
D03*
Y3410D02*
D03*
Y3310D02*
D03*
Y3210D02*
D03*
Y3110D02*
D03*
Y3010D02*
D03*
Y2910D02*
D03*
Y2810D02*
D03*
Y2710D02*
D03*
Y2610D02*
D03*
Y2510D02*
D03*
Y2410D02*
D03*
Y2310D02*
D03*
Y2210D02*
D03*
X6480Y3710D02*
D03*
Y3610D02*
D03*
Y3510D02*
D03*
Y3410D02*
D03*
Y3310D02*
D03*
Y3210D02*
D03*
Y3110D02*
D03*
Y3010D02*
D03*
Y2910D02*
D03*
Y2810D02*
D03*
Y2710D02*
D03*
Y2610D02*
D03*
Y2510D02*
D03*
Y2410D02*
D03*
Y2310D02*
D03*
Y2210D02*
D03*
X6380Y3710D02*
D03*
Y3610D02*
D03*
Y3510D02*
D03*
Y3410D02*
D03*
Y3310D02*
D03*
Y3210D02*
D03*
Y3110D02*
D03*
Y3010D02*
D03*
Y2910D02*
D03*
Y2810D02*
D03*
Y2710D02*
D03*
Y2610D02*
D03*
Y2510D02*
D03*
Y2410D02*
D03*
Y2310D02*
D03*
Y2210D02*
D03*
X6280Y3710D02*
D03*
Y3610D02*
D03*
Y3510D02*
D03*
Y3410D02*
D03*
Y3310D02*
D03*
Y3210D02*
D03*
Y3110D02*
D03*
Y3010D02*
D03*
Y2910D02*
D03*
Y2810D02*
D03*
Y2710D02*
D03*
Y2610D02*
D03*
Y2510D02*
D03*
Y2410D02*
D03*
Y2310D02*
D03*
Y2210D02*
D03*
X6180Y3710D02*
D03*
Y3610D02*
D03*
Y3510D02*
D03*
Y3410D02*
D03*
Y3310D02*
D03*
Y3210D02*
D03*
Y3110D02*
D03*
Y3010D02*
D03*
Y2910D02*
D03*
Y2810D02*
D03*
Y2710D02*
D03*
Y2610D02*
D03*
Y2510D02*
D03*
Y2410D02*
D03*
Y2310D02*
D03*
Y2210D02*
D03*
X6080Y3710D02*
D03*
Y3610D02*
D03*
Y3510D02*
D03*
Y3410D02*
D03*
Y3310D02*
D03*
Y3210D02*
D03*
Y3110D02*
D03*
Y3010D02*
D03*
Y2910D02*
D03*
Y2810D02*
D03*
Y2710D02*
D03*
Y2610D02*
D03*
Y2510D02*
D03*
Y2410D02*
D03*
Y2310D02*
D03*
Y2210D02*
D03*
X5980Y3710D02*
D03*
Y3610D02*
D03*
Y3510D02*
D03*
Y3410D02*
D03*
Y3310D02*
D03*
Y3210D02*
D03*
Y3110D02*
D03*
Y3010D02*
D03*
Y2910D02*
D03*
Y2810D02*
D03*
Y2710D02*
D03*
Y2610D02*
D03*
Y2510D02*
D03*
Y2410D02*
D03*
Y2310D02*
D03*
Y2210D02*
D03*
X5880Y3710D02*
D03*
Y3610D02*
D03*
Y3510D02*
D03*
Y3410D02*
D03*
Y3310D02*
D03*
Y3210D02*
D03*
Y3110D02*
D03*
Y3010D02*
D03*
Y2910D02*
D03*
Y2810D02*
D03*
Y2710D02*
D03*
Y2610D02*
D03*
Y2510D02*
D03*
Y2410D02*
D03*
Y2310D02*
D03*
Y2210D02*
D03*
X5780Y3710D02*
D03*
Y3610D02*
D03*
Y3510D02*
D03*
Y3410D02*
D03*
Y3310D02*
D03*
Y3210D02*
D03*
Y3110D02*
D03*
Y3010D02*
D03*
Y2910D02*
D03*
Y2810D02*
D03*
Y2710D02*
D03*
Y2610D02*
D03*
Y2510D02*
D03*
Y2410D02*
D03*
Y2310D02*
D03*
Y2210D02*
D03*
X5680Y3710D02*
D03*
Y3610D02*
D03*
Y3510D02*
D03*
Y3410D02*
D03*
Y3310D02*
D03*
Y3210D02*
D03*
Y3110D02*
D03*
Y3010D02*
D03*
Y2910D02*
D03*
Y2810D02*
D03*
Y2710D02*
D03*
Y2610D02*
D03*
Y2510D02*
D03*
Y2410D02*
D03*
Y2310D02*
D03*
Y2210D02*
D03*
X5580Y3710D02*
D03*
Y3610D02*
D03*
Y3510D02*
D03*
Y3410D02*
D03*
Y3310D02*
D03*
Y3210D02*
D03*
Y3110D02*
D03*
Y3010D02*
D03*
Y2910D02*
D03*
Y2810D02*
D03*
Y2710D02*
D03*
Y2610D02*
D03*
Y2510D02*
D03*
Y2410D02*
D03*
Y2310D02*
D03*
Y2210D02*
D03*
X5480Y3710D02*
D03*
Y3610D02*
D03*
Y3510D02*
D03*
Y3410D02*
D03*
Y3310D02*
D03*
Y3210D02*
D03*
Y3110D02*
D03*
Y3010D02*
D03*
Y2910D02*
D03*
Y2810D02*
D03*
Y2710D02*
D03*
Y2610D02*
D03*
Y2510D02*
D03*
Y2410D02*
D03*
Y2310D02*
D03*
Y2210D02*
D03*
X5380Y3710D02*
D03*
Y3610D02*
D03*
Y3510D02*
D03*
Y3410D02*
D03*
Y3310D02*
D03*
Y3210D02*
D03*
Y3110D02*
D03*
Y3010D02*
D03*
Y2910D02*
D03*
Y2810D02*
D03*
Y2710D02*
D03*
Y2610D02*
D03*
Y2510D02*
D03*
Y2410D02*
D03*
Y2310D02*
D03*
Y2210D02*
D03*
D183*
X3490Y1681D02*
D03*
Y1553D02*
D03*
Y1427D02*
D03*
Y1299D02*
D03*
X3970Y1681D02*
D03*
Y1553D02*
D03*
Y1427D02*
D03*
Y1299D02*
D03*
D184*
X11062Y840D02*
D03*
X10738D02*
D03*
X11093Y2350D02*
D03*
X10768D02*
D03*
D185*
X10345Y240D02*
D03*
X10155D02*
D03*
D186*
X5480Y4605D02*
D03*
Y4515D02*
D03*
D187*
X5345Y362D02*
D03*
X7665D02*
D03*
D188*
X7430Y500D02*
D03*
X7380D02*
D03*
X7330D02*
D03*
X7480D02*
D03*
X7280D02*
D03*
X7230D02*
D03*
X7180D02*
D03*
X7130D02*
D03*
X7080D02*
D03*
X7030D02*
D03*
X6980D02*
D03*
X6930D02*
D03*
X6880D02*
D03*
X6830D02*
D03*
X6780D02*
D03*
X6730D02*
D03*
X6680D02*
D03*
X6630D02*
D03*
X6580D02*
D03*
X6530D02*
D03*
X6480D02*
D03*
X6430D02*
D03*
X6380D02*
D03*
X6330D02*
D03*
X6280D02*
D03*
X6230D02*
D03*
X6180D02*
D03*
X6130D02*
D03*
X6080D02*
D03*
X6030D02*
D03*
X5980D02*
D03*
X5930D02*
D03*
X5880D02*
D03*
X5830D02*
D03*
X5780D02*
D03*
X5730D02*
D03*
X5680D02*
D03*
X5630D02*
D03*
X5580D02*
D03*
X5530D02*
D03*
D189*
X2940Y1255D02*
D03*
Y1425D02*
D03*
D190*
X3000Y2460D02*
D03*
X3050D02*
D03*
X2350D02*
D03*
X2400D02*
D03*
X3350D02*
D03*
X3300D02*
D03*
X3250D02*
D03*
X3200D02*
D03*
X3150D02*
D03*
X3100D02*
D03*
X2950D02*
D03*
X2900D02*
D03*
X2850D02*
D03*
X2800Y2460D02*
D03*
X2750D02*
D03*
X2700D02*
D03*
X2650Y2460D02*
D03*
X2600D02*
D03*
X2550D02*
D03*
X2500D02*
D03*
X2450D02*
D03*
X2300D02*
D03*
X2250D02*
D03*
X2200D02*
D03*
X2150D02*
D03*
Y3980D02*
D03*
X2200D02*
D03*
X2400D02*
D03*
X2450D02*
D03*
X2500D02*
D03*
X2550D02*
D03*
X2600D02*
D03*
X2650D02*
D03*
X2700Y3980D02*
D03*
X2750D02*
D03*
X3050Y3980D02*
D03*
X3100D02*
D03*
X3150D02*
D03*
X3200D02*
D03*
X3250D02*
D03*
X3300D02*
D03*
X3350D02*
D03*
X3000D02*
D03*
X2900D02*
D03*
X2850D02*
D03*
X2800Y3980D02*
D03*
X2950Y3980D02*
D03*
X2350D02*
D03*
X2300D02*
D03*
X2250D02*
D03*
D191*
X3510Y3320D02*
D03*
Y3370D02*
D03*
X3510Y3420D02*
D03*
X3510Y3770D02*
D03*
Y3720D02*
D03*
Y3570D02*
D03*
Y3620D02*
D03*
Y3670D02*
D03*
Y3820D02*
D03*
X1990Y2620D02*
D03*
Y2670D02*
D03*
Y2720D02*
D03*
Y2770D02*
D03*
Y2820D02*
D03*
Y2870D02*
D03*
Y2920D02*
D03*
Y2970D02*
D03*
Y3020D02*
D03*
Y3070D02*
D03*
Y3120D02*
D03*
X1990Y3170D02*
D03*
Y3220D02*
D03*
Y3270D02*
D03*
X1990Y3320D02*
D03*
Y3370D02*
D03*
Y3420D02*
D03*
Y3470D02*
D03*
Y3520D02*
D03*
Y3570D02*
D03*
Y3620D02*
D03*
Y3670D02*
D03*
Y3720D02*
D03*
Y3770D02*
D03*
Y3820D02*
D03*
X3510Y3520D02*
D03*
Y3470D02*
D03*
X3510Y3270D02*
D03*
Y3220D02*
D03*
Y3170D02*
D03*
X3510Y3120D02*
D03*
X3510Y3070D02*
D03*
Y3020D02*
D03*
Y2970D02*
D03*
Y2920D02*
D03*
Y2870D02*
D03*
Y2820D02*
D03*
Y2770D02*
D03*
Y2720D02*
D03*
Y2670D02*
D03*
Y2620D02*
D03*
D192*
X2750Y3220D02*
D03*
D193*
X8200Y397D02*
D03*
Y123D02*
D03*
X11240Y112D02*
D03*
Y388D02*
D03*
X10740Y112D02*
D03*
Y388D02*
D03*
D194*
X5945Y4610D02*
D03*
Y4390D02*
D03*
X5775D02*
D03*
Y4610D02*
D03*
D195*
X8475Y4595D02*
D03*
Y4775D02*
D03*
D196*
X1474Y3900D02*
D03*
X1347D02*
D03*
X1220D02*
D03*
X1093D02*
D03*
X1474Y3420D02*
D03*
X1347Y3420D02*
D03*
X1220Y3420D02*
D03*
X1093D02*
D03*
D197*
X900Y1045D02*
D03*
Y855D02*
D03*
D198*
X8670Y1790D02*
D03*
X1000Y4320D02*
D03*
X220D02*
D03*
X9110Y1790D02*
D03*
X11750Y2996D02*
D03*
X11496D02*
D03*
X11750Y3250D02*
D03*
X11496D02*
D03*
X11750Y3504D02*
D03*
X11496D02*
D03*
X11750Y3758D02*
D03*
X11496D02*
D03*
X11750Y4012D02*
D03*
X11496D02*
D03*
X11750Y4266D02*
D03*
X11496D02*
D03*
X11750Y4520D02*
D03*
X11496D02*
D03*
X11750Y4774D02*
D03*
X3786Y6000D02*
D03*
Y5746D02*
D03*
X3532Y6000D02*
D03*
Y5746D02*
D03*
X3278Y6000D02*
D03*
Y5746D02*
D03*
X3024Y6000D02*
D03*
Y5746D02*
D03*
X2770Y6000D02*
D03*
Y5746D02*
D03*
X2516Y6000D02*
D03*
Y5746D02*
D03*
X2262Y6000D02*
D03*
Y5746D02*
D03*
X2008Y6000D02*
D03*
Y5746D02*
D03*
X1754Y6000D02*
D03*
Y5746D02*
D03*
X1500Y6000D02*
D03*
X7536Y6010D02*
D03*
Y5756D02*
D03*
X7282Y6010D02*
D03*
Y5756D02*
D03*
X7028Y6010D02*
D03*
Y5756D02*
D03*
X6774Y6010D02*
D03*
Y5756D02*
D03*
X6520Y6010D02*
D03*
Y5756D02*
D03*
X6266Y6010D02*
D03*
Y5756D02*
D03*
X6012Y6010D02*
D03*
Y5756D02*
D03*
X5758Y6010D02*
D03*
Y5756D02*
D03*
X5504Y6010D02*
D03*
Y5756D02*
D03*
X5250Y6010D02*
D03*
X11236Y6004D02*
D03*
Y5750D02*
D03*
X10982Y6004D02*
D03*
Y5750D02*
D03*
X10728Y6004D02*
D03*
Y5750D02*
D03*
X10474Y6004D02*
D03*
Y5750D02*
D03*
X10220Y6004D02*
D03*
Y5750D02*
D03*
X9966Y6004D02*
D03*
Y5750D02*
D03*
X9712Y6004D02*
D03*
Y5750D02*
D03*
X9458Y6004D02*
D03*
Y5750D02*
D03*
X9204Y6004D02*
D03*
Y5750D02*
D03*
X8950Y6004D02*
D03*
D199*
X3972Y597D02*
D03*
X3719D02*
D03*
Y851D02*
D03*
X3972D02*
D03*
X3846Y978D02*
D03*
Y470D02*
D03*
D200*
X4557Y531D02*
D03*
X1484Y533D02*
D03*
D201*
X3972Y200D02*
D03*
X2067D02*
D03*
D202*
X11496Y4774D02*
D03*
D203*
X1500Y5746D02*
D03*
X5250Y5756D02*
D03*
X8950Y5750D02*
D03*
D204*
X3260Y1960D02*
D03*
D205*
X3514D02*
D03*
X3768D02*
D03*
D206*
X1000Y1606D02*
D03*
D207*
Y2114D02*
D03*
D208*
X9175Y1206D02*
D03*
Y1006D02*
D03*
X9425D02*
D03*
D209*
X9902Y734D02*
D03*
X8698D02*
D03*
D210*
X9425Y1206D02*
D03*
D211*
X483Y2902D02*
D03*
X737D02*
D03*
X483Y3156D02*
D03*
X737D02*
D03*
X483Y3410D02*
D03*
Y3664D02*
D03*
X737Y3918D02*
D03*
Y3410D02*
D03*
Y3664D02*
D03*
D212*
X483Y3918D02*
D03*
D213*
X500Y500D02*
D03*
Y6500D02*
D03*
X12250D02*
D03*
Y500D02*
D03*
M02*
