G04 Layer_Color=65535*
%FSLAX42Y42*%
%MOMM*%
G71*
G01*
G75*
%ADD53C,0.50*%
%ADD54C,0.20*%
%ADD55C,0.25*%
%ADD58C,0.20*%
%ADD59C,0.30*%
%ADD62C,0.25*%
%ADD64C,0.60*%
%ADD103C,0.15*%
%ADD104C,0.10*%
%ADD105C,0.10*%
%ADD106C,0.03*%
%ADD107C,0.00*%
%ADD108C,0.23*%
%ADD109R,0.51X1.10*%
%ADD110R,0.57X1.32*%
%ADD111R,1.70X0.60*%
%ADD112R,0.58X0.30*%
G36*
X414Y2100D02*
X214Y2000D01*
Y2200D01*
X414Y2100D01*
D02*
G37*
G36*
X6980Y3710D02*
X6880Y3810D01*
X6980D01*
Y3710D01*
D02*
G37*
D53*
X483Y4108D02*
G03*
X481Y4108I0J25D01*
G01*
D54*
X1820Y-581D02*
G03*
X1890Y-650I69J0D01*
G01*
X1819Y-59D02*
G03*
X1749Y11I-69J0D01*
G01*
X4153Y-650D02*
G03*
X4222Y-581I0J69D01*
G01*
X4293Y11D02*
G03*
X4224Y-59I0J-69D01*
G01*
X9195Y2445D02*
X9195Y2375D01*
X1960Y4990D02*
Y5310D01*
X1300Y4990D02*
X1960D01*
X1300Y5310D02*
X1960Y5310D01*
X1300Y4990D02*
Y5310D01*
X3710Y4990D02*
Y5310D01*
X3050Y4990D02*
X3710D01*
X3050Y5310D02*
X3710Y5310D01*
X3050Y4990D02*
Y5310D01*
X2830Y4990D02*
Y5310D01*
X2170Y4990D02*
X2830D01*
X2170Y5310D02*
X2830Y5310D01*
X2170Y4990D02*
Y5310D01*
X9410Y4990D02*
Y5310D01*
X8750Y4990D02*
X9410D01*
X8750Y5310D02*
X9410D01*
X8750Y4990D02*
Y5310D01*
X11160Y4990D02*
Y5310D01*
X10500Y4990D02*
X11160D01*
X10500Y5310D02*
X11160D01*
X10500Y4990D02*
Y5310D01*
X10280Y4990D02*
Y5310D01*
X9620Y4990D02*
X10280D01*
X9620Y5310D02*
X10280D01*
X9620Y4990D02*
Y5310D01*
X1551Y1720D02*
X1551Y2010D01*
X1729Y2010D02*
X1729Y1720D01*
X1551Y2010D02*
X1729Y2010D01*
X1551Y1720D02*
X1729Y1720D01*
X4595Y1470D02*
Y1908D01*
X4145Y1470D02*
X4595D01*
X4145D02*
Y1908D01*
X4595D01*
X11160Y2835D02*
X11240D01*
X11160Y2685D02*
X11240D01*
X10435Y2875D02*
Y2945D01*
X7835Y4565D02*
X7905D01*
X1130Y360D02*
X4910D01*
X4313D02*
Y1141D01*
X1727Y360D02*
Y1141D01*
X1130Y700D02*
X1727D01*
X4313D02*
X4910D01*
X1727Y1140D02*
X4313D01*
X1130Y10D02*
X4910D01*
X1818Y-580D02*
Y-60D01*
X4222Y-580D02*
Y-59D01*
X1890Y-650D02*
X4154D01*
X4910Y10D02*
Y690D01*
X1130Y10D02*
Y690D01*
X8150Y4570D02*
X8200D01*
X8150Y4880D02*
X8200D01*
Y4570D02*
Y4880D01*
X8150Y4570D02*
Y4880D01*
X11025Y1945D02*
Y2015D01*
X11325Y1155D02*
Y1225D01*
X10155Y3125D02*
Y3195D01*
X2735Y1475D02*
X2805D01*
X1405Y2115D02*
Y2185D01*
X8125Y2735D02*
X9975D01*
X8125Y3605D02*
X9975D01*
X8125Y2735D02*
Y3605D01*
X9975Y2735D02*
Y3605D01*
X4892Y1915D02*
X5367D01*
X4892Y1385D02*
X5367D01*
X4892D02*
Y1915D01*
X5367Y1385D02*
Y1915D01*
X3133Y1833D02*
Y2087D01*
X3895Y2087D01*
X3133Y1833D02*
X3895Y1833D01*
Y2087D01*
X149Y2448D02*
X1180D01*
Y1272D02*
Y2448D01*
X149Y1272D02*
X1180D01*
X149D02*
Y2448D01*
X11275Y705D02*
Y995D01*
X11445Y705D02*
Y995D01*
X9480Y1770D02*
X9955Y1770D01*
X9955Y2070D02*
X9955Y2070D01*
X9480Y2070D02*
X9955Y2070D01*
X9480Y1770D02*
Y1798D01*
Y1770D02*
X9955Y1770D01*
Y1798D01*
Y2042D02*
Y2070D01*
X9480Y2070D02*
X9955Y2070D01*
X9480Y2070D02*
X9480Y2070D01*
X9480Y2042D02*
Y2070D01*
X10675Y3230D02*
X11045Y3230D01*
X10675Y2930D02*
X11045Y2930D01*
X10675Y3230D02*
X10675Y2930D01*
X11045Y2930D02*
X11045Y3230D01*
X11368Y1315D02*
Y1825D01*
X11753Y1315D02*
Y1825D01*
X11368D02*
X11753D01*
X11368Y1315D02*
X11753D01*
X12395Y1505D02*
Y1575D01*
X8260Y1710D02*
Y1830D01*
X8165Y1160D02*
X8255D01*
X8165Y1460D02*
X8255D01*
Y1160D02*
Y1460D01*
X8165Y1160D02*
Y1460D01*
X7870Y1020D02*
Y1075D01*
X7815Y1020D02*
X7870D01*
Y1485D02*
Y1540D01*
X7815D02*
X7870D01*
X7350Y1485D02*
Y1540D01*
X7405D01*
X7350Y1020D02*
Y1075D01*
Y1020D02*
X7405D01*
X6880Y3810D02*
X6980Y3710D01*
X5280Y3810D02*
X6980D01*
X5280Y2110D02*
X6980D01*
Y3810D01*
X5280Y2110D02*
Y3810D01*
X3640Y1740D02*
X3820D01*
X3640Y1240D02*
X3820D01*
X3640D02*
Y1740D01*
X3820Y1240D02*
Y1740D01*
X8700Y1406D02*
X9900D01*
Y985D02*
Y1406D01*
X8700Y985D02*
Y1406D01*
X9900Y206D02*
Y486D01*
X8700Y206D02*
Y486D01*
X10855Y625D02*
X10945D01*
X10855Y1055D02*
X10945D01*
X5230Y38D02*
X7780D01*
X5230D02*
Y150D01*
X5280D01*
X7780Y38D02*
Y150D01*
X7730D02*
X7780D01*
X2885Y1340D02*
X2995D01*
X2125Y3845D02*
X3375D01*
X2125Y2590D02*
X3375D01*
X2125Y2595D02*
Y3845D01*
X3375Y2595D02*
Y3845D01*
X8200Y210D02*
Y310D01*
X8130Y292D02*
X8270D01*
X8130Y222D02*
X8200Y292D01*
X8270Y222D01*
X8130D02*
X8270D01*
X854Y2774D02*
Y4046D01*
X358Y4046D02*
X854D01*
X358Y2774D02*
Y4046D01*
Y2774D02*
X854D01*
X10430Y940D02*
Y1060D01*
X10320Y1120D02*
X10795Y1120D01*
X10795Y1420D02*
X10795Y1420D01*
X10320Y1420D02*
X10795Y1420D01*
X10320Y1120D02*
Y1148D01*
Y1120D02*
X10795Y1120D01*
Y1148D01*
Y1392D02*
Y1420D01*
X10320Y1420D02*
X10795Y1420D01*
X10320Y1420D02*
X10320Y1420D01*
X10320Y1392D02*
Y1420D01*
X10660Y1510D02*
Y1630D01*
X10340Y1770D02*
X10815Y1770D01*
X10815Y2070D02*
X10815Y2070D01*
X10340Y2070D02*
X10815Y2070D01*
X10340Y1770D02*
Y1798D01*
Y1770D02*
X10815Y1770D01*
Y1798D01*
Y2042D02*
Y2070D01*
X10340Y2070D02*
X10815Y2070D01*
X10340Y2070D02*
X10340Y2070D01*
X10340Y2042D02*
Y2070D01*
X10430Y2130D02*
Y2250D01*
X10885Y2135D02*
X10975D01*
X10885Y2565D02*
X10975D01*
X11435Y2195D02*
Y2485D01*
X11265Y2195D02*
Y2485D01*
X12135Y1205D02*
X12205D01*
X12105Y1245D02*
Y1315D01*
X12395Y1635D02*
Y1705D01*
X12105Y1895D02*
Y1965D01*
X12145Y2015D02*
X12215D01*
X11240Y200D02*
Y300D01*
X11170Y217D02*
X11310D01*
X11240Y217D02*
X11310Y288D01*
X11170D02*
X11240Y217D01*
X11170Y288D02*
X11310D01*
X10740Y200D02*
Y300D01*
X10670Y217D02*
X10810D01*
X10740Y217D02*
X10810Y288D01*
X10670D02*
X10740Y217D01*
X10670Y288D02*
X10810D01*
X10105Y385D02*
Y455D01*
X8905Y3965D02*
X8905Y3895D01*
X8415Y4685D02*
X8535D01*
X8250Y4940D02*
Y5010D01*
X7950Y4390D02*
Y4510D01*
X5710Y4990D02*
Y5310D01*
X5050Y4990D02*
Y5310D01*
X5710Y5310D01*
X5050Y4990D02*
X5710D01*
X6580D02*
Y5310D01*
X5920Y4990D02*
Y5310D01*
X6580Y5310D01*
X5920Y4990D02*
X6580D01*
X1034Y3750D02*
X1534Y3750D01*
X1034Y3570D02*
X1534D01*
X1534Y3750D01*
X1034Y3570D02*
Y3750D01*
X1430Y1340D02*
Y1460D01*
X7460Y4990D02*
Y5310D01*
X6800Y4990D02*
Y5310D01*
X7460Y5310D01*
X6800Y4990D02*
X7460D01*
X1600Y1510D02*
X1675D01*
X1690Y1525D01*
Y1555D01*
X1675Y1570D01*
X1600D01*
X1690Y1645D02*
X1600D01*
X1645Y1600D01*
Y1660D01*
X10970Y4420D02*
Y4510D01*
X11015D01*
X11030Y4495D01*
Y4465D01*
X11015Y4450D01*
X10970D01*
X11000D02*
X11030Y4420D01*
X11120Y4510D02*
X11060D01*
Y4465D01*
X11090Y4480D01*
X11105D01*
X11120Y4465D01*
Y4435D01*
X11105Y4420D01*
X11075D01*
X11060Y4435D01*
X11150D02*
X11165Y4420D01*
X11195D01*
X11210Y4435D01*
Y4495D01*
X11195Y4510D01*
X11165D01*
X11150Y4495D01*
Y4480D01*
X11165Y4465D01*
X11210D01*
X10960Y3740D02*
Y3830D01*
X11005D01*
X11020Y3815D01*
Y3785D01*
X11005Y3770D01*
X10960D01*
X10990D02*
X11020Y3740D01*
X11110Y3830D02*
X11050D01*
Y3785D01*
X11080Y3800D01*
X11095D01*
X11110Y3785D01*
Y3755D01*
X11095Y3740D01*
X11065D01*
X11050Y3755D01*
X11140Y3815D02*
X11155Y3830D01*
X11185D01*
X11200Y3815D01*
Y3800D01*
X11185Y3785D01*
X11200Y3770D01*
Y3755D01*
X11185Y3740D01*
X11155D01*
X11140Y3755D01*
Y3770D01*
X11155Y3785D01*
X11140Y3800D01*
Y3815D01*
X11155Y3785D02*
X11185D01*
X10960Y3600D02*
Y3690D01*
X11005D01*
X11020Y3675D01*
Y3645D01*
X11005Y3630D01*
X10960D01*
X10990D02*
X11020Y3600D01*
X11110Y3690D02*
X11050D01*
Y3645D01*
X11080Y3660D01*
X11095D01*
X11110Y3645D01*
Y3615D01*
X11095Y3600D01*
X11065D01*
X11050Y3615D01*
X11140Y3690D02*
X11200D01*
Y3675D01*
X11140Y3615D01*
Y3600D01*
X10960Y3470D02*
Y3560D01*
X11005D01*
X11020Y3545D01*
Y3515D01*
X11005Y3500D01*
X10960D01*
X10990D02*
X11020Y3470D01*
X11110Y3560D02*
X11050D01*
Y3515D01*
X11080Y3530D01*
X11095D01*
X11110Y3515D01*
Y3485D01*
X11095Y3470D01*
X11065D01*
X11050Y3485D01*
X11200Y3560D02*
X11170Y3545D01*
X11140Y3515D01*
Y3485D01*
X11155Y3470D01*
X11185D01*
X11200Y3485D01*
Y3500D01*
X11185Y3515D01*
X11140D01*
X9590Y4290D02*
Y4380D01*
X9635D01*
X9650Y4365D01*
Y4335D01*
X9635Y4320D01*
X9590D01*
X9620D02*
X9650Y4290D01*
X9740Y4380D02*
X9680D01*
Y4335D01*
X9710Y4350D01*
X9725D01*
X9740Y4335D01*
Y4305D01*
X9725Y4290D01*
X9695D01*
X9680Y4305D01*
X9830Y4380D02*
X9770D01*
Y4335D01*
X9800Y4350D01*
X9815D01*
X9830Y4335D01*
Y4305D01*
X9815Y4290D01*
X9785D01*
X9770Y4305D01*
X9590Y4160D02*
Y4250D01*
X9635D01*
X9650Y4235D01*
Y4205D01*
X9635Y4190D01*
X9590D01*
X9620D02*
X9650Y4160D01*
X9740Y4250D02*
X9680D01*
Y4205D01*
X9710Y4220D01*
X9725D01*
X9740Y4205D01*
Y4175D01*
X9725Y4160D01*
X9695D01*
X9680Y4175D01*
X9815Y4160D02*
Y4250D01*
X9770Y4205D01*
X9830D01*
X9590Y4040D02*
Y4130D01*
X9635D01*
X9650Y4115D01*
Y4085D01*
X9635Y4070D01*
X9590D01*
X9620D02*
X9650Y4040D01*
X9740Y4130D02*
X9680D01*
Y4085D01*
X9710Y4100D01*
X9725D01*
X9740Y4085D01*
Y4055D01*
X9725Y4040D01*
X9695D01*
X9680Y4055D01*
X9770Y4115D02*
X9785Y4130D01*
X9815D01*
X9830Y4115D01*
Y4100D01*
X9815Y4085D01*
X9800D01*
X9815D01*
X9830Y4070D01*
Y4055D01*
X9815Y4040D01*
X9785D01*
X9770Y4055D01*
X9590Y3910D02*
Y4000D01*
X9635D01*
X9650Y3985D01*
Y3955D01*
X9635Y3940D01*
X9590D01*
X9620D02*
X9650Y3910D01*
X9740Y4000D02*
X9680D01*
Y3955D01*
X9710Y3970D01*
X9725D01*
X9740Y3955D01*
Y3925D01*
X9725Y3910D01*
X9695D01*
X9680Y3925D01*
X9830Y3910D02*
X9770D01*
X9830Y3970D01*
Y3985D01*
X9815Y4000D01*
X9785D01*
X9770Y3985D01*
X1060Y1140D02*
Y1230D01*
X1105D01*
X1120Y1215D01*
Y1185D01*
X1105Y1170D01*
X1060D01*
X1090D02*
X1120Y1140D01*
X1210Y1230D02*
X1150D01*
Y1185D01*
X1180Y1200D01*
X1195D01*
X1210Y1185D01*
Y1155D01*
X1195Y1140D01*
X1165D01*
X1150Y1155D01*
X1240Y1140D02*
X1270D01*
X1255D01*
Y1230D01*
X1240Y1215D01*
X1080Y740D02*
Y830D01*
X1125D01*
X1140Y815D01*
Y785D01*
X1125Y770D01*
X1080D01*
X1110D02*
X1140Y740D01*
X1170D02*
X1200D01*
X1185D01*
Y830D01*
X1170Y815D01*
X1305Y740D02*
X1245D01*
X1305Y800D01*
Y815D01*
X1290Y830D01*
X1260D01*
X1245Y815D01*
X1080Y860D02*
Y950D01*
X1125D01*
X1140Y935D01*
Y905D01*
X1125Y890D01*
X1080D01*
X1110D02*
X1140Y860D01*
X1170D02*
X1200D01*
X1185D01*
Y950D01*
X1170Y935D01*
X1245Y860D02*
X1275D01*
X1260D01*
Y950D01*
X1245Y935D01*
X2530Y1790D02*
Y1820D01*
Y1805D01*
X2620D01*
Y1790D01*
Y1820D01*
X2545Y1925D02*
X2530Y1910D01*
Y1880D01*
X2545Y1865D01*
X2605D01*
X2620Y1880D01*
Y1910D01*
X2605Y1925D01*
X2545Y1955D02*
X2530Y1970D01*
Y2000D01*
X2545Y2015D01*
X2560D01*
X2575Y2000D01*
Y1985D01*
Y2000D01*
X2590Y2015D01*
X2605D01*
X2620Y2000D01*
Y1970D01*
X2605Y1955D01*
X2540Y1400D02*
Y1430D01*
Y1415D01*
X2630D01*
Y1400D01*
Y1430D01*
X2555Y1535D02*
X2540Y1520D01*
Y1490D01*
X2555Y1475D01*
X2615D01*
X2630Y1490D01*
Y1520D01*
X2615Y1535D01*
X2630Y1565D02*
Y1595D01*
Y1580D01*
X2540D01*
X2555Y1565D01*
X4243Y2310D02*
Y2250D01*
X4273Y2220D01*
X4303Y2250D01*
Y2310D01*
X4333D02*
Y2220D01*
X4378D01*
X4393Y2235D01*
Y2295D01*
X4378Y2310D01*
X4333D01*
X4423Y2235D02*
X4438Y2220D01*
X4468D01*
X4483Y2235D01*
Y2295D01*
X4468Y2310D01*
X4438D01*
X4423Y2295D01*
Y2280D01*
X4438Y2265D01*
X4483D01*
X7770Y5140D02*
X7680D01*
Y5185D01*
X7695Y5200D01*
X7725D01*
X7740Y5185D01*
Y5140D01*
Y5170D02*
X7770Y5200D01*
X7680Y5290D02*
Y5230D01*
X7725D01*
X7710Y5260D01*
Y5275D01*
X7725Y5290D01*
X7755D01*
X7770Y5275D01*
Y5245D01*
X7755Y5230D01*
X7695Y5320D02*
X7680Y5335D01*
Y5365D01*
X7695Y5380D01*
X7755D01*
X7770Y5365D01*
Y5335D01*
X7755Y5320D01*
X7695D01*
X7610Y4590D02*
X7520D01*
Y4635D01*
X7535Y4650D01*
X7565D01*
X7580Y4635D01*
Y4590D01*
Y4620D02*
X7610Y4650D01*
Y4725D02*
X7520D01*
X7565Y4680D01*
Y4740D01*
X7595Y4770D02*
X7610Y4785D01*
Y4815D01*
X7595Y4830D01*
X7535D01*
X7520Y4815D01*
Y4785D01*
X7535Y4770D01*
X7550D01*
X7565Y4785D01*
Y4830D01*
X4110Y2150D02*
X4020D01*
Y2195D01*
X4035Y2210D01*
X4065D01*
X4080Y2195D01*
Y2150D01*
Y2180D02*
X4110Y2210D01*
Y2285D02*
X4020D01*
X4065Y2240D01*
Y2300D01*
X4035Y2330D02*
X4020Y2345D01*
Y2375D01*
X4035Y2390D01*
X4050D01*
X4065Y2375D01*
X4080Y2390D01*
X4095D01*
X4110Y2375D01*
Y2345D01*
X4095Y2330D01*
X4080D01*
X4065Y2345D01*
X4050Y2330D01*
X4035D01*
X4065Y2345D02*
Y2375D01*
X10320Y660D02*
Y750D01*
X10365D01*
X10380Y735D01*
Y705D01*
X10365Y690D01*
X10320D01*
X10350D02*
X10380Y660D01*
X10455D02*
Y750D01*
X10410Y705D01*
X10470D01*
X10500Y750D02*
X10560D01*
Y735D01*
X10500Y675D01*
Y660D01*
X10040Y2310D02*
Y2400D01*
X10085D01*
X10100Y2385D01*
Y2355D01*
X10085Y2340D01*
X10040D01*
X10070D02*
X10100Y2310D01*
X10175D02*
Y2400D01*
X10130Y2355D01*
X10190D01*
X10280Y2400D02*
X10250Y2385D01*
X10220Y2355D01*
Y2325D01*
X10235Y2310D01*
X10265D01*
X10280Y2325D01*
Y2340D01*
X10265Y2355D01*
X10220D01*
X10330Y2580D02*
Y2670D01*
X10375D01*
X10390Y2655D01*
Y2625D01*
X10375Y2610D01*
X10330D01*
X10360D02*
X10390Y2580D01*
X10465D02*
Y2670D01*
X10420Y2625D01*
X10480D01*
X10570Y2670D02*
X10510D01*
Y2625D01*
X10540Y2640D01*
X10555D01*
X10570Y2625D01*
Y2595D01*
X10555Y2580D01*
X10525D01*
X10510Y2595D01*
X11940Y2720D02*
Y2810D01*
X11985D01*
X12000Y2795D01*
Y2765D01*
X11985Y2750D01*
X11940D01*
X11970D02*
X12000Y2720D01*
X12030Y2795D02*
X12045Y2810D01*
X12075D01*
X12090Y2795D01*
Y2780D01*
X12075Y2765D01*
X12060D01*
X12075D01*
X12090Y2750D01*
Y2735D01*
X12075Y2720D01*
X12045D01*
X12030Y2735D01*
X12120Y2720D02*
X12150D01*
X12135D01*
Y2810D01*
X12120Y2795D01*
X1402Y4720D02*
Y4630D01*
X1447D01*
X1462Y4645D01*
Y4705D01*
X1447Y4720D01*
X1402D01*
X1492D02*
Y4630D01*
X1537D01*
X1552Y4645D01*
Y4705D01*
X1537Y4720D01*
X1492D01*
X1582Y4705D02*
X1597Y4720D01*
X1627D01*
X1642Y4705D01*
Y4690D01*
X1627Y4675D01*
X1612D01*
X1627D01*
X1642Y4660D01*
Y4645D01*
X1627Y4630D01*
X1597D01*
X1582Y4645D01*
X1672Y4615D02*
X1732D01*
X1762Y4705D02*
X1777Y4720D01*
X1807D01*
X1822Y4705D01*
Y4690D01*
X1807Y4675D01*
X1792D01*
X1807D01*
X1822Y4660D01*
Y4645D01*
X1807Y4630D01*
X1777D01*
X1762Y4645D01*
X5781Y4220D02*
Y4205D01*
X5811Y4175D01*
X5841Y4205D01*
Y4220D01*
X5811Y4175D02*
Y4130D01*
X5871D02*
X5901D01*
X5886D01*
Y4220D01*
X5871Y4205D01*
X7950Y173D02*
X8010D01*
X8040Y202D01*
X8010Y232D01*
X7950D01*
Y262D02*
X8040D01*
Y307D01*
X8025Y322D01*
X7965D01*
X7950Y307D01*
Y262D01*
X8040Y352D02*
Y382D01*
Y367D01*
X7950D01*
X7965Y352D01*
X2690Y2274D02*
Y2199D01*
X2705Y2184D01*
X2735D01*
X2750Y2199D01*
Y2274D01*
X2780Y2184D02*
X2810D01*
X2795D01*
Y2274D01*
X2780Y2259D01*
X12370Y2360D02*
X12280D01*
Y2405D01*
X12295Y2420D01*
X12325D01*
X12340Y2405D01*
Y2360D01*
Y2390D02*
X12370Y2420D01*
X12295Y2450D02*
X12280Y2465D01*
Y2495D01*
X12295Y2510D01*
X12310D01*
X12325Y2495D01*
Y2480D01*
Y2495D01*
X12340Y2510D01*
X12355D01*
X12370Y2495D01*
Y2465D01*
X12355Y2450D01*
X12295Y2540D02*
X12280Y2555D01*
Y2585D01*
X12295Y2600D01*
X12355D01*
X12370Y2585D01*
Y2555D01*
X12355Y2540D01*
X12295D01*
X590Y4430D02*
Y4520D01*
X635D01*
X650Y4505D01*
Y4475D01*
X635Y4460D01*
X590D01*
X620D02*
X650Y4430D01*
X740D02*
X680D01*
X740Y4490D01*
Y4505D01*
X725Y4520D01*
X695D01*
X680Y4505D01*
X770Y4445D02*
X785Y4430D01*
X815D01*
X830Y4445D01*
Y4505D01*
X815Y4520D01*
X785D01*
X770Y4505D01*
Y4490D01*
X785Y4475D01*
X830D01*
X930Y2670D02*
Y2760D01*
X975D01*
X990Y2745D01*
Y2715D01*
X975Y2700D01*
X930D01*
X960D02*
X990Y2670D01*
X1080D02*
X1020D01*
X1080Y2730D01*
Y2745D01*
X1065Y2760D01*
X1035D01*
X1020Y2745D01*
X1110D02*
X1125Y2760D01*
X1155D01*
X1170Y2745D01*
Y2730D01*
X1155Y2715D01*
X1170Y2700D01*
Y2685D01*
X1155Y2670D01*
X1125D01*
X1110Y2685D01*
Y2700D01*
X1125Y2715D01*
X1110Y2730D01*
Y2745D01*
X1125Y2715D02*
X1155D01*
X510Y2660D02*
Y2750D01*
X555D01*
X570Y2735D01*
Y2705D01*
X555Y2690D01*
X510D01*
X540D02*
X570Y2660D01*
X660D02*
X600D01*
X660Y2720D01*
Y2735D01*
X645Y2750D01*
X615D01*
X600Y2735D01*
X690Y2750D02*
X750D01*
Y2735D01*
X690Y2675D01*
Y2660D01*
X1600Y2560D02*
X1516D01*
Y2602D01*
X1530Y2616D01*
X1558D01*
X1572Y2602D01*
Y2560D01*
Y2588D02*
X1600Y2616D01*
Y2700D02*
Y2644D01*
X1544Y2700D01*
X1530D01*
X1516Y2686D01*
Y2658D01*
X1530Y2644D01*
X1516Y2783D02*
X1530Y2756D01*
X1558Y2728D01*
X1586D01*
X1600Y2742D01*
Y2769D01*
X1586Y2783D01*
X1572D01*
X1558Y2769D01*
Y2728D01*
X12670Y660D02*
X12580D01*
Y705D01*
X12595Y720D01*
X12625D01*
X12640Y705D01*
Y660D01*
Y690D02*
X12670Y720D01*
Y810D02*
Y750D01*
X12610Y810D01*
X12595D01*
X12580Y795D01*
Y765D01*
X12595Y750D01*
X12670Y885D02*
X12580D01*
X12625Y840D01*
Y900D01*
X1610Y2270D02*
X1520D01*
Y2315D01*
X1535Y2330D01*
X1565D01*
X1580Y2315D01*
Y2270D01*
Y2300D02*
X1610Y2330D01*
Y2420D02*
Y2360D01*
X1550Y2420D01*
X1535D01*
X1520Y2405D01*
Y2375D01*
X1535Y2360D01*
Y2450D02*
X1520Y2465D01*
Y2495D01*
X1535Y2510D01*
X1550D01*
X1565Y2495D01*
Y2480D01*
Y2495D01*
X1580Y2510D01*
X1595D01*
X1610Y2495D01*
Y2465D01*
X1595Y2450D01*
X830Y5220D02*
X740D01*
Y5265D01*
X755Y5280D01*
X785D01*
X800Y5265D01*
Y5220D01*
Y5250D02*
X830Y5280D01*
Y5370D02*
Y5310D01*
X770Y5370D01*
X755D01*
X740Y5355D01*
Y5325D01*
X755Y5310D01*
X830Y5460D02*
Y5400D01*
X770Y5460D01*
X755D01*
X740Y5445D01*
Y5415D01*
X755Y5400D01*
X5680Y1080D02*
X5590D01*
Y1125D01*
X5605Y1140D01*
X5635D01*
X5650Y1125D01*
Y1080D01*
Y1110D02*
X5680Y1140D01*
Y1230D02*
Y1170D01*
X5620Y1230D01*
X5605D01*
X5590Y1215D01*
Y1185D01*
X5605Y1170D01*
X5680Y1260D02*
Y1290D01*
Y1275D01*
X5590D01*
X5605Y1260D01*
X5290Y920D02*
Y1010D01*
X5335D01*
X5350Y995D01*
Y965D01*
X5335Y950D01*
X5290D01*
X5320D02*
X5350Y920D01*
X5440D02*
X5380D01*
X5440Y980D01*
Y995D01*
X5425Y1010D01*
X5395D01*
X5380Y995D01*
X5470D02*
X5485Y1010D01*
X5515D01*
X5530Y995D01*
Y935D01*
X5515Y920D01*
X5485D01*
X5470Y935D01*
Y995D01*
X5830Y1080D02*
X5740D01*
Y1125D01*
X5755Y1140D01*
X5785D01*
X5800Y1125D01*
Y1080D01*
Y1110D02*
X5830Y1140D01*
Y1170D02*
Y1200D01*
Y1185D01*
X5740D01*
X5755Y1170D01*
X5815Y1245D02*
X5830Y1260D01*
Y1290D01*
X5815Y1305D01*
X5755D01*
X5740Y1290D01*
Y1260D01*
X5755Y1245D01*
X5770D01*
X5785Y1260D01*
Y1305D01*
X6010Y1040D02*
X5920D01*
Y1085D01*
X5935Y1100D01*
X5965D01*
X5980Y1085D01*
Y1040D01*
Y1070D02*
X6010Y1100D01*
Y1130D02*
Y1160D01*
Y1145D01*
X5920D01*
X5935Y1130D01*
Y1205D02*
X5920Y1220D01*
Y1250D01*
X5935Y1265D01*
X5950D01*
X5965Y1250D01*
X5980Y1265D01*
X5995D01*
X6010Y1250D01*
Y1220D01*
X5995Y1205D01*
X5980D01*
X5965Y1220D01*
X5950Y1205D01*
X5935D01*
X5965Y1220D02*
Y1250D01*
X3070Y1360D02*
Y1450D01*
X3115D01*
X3130Y1435D01*
Y1405D01*
X3115Y1390D01*
X3070D01*
X3100D02*
X3130Y1360D01*
X3160D02*
X3190D01*
X3175D01*
Y1450D01*
X3160Y1435D01*
X3235Y1450D02*
X3295D01*
Y1435D01*
X3235Y1375D01*
Y1360D01*
X3070Y1230D02*
Y1320D01*
X3115D01*
X3130Y1305D01*
Y1275D01*
X3115Y1260D01*
X3070D01*
X3100D02*
X3130Y1230D01*
X3160D02*
X3190D01*
X3175D01*
Y1320D01*
X3160Y1305D01*
X3295Y1320D02*
X3265Y1305D01*
X3235Y1275D01*
Y1245D01*
X3250Y1230D01*
X3280D01*
X3295Y1245D01*
Y1260D01*
X3280Y1275D01*
X3235D01*
X4000Y2620D02*
Y2710D01*
X4045D01*
X4060Y2695D01*
Y2665D01*
X4045Y2650D01*
X4000D01*
X4030D02*
X4060Y2620D01*
X4090D02*
X4120D01*
X4105D01*
Y2710D01*
X4090Y2695D01*
X4225Y2710D02*
X4165D01*
Y2665D01*
X4195Y2680D01*
X4210D01*
X4225Y2665D01*
Y2635D01*
X4210Y2620D01*
X4180D01*
X4165Y2635D01*
X3980Y2800D02*
X3890D01*
Y2845D01*
X3905Y2860D01*
X3935D01*
X3950Y2845D01*
Y2800D01*
Y2830D02*
X3980Y2860D01*
Y2890D02*
Y2920D01*
Y2905D01*
X3890D01*
X3905Y2890D01*
X3980Y3010D02*
X3890D01*
X3935Y2965D01*
Y3025D01*
X2990Y1610D02*
X2900D01*
Y1655D01*
X2915Y1670D01*
X2945D01*
X2960Y1655D01*
Y1610D01*
Y1640D02*
X2990Y1670D01*
Y1700D02*
Y1730D01*
Y1715D01*
X2900D01*
X2915Y1700D01*
Y1775D02*
X2900Y1790D01*
Y1820D01*
X2915Y1835D01*
X2930D01*
X2945Y1820D01*
Y1805D01*
Y1820D01*
X2960Y1835D01*
X2975D01*
X2990Y1820D01*
Y1790D01*
X2975Y1775D01*
X11830Y100D02*
X11740D01*
Y145D01*
X11755Y160D01*
X11785D01*
X11800Y145D01*
Y100D01*
Y130D02*
X11830Y160D01*
Y190D02*
Y220D01*
Y205D01*
X11740D01*
X11755Y190D01*
Y265D02*
X11740Y280D01*
Y310D01*
X11755Y325D01*
X11815D01*
X11830Y310D01*
Y280D01*
X11815Y265D01*
X11755D01*
X5540Y4050D02*
X5450D01*
Y4095D01*
X5465Y4110D01*
X5495D01*
X5510Y4095D01*
Y4050D01*
Y4080D02*
X5540Y4110D01*
X5525Y4140D02*
X5540Y4155D01*
Y4185D01*
X5525Y4200D01*
X5465D01*
X5450Y4185D01*
Y4155D01*
X5465Y4140D01*
X5480D01*
X5495Y4155D01*
Y4200D01*
X1010Y3050D02*
X920D01*
Y3095D01*
X935Y3110D01*
X965D01*
X980Y3095D01*
Y3050D01*
Y3080D02*
X1010Y3110D01*
X935Y3140D02*
X920Y3155D01*
Y3185D01*
X935Y3200D01*
X950D01*
X965Y3185D01*
X980Y3200D01*
X995D01*
X1010Y3185D01*
Y3155D01*
X995Y3140D01*
X980D01*
X965Y3155D01*
X950Y3140D01*
X935D01*
X965Y3155D02*
Y3185D01*
X4910Y4080D02*
Y4170D01*
X4955D01*
X4970Y4155D01*
Y4125D01*
X4955Y4110D01*
X4910D01*
X4940D02*
X4970Y4080D01*
X5000Y4170D02*
X5060D01*
Y4155D01*
X5000Y4095D01*
Y4080D01*
X1640Y3130D02*
X1550D01*
Y3175D01*
X1565Y3190D01*
X1595D01*
X1610Y3175D01*
Y3130D01*
Y3160D02*
X1640Y3190D01*
X1550Y3280D02*
X1565Y3250D01*
X1595Y3220D01*
X1625D01*
X1640Y3235D01*
Y3265D01*
X1625Y3280D01*
X1610D01*
X1595Y3265D01*
Y3220D01*
X11000Y340D02*
X10910D01*
Y385D01*
X10925Y400D01*
X10955D01*
X10970Y385D01*
Y340D01*
Y370D02*
X11000Y400D01*
X10910Y490D02*
Y430D01*
X10955D01*
X10940Y460D01*
Y475D01*
X10955Y490D01*
X10985D01*
X11000Y475D01*
Y445D01*
X10985Y430D01*
X8030Y750D02*
X7940D01*
Y795D01*
X7955Y810D01*
X7985D01*
X8000Y795D01*
Y750D01*
Y780D02*
X8030Y810D01*
Y885D02*
X7940D01*
X7985Y840D01*
Y900D01*
X7890Y740D02*
X7800D01*
Y785D01*
X7815Y800D01*
X7845D01*
X7860Y785D01*
Y740D01*
Y770D02*
X7890Y800D01*
X7815Y830D02*
X7800Y845D01*
Y875D01*
X7815Y890D01*
X7830D01*
X7845Y875D01*
Y860D01*
Y875D01*
X7860Y890D01*
X7875D01*
X7890Y875D01*
Y845D01*
X7875Y830D01*
X8370Y600D02*
X8280D01*
Y645D01*
X8295Y660D01*
X8325D01*
X8340Y645D01*
Y600D01*
Y630D02*
X8370Y660D01*
Y750D02*
Y690D01*
X8310Y750D01*
X8295D01*
X8280Y735D01*
Y705D01*
X8295Y690D01*
X7640Y1700D02*
Y1790D01*
X7685D01*
X7700Y1775D01*
Y1745D01*
X7685Y1730D01*
X7640D01*
X7670D02*
X7700Y1700D01*
X7730D02*
X7760D01*
X7745D01*
Y1790D01*
X7730Y1775D01*
X12610Y2560D02*
X12520D01*
Y2605D01*
X12535Y2620D01*
X12565D01*
X12580Y2605D01*
Y2560D01*
X12610Y2695D02*
X12520D01*
X12565Y2650D01*
Y2710D01*
X640Y5990D02*
Y6080D01*
X685D01*
X700Y6065D01*
Y6035D01*
X685Y6020D01*
X640D01*
X730Y6065D02*
X745Y6080D01*
X775D01*
X790Y6065D01*
Y6050D01*
X775Y6035D01*
X760D01*
X775D01*
X790Y6020D01*
Y6005D01*
X775Y5990D01*
X745D01*
X730Y6005D01*
X820Y5975D02*
X880D01*
X910Y6065D02*
X925Y6080D01*
X955D01*
X970Y6065D01*
Y6050D01*
X955Y6035D01*
X940D01*
X955D01*
X970Y6020D01*
Y6005D01*
X955Y5990D01*
X925D01*
X910Y6005D01*
X4440Y4970D02*
Y5060D01*
X4485D01*
X4500Y5045D01*
Y5015D01*
X4485Y5000D01*
X4440D01*
X4530Y5045D02*
X4545Y5060D01*
X4575D01*
X4590Y5045D01*
Y5030D01*
X4575Y5015D01*
X4560D01*
X4575D01*
X4590Y5000D01*
Y4985D01*
X4575Y4970D01*
X4545D01*
X4530Y4985D01*
X4620Y4955D02*
X4680D01*
X4770Y4970D02*
X4710D01*
X4770Y5030D01*
Y5045D01*
X4755Y5060D01*
X4725D01*
X4710Y5045D01*
X11870Y5950D02*
Y6040D01*
X11915D01*
X11930Y6025D01*
Y5995D01*
X11915Y5980D01*
X11870D01*
X11960Y6025D02*
X11975Y6040D01*
X12005D01*
X12020Y6025D01*
Y6010D01*
X12005Y5995D01*
X11990D01*
X12005D01*
X12020Y5980D01*
Y5965D01*
X12005Y5950D01*
X11975D01*
X11960Y5965D01*
X12050Y5935D02*
X12110D01*
X12140Y5950D02*
X12170D01*
X12155D01*
Y6040D01*
X12140Y6025D01*
X6350Y890D02*
Y980D01*
X6395D01*
X6410Y965D01*
Y935D01*
X6395Y920D01*
X6350D01*
X6500Y890D02*
X6440D01*
X6500Y950D01*
Y965D01*
X6485Y980D01*
X6455D01*
X6440Y965D01*
X5160Y4320D02*
X5250D01*
Y4380D01*
X5175Y4410D02*
X5160Y4425D01*
Y4455D01*
X5175Y4470D01*
X5190D01*
X5205Y4455D01*
Y4440D01*
Y4455D01*
X5220Y4470D01*
X5235D01*
X5250Y4455D01*
Y4425D01*
X5235Y4410D01*
X9940Y270D02*
Y180D01*
X10000D01*
X10090D02*
X10030D01*
X10090Y240D01*
Y255D01*
X10075Y270D01*
X10045D01*
X10030Y255D01*
X10500Y580D02*
Y490D01*
X10560D01*
X10590D02*
X10620D01*
X10605D01*
Y580D01*
X10590Y565D01*
X8950Y1570D02*
X8920D01*
X8935D01*
Y1495D01*
X8920Y1480D01*
X8905D01*
X8890Y1495D01*
X8980Y1480D02*
X9010D01*
X8995D01*
Y1570D01*
X8980Y1555D01*
X3620Y2290D02*
X3650D01*
X3635D01*
Y2200D01*
X3620D01*
X3650D01*
X3755Y2275D02*
X3740Y2290D01*
X3710D01*
X3695Y2275D01*
Y2215D01*
X3710Y2200D01*
X3740D01*
X3755Y2215D01*
X3845Y2200D02*
X3785D01*
X3845Y2260D01*
Y2275D01*
X3830Y2290D01*
X3800D01*
X3785Y2275D01*
X6010Y1934D02*
Y1844D01*
X6055D01*
X6070Y1859D01*
Y1919D01*
X6055Y1934D01*
X6010D01*
X6100D02*
Y1844D01*
X6145D01*
X6160Y1859D01*
Y1919D01*
X6145Y1934D01*
X6100D01*
X6250D02*
X6190D01*
Y1889D01*
X6220Y1904D01*
X6235D01*
X6250Y1889D01*
Y1859D01*
X6235Y1844D01*
X6205D01*
X6190Y1859D01*
X6970Y1580D02*
Y1490D01*
X7015D01*
X7030Y1505D01*
Y1565D01*
X7015Y1580D01*
X6970D01*
X7060D02*
Y1490D01*
X7105D01*
X7120Y1505D01*
Y1565D01*
X7105Y1580D01*
X7060D01*
X7195Y1490D02*
Y1580D01*
X7150Y1535D01*
X7210D01*
X4930Y4660D02*
Y4570D01*
X4975D01*
X4990Y4585D01*
Y4645D01*
X4975Y4660D01*
X4930D01*
X5020D02*
Y4570D01*
X5065D01*
X5080Y4585D01*
Y4645D01*
X5065Y4660D01*
X5020D01*
X5110Y4645D02*
X5125Y4660D01*
X5155D01*
X5170Y4645D01*
Y4630D01*
X5155Y4615D01*
X5140D01*
X5155D01*
X5170Y4600D01*
Y4585D01*
X5155Y4570D01*
X5125D01*
X5110Y4585D01*
X5200Y4555D02*
X5260D01*
X5350Y4570D02*
X5290D01*
X5350Y4630D01*
Y4645D01*
X5335Y4660D01*
X5305D01*
X5290Y4645D01*
X9040Y4650D02*
Y4560D01*
X9085D01*
X9100Y4575D01*
Y4635D01*
X9085Y4650D01*
X9040D01*
X9130D02*
Y4560D01*
X9175D01*
X9190Y4575D01*
Y4635D01*
X9175Y4650D01*
X9130D01*
X9220Y4635D02*
X9235Y4650D01*
X9265D01*
X9280Y4635D01*
Y4620D01*
X9265Y4605D01*
X9250D01*
X9265D01*
X9280Y4590D01*
Y4575D01*
X9265Y4560D01*
X9235D01*
X9220Y4575D01*
X9310Y4545D02*
X9370D01*
X9400Y4560D02*
X9430D01*
X9415D01*
Y4650D01*
X9400Y4635D01*
X3110Y4720D02*
Y4630D01*
X3155D01*
X3170Y4645D01*
Y4705D01*
X3155Y4720D01*
X3110D01*
X3200D02*
Y4630D01*
X3245D01*
X3260Y4645D01*
Y4705D01*
X3245Y4720D01*
X3200D01*
X3350Y4630D02*
X3290D01*
X3350Y4690D01*
Y4705D01*
X3335Y4720D01*
X3305D01*
X3290Y4705D01*
X3380Y4615D02*
X3440D01*
X3470Y4705D02*
X3485Y4720D01*
X3515D01*
X3530Y4705D01*
Y4690D01*
X3515Y4675D01*
X3500D01*
X3515D01*
X3530Y4660D01*
Y4645D01*
X3515Y4630D01*
X3485D01*
X3470Y4645D01*
X6906Y4680D02*
Y4590D01*
X6951D01*
X6966Y4605D01*
Y4665D01*
X6951Y4680D01*
X6906D01*
X6996D02*
Y4590D01*
X7041D01*
X7056Y4605D01*
Y4665D01*
X7041Y4680D01*
X6996D01*
X7146Y4590D02*
X7086D01*
X7146Y4650D01*
Y4665D01*
X7131Y4680D01*
X7101D01*
X7086Y4665D01*
X7176Y4575D02*
X7236D01*
X7326Y4590D02*
X7266D01*
X7326Y4650D01*
Y4665D01*
X7311Y4680D01*
X7281D01*
X7266Y4665D01*
X10560Y4730D02*
Y4640D01*
X10605D01*
X10620Y4655D01*
Y4715D01*
X10605Y4730D01*
X10560D01*
X10650D02*
Y4640D01*
X10695D01*
X10710Y4655D01*
Y4715D01*
X10695Y4730D01*
X10650D01*
X10800Y4640D02*
X10740D01*
X10800Y4700D01*
Y4715D01*
X10785Y4730D01*
X10755D01*
X10740Y4715D01*
X10830Y4625D02*
X10890D01*
X10920Y4640D02*
X10950D01*
X10935D01*
Y4730D01*
X10920Y4715D01*
X2500Y4730D02*
Y4640D01*
X2545D01*
X2560Y4655D01*
Y4715D01*
X2545Y4730D01*
X2500D01*
X2590D02*
Y4640D01*
X2635D01*
X2650Y4655D01*
Y4715D01*
X2635Y4730D01*
X2590D01*
X2680Y4640D02*
X2710D01*
X2695D01*
Y4730D01*
X2680Y4715D01*
X2755Y4625D02*
X2815D01*
X2845Y4715D02*
X2860Y4730D01*
X2890D01*
X2905Y4715D01*
Y4700D01*
X2890Y4685D01*
X2875D01*
X2890D01*
X2905Y4670D01*
Y4655D01*
X2890Y4640D01*
X2860D01*
X2845Y4655D01*
X6110Y4680D02*
Y4590D01*
X6155D01*
X6170Y4605D01*
Y4665D01*
X6155Y4680D01*
X6110D01*
X6200D02*
Y4590D01*
X6245D01*
X6260Y4605D01*
Y4665D01*
X6245Y4680D01*
X6200D01*
X6290Y4590D02*
X6320D01*
X6305D01*
Y4680D01*
X6290Y4665D01*
X6365Y4575D02*
X6425D01*
X6515Y4590D02*
X6455D01*
X6515Y4650D01*
Y4665D01*
X6500Y4680D01*
X6470D01*
X6455Y4665D01*
X9950Y4740D02*
Y4650D01*
X9995D01*
X10010Y4665D01*
Y4725D01*
X9995Y4740D01*
X9950D01*
X10040D02*
Y4650D01*
X10085D01*
X10100Y4665D01*
Y4725D01*
X10085Y4740D01*
X10040D01*
X10130Y4650D02*
X10160D01*
X10145D01*
Y4740D01*
X10130Y4725D01*
X10205Y4635D02*
X10265D01*
X10295Y4650D02*
X10325D01*
X10310D01*
Y4740D01*
X10295Y4725D01*
X8105Y1030D02*
Y940D01*
X8150D01*
X8165Y955D01*
Y1015D01*
X8150Y1030D01*
X8105D01*
X8195Y940D02*
Y1000D01*
X8225Y1030D01*
X8255Y1000D01*
Y940D01*
Y985D01*
X8195D01*
X8285Y940D02*
X8315D01*
X8300D01*
Y1030D01*
X8285Y1015D01*
X5335Y4350D02*
X5320Y4335D01*
Y4305D01*
X5335Y4290D01*
X5395D01*
X5410Y4305D01*
Y4335D01*
X5395Y4350D01*
X5335Y4380D02*
X5320Y4395D01*
Y4425D01*
X5335Y4440D01*
X5350D01*
X5365Y4425D01*
Y4410D01*
Y4425D01*
X5380Y4440D01*
X5395D01*
X5410Y4425D01*
Y4395D01*
X5395Y4380D01*
X5410Y4530D02*
Y4470D01*
X5350Y4530D01*
X5335D01*
X5320Y4515D01*
Y4485D01*
X5335Y4470D01*
X8000Y1965D02*
X7985Y1980D01*
X7955D01*
X7940Y1965D01*
Y1905D01*
X7955Y1890D01*
X7985D01*
X8000Y1905D01*
X8030Y1965D02*
X8045Y1980D01*
X8075D01*
X8090Y1965D01*
Y1950D01*
X8075Y1935D01*
X8060D01*
X8075D01*
X8090Y1920D01*
Y1905D01*
X8075Y1890D01*
X8045D01*
X8030Y1905D01*
X8120Y1890D02*
X8150D01*
X8135D01*
Y1980D01*
X8120Y1965D01*
X8320Y1975D02*
X8305Y1990D01*
X8275D01*
X8260Y1975D01*
Y1915D01*
X8275Y1900D01*
X8305D01*
X8320Y1915D01*
X8410Y1900D02*
X8350D01*
X8410Y1960D01*
Y1975D01*
X8395Y1990D01*
X8365D01*
X8350Y1975D01*
X8440Y1915D02*
X8455Y1900D01*
X8485D01*
X8500Y1915D01*
Y1975D01*
X8485Y1990D01*
X8455D01*
X8440Y1975D01*
Y1960D01*
X8455Y1945D01*
X8500D01*
X10110Y3385D02*
X10095Y3400D01*
X10065D01*
X10050Y3385D01*
Y3325D01*
X10065Y3310D01*
X10095D01*
X10110Y3325D01*
X10200Y3310D02*
X10140D01*
X10200Y3370D01*
Y3385D01*
X10185Y3400D01*
X10155D01*
X10140Y3385D01*
X10230D02*
X10245Y3400D01*
X10275D01*
X10290Y3385D01*
Y3370D01*
X10275Y3355D01*
X10290Y3340D01*
Y3325D01*
X10275Y3310D01*
X10245D01*
X10230Y3325D01*
Y3340D01*
X10245Y3355D01*
X10230Y3370D01*
Y3385D01*
X10245Y3355D02*
X10275D01*
X12510Y1575D02*
X12495Y1590D01*
X12465D01*
X12450Y1575D01*
Y1515D01*
X12465Y1500D01*
X12495D01*
X12510Y1515D01*
X12600Y1500D02*
X12540D01*
X12600Y1560D01*
Y1575D01*
X12585Y1590D01*
X12555D01*
X12540Y1575D01*
X12630Y1590D02*
X12690D01*
Y1575D01*
X12630Y1515D01*
Y1500D01*
X12500Y1705D02*
X12485Y1720D01*
X12455D01*
X12440Y1705D01*
Y1645D01*
X12455Y1630D01*
X12485D01*
X12500Y1645D01*
X12590Y1630D02*
X12530D01*
X12590Y1690D01*
Y1705D01*
X12575Y1720D01*
X12545D01*
X12530Y1705D01*
X12680Y1720D02*
X12650Y1705D01*
X12620Y1675D01*
Y1645D01*
X12635Y1630D01*
X12665D01*
X12680Y1645D01*
Y1660D01*
X12665Y1675D01*
X12620D01*
X10100Y2795D02*
X10085Y2810D01*
X10055D01*
X10040Y2795D01*
Y2735D01*
X10055Y2720D01*
X10085D01*
X10100Y2735D01*
X10190Y2720D02*
X10130D01*
X10190Y2780D01*
Y2795D01*
X10175Y2810D01*
X10145D01*
X10130Y2795D01*
X10280Y2810D02*
X10220D01*
Y2765D01*
X10250Y2780D01*
X10265D01*
X10280Y2765D01*
Y2735D01*
X10265Y2720D01*
X10235D01*
X10220Y2735D01*
X1745Y2680D02*
X1730Y2665D01*
Y2635D01*
X1745Y2620D01*
X1805D01*
X1820Y2635D01*
Y2665D01*
X1805Y2680D01*
X1820Y2770D02*
Y2710D01*
X1760Y2770D01*
X1745D01*
X1730Y2755D01*
Y2725D01*
X1745Y2710D01*
X1820Y2845D02*
X1730D01*
X1775Y2800D01*
Y2860D01*
X1745Y3190D02*
X1730Y3175D01*
Y3145D01*
X1745Y3130D01*
X1805D01*
X1820Y3145D01*
Y3175D01*
X1805Y3190D01*
X1820Y3280D02*
Y3220D01*
X1760Y3280D01*
X1745D01*
X1730Y3265D01*
Y3235D01*
X1745Y3220D01*
Y3310D02*
X1730Y3325D01*
Y3355D01*
X1745Y3370D01*
X1760D01*
X1775Y3355D01*
Y3340D01*
Y3355D01*
X1790Y3370D01*
X1805D01*
X1820Y3355D01*
Y3325D01*
X1805Y3310D01*
X12510Y1295D02*
X12495Y1310D01*
X12465D01*
X12450Y1295D01*
Y1235D01*
X12465Y1220D01*
X12495D01*
X12510Y1235D01*
X12540Y1220D02*
X12570D01*
X12555D01*
Y1310D01*
X12540Y1295D01*
X12615Y1220D02*
X12645D01*
X12630D01*
Y1310D01*
X12615Y1295D01*
X12500Y1975D02*
X12485Y1990D01*
X12455D01*
X12440Y1975D01*
Y1915D01*
X12455Y1900D01*
X12485D01*
X12500Y1915D01*
X12530Y1900D02*
X12560D01*
X12545D01*
Y1990D01*
X12530Y1975D01*
X12605D02*
X12620Y1990D01*
X12650D01*
X12665Y1975D01*
Y1915D01*
X12650Y1900D01*
X12620D01*
X12605Y1915D01*
Y1975D01*
X12475Y800D02*
X12460Y785D01*
Y755D01*
X12475Y740D01*
X12535D01*
X12550Y755D01*
Y785D01*
X12535Y800D01*
Y830D02*
X12550Y845D01*
Y875D01*
X12535Y890D01*
X12475D01*
X12460Y875D01*
Y845D01*
X12475Y830D01*
X12490D01*
X12505Y845D01*
Y890D01*
X12125Y2440D02*
X12110Y2425D01*
Y2395D01*
X12125Y2380D01*
X12185D01*
X12200Y2395D01*
Y2425D01*
X12185Y2440D01*
X12125Y2470D02*
X12110Y2485D01*
Y2515D01*
X12125Y2530D01*
X12140D01*
X12155Y2515D01*
X12170Y2530D01*
X12185D01*
X12200Y2515D01*
Y2485D01*
X12185Y2470D01*
X12170D01*
X12155Y2485D01*
X12140Y2470D01*
X12125D01*
X12155Y2485D02*
Y2515D01*
X1715Y3720D02*
X1700Y3705D01*
Y3675D01*
X1715Y3660D01*
X1775D01*
X1790Y3675D01*
Y3705D01*
X1775Y3720D01*
X1700Y3750D02*
Y3810D01*
X1715D01*
X1775Y3750D01*
X1790D01*
X10210Y585D02*
X10195Y600D01*
X10165D01*
X10150Y585D01*
Y525D01*
X10165Y510D01*
X10195D01*
X10210Y525D01*
X10300Y600D02*
X10240D01*
Y555D01*
X10270Y570D01*
X10285D01*
X10300Y555D01*
Y525D01*
X10285Y510D01*
X10255D01*
X10240Y525D01*
X7370Y885D02*
X7355Y900D01*
X7325D01*
X7310Y885D01*
Y825D01*
X7325Y810D01*
X7355D01*
X7370Y825D01*
X7445Y810D02*
Y900D01*
X7400Y855D01*
X7460D01*
X2905Y5000D02*
X2890Y4985D01*
Y4955D01*
X2905Y4940D01*
X2965D01*
X2980Y4955D01*
Y4985D01*
X2965Y5000D01*
X2905Y5030D02*
X2890Y5045D01*
Y5075D01*
X2905Y5090D01*
X2920D01*
X2935Y5075D01*
Y5060D01*
Y5075D01*
X2950Y5090D01*
X2965D01*
X2980Y5075D01*
Y5045D01*
X2965Y5030D01*
X2995Y5120D02*
Y5180D01*
X2905Y5210D02*
X2890Y5225D01*
Y5255D01*
X2905Y5270D01*
X2920D01*
X2935Y5255D01*
Y5240D01*
Y5255D01*
X2950Y5270D01*
X2965D01*
X2980Y5255D01*
Y5225D01*
X2965Y5210D01*
X6655Y5010D02*
X6640Y4995D01*
Y4965D01*
X6655Y4950D01*
X6715D01*
X6730Y4965D01*
Y4995D01*
X6715Y5010D01*
X6655Y5040D02*
X6640Y5055D01*
Y5085D01*
X6655Y5100D01*
X6670D01*
X6685Y5085D01*
Y5070D01*
Y5085D01*
X6700Y5100D01*
X6715D01*
X6730Y5085D01*
Y5055D01*
X6715Y5040D01*
X6745Y5130D02*
Y5190D01*
X6730Y5280D02*
Y5220D01*
X6670Y5280D01*
X6655D01*
X6640Y5265D01*
Y5235D01*
X6655Y5220D01*
X10355Y5040D02*
X10340Y5025D01*
Y4995D01*
X10355Y4980D01*
X10415D01*
X10430Y4995D01*
Y5025D01*
X10415Y5040D01*
X10355Y5070D02*
X10340Y5085D01*
Y5115D01*
X10355Y5130D01*
X10370D01*
X10385Y5115D01*
Y5100D01*
Y5115D01*
X10400Y5130D01*
X10415D01*
X10430Y5115D01*
Y5085D01*
X10415Y5070D01*
X10445Y5160D02*
Y5220D01*
X10430Y5250D02*
Y5280D01*
Y5265D01*
X10340D01*
X10355Y5250D01*
X2035Y5010D02*
X2020Y4995D01*
Y4965D01*
X2035Y4950D01*
X2095D01*
X2110Y4965D01*
Y4995D01*
X2095Y5010D01*
X2110Y5100D02*
Y5040D01*
X2050Y5100D01*
X2035D01*
X2020Y5085D01*
Y5055D01*
X2035Y5040D01*
X2125Y5130D02*
Y5190D01*
X2035Y5220D02*
X2020Y5235D01*
Y5265D01*
X2035Y5280D01*
X2050D01*
X2065Y5265D01*
Y5250D01*
Y5265D01*
X2080Y5280D01*
X2095D01*
X2110Y5265D01*
Y5235D01*
X2095Y5220D01*
X5785Y5020D02*
X5770Y5005D01*
Y4975D01*
X5785Y4960D01*
X5845D01*
X5860Y4975D01*
Y5005D01*
X5845Y5020D01*
X5860Y5110D02*
Y5050D01*
X5800Y5110D01*
X5785D01*
X5770Y5095D01*
Y5065D01*
X5785Y5050D01*
X5875Y5140D02*
Y5200D01*
X5860Y5290D02*
Y5230D01*
X5800Y5290D01*
X5785D01*
X5770Y5275D01*
Y5245D01*
X5785Y5230D01*
X9475Y5030D02*
X9460Y5015D01*
Y4985D01*
X9475Y4970D01*
X9535D01*
X9550Y4985D01*
Y5015D01*
X9535Y5030D01*
X9550Y5120D02*
Y5060D01*
X9490Y5120D01*
X9475D01*
X9460Y5105D01*
Y5075D01*
X9475Y5060D01*
X9565Y5150D02*
Y5210D01*
X9550Y5240D02*
Y5270D01*
Y5255D01*
X9460D01*
X9475Y5240D01*
X995Y5380D02*
X980Y5365D01*
Y5335D01*
X995Y5320D01*
X1055D01*
X1070Y5335D01*
Y5365D01*
X1055Y5380D01*
X1070Y5410D02*
Y5440D01*
Y5425D01*
X980D01*
X995Y5410D01*
X1085Y5485D02*
Y5545D01*
X995Y5575D02*
X980Y5590D01*
Y5620D01*
X995Y5635D01*
X1010D01*
X1025Y5620D01*
Y5605D01*
Y5620D01*
X1040Y5635D01*
X1055D01*
X1070Y5620D01*
Y5590D01*
X1055Y5575D01*
X4785Y5290D02*
X4770Y5275D01*
Y5245D01*
X4785Y5230D01*
X4845D01*
X4860Y5245D01*
Y5275D01*
X4845Y5290D01*
X4860Y5320D02*
Y5350D01*
Y5335D01*
X4770D01*
X4785Y5320D01*
X4875Y5395D02*
Y5455D01*
X4860Y5545D02*
Y5485D01*
X4800Y5545D01*
X4785D01*
X4770Y5530D01*
Y5500D01*
X4785Y5485D01*
X8465Y5330D02*
X8450Y5315D01*
Y5285D01*
X8465Y5270D01*
X8525D01*
X8540Y5285D01*
Y5315D01*
X8525Y5330D01*
X8540Y5360D02*
Y5390D01*
Y5375D01*
X8450D01*
X8465Y5360D01*
X8555Y5435D02*
Y5495D01*
X8540Y5525D02*
Y5555D01*
Y5540D01*
X8450D01*
X8465Y5525D01*
X11460Y1235D02*
X11445Y1250D01*
X11415D01*
X11400Y1235D01*
Y1175D01*
X11415Y1160D01*
X11445D01*
X11460Y1175D01*
X11490Y1235D02*
X11505Y1250D01*
X11535D01*
X11550Y1235D01*
Y1220D01*
X11535Y1205D01*
X11550Y1190D01*
Y1175D01*
X11535Y1160D01*
X11505D01*
X11490Y1175D01*
Y1190D01*
X11505Y1205D01*
X11490Y1220D01*
Y1235D01*
X11505Y1205D02*
X11535D01*
X11640Y1160D02*
X11580D01*
X11640Y1220D01*
Y1235D01*
X11625Y1250D01*
X11595D01*
X11580Y1235D01*
X11520Y2105D02*
X11505Y2120D01*
X11475D01*
X11460Y2105D01*
Y2045D01*
X11475Y2030D01*
X11505D01*
X11520Y2045D01*
X11550Y2105D02*
X11565Y2120D01*
X11595D01*
X11610Y2105D01*
Y2090D01*
X11595Y2075D01*
X11610Y2060D01*
Y2045D01*
X11595Y2030D01*
X11565D01*
X11550Y2045D01*
Y2060D01*
X11565Y2075D01*
X11550Y2090D01*
Y2105D01*
X11565Y2075D02*
X11595D01*
X11640Y2105D02*
X11655Y2120D01*
X11685D01*
X11700Y2105D01*
Y2090D01*
X11685Y2075D01*
X11670D01*
X11685D01*
X11700Y2060D01*
Y2045D01*
X11685Y2030D01*
X11655D01*
X11640Y2045D01*
X10910Y1605D02*
X10895Y1620D01*
X10865D01*
X10850Y1605D01*
Y1545D01*
X10865Y1530D01*
X10895D01*
X10910Y1545D01*
X10940Y1605D02*
X10955Y1620D01*
X10985D01*
X11000Y1605D01*
Y1590D01*
X10985Y1575D01*
X11000Y1560D01*
Y1545D01*
X10985Y1530D01*
X10955D01*
X10940Y1545D01*
Y1560D01*
X10955Y1575D01*
X10940Y1590D01*
Y1605D01*
X10955Y1575D02*
X10985D01*
X11075Y1530D02*
Y1620D01*
X11030Y1575D01*
X11090D01*
X8595Y4620D02*
X8580Y4605D01*
Y4575D01*
X8595Y4560D01*
X8655D01*
X8670Y4575D01*
Y4605D01*
X8655Y4620D01*
X8595Y4650D02*
X8580Y4665D01*
Y4695D01*
X8595Y4710D01*
X8610D01*
X8625Y4695D01*
X8640Y4710D01*
X8655D01*
X8670Y4695D01*
Y4665D01*
X8655Y4650D01*
X8640D01*
X8625Y4665D01*
X8610Y4650D01*
X8595D01*
X8625Y4665D02*
Y4695D01*
X8580Y4800D02*
Y4740D01*
X8625D01*
X8610Y4770D01*
Y4785D01*
X8625Y4800D01*
X8655D01*
X8670Y4785D01*
Y4755D01*
X8655Y4740D01*
X10040Y1065D02*
X10025Y1080D01*
X9995D01*
X9980Y1065D01*
Y1005D01*
X9995Y990D01*
X10025D01*
X10040Y1005D01*
X10070Y1065D02*
X10085Y1080D01*
X10115D01*
X10130Y1065D01*
Y1050D01*
X10115Y1035D01*
X10130Y1020D01*
Y1005D01*
X10115Y990D01*
X10085D01*
X10070Y1005D01*
Y1020D01*
X10085Y1035D01*
X10070Y1050D01*
Y1065D01*
X10085Y1035D02*
X10115D01*
X10220Y1080D02*
X10190Y1065D01*
X10160Y1035D01*
Y1005D01*
X10175Y990D01*
X10205D01*
X10220Y1005D01*
Y1020D01*
X10205Y1035D01*
X10160D01*
X10060Y2205D02*
X10045Y2220D01*
X10015D01*
X10000Y2205D01*
Y2145D01*
X10015Y2130D01*
X10045D01*
X10060Y2145D01*
X10090Y2205D02*
X10105Y2220D01*
X10135D01*
X10150Y2205D01*
Y2190D01*
X10135Y2175D01*
X10150Y2160D01*
Y2145D01*
X10135Y2130D01*
X10105D01*
X10090Y2145D01*
Y2160D01*
X10105Y2175D01*
X10090Y2190D01*
Y2205D01*
X10105Y2175D02*
X10135D01*
X10180Y2220D02*
X10240D01*
Y2205D01*
X10180Y2145D01*
Y2130D01*
X8035Y5140D02*
X8020Y5155D01*
X7990D01*
X7975Y5140D01*
Y5080D01*
X7990Y5065D01*
X8020D01*
X8035Y5080D01*
X8065Y5140D02*
X8080Y5155D01*
X8110D01*
X8125Y5140D01*
Y5125D01*
X8110Y5110D01*
X8125Y5095D01*
Y5080D01*
X8110Y5065D01*
X8080D01*
X8065Y5080D01*
Y5095D01*
X8080Y5110D01*
X8065Y5125D01*
Y5140D01*
X8080Y5110D02*
X8110D01*
X8155Y5140D02*
X8170Y5155D01*
X8200D01*
X8215Y5140D01*
Y5125D01*
X8200Y5110D01*
X8215Y5095D01*
Y5080D01*
X8200Y5065D01*
X8170D01*
X8155Y5080D01*
Y5095D01*
X8170Y5110D01*
X8155Y5125D01*
Y5140D01*
X8170Y5110D02*
X8200D01*
X7570Y4475D02*
X7555Y4490D01*
X7525D01*
X7510Y4475D01*
Y4415D01*
X7525Y4400D01*
X7555D01*
X7570Y4415D01*
X7600Y4475D02*
X7615Y4490D01*
X7645D01*
X7660Y4475D01*
Y4460D01*
X7645Y4445D01*
X7660Y4430D01*
Y4415D01*
X7645Y4400D01*
X7615D01*
X7600Y4415D01*
Y4430D01*
X7615Y4445D01*
X7600Y4460D01*
Y4475D01*
X7615Y4445D02*
X7645D01*
X7690Y4415D02*
X7705Y4400D01*
X7735D01*
X7750Y4415D01*
Y4475D01*
X7735Y4490D01*
X7705D01*
X7690Y4475D01*
Y4460D01*
X7705Y4445D01*
X7750D01*
X11510Y1050D02*
Y960D01*
X11555D01*
X11570Y975D01*
Y1035D01*
X11555Y1050D01*
X11510D01*
X11600Y960D02*
Y1020D01*
X11630Y1050D01*
X11660Y1020D01*
Y960D01*
Y1005D01*
X11600D01*
X11750Y960D02*
X11690D01*
X11750Y1020D01*
Y1035D01*
X11735Y1050D01*
X11705D01*
X11690Y1035D01*
X10470Y3460D02*
Y3370D01*
X10515D01*
X10530Y3385D01*
Y3445D01*
X10515Y3460D01*
X10470D01*
X10560Y3370D02*
Y3430D01*
X10590Y3460D01*
X10620Y3430D01*
Y3370D01*
Y3415D01*
X10560D01*
X10650Y3445D02*
X10665Y3460D01*
X10695D01*
X10710Y3445D01*
Y3430D01*
X10695Y3415D01*
X10680D01*
X10695D01*
X10710Y3400D01*
Y3385D01*
X10695Y3370D01*
X10665D01*
X10650Y3385D01*
X8190Y4480D02*
Y4390D01*
X8235D01*
X8250Y4405D01*
Y4465D01*
X8235Y4480D01*
X8190D01*
X8280Y4390D02*
Y4450D01*
X8310Y4480D01*
X8340Y4450D01*
Y4390D01*
Y4435D01*
X8280D01*
X8415Y4390D02*
Y4480D01*
X8370Y4435D01*
X8430D01*
X1320Y4170D02*
Y4080D01*
X1365D01*
X1380Y4095D01*
Y4155D01*
X1365Y4170D01*
X1320D01*
X1410D02*
Y4080D01*
X1455D01*
X1470Y4095D01*
Y4155D01*
X1455Y4170D01*
X1410D01*
X1560D02*
X1530Y4155D01*
X1500Y4125D01*
Y4095D01*
X1515Y4080D01*
X1545D01*
X1560Y4095D01*
Y4110D01*
X1545Y4125D01*
X1500D01*
X10690Y2720D02*
Y2630D01*
X10750D01*
X10780D02*
X10810D01*
X10795D01*
Y2720D01*
X10780Y2705D01*
X10855D02*
X10870Y2720D01*
X10900D01*
X10915Y2705D01*
Y2645D01*
X10900Y2630D01*
X10870D01*
X10855Y2645D01*
Y2705D01*
X12440Y1770D02*
Y1860D01*
X12485D01*
X12500Y1845D01*
Y1815D01*
X12485Y1800D01*
X12440D01*
X12470D02*
X12500Y1770D01*
X12530Y1845D02*
X12545Y1860D01*
X12575D01*
X12590Y1845D01*
Y1830D01*
X12575Y1815D01*
X12560D01*
X12575D01*
X12590Y1800D01*
Y1785D01*
X12575Y1770D01*
X12545D01*
X12530Y1785D01*
X12680Y1860D02*
X12620D01*
Y1815D01*
X12650Y1830D01*
X12665D01*
X12680Y1815D01*
Y1785D01*
X12665Y1770D01*
X12635D01*
X12620Y1785D01*
X12450Y1360D02*
Y1450D01*
X12495D01*
X12510Y1435D01*
Y1405D01*
X12495Y1390D01*
X12450D01*
X12480D02*
X12510Y1360D01*
X12540Y1435D02*
X12555Y1450D01*
X12585D01*
X12600Y1435D01*
Y1420D01*
X12585Y1405D01*
X12570D01*
X12585D01*
X12600Y1390D01*
Y1375D01*
X12585Y1360D01*
X12555D01*
X12540Y1375D01*
X12690Y1450D02*
X12660Y1435D01*
X12630Y1405D01*
Y1375D01*
X12645Y1360D01*
X12675D01*
X12690Y1375D01*
Y1390D01*
X12675Y1405D01*
X12630D01*
X11145Y3315D02*
Y3405D01*
X11190D01*
X11205Y3390D01*
Y3360D01*
X11190Y3345D01*
X11145D01*
X11175D02*
X11205Y3315D01*
X11235Y3390D02*
X11250Y3405D01*
X11280D01*
X11295Y3390D01*
Y3375D01*
X11280Y3360D01*
X11265D01*
X11280D01*
X11295Y3345D01*
Y3330D01*
X11280Y3315D01*
X11250D01*
X11235Y3330D01*
X11325Y3390D02*
X11340Y3405D01*
X11370D01*
X11385Y3390D01*
Y3375D01*
X11370Y3360D01*
X11385Y3345D01*
Y3330D01*
X11370Y3315D01*
X11340D01*
X11325Y3330D01*
Y3345D01*
X11340Y3360D01*
X11325Y3375D01*
Y3390D01*
X11340Y3360D02*
X11370D01*
X12040Y2190D02*
X11950D01*
Y2235D01*
X11965Y2250D01*
X11995D01*
X12010Y2235D01*
Y2190D01*
Y2220D02*
X12040Y2250D01*
X11965Y2280D02*
X11950Y2295D01*
Y2325D01*
X11965Y2340D01*
X11980D01*
X11995Y2325D01*
Y2310D01*
Y2325D01*
X12010Y2340D01*
X12025D01*
X12040Y2325D01*
Y2295D01*
X12025Y2280D01*
Y2370D02*
X12040Y2385D01*
Y2415D01*
X12025Y2430D01*
X11965D01*
X11950Y2415D01*
Y2385D01*
X11965Y2370D01*
X11980D01*
X11995Y2385D01*
Y2430D01*
X11940Y630D02*
X11850D01*
Y675D01*
X11865Y690D01*
X11895D01*
X11910Y675D01*
Y630D01*
Y660D02*
X11940Y690D01*
Y765D02*
X11850D01*
X11895Y720D01*
Y780D01*
X11865Y810D02*
X11850Y825D01*
Y855D01*
X11865Y870D01*
X11925D01*
X11940Y855D01*
Y825D01*
X11925Y810D01*
X11865D01*
X11800Y640D02*
X11710D01*
Y685D01*
X11725Y700D01*
X11755D01*
X11770Y685D01*
Y640D01*
Y670D02*
X11800Y700D01*
Y775D02*
X11710D01*
X11755Y730D01*
Y790D01*
X11800Y820D02*
Y850D01*
Y835D01*
X11710D01*
X11725Y820D01*
X11900Y2180D02*
X11810D01*
Y2225D01*
X11825Y2240D01*
X11855D01*
X11870Y2225D01*
Y2180D01*
Y2210D02*
X11900Y2240D01*
Y2315D02*
X11810D01*
X11855Y2270D01*
Y2330D01*
X11900Y2420D02*
Y2360D01*
X11840Y2420D01*
X11825D01*
X11810Y2405D01*
Y2375D01*
X11825Y2360D01*
X10510Y140D02*
X10570D01*
X10600Y170D01*
X10570Y200D01*
X10510D01*
Y230D02*
X10600D01*
Y275D01*
X10585Y290D01*
X10525D01*
X10510Y275D01*
Y230D01*
X10600Y380D02*
Y320D01*
X10540Y380D01*
X10525D01*
X10510Y365D01*
Y335D01*
X10525Y320D01*
X11570Y90D02*
X11630D01*
X11660Y120D01*
X11630Y150D01*
X11570D01*
Y180D02*
X11660D01*
Y225D01*
X11645Y240D01*
X11585D01*
X11570Y225D01*
Y180D01*
X11585Y270D02*
X11570Y285D01*
Y315D01*
X11585Y330D01*
X11600D01*
X11615Y315D01*
Y300D01*
Y315D01*
X11630Y330D01*
X11645D01*
X11660Y315D01*
Y285D01*
X11645Y270D01*
X9570Y2250D02*
Y2190D01*
X9600Y2160D01*
X9630Y2190D01*
Y2250D01*
X9660D02*
Y2160D01*
X9705D01*
X9720Y2175D01*
Y2235D01*
X9705Y2250D01*
X9660D01*
X9795Y2160D02*
Y2250D01*
X9750Y2205D01*
X9810D01*
X11510Y640D02*
X11570D01*
X11600Y670D01*
X11570Y700D01*
X11510D01*
Y730D02*
X11600D01*
Y775D01*
X11585Y790D01*
X11525D01*
X11510Y775D01*
Y730D01*
Y880D02*
Y820D01*
X11555D01*
X11540Y850D01*
Y865D01*
X11555Y880D01*
X11585D01*
X11600Y865D01*
Y835D01*
X11585Y820D01*
X11490Y2230D02*
X11550D01*
X11580Y2260D01*
X11550Y2290D01*
X11490D01*
Y2320D02*
X11580D01*
Y2365D01*
X11565Y2380D01*
X11505D01*
X11490Y2365D01*
Y2320D01*
Y2470D02*
X11505Y2440D01*
X11535Y2410D01*
X11565D01*
X11580Y2425D01*
Y2455D01*
X11565Y2470D01*
X11550D01*
X11535Y2455D01*
Y2410D01*
X10140Y1710D02*
Y1650D01*
X10170Y1620D01*
X10200Y1650D01*
Y1710D01*
X10230D02*
Y1620D01*
X10275D01*
X10290Y1635D01*
Y1695D01*
X10275Y1710D01*
X10230D01*
X10320D02*
X10380D01*
Y1695D01*
X10320Y1635D01*
Y1620D01*
X9970Y1540D02*
Y1480D01*
X10000Y1450D01*
X10030Y1480D01*
Y1540D01*
X10060D02*
Y1450D01*
X10105D01*
X10120Y1465D01*
Y1525D01*
X10105Y1540D01*
X10060D01*
X10150Y1525D02*
X10165Y1540D01*
X10195D01*
X10210Y1525D01*
Y1510D01*
X10195Y1495D01*
X10210Y1480D01*
Y1465D01*
X10195Y1450D01*
X10165D01*
X10150Y1465D01*
Y1480D01*
X10165Y1495D01*
X10150Y1510D01*
Y1525D01*
X10165Y1495D02*
X10195D01*
X160Y1200D02*
X220Y1110D01*
Y1200D02*
X160Y1110D01*
X250D02*
X280D01*
X265D01*
Y1200D01*
X250Y1185D01*
X5090Y1135D02*
X5075Y1150D01*
X5045D01*
X5030Y1135D01*
Y1075D01*
X5045Y1060D01*
X5075D01*
X5090Y1075D01*
X5120D02*
X5135Y1060D01*
X5165D01*
X5180Y1075D01*
Y1135D01*
X5165Y1150D01*
X5135D01*
X5120Y1135D01*
Y1120D01*
X5135Y1105D01*
X5180D01*
X5210Y1135D02*
X5225Y1150D01*
X5255D01*
X5270Y1135D01*
Y1075D01*
X5255Y1060D01*
X5225D01*
X5210Y1075D01*
Y1135D01*
X410Y4705D02*
X395Y4720D01*
X365D01*
X350Y4705D01*
Y4645D01*
X365Y4630D01*
X395D01*
X410Y4645D01*
X440D02*
X455Y4630D01*
X485D01*
X500Y4645D01*
Y4705D01*
X485Y4720D01*
X455D01*
X440Y4705D01*
Y4690D01*
X455Y4675D01*
X500D01*
X530Y4630D02*
X560D01*
X545D01*
Y4720D01*
X530Y4705D01*
X2920Y2110D02*
X2890D01*
X2905D01*
Y2035D01*
X2890Y2020D01*
X2875D01*
X2860Y2035D01*
X2950Y2020D02*
Y2110D01*
X2995D01*
X3010Y2095D01*
Y2065D01*
X2995Y2050D01*
X2950D01*
X3040Y2020D02*
X3070D01*
X3055D01*
Y2110D01*
X3040Y2095D01*
X165Y5600D02*
X150Y5585D01*
Y5555D01*
X165Y5540D01*
X180D01*
X195Y5555D01*
Y5585D01*
X210Y5600D01*
X225D01*
X240Y5585D01*
Y5555D01*
X225Y5540D01*
X240Y5630D02*
Y5660D01*
Y5645D01*
X150D01*
X165Y5630D01*
X5640Y1530D02*
Y1455D01*
X5655Y1440D01*
X5685D01*
X5700Y1455D01*
Y1530D01*
X5790Y1440D02*
X5730D01*
X5790Y1500D01*
Y1515D01*
X5775Y1530D01*
X5745D01*
X5730Y1515D01*
X160Y4980D02*
X235D01*
X250Y4995D01*
Y5025D01*
X235Y5040D01*
X160D01*
X175Y5070D02*
X160Y5085D01*
Y5115D01*
X175Y5130D01*
X190D01*
X205Y5115D01*
Y5100D01*
Y5115D01*
X220Y5130D01*
X235D01*
X250Y5115D01*
Y5085D01*
X235Y5070D01*
X1090Y1075D02*
X1075Y1090D01*
X1045D01*
X1030Y1075D01*
Y1015D01*
X1045Y1000D01*
X1075D01*
X1090Y1015D01*
X1120D02*
X1135Y1000D01*
X1165D01*
X1180Y1015D01*
Y1075D01*
X1165Y1090D01*
X1135D01*
X1120Y1075D01*
Y1060D01*
X1135Y1045D01*
X1180D01*
X1270Y1000D02*
X1210D01*
X1270Y1060D01*
Y1075D01*
X1255Y1090D01*
X1225D01*
X1210Y1075D01*
X1760Y2155D02*
X1745Y2170D01*
X1715D01*
X1700Y2155D01*
Y2095D01*
X1715Y2080D01*
X1745D01*
X1760Y2095D01*
X1790D02*
X1805Y2080D01*
X1835D01*
X1850Y2095D01*
Y2155D01*
X1835Y2170D01*
X1805D01*
X1790Y2155D01*
Y2140D01*
X1805Y2125D01*
X1850D01*
X1880Y2155D02*
X1895Y2170D01*
X1925D01*
X1940Y2155D01*
Y2140D01*
X1925Y2125D01*
X1910D01*
X1925D01*
X1940Y2110D01*
Y2095D01*
X1925Y2080D01*
X1895D01*
X1880Y2095D01*
X2725Y1660D02*
X2710Y1645D01*
Y1615D01*
X2725Y1600D01*
X2785D01*
X2800Y1615D01*
Y1645D01*
X2785Y1660D01*
Y1690D02*
X2800Y1705D01*
Y1735D01*
X2785Y1750D01*
X2725D01*
X2710Y1735D01*
Y1705D01*
X2725Y1690D01*
X2740D01*
X2755Y1705D01*
Y1750D01*
X2800Y1825D02*
X2710D01*
X2755Y1780D01*
Y1840D01*
X1868Y2313D02*
X1853Y2328D01*
X1823D01*
X1808Y2313D01*
Y2253D01*
X1823Y2238D01*
X1853D01*
X1868Y2253D01*
X1898D02*
X1913Y2238D01*
X1943D01*
X1958Y2253D01*
Y2313D01*
X1943Y2328D01*
X1913D01*
X1898Y2313D01*
Y2298D01*
X1913Y2283D01*
X1958D01*
X2048Y2328D02*
X1988D01*
Y2283D01*
X2018Y2298D01*
X2033D01*
X2048Y2283D01*
Y2253D01*
X2033Y2238D01*
X2003D01*
X1988Y2253D01*
X9350Y2415D02*
X9335Y2430D01*
X9305D01*
X9290Y2415D01*
Y2355D01*
X9305Y2340D01*
X9335D01*
X9350Y2355D01*
X9380D02*
X9395Y2340D01*
X9425D01*
X9440Y2355D01*
Y2415D01*
X9425Y2430D01*
X9395D01*
X9380Y2415D01*
Y2400D01*
X9395Y2385D01*
X9440D01*
X9530Y2430D02*
X9500Y2415D01*
X9470Y2385D01*
Y2355D01*
X9485Y2340D01*
X9515D01*
X9530Y2355D01*
Y2370D01*
X9515Y2385D01*
X9470D01*
X9010Y4105D02*
X8995Y4120D01*
X8965D01*
X8950Y4105D01*
Y4045D01*
X8965Y4030D01*
X8995D01*
X9010Y4045D01*
X9040D02*
X9055Y4030D01*
X9085D01*
X9100Y4045D01*
Y4105D01*
X9085Y4120D01*
X9055D01*
X9040Y4105D01*
Y4090D01*
X9055Y4075D01*
X9100D01*
X9130Y4120D02*
X9190D01*
Y4105D01*
X9130Y4045D01*
Y4030D01*
X8100Y2410D02*
Y2320D01*
X8145D01*
X8160Y2335D01*
Y2395D01*
X8145Y2410D01*
X8100D01*
X8190D02*
Y2320D01*
X8235D01*
X8250Y2335D01*
Y2395D01*
X8235Y2410D01*
X8190D01*
X8280D02*
X8340D01*
Y2395D01*
X8280Y2335D01*
Y2320D01*
X670Y870D02*
X760D01*
Y930D01*
Y960D02*
Y990D01*
Y975D01*
X670D01*
X685Y960D01*
X760Y1035D02*
Y1065D01*
Y1050D01*
X670D01*
X685Y1035D01*
X7845Y4960D02*
X7830Y4945D01*
Y4915D01*
X7845Y4900D01*
X7905D01*
X7920Y4915D01*
Y4945D01*
X7905Y4960D01*
X7830Y5050D02*
X7845Y5020D01*
X7875Y4990D01*
X7905D01*
X7920Y5005D01*
Y5035D01*
X7905Y5050D01*
X7890D01*
X7875Y5035D01*
Y4990D01*
X240Y1050D02*
X160D01*
Y990D01*
X200Y1010D01*
X220D01*
X240Y990D01*
Y950D01*
X220Y930D01*
X180D01*
X160Y950D01*
X280Y1050D02*
Y970D01*
X320Y930D01*
X360Y970D01*
Y1050D01*
D55*
X1277Y4865D02*
G03*
X1277Y4865I-12J0D01*
G01*
X3027Y4865D02*
G03*
X3027Y4865I-12J0D01*
G01*
X2148D02*
G03*
X2148Y4865I-12J0D01*
G01*
X8728D02*
G03*
X8728Y4865I-12J0D01*
G01*
X10477D02*
G03*
X10477Y4865I-12J0D01*
G01*
X9597D02*
G03*
X9597Y4865I-12J0D01*
G01*
X1482Y2030D02*
G03*
X1482Y2030I-12J0D01*
G01*
X8307Y4545D02*
G03*
X8307Y4545I-12J0D01*
G01*
X8140Y2612D02*
G03*
X8140Y2612I-12J0D01*
G01*
X5495Y1374D02*
G03*
X5495Y1374I-12J0D01*
G01*
X11157Y2910D02*
G03*
X11157Y2910I-12J0D01*
G01*
X11288Y1870D02*
G03*
X11288Y1870I-12J0D01*
G01*
X8353Y1125D02*
G03*
X8353Y1125I-12J0D01*
G01*
X7968Y1130D02*
G03*
X7968Y1130I-12J0D01*
G01*
X6893Y3875D02*
G03*
X6893Y3875I-12J0D01*
G01*
X3983Y1215D02*
G03*
X3983Y1215I-12J0D01*
G01*
X3517Y2550D02*
G03*
X3517Y2550I-12J0D01*
G01*
X5028Y4865D02*
G03*
X5028Y4865I-12J0D01*
G01*
X5897D02*
G03*
X5897Y4865I-12J0D01*
G01*
X1572Y3900D02*
G03*
X1572Y3900I-12J0D01*
G01*
X6777Y4865D02*
G03*
X6777Y4865I-12J0D01*
G01*
D58*
X6160Y1040D02*
X6076D01*
Y1082D01*
X6090Y1096D01*
X6118D01*
X6132Y1082D01*
Y1040D01*
Y1068D02*
X6160Y1096D01*
X6076Y1180D02*
X6090Y1152D01*
X6118Y1124D01*
X6146D01*
X6160Y1138D01*
Y1166D01*
X6146Y1180D01*
X6132D01*
X6118Y1166D01*
Y1124D01*
X6090Y1208D02*
X6076Y1222D01*
Y1249D01*
X6090Y1263D01*
X6146D01*
X6160Y1249D01*
Y1222D01*
X6146Y1208D01*
X6090D01*
X1600Y2840D02*
X1519D01*
Y2881D01*
X1532Y2894D01*
X1559D01*
X1573Y2881D01*
Y2840D01*
Y2867D02*
X1600Y2894D01*
Y2962D02*
X1519D01*
X1559Y2921D01*
Y2975D01*
X1600Y3043D02*
X1519D01*
X1559Y3003D01*
Y3057D01*
X1600Y1230D02*
Y1306D01*
X1638D01*
X1651Y1293D01*
Y1268D01*
X1638Y1255D01*
X1600D01*
X1625D02*
X1651Y1230D01*
X1714D02*
Y1306D01*
X1676Y1268D01*
X1727D01*
X1752Y1293D02*
X1765Y1306D01*
X1790D01*
X1803Y1293D01*
Y1281D01*
X1790Y1268D01*
X1778D01*
X1790D01*
X1803Y1255D01*
Y1243D01*
X1790Y1230D01*
X1765D01*
X1752Y1243D01*
X11699Y2865D02*
Y2822D01*
Y2844D01*
X11826D01*
X11805Y2865D01*
X11826Y2674D02*
X11805Y2717D01*
X11763Y2759D01*
X11720D01*
X11699Y2738D01*
Y2696D01*
X11720Y2674D01*
X11742D01*
X11763Y2696D01*
Y2759D01*
X11445Y2867D02*
Y2825D01*
Y2846D01*
X11572D01*
X11551Y2867D01*
X11572Y2677D02*
Y2761D01*
X11509D01*
X11530Y2719D01*
Y2698D01*
X11509Y2677D01*
X11466D01*
X11445Y2698D01*
Y2740D01*
X11466Y2761D01*
X11445Y5028D02*
Y4986D01*
Y5007D01*
X11572D01*
X11551Y5028D01*
X11699Y4943D02*
Y5028D01*
X11784Y4943D01*
X11805D01*
X11826Y4965D01*
Y5007D01*
X11805Y5028D01*
X4023Y5949D02*
X3938D01*
X4023Y6034D01*
Y6055D01*
X4002Y6076D01*
X3960D01*
X3938Y6055D01*
X4065D02*
X4087Y6076D01*
X4129D01*
X4150Y6055D01*
Y5970D01*
X4129Y5949D01*
X4087D01*
X4065Y5970D01*
Y6055D01*
X3938Y5695D02*
X3981D01*
X3960D01*
Y5822D01*
X3938Y5801D01*
X4044Y5716D02*
X4065Y5695D01*
X4108D01*
X4129Y5716D01*
Y5801D01*
X4108Y5822D01*
X4065D01*
X4044Y5801D01*
Y5780D01*
X4065Y5759D01*
X4129D01*
X1381Y5949D02*
X1297D01*
X1381Y6034D01*
Y6055D01*
X1360Y6076D01*
X1318D01*
X1297Y6055D01*
Y5695D02*
X1339D01*
X1318D01*
Y5822D01*
X1297Y5801D01*
X7773Y5959D02*
X7688D01*
X7773Y6044D01*
Y6065D01*
X7752Y6086D01*
X7710D01*
X7688Y6065D01*
X7815D02*
X7837Y6086D01*
X7879D01*
X7900Y6065D01*
Y5980D01*
X7879Y5959D01*
X7837D01*
X7815Y5980D01*
Y6065D01*
X7688Y5705D02*
X7731D01*
X7710D01*
Y5832D01*
X7688Y5811D01*
X7794Y5726D02*
X7815Y5705D01*
X7858D01*
X7879Y5726D01*
Y5811D01*
X7858Y5832D01*
X7815D01*
X7794Y5811D01*
Y5790D01*
X7815Y5769D01*
X7879D01*
X5131Y5959D02*
X5047D01*
X5131Y6044D01*
Y6065D01*
X5110Y6086D01*
X5068D01*
X5047Y6065D01*
Y5705D02*
X5089D01*
X5068D01*
Y5832D01*
X5047Y5811D01*
X11473Y5953D02*
X11388D01*
X11473Y6038D01*
Y6059D01*
X11452Y6080D01*
X11410D01*
X11388Y6059D01*
X11515D02*
X11537Y6080D01*
X11579D01*
X11600Y6059D01*
Y5974D01*
X11579Y5953D01*
X11537D01*
X11515Y5974D01*
Y6059D01*
X11388Y5699D02*
X11431D01*
X11410D01*
Y5826D01*
X11388Y5805D01*
X11494Y5720D02*
X11515Y5699D01*
X11558D01*
X11579Y5720D01*
Y5805D01*
X11558Y5826D01*
X11515D01*
X11494Y5805D01*
Y5784D01*
X11515Y5763D01*
X11579D01*
X8831Y5953D02*
X8747D01*
X8831Y6038D01*
Y6059D01*
X8810Y6080D01*
X8768D01*
X8747Y6059D01*
Y5699D02*
X8789D01*
X8768D01*
Y5826D01*
X8747Y5805D01*
D59*
X5680Y4610D02*
G03*
X5680Y4610I-10J0D01*
G01*
D62*
X8770Y1790D02*
G03*
X8770Y1790I-100J0D01*
G01*
X1100Y4320D02*
G03*
X1100Y4320I-100J0D01*
G01*
X320D02*
G03*
X320Y4320I-100J0D01*
G01*
X9210Y1790D02*
G03*
X9210Y1790I-100J0D01*
G01*
X4538Y1808D02*
G03*
X4538Y1808I-36J0D01*
G01*
X3270Y1797D02*
G03*
X3270Y1797I-10J0D01*
G01*
X150Y2600D02*
X350D01*
X250Y2500D02*
Y2700D01*
X8730Y1960D02*
Y2003D01*
Y1982D01*
X8600D01*
X8622Y1960D01*
X8600Y2068D02*
X8687D01*
X8730Y2112D01*
X8687Y2155D01*
X8600D01*
X8730Y2285D02*
Y2198D01*
X8643Y2285D01*
X8622D01*
X8600Y2263D01*
Y2220D01*
X8622Y2198D01*
X9062Y2017D02*
X9040Y1995D01*
Y1952D01*
X9062Y1930D01*
X9148D01*
X9170Y1952D01*
Y1995D01*
X9148Y2017D01*
X9105D01*
Y1973D01*
X9170Y2060D02*
X9040D01*
X9170Y2147D01*
X9040D01*
Y2190D02*
X9170D01*
Y2255D01*
X9148Y2277D01*
X9062D01*
X9040Y2255D01*
Y2190D01*
X9170Y2320D02*
X9148D01*
Y2342D01*
X9170D01*
Y2320D01*
X7360Y3727D02*
Y3640D01*
X7273Y3727D01*
X7252D01*
X7230Y3705D01*
Y3662D01*
X7252Y3640D01*
X7230Y3770D02*
X7317D01*
X7360Y3813D01*
X7317Y3857D01*
X7230D01*
Y3987D02*
Y3900D01*
X7295D01*
X7273Y3943D01*
Y3965D01*
X7295Y3987D01*
X7338D01*
X7360Y3965D01*
Y3922D01*
X7338Y3900D01*
X952Y4500D02*
X930Y4522D01*
Y4565D01*
X952Y4587D01*
X973D01*
X995Y4565D01*
Y4543D01*
Y4565D01*
X1017Y4587D01*
X1038D01*
X1060Y4565D01*
Y4522D01*
X1038Y4500D01*
X930Y4630D02*
X1017D01*
X1060Y4673D01*
X1017Y4717D01*
X930D01*
X952Y4760D02*
X930Y4782D01*
Y4825D01*
X952Y4847D01*
X973D01*
X995Y4825D01*
Y4803D01*
Y4825D01*
X1017Y4847D01*
X1038D01*
X1060Y4825D01*
Y4782D01*
X1038Y4760D01*
X152Y3907D02*
X130Y3885D01*
Y3842D01*
X152Y3820D01*
X238D01*
X260Y3842D01*
Y3885D01*
X238Y3907D01*
X195D01*
Y3863D01*
X260Y3950D02*
X130D01*
X260Y4037D01*
X130D01*
Y4080D02*
X260D01*
Y4145D01*
X238Y4167D01*
X152D01*
X130Y4145D01*
Y4080D01*
X11590Y5430D02*
Y5300D01*
X11655D01*
X11677Y5322D01*
Y5408D01*
X11655Y5430D01*
X11590D01*
X11807Y5408D02*
X11785Y5430D01*
X11742D01*
X11720Y5408D01*
Y5322D01*
X11742Y5300D01*
X11785D01*
X11807Y5322D01*
X11850Y5430D02*
Y5300D01*
X11937D01*
X11980Y5430D02*
Y5300D01*
Y5343D01*
X12067Y5430D01*
X12002Y5365D01*
X12067Y5300D01*
X4110Y4020D02*
Y4150D01*
X4175D01*
X4197Y4128D01*
Y4085D01*
X4175Y4063D01*
X4110D01*
X4327Y4128D02*
X4305Y4150D01*
X4262D01*
X4240Y4128D01*
Y4042D01*
X4262Y4020D01*
X4305D01*
X4327Y4042D01*
X4370Y4150D02*
Y4020D01*
X4457D01*
X4500Y4150D02*
Y4020D01*
Y4063D01*
X4587Y4150D01*
X4522Y4085D01*
X4587Y4020D01*
X10197Y3608D02*
X10175Y3630D01*
X10132D01*
X10110Y3608D01*
Y3587D01*
X10132Y3565D01*
X10175D01*
X10197Y3543D01*
Y3522D01*
X10175Y3500D01*
X10132D01*
X10110Y3522D01*
X10240Y3630D02*
Y3500D01*
X10283Y3543D01*
X10327Y3500D01*
Y3630D01*
X10370Y3500D02*
X10413D01*
X10392D01*
Y3630D01*
X10370Y3608D01*
X4510Y1067D02*
X4595Y940D01*
Y1067D02*
X4510Y940D01*
X4637D02*
X4679D01*
X4658D01*
Y1067D01*
X4637Y1046D01*
X4743D02*
X4764Y1067D01*
X4806D01*
X4827Y1046D01*
Y961D01*
X4806Y940D01*
X4764D01*
X4743Y961D01*
Y1046D01*
X7660Y3940D02*
Y4067D01*
X7723D01*
X7745Y4046D01*
Y4003D01*
X7723Y3982D01*
X7660D01*
X7702D02*
X7745Y3940D01*
X7850D02*
X7808D01*
X7787Y3961D01*
Y4003D01*
X7808Y4025D01*
X7850D01*
X7872Y4003D01*
Y3982D01*
X7787D01*
X7914Y4025D02*
X7956Y3940D01*
X7999Y4025D01*
X8041D02*
X8062D01*
Y4003D01*
X8041D01*
Y4025D01*
Y3961D02*
X8062D01*
Y3940D01*
X8041D01*
Y3961D01*
X8255Y3940D02*
X8170D01*
X8255Y4025D01*
Y4046D01*
X8233Y4067D01*
X8191D01*
X8170Y4046D01*
X8297Y3940D02*
Y3961D01*
X8318D01*
Y3940D01*
X8297D01*
X8403Y4046D02*
X8424Y4067D01*
X8466D01*
X8487Y4046D01*
Y3961D01*
X8466Y3940D01*
X8424D01*
X8403Y3961D01*
Y4046D01*
X7650Y4287D02*
Y4160D01*
X7735D01*
X7862Y4287D02*
X7777D01*
Y4160D01*
X7862D01*
X7777Y4223D02*
X7819D01*
X7904Y4287D02*
Y4160D01*
X7967D01*
X7989Y4181D01*
Y4266D01*
X7967Y4287D01*
X7904D01*
X8031Y4139D02*
X8116D01*
X8158Y4160D02*
Y4287D01*
X8200Y4245D01*
X8242Y4287D01*
Y4160D01*
X8285D02*
Y4245D01*
X8327Y4287D01*
X8369Y4245D01*
Y4160D01*
Y4223D01*
X8285D01*
X8412Y4287D02*
X8496D01*
X8454D01*
Y4160D01*
X8539Y4266D02*
X8560Y4287D01*
X8602D01*
X8623Y4266D01*
Y4245D01*
X8602Y4223D01*
X8581D01*
X8602D01*
X8623Y4202D01*
Y4181D01*
X8602Y4160D01*
X8560D01*
X8539Y4181D01*
D64*
X1430Y5090D02*
G03*
X1430Y5090I-30J0D01*
G01*
X3180Y5090D02*
G03*
X3180Y5090I-30J0D01*
G01*
X2300D02*
G03*
X2300Y5090I-30J0D01*
G01*
X8880D02*
G03*
X8880Y5090I-30J0D01*
G01*
X10630D02*
G03*
X10630Y5090I-30J0D01*
G01*
X9750D02*
G03*
X9750Y5090I-30J0D01*
G01*
X8255Y2835D02*
G03*
X8255Y2835I-30J0D01*
G01*
X5297Y1485D02*
G03*
X5297Y1485I-30J0D01*
G01*
X10975Y3055D02*
G03*
X10975Y3055I-30J0D01*
G01*
X3750Y1340D02*
G03*
X3750Y1340I-30J0D01*
G01*
X3305Y2695D02*
G03*
X3305Y2695I-30J0D01*
G01*
X5180Y5090D02*
G03*
X5180Y5090I-30J0D01*
G01*
X6050D02*
G03*
X6050Y5090I-30J0D01*
G01*
X1464Y3650D02*
G03*
X1464Y3650I-30J0D01*
G01*
X6930Y5090D02*
G03*
X6930Y5090I-30J0D01*
G01*
D103*
X7370Y4120D02*
G03*
X7370Y4120I-70J0D01*
G01*
X11560Y5170D02*
G03*
X11560Y5170I-70J0D01*
G01*
X4760Y3980D02*
G03*
X4760Y3980I-70J0D01*
G01*
X10149Y3811D02*
G03*
X10149Y3811I-13J0D01*
G01*
D104*
X2275Y1338D02*
G03*
X2225Y1338I-25J0D01*
G01*
X2275Y1748D02*
G03*
X2225Y1748I-25J0D01*
G01*
X10674Y4241D02*
X10768D01*
Y3939D02*
Y4241D01*
X10673Y3939D02*
X10768D01*
X10673D02*
X10674Y4241D01*
X10547D02*
X10641D01*
Y3939D02*
Y4241D01*
X10847Y3865D02*
Y4315D01*
X10546Y3939D02*
X10641D01*
X10546D02*
X10547Y4241D01*
X10514Y3939D02*
Y4241D01*
X10213Y4315D02*
X10847Y4315D01*
X10420Y4241D02*
X10514D01*
X10419Y3939D02*
X10420Y4241D01*
X10387Y3939D02*
Y4241D01*
X10293D02*
X10387D01*
X10292Y3939D02*
X10387D01*
X10419D02*
X10514D01*
X10213Y3865D02*
X10847D01*
X10292Y3939D02*
X10293Y4241D01*
X10213Y3865D02*
Y4315D01*
X2275Y1338D02*
X2338D01*
X2162Y1642D02*
X2338D01*
X2162Y1338D02*
X2225D01*
X2275Y1748D02*
X2338D01*
X2162Y2052D02*
X2338D01*
X2162Y1748D02*
X2225D01*
X4790Y2180D02*
X4910D01*
X4790Y2060D02*
Y2180D01*
Y2060D02*
X4910D01*
Y2180D01*
X7240Y4460D02*
X7360D01*
X7240Y4340D02*
Y4460D01*
Y4340D02*
X7360D01*
Y4460D01*
X560Y940D02*
Y1060D01*
X440Y940D02*
X560D01*
X440D02*
Y1060D01*
X560D01*
Y5940D02*
Y6060D01*
X440Y5940D02*
X560D01*
X440D02*
Y6060D01*
X560D01*
X12440D02*
X12560D01*
X12440Y5940D02*
Y6060D01*
Y5940D02*
X12560D01*
Y6060D01*
X12440Y1060D02*
X12560D01*
X12440Y940D02*
Y1060D01*
Y940D02*
X12560D01*
Y1060D01*
X410Y5200D02*
X550D01*
X410Y4880D02*
X550D01*
D105*
X586Y4891D02*
G03*
X586Y4891I-5J0D01*
G01*
D106*
X300Y5875D02*
X600D01*
Y5325D02*
Y5875D01*
X300Y5325D02*
X600D01*
X300D02*
Y5875D01*
D107*
X3133Y1833D02*
X3895Y1833D01*
X3133Y2087D02*
X3895Y2087D01*
X3133Y1833D02*
Y2087D01*
X3895Y1833D02*
Y2087D01*
D108*
X610Y4252D02*
X678Y4150D01*
Y4252D02*
X610Y4150D01*
X712D02*
Y4252D01*
X762D01*
X779Y4235D01*
Y4201D01*
X762Y4184D01*
X712D01*
X813Y4150D02*
X847D01*
X830D01*
Y4252D01*
X813Y4235D01*
D109*
X10720Y4370D02*
D03*
X10593Y4370D02*
D03*
X10721Y3810D02*
D03*
X10594Y3810D02*
D03*
X10467Y3810D02*
D03*
X10466Y4370D02*
D03*
X10340Y4370D02*
D03*
X10339Y3810D02*
D03*
D110*
X10720Y4156D02*
D03*
X10593Y4156D02*
D03*
X10466Y4156D02*
D03*
X10339Y4156D02*
D03*
D111*
X11360Y910D02*
D03*
X11350Y2280D02*
D03*
D112*
X9885Y2047D02*
D03*
X9885Y1793D02*
D03*
X10725Y1397D02*
D03*
X10725Y1143D02*
D03*
X10745Y2047D02*
D03*
X10745Y1793D02*
D03*
M02*
