G04*
G04 #@! TF.GenerationSoftware,Altium Limited,Altium Designer,18.0.11 (651)*
G04*
G04 Layer_Color=32896*
%FSLAX42Y42*%
%MOMM*%
G71*
G01*
G75*
%ADD14C,0.10*%
%ADD15C,0.20*%
%ADD21C,0.20*%
D14*
X440Y6060D02*
X560D01*
Y5940D02*
Y6060D01*
X440Y5940D02*
X560D01*
X440D02*
Y6060D01*
X12440Y1060D02*
X12560D01*
Y940D02*
Y1060D01*
X12440Y940D02*
X12560D01*
X12440D02*
Y1060D01*
D15*
X5505Y4105D02*
X5575D01*
X5660Y1920D02*
Y2040D01*
X6100Y3450D02*
X6180D01*
X5430Y2560D02*
X5630D01*
X5290Y2700D02*
X5430Y2560D01*
X4400Y2700D02*
X5290D01*
X4380Y2680D02*
X4400Y2700D01*
X4380Y2160D02*
Y2680D01*
Y2160D02*
X5770D01*
X5830Y2220D01*
X6407D01*
X6409Y2221D01*
Y2308D01*
X5960Y3950D02*
Y4070D01*
X7410Y2930D02*
X7530D01*
X7220D02*
X7340D01*
X4930Y2920D02*
X5050D01*
X6080Y1720D02*
Y1840D01*
Y1920D02*
Y2040D01*
X6930Y2120D02*
X7050D01*
X10320Y2250D02*
X10440D01*
X11390Y1660D02*
Y1750D01*
X11345D01*
X11330Y1735D01*
Y1705D01*
X11345Y1690D01*
X11390D01*
X11360D02*
X11330Y1660D01*
X11300Y1735D02*
X11285Y1750D01*
X11255D01*
X11240Y1735D01*
Y1720D01*
X11255Y1705D01*
X11270D01*
X11255D01*
X11240Y1690D01*
Y1675D01*
X11255Y1660D01*
X11285D01*
X11300Y1675D01*
X11210Y1750D02*
X11150D01*
Y1735D01*
X11210Y1675D01*
Y1660D01*
X6708Y4641D02*
X6798D01*
Y4686D01*
X6783Y4701D01*
X6753D01*
X6738Y4686D01*
Y4641D01*
Y4671D02*
X6708Y4701D01*
X6783Y4731D02*
X6798Y4746D01*
Y4776D01*
X6783Y4791D01*
X6768D01*
X6753Y4776D01*
Y4761D01*
Y4776D01*
X6738Y4791D01*
X6723D01*
X6708Y4776D01*
Y4746D01*
X6723Y4731D01*
X6708Y4866D02*
X6798D01*
X6753Y4821D01*
Y4881D01*
X5370Y4290D02*
Y4380D01*
X5325D01*
X5310Y4365D01*
Y4335D01*
X5325Y4320D01*
X5370D01*
X5340D02*
X5310Y4290D01*
X5280Y4365D02*
X5265Y4380D01*
X5235D01*
X5220Y4365D01*
Y4350D01*
X5235Y4335D01*
X5250D01*
X5235D01*
X5220Y4320D01*
Y4305D01*
X5235Y4290D01*
X5265D01*
X5280Y4305D01*
X5190Y4365D02*
X5175Y4380D01*
X5145D01*
X5130Y4365D01*
Y4350D01*
X5145Y4335D01*
X5160D01*
X5145D01*
X5130Y4320D01*
Y4305D01*
X5145Y4290D01*
X5175D01*
X5190Y4305D01*
X6540Y4640D02*
X6630D01*
Y4685D01*
X6615Y4700D01*
X6585D01*
X6570Y4685D01*
Y4640D01*
Y4670D02*
X6540Y4700D01*
X6615Y4730D02*
X6630Y4745D01*
Y4775D01*
X6615Y4790D01*
X6600D01*
X6585Y4775D01*
Y4760D01*
Y4775D01*
X6570Y4790D01*
X6555D01*
X6540Y4775D01*
Y4745D01*
X6555Y4730D01*
X6540Y4880D02*
Y4820D01*
X6600Y4880D01*
X6615D01*
X6630Y4865D01*
Y4835D01*
X6615Y4820D01*
X6870Y4640D02*
X6960D01*
Y4685D01*
X6945Y4700D01*
X6915D01*
X6900Y4685D01*
Y4640D01*
Y4670D02*
X6870Y4700D01*
Y4790D02*
Y4730D01*
X6930Y4790D01*
X6945D01*
X6960Y4775D01*
Y4745D01*
X6945Y4730D01*
X6960Y4880D02*
Y4820D01*
X6915D01*
X6930Y4850D01*
Y4865D01*
X6915Y4880D01*
X6885D01*
X6870Y4865D01*
Y4835D01*
X6885Y4820D01*
X5390Y1820D02*
Y1730D01*
X5330D01*
X5240Y1820D02*
X5300D01*
Y1775D01*
X5270Y1790D01*
X5255D01*
X5240Y1775D01*
Y1745D01*
X5255Y1730D01*
X5285D01*
X5300Y1745D01*
X7975Y2890D02*
X7990Y2875D01*
Y2845D01*
X7975Y2830D01*
X7915D01*
X7900Y2845D01*
Y2875D01*
X7915Y2890D01*
X7975Y2920D02*
X7990Y2935D01*
Y2965D01*
X7975Y2980D01*
X7960D01*
X7945Y2965D01*
X7930Y2980D01*
X7915D01*
X7900Y2965D01*
Y2935D01*
X7915Y2920D01*
X7930D01*
X7945Y2935D01*
X7960Y2920D01*
X7975D01*
X7945Y2935D02*
Y2965D01*
X7900Y3010D02*
Y3040D01*
Y3025D01*
X7990D01*
X7975Y3010D01*
X7195Y2060D02*
X7210Y2045D01*
Y2015D01*
X7195Y2000D01*
X7135D01*
X7120Y2015D01*
Y2045D01*
X7135Y2060D01*
X7195Y2090D02*
X7210Y2105D01*
Y2135D01*
X7195Y2150D01*
X7180D01*
X7165Y2135D01*
X7150Y2150D01*
X7135D01*
X7120Y2135D01*
Y2105D01*
X7135Y2090D01*
X7150D01*
X7165Y2105D01*
X7180Y2090D01*
X7195D01*
X7165Y2105D02*
Y2135D01*
X7195Y2180D02*
X7210Y2195D01*
Y2225D01*
X7195Y2240D01*
X7135D01*
X7120Y2225D01*
Y2195D01*
X7135Y2180D01*
X7195D01*
X8595Y2900D02*
X8610Y2885D01*
Y2855D01*
X8595Y2840D01*
X8535D01*
X8520Y2855D01*
Y2885D01*
X8535Y2900D01*
X8610Y2930D02*
Y2990D01*
X8595D01*
X8535Y2930D01*
X8520D01*
X8535Y3020D02*
X8520Y3035D01*
Y3065D01*
X8535Y3080D01*
X8595D01*
X8610Y3065D01*
Y3035D01*
X8595Y3020D01*
X8580D01*
X8565Y3035D01*
Y3080D01*
X6500Y1805D02*
X6515Y1820D01*
X6545D01*
X6560Y1805D01*
Y1745D01*
X6545Y1730D01*
X6515D01*
X6500Y1745D01*
X6470Y1820D02*
X6410D01*
Y1805D01*
X6470Y1745D01*
Y1730D01*
X6380Y1805D02*
X6365Y1820D01*
X6335D01*
X6320Y1805D01*
Y1790D01*
X6335Y1775D01*
X6320Y1760D01*
Y1745D01*
X6335Y1730D01*
X6365D01*
X6380Y1745D01*
Y1760D01*
X6365Y1775D01*
X6380Y1790D01*
Y1805D01*
X6365Y1775D02*
X6335D01*
X8620Y3355D02*
X8635Y3370D01*
X8665D01*
X8680Y3355D01*
Y3295D01*
X8665Y3280D01*
X8635D01*
X8620Y3295D01*
X8590Y3370D02*
X8530D01*
Y3355D01*
X8590Y3295D01*
Y3280D01*
X8500Y3370D02*
X8440D01*
Y3355D01*
X8500Y3295D01*
Y3280D01*
X10440Y2556D02*
X10455Y2571D01*
X10485D01*
X10500Y2556D01*
Y2496D01*
X10485Y2481D01*
X10455D01*
X10440Y2496D01*
X10410Y2571D02*
X10350D01*
Y2556D01*
X10410Y2496D01*
Y2481D01*
X10260Y2571D02*
X10290Y2556D01*
X10320Y2526D01*
Y2496D01*
X10305Y2481D01*
X10275D01*
X10260Y2496D01*
Y2511D01*
X10275Y2526D01*
X10320D01*
X8965Y2750D02*
X8980Y2735D01*
Y2705D01*
X8965Y2690D01*
X8905D01*
X8890Y2705D01*
Y2735D01*
X8905Y2750D01*
X8980Y2780D02*
Y2840D01*
X8965D01*
X8905Y2780D01*
X8890D01*
X8980Y2930D02*
Y2870D01*
X8935D01*
X8950Y2900D01*
Y2915D01*
X8935Y2930D01*
X8905D01*
X8890Y2915D01*
Y2885D01*
X8905Y2870D01*
X7825Y2890D02*
X7840Y2875D01*
Y2845D01*
X7825Y2830D01*
X7765D01*
X7750Y2845D01*
Y2875D01*
X7765Y2890D01*
X7840Y2920D02*
Y2980D01*
X7825D01*
X7765Y2920D01*
X7750D01*
Y3055D02*
X7840D01*
X7795Y3010D01*
Y3070D01*
X4845Y2860D02*
X4860Y2845D01*
Y2815D01*
X4845Y2800D01*
X4785D01*
X4770Y2815D01*
Y2845D01*
X4785Y2860D01*
X4860Y2890D02*
Y2950D01*
X4845D01*
X4785Y2890D01*
X4770D01*
X4845Y2980D02*
X4860Y2995D01*
Y3025D01*
X4845Y3040D01*
X4830D01*
X4815Y3025D01*
Y3010D01*
Y3025D01*
X4800Y3040D01*
X4785D01*
X4770Y3025D01*
Y2995D01*
X4785Y2980D01*
X8460Y3195D02*
X8475Y3210D01*
X8505D01*
X8520Y3195D01*
Y3135D01*
X8505Y3120D01*
X8475D01*
X8460Y3135D01*
X8430Y3210D02*
X8370D01*
Y3195D01*
X8430Y3135D01*
Y3120D01*
X8280D02*
X8340D01*
X8280Y3180D01*
Y3195D01*
X8295Y3210D01*
X8325D01*
X8340Y3195D01*
X9095Y2750D02*
X9110Y2735D01*
Y2705D01*
X9095Y2690D01*
X9035D01*
X9020Y2705D01*
Y2735D01*
X9035Y2750D01*
X9110Y2780D02*
Y2840D01*
X9095D01*
X9035Y2780D01*
X9020D01*
Y2870D02*
Y2900D01*
Y2885D01*
X9110D01*
X9095Y2870D01*
X6010Y4355D02*
X6025Y4370D01*
X6055D01*
X6070Y4355D01*
Y4295D01*
X6055Y4280D01*
X6025D01*
X6010Y4295D01*
X5980Y4370D02*
X5920D01*
Y4355D01*
X5980Y4295D01*
Y4280D01*
X5890Y4355D02*
X5875Y4370D01*
X5845D01*
X5830Y4355D01*
Y4295D01*
X5845Y4280D01*
X5875D01*
X5890Y4295D01*
Y4355D01*
X8795Y3500D02*
X8810Y3485D01*
Y3455D01*
X8795Y3440D01*
X8735D01*
X8720Y3455D01*
Y3485D01*
X8735Y3500D01*
X8810Y3590D02*
X8795Y3560D01*
X8765Y3530D01*
X8735D01*
X8720Y3545D01*
Y3575D01*
X8735Y3590D01*
X8750D01*
X8765Y3575D01*
Y3530D01*
X8735Y3620D02*
X8720Y3635D01*
Y3665D01*
X8735Y3680D01*
X8795D01*
X8810Y3665D01*
Y3635D01*
X8795Y3620D01*
X8780D01*
X8765Y3635D01*
Y3680D01*
X6480Y2005D02*
X6495Y2020D01*
X6525D01*
X6540Y2005D01*
Y1945D01*
X6525Y1930D01*
X6495D01*
X6480Y1945D01*
X6390Y2020D02*
X6420Y2005D01*
X6450Y1975D01*
Y1945D01*
X6435Y1930D01*
X6405D01*
X6390Y1945D01*
Y1960D01*
X6405Y1975D01*
X6450D01*
X6360Y2005D02*
X6345Y2020D01*
X6315D01*
X6300Y2005D01*
Y1990D01*
X6315Y1975D01*
X6300Y1960D01*
Y1945D01*
X6315Y1930D01*
X6345D01*
X6360Y1945D01*
Y1960D01*
X6345Y1975D01*
X6360Y1990D01*
Y2005D01*
X6345Y1975D02*
X6315D01*
X4665Y2280D02*
X4680Y2265D01*
Y2235D01*
X4665Y2220D01*
X4605D01*
X4590Y2235D01*
Y2265D01*
X4605Y2280D01*
X4680Y2370D02*
X4665Y2340D01*
X4635Y2310D01*
X4605D01*
X4590Y2325D01*
Y2355D01*
X4605Y2370D01*
X4620D01*
X4635Y2355D01*
Y2310D01*
X4680Y2400D02*
Y2460D01*
X4665D01*
X4605Y2400D01*
X4590D01*
X9080Y3205D02*
X9095Y3220D01*
X9125D01*
X9140Y3205D01*
Y3145D01*
X9125Y3130D01*
X9095D01*
X9080Y3145D01*
X8990Y3220D02*
X9020Y3205D01*
X9050Y3175D01*
Y3145D01*
X9035Y3130D01*
X9005D01*
X8990Y3145D01*
Y3160D01*
X9005Y3175D01*
X9050D01*
X8900Y3220D02*
X8930Y3205D01*
X8960Y3175D01*
Y3145D01*
X8945Y3130D01*
X8915D01*
X8900Y3145D01*
Y3160D01*
X8915Y3175D01*
X8960D01*
X8745Y2900D02*
X8760Y2885D01*
Y2855D01*
X8745Y2840D01*
X8685D01*
X8670Y2855D01*
Y2885D01*
X8685Y2900D01*
X8760Y2990D02*
X8745Y2960D01*
X8715Y2930D01*
X8685D01*
X8670Y2945D01*
Y2975D01*
X8685Y2990D01*
X8700D01*
X8715Y2975D01*
Y2930D01*
X8760Y3080D02*
Y3020D01*
X8715D01*
X8730Y3050D01*
Y3065D01*
X8715Y3080D01*
X8685D01*
X8670Y3065D01*
Y3035D01*
X8685Y3020D01*
X6700Y2295D02*
X6715Y2310D01*
X6745D01*
X6760Y2295D01*
Y2235D01*
X6745Y2220D01*
X6715D01*
X6700Y2235D01*
X6610Y2310D02*
X6640Y2295D01*
X6670Y2265D01*
Y2235D01*
X6655Y2220D01*
X6625D01*
X6610Y2235D01*
Y2250D01*
X6625Y2265D01*
X6670D01*
X6535Y2220D02*
Y2310D01*
X6580Y2265D01*
X6520D01*
X8780Y3205D02*
X8795Y3220D01*
X8825D01*
X8840Y3205D01*
Y3145D01*
X8825Y3130D01*
X8795D01*
X8780Y3145D01*
X8690Y3220D02*
X8720Y3205D01*
X8750Y3175D01*
Y3145D01*
X8735Y3130D01*
X8705D01*
X8690Y3145D01*
Y3160D01*
X8705Y3175D01*
X8750D01*
X8600Y3130D02*
X8660D01*
X8600Y3190D01*
Y3205D01*
X8615Y3220D01*
X8645D01*
X8660Y3205D01*
X5580Y2845D02*
X5595Y2860D01*
X5625D01*
X5640Y2845D01*
Y2785D01*
X5625Y2770D01*
X5595D01*
X5580Y2785D01*
X5490Y2860D02*
X5520Y2845D01*
X5550Y2815D01*
Y2785D01*
X5535Y2770D01*
X5505D01*
X5490Y2785D01*
Y2800D01*
X5505Y2815D01*
X5550D01*
X5460Y2770D02*
X5430D01*
X5445D01*
Y2860D01*
X5460Y2845D01*
X9060Y3535D02*
X9075Y3550D01*
X9105D01*
X9120Y3535D01*
Y3475D01*
X9105Y3460D01*
X9075D01*
X9060Y3475D01*
X8970Y3550D02*
X9030D01*
Y3505D01*
X9000Y3520D01*
X8985D01*
X8970Y3505D01*
Y3475D01*
X8985Y3460D01*
X9015D01*
X9030Y3475D01*
X8940D02*
X8925Y3460D01*
X8895D01*
X8880Y3475D01*
Y3535D01*
X8895Y3550D01*
X8925D01*
X8940Y3535D01*
Y3520D01*
X8925Y3505D01*
X8880D01*
X5405Y2310D02*
X5420Y2295D01*
Y2265D01*
X5405Y2250D01*
X5345D01*
X5330Y2265D01*
Y2295D01*
X5345Y2310D01*
X5420Y2400D02*
Y2340D01*
X5375D01*
X5390Y2370D01*
Y2385D01*
X5375Y2400D01*
X5345D01*
X5330Y2385D01*
Y2355D01*
X5345Y2340D01*
X5405Y2430D02*
X5420Y2445D01*
Y2475D01*
X5405Y2490D01*
X5390D01*
X5375Y2475D01*
X5360Y2490D01*
X5345D01*
X5330Y2475D01*
Y2445D01*
X5345Y2430D01*
X5360D01*
X5375Y2445D01*
X5390Y2430D01*
X5405D01*
X5375Y2445D02*
Y2475D01*
X7160Y3355D02*
X7175Y3370D01*
X7205D01*
X7220Y3355D01*
Y3295D01*
X7205Y3280D01*
X7175D01*
X7160Y3295D01*
X7070Y3370D02*
X7130D01*
Y3325D01*
X7100Y3340D01*
X7085D01*
X7070Y3325D01*
Y3295D01*
X7085Y3280D01*
X7115D01*
X7130Y3295D01*
X7040Y3370D02*
X6980D01*
Y3355D01*
X7040Y3295D01*
Y3280D01*
X9245Y3400D02*
X9260Y3385D01*
Y3355D01*
X9245Y3340D01*
X9185D01*
X9170Y3355D01*
Y3385D01*
X9185Y3400D01*
X9260Y3490D02*
Y3430D01*
X9215D01*
X9230Y3460D01*
Y3475D01*
X9215Y3490D01*
X9185D01*
X9170Y3475D01*
Y3445D01*
X9185Y3430D01*
X9260Y3580D02*
X9245Y3550D01*
X9215Y3520D01*
X9185D01*
X9170Y3535D01*
Y3565D01*
X9185Y3580D01*
X9200D01*
X9215Y3565D01*
Y3520D01*
X5255Y2420D02*
X5270Y2405D01*
Y2375D01*
X5255Y2360D01*
X5195D01*
X5180Y2375D01*
Y2405D01*
X5195Y2420D01*
X5270Y2510D02*
Y2450D01*
X5225D01*
X5240Y2480D01*
Y2495D01*
X5225Y2510D01*
X5195D01*
X5180Y2495D01*
Y2465D01*
X5195Y2450D01*
X5270Y2600D02*
Y2540D01*
X5225D01*
X5240Y2570D01*
Y2585D01*
X5225Y2600D01*
X5195D01*
X5180Y2585D01*
Y2555D01*
X5195Y2540D01*
X5765Y3620D02*
X5780Y3605D01*
Y3575D01*
X5765Y3560D01*
X5705D01*
X5690Y3575D01*
Y3605D01*
X5705Y3620D01*
X5780Y3710D02*
Y3650D01*
X5735D01*
X5750Y3680D01*
Y3695D01*
X5735Y3710D01*
X5705D01*
X5690Y3695D01*
Y3665D01*
X5705Y3650D01*
X5690Y3785D02*
X5780D01*
X5735Y3740D01*
Y3800D01*
X6525Y3650D02*
X6540Y3635D01*
Y3605D01*
X6525Y3590D01*
X6465D01*
X6450Y3605D01*
Y3635D01*
X6465Y3650D01*
X6540Y3740D02*
Y3680D01*
X6495D01*
X6510Y3710D01*
Y3725D01*
X6495Y3740D01*
X6465D01*
X6450Y3725D01*
Y3695D01*
X6465Y3680D01*
X6525Y3770D02*
X6540Y3785D01*
Y3815D01*
X6525Y3830D01*
X6510D01*
X6495Y3815D01*
Y3800D01*
Y3815D01*
X6480Y3830D01*
X6465D01*
X6450Y3815D01*
Y3785D01*
X6465Y3770D01*
X8280Y3595D02*
X8295Y3610D01*
X8325D01*
X8340Y3595D01*
Y3535D01*
X8325Y3520D01*
X8295D01*
X8280Y3535D01*
X8190Y3610D02*
X8250D01*
Y3565D01*
X8220Y3580D01*
X8205D01*
X8190Y3565D01*
Y3535D01*
X8205Y3520D01*
X8235D01*
X8250Y3535D01*
X8100Y3520D02*
X8160D01*
X8100Y3580D01*
Y3595D01*
X8115Y3610D01*
X8145D01*
X8160Y3595D01*
X5330Y2035D02*
X5345Y2050D01*
X5375D01*
X5390Y2035D01*
Y1975D01*
X5375Y1960D01*
X5345D01*
X5330Y1975D01*
X5240Y2050D02*
X5300D01*
Y2005D01*
X5270Y2020D01*
X5255D01*
X5240Y2005D01*
Y1975D01*
X5255Y1960D01*
X5285D01*
X5300Y1975D01*
X5210Y1960D02*
X5180D01*
X5195D01*
Y2050D01*
X5210Y2035D01*
X5580Y2975D02*
X5595Y2990D01*
X5625D01*
X5640Y2975D01*
Y2915D01*
X5625Y2900D01*
X5595D01*
X5580Y2915D01*
X5490Y2990D02*
X5550D01*
Y2945D01*
X5520Y2960D01*
X5505D01*
X5490Y2945D01*
Y2915D01*
X5505Y2900D01*
X5535D01*
X5550Y2915D01*
X5460Y2975D02*
X5445Y2990D01*
X5415D01*
X5400Y2975D01*
Y2915D01*
X5415Y2900D01*
X5445D01*
X5460Y2915D01*
Y2975D01*
X6326Y3378D02*
X6341Y3363D01*
Y3333D01*
X6326Y3318D01*
X6266D01*
X6251Y3333D01*
Y3363D01*
X6266Y3378D01*
X6251Y3453D02*
X6341D01*
X6296Y3408D01*
Y3468D01*
X6266Y3498D02*
X6251Y3513D01*
Y3543D01*
X6266Y3558D01*
X6326D01*
X6341Y3543D01*
Y3513D01*
X6326Y3498D01*
X6311D01*
X6296Y3513D01*
Y3558D01*
X6685Y3510D02*
X6700Y3495D01*
Y3465D01*
X6685Y3450D01*
X6625D01*
X6610Y3465D01*
Y3495D01*
X6625Y3510D01*
X6610Y3585D02*
X6700D01*
X6655Y3540D01*
Y3600D01*
X6685Y3630D02*
X6700Y3645D01*
Y3675D01*
X6685Y3690D01*
X6670D01*
X6655Y3675D01*
X6640Y3690D01*
X6625D01*
X6610Y3675D01*
Y3645D01*
X6625Y3630D01*
X6640D01*
X6655Y3645D01*
X6670Y3630D01*
X6685D01*
X6655Y3645D02*
Y3675D01*
X5105Y2420D02*
X5120Y2405D01*
Y2375D01*
X5105Y2360D01*
X5045D01*
X5030Y2375D01*
Y2405D01*
X5045Y2420D01*
X5030Y2495D02*
X5120D01*
X5075Y2450D01*
Y2510D01*
X5120Y2540D02*
Y2600D01*
X5105D01*
X5045Y2540D01*
X5030D01*
X8735Y2570D02*
X8750Y2555D01*
Y2525D01*
X8735Y2510D01*
X8675D01*
X8660Y2525D01*
Y2555D01*
X8675Y2570D01*
X8660Y2645D02*
X8750D01*
X8705Y2600D01*
Y2660D01*
X8750Y2750D02*
X8735Y2720D01*
X8705Y2690D01*
X8675D01*
X8660Y2705D01*
Y2735D01*
X8675Y2750D01*
X8690D01*
X8705Y2735D01*
Y2690D01*
X5638Y2680D02*
X5653Y2695D01*
X5683D01*
X5698Y2680D01*
Y2620D01*
X5683Y2605D01*
X5653D01*
X5638Y2620D01*
X5563Y2605D02*
Y2695D01*
X5608Y2650D01*
X5548D01*
X5458Y2695D02*
X5518D01*
Y2650D01*
X5488Y2665D01*
X5473D01*
X5458Y2650D01*
Y2620D01*
X5473Y2605D01*
X5503D01*
X5518Y2620D01*
X6375Y3670D02*
X6390Y3655D01*
Y3625D01*
X6375Y3610D01*
X6315D01*
X6300Y3625D01*
Y3655D01*
X6315Y3670D01*
X6300Y3745D02*
X6390D01*
X6345Y3700D01*
Y3760D01*
X6300Y3835D02*
X6390D01*
X6345Y3790D01*
Y3850D01*
X8155Y3280D02*
X8170Y3265D01*
Y3235D01*
X8155Y3220D01*
X8095D01*
X8080Y3235D01*
Y3265D01*
X8095Y3280D01*
X8080Y3355D02*
X8170D01*
X8125Y3310D01*
Y3370D01*
X8155Y3400D02*
X8170Y3415D01*
Y3445D01*
X8155Y3460D01*
X8140D01*
X8125Y3445D01*
Y3430D01*
Y3445D01*
X8110Y3460D01*
X8095D01*
X8080Y3445D01*
Y3415D01*
X8095Y3400D01*
X7675Y2890D02*
X7690Y2875D01*
Y2845D01*
X7675Y2830D01*
X7615D01*
X7600Y2845D01*
Y2875D01*
X7615Y2890D01*
X7600Y2965D02*
X7690D01*
X7645Y2920D01*
Y2980D01*
X7600Y3070D02*
Y3010D01*
X7660Y3070D01*
X7675D01*
X7690Y3055D01*
Y3025D01*
X7675Y3010D01*
X4965Y2310D02*
X4980Y2295D01*
Y2265D01*
X4965Y2250D01*
X4905D01*
X4890Y2265D01*
Y2295D01*
X4905Y2310D01*
X4890Y2385D02*
X4980D01*
X4935Y2340D01*
Y2400D01*
X4890Y2430D02*
Y2460D01*
Y2445D01*
X4980D01*
X4965Y2430D01*
X6010Y4215D02*
X6025Y4230D01*
X6055D01*
X6070Y4215D01*
Y4155D01*
X6055Y4140D01*
X6025D01*
X6010Y4155D01*
X5935Y4140D02*
Y4230D01*
X5980Y4185D01*
X5920D01*
X5890Y4215D02*
X5875Y4230D01*
X5845D01*
X5830Y4215D01*
Y4155D01*
X5845Y4140D01*
X5875D01*
X5890Y4155D01*
Y4215D01*
X6470Y2155D02*
X6485Y2170D01*
X6515D01*
X6530Y2155D01*
Y2095D01*
X6515Y2080D01*
X6485D01*
X6470Y2095D01*
X6440Y2155D02*
X6425Y2170D01*
X6395D01*
X6380Y2155D01*
Y2140D01*
X6395Y2125D01*
X6410D01*
X6395D01*
X6380Y2110D01*
Y2095D01*
X6395Y2080D01*
X6425D01*
X6440Y2095D01*
X6350D02*
X6335Y2080D01*
X6305D01*
X6290Y2095D01*
Y2155D01*
X6305Y2170D01*
X6335D01*
X6350Y2155D01*
Y2140D01*
X6335Y2125D01*
X6290D01*
X6910Y3125D02*
X6925Y3140D01*
X6955D01*
X6970Y3125D01*
Y3065D01*
X6955Y3050D01*
X6925D01*
X6910Y3065D01*
X6880Y3125D02*
X6865Y3140D01*
X6835D01*
X6820Y3125D01*
Y3110D01*
X6835Y3095D01*
X6850D01*
X6835D01*
X6820Y3080D01*
Y3065D01*
X6835Y3050D01*
X6865D01*
X6880Y3065D01*
X6790Y3125D02*
X6775Y3140D01*
X6745D01*
X6730Y3125D01*
Y3110D01*
X6745Y3095D01*
X6730Y3080D01*
Y3065D01*
X6745Y3050D01*
X6775D01*
X6790Y3065D01*
Y3080D01*
X6775Y3095D01*
X6790Y3110D01*
Y3125D01*
X6775Y3095D02*
X6745D01*
X6235Y3800D02*
X6250Y3785D01*
Y3755D01*
X6235Y3740D01*
X6175D01*
X6160Y3755D01*
Y3785D01*
X6175Y3800D01*
X6235Y3830D02*
X6250Y3845D01*
Y3875D01*
X6235Y3890D01*
X6220D01*
X6205Y3875D01*
Y3860D01*
Y3875D01*
X6190Y3890D01*
X6175D01*
X6160Y3875D01*
Y3845D01*
X6175Y3830D01*
X6250Y3920D02*
Y3980D01*
X6235D01*
X6175Y3920D01*
X6160D01*
X4815Y2310D02*
X4830Y2295D01*
Y2265D01*
X4815Y2250D01*
X4755D01*
X4740Y2265D01*
Y2295D01*
X4755Y2310D01*
X4815Y2340D02*
X4830Y2355D01*
Y2385D01*
X4815Y2400D01*
X4800D01*
X4785Y2385D01*
Y2370D01*
Y2385D01*
X4770Y2400D01*
X4755D01*
X4740Y2385D01*
Y2355D01*
X4755Y2340D01*
X4830Y2490D02*
X4815Y2460D01*
X4785Y2430D01*
X4755D01*
X4740Y2445D01*
Y2475D01*
X4755Y2490D01*
X4770D01*
X4785Y2475D01*
Y2430D01*
X6975Y2750D02*
X6990Y2735D01*
Y2705D01*
X6975Y2690D01*
X6915D01*
X6900Y2705D01*
Y2735D01*
X6915Y2750D01*
X6975Y2780D02*
X6990Y2795D01*
Y2825D01*
X6975Y2840D01*
X6960D01*
X6945Y2825D01*
Y2810D01*
Y2825D01*
X6930Y2840D01*
X6915D01*
X6900Y2825D01*
Y2795D01*
X6915Y2780D01*
X6990Y2930D02*
Y2870D01*
X6945D01*
X6960Y2900D01*
Y2915D01*
X6945Y2930D01*
X6915D01*
X6900Y2915D01*
Y2885D01*
X6915Y2870D01*
X5265Y2870D02*
X5280Y2855D01*
Y2825D01*
X5265Y2810D01*
X5205D01*
X5190Y2825D01*
Y2855D01*
X5205Y2870D01*
X5265Y2900D02*
X5280Y2915D01*
Y2945D01*
X5265Y2960D01*
X5250D01*
X5235Y2945D01*
Y2930D01*
Y2945D01*
X5220Y2960D01*
X5205D01*
X5190Y2945D01*
Y2915D01*
X5205Y2900D01*
X5190Y3035D02*
X5280D01*
X5235Y2990D01*
Y3050D01*
X7100Y2625D02*
X7115Y2640D01*
X7145D01*
X7160Y2625D01*
Y2565D01*
X7145Y2550D01*
X7115D01*
X7100Y2565D01*
X7070Y2625D02*
X7055Y2640D01*
X7025D01*
X7010Y2625D01*
Y2610D01*
X7025Y2595D01*
X7040D01*
X7025D01*
X7010Y2580D01*
Y2565D01*
X7025Y2550D01*
X7055D01*
X7070Y2565D01*
X6980Y2625D02*
X6965Y2640D01*
X6935D01*
X6920Y2625D01*
Y2610D01*
X6935Y2595D01*
X6950D01*
X6935D01*
X6920Y2580D01*
Y2565D01*
X6935Y2550D01*
X6965D01*
X6980Y2565D01*
X2605Y3950D02*
X2620Y3935D01*
Y3905D01*
X2605Y3890D01*
X2545D01*
X2530Y3905D01*
Y3935D01*
X2545Y3950D01*
X2530Y4040D02*
Y3980D01*
X2590Y4040D01*
X2605D01*
X2620Y4025D01*
Y3995D01*
X2605Y3980D01*
X2530Y4130D02*
Y4070D01*
X2590Y4130D01*
X2605D01*
X2620Y4115D01*
Y4085D01*
X2605Y4070D01*
X3385Y2420D02*
X3400Y2405D01*
Y2375D01*
X3385Y2360D01*
X3325D01*
X3310Y2375D01*
Y2405D01*
X3325Y2420D01*
X3310Y2510D02*
Y2450D01*
X3370Y2510D01*
X3385D01*
X3400Y2495D01*
Y2465D01*
X3385Y2450D01*
X3310Y2540D02*
Y2570D01*
Y2555D01*
X3400D01*
X3385Y2540D01*
X3570Y3026D02*
X3585Y3041D01*
X3615D01*
X3630Y3026D01*
Y2966D01*
X3615Y2951D01*
X3585D01*
X3570Y2966D01*
X3480Y2951D02*
X3540D01*
X3480Y3011D01*
Y3026D01*
X3495Y3041D01*
X3525D01*
X3540Y3026D01*
X3450D02*
X3435Y3041D01*
X3405D01*
X3390Y3026D01*
Y2966D01*
X3405Y2951D01*
X3435D01*
X3450Y2966D01*
Y3026D01*
X3562Y3687D02*
X3577Y3702D01*
X3607D01*
X3622Y3687D01*
Y3627D01*
X3607Y3612D01*
X3577D01*
X3562Y3627D01*
X3532Y3612D02*
X3502D01*
X3517D01*
Y3702D01*
X3532Y3687D01*
X3457Y3627D02*
X3442Y3612D01*
X3412D01*
X3397Y3627D01*
Y3687D01*
X3412Y3702D01*
X3442D01*
X3457Y3687D01*
Y3672D01*
X3442Y3657D01*
X3397D01*
X3395Y3950D02*
X3410Y3935D01*
Y3905D01*
X3395Y3890D01*
X3335D01*
X3320Y3905D01*
Y3935D01*
X3335Y3950D01*
X3320Y3980D02*
Y4010D01*
Y3995D01*
X3410D01*
X3395Y3980D01*
Y4055D02*
X3410Y4070D01*
Y4100D01*
X3395Y4115D01*
X3380D01*
X3365Y4100D01*
X3350Y4115D01*
X3335D01*
X3320Y4100D01*
Y4070D01*
X3335Y4055D01*
X3350D01*
X3365Y4070D01*
X3380Y4055D01*
X3395D01*
X3365Y4070D02*
Y4100D01*
X2885Y3950D02*
X2900Y3935D01*
Y3905D01*
X2885Y3890D01*
X2825D01*
X2810Y3905D01*
Y3935D01*
X2825Y3950D01*
X2810Y3980D02*
Y4010D01*
Y3995D01*
X2900D01*
X2885Y3980D01*
X2900Y4055D02*
Y4115D01*
X2885D01*
X2825Y4055D01*
X2810D01*
X3125Y2150D02*
X3140Y2135D01*
Y2105D01*
X3125Y2090D01*
X3065D01*
X3050Y2105D01*
Y2135D01*
X3065Y2150D01*
X3050Y2180D02*
Y2210D01*
Y2195D01*
X3140D01*
X3125Y2180D01*
X3140Y2315D02*
X3125Y2285D01*
X3095Y2255D01*
X3065D01*
X3050Y2270D01*
Y2300D01*
X3065Y2315D01*
X3080D01*
X3095Y2300D01*
Y2255D01*
X2925Y2410D02*
X2940Y2395D01*
Y2365D01*
X2925Y2350D01*
X2865D01*
X2850Y2365D01*
Y2395D01*
X2865Y2410D01*
X2850Y2440D02*
Y2470D01*
Y2455D01*
X2940D01*
X2925Y2440D01*
X2940Y2575D02*
Y2515D01*
X2895D01*
X2910Y2545D01*
Y2560D01*
X2895Y2575D01*
X2865D01*
X2850Y2560D01*
Y2530D01*
X2865Y2515D01*
X2625Y2140D02*
X2640Y2125D01*
Y2095D01*
X2625Y2080D01*
X2565D01*
X2550Y2095D01*
Y2125D01*
X2565Y2140D01*
X2550Y2170D02*
Y2200D01*
Y2185D01*
X2640D01*
X2625Y2170D01*
X2550Y2290D02*
X2640D01*
X2595Y2245D01*
Y2305D01*
X2475Y2140D02*
X2490Y2125D01*
Y2095D01*
X2475Y2080D01*
X2415D01*
X2400Y2095D01*
Y2125D01*
X2415Y2140D01*
X2400Y2170D02*
Y2200D01*
Y2185D01*
X2490D01*
X2475Y2170D01*
Y2245D02*
X2490Y2260D01*
Y2290D01*
X2475Y2305D01*
X2460D01*
X2445Y2290D01*
Y2275D01*
Y2290D01*
X2430Y2305D01*
X2415D01*
X2400Y2290D01*
Y2260D01*
X2415Y2245D01*
X2155Y2380D02*
X2170Y2365D01*
Y2335D01*
X2155Y2320D01*
X2095D01*
X2080Y2335D01*
Y2365D01*
X2095Y2380D01*
X2080Y2410D02*
Y2440D01*
Y2425D01*
X2170D01*
X2155Y2410D01*
X2080Y2545D02*
Y2485D01*
X2140Y2545D01*
X2155D01*
X2170Y2530D01*
Y2500D01*
X2155Y2485D01*
D21*
X7117Y3684D02*
Y3600D01*
X7061D01*
X6991D02*
Y3684D01*
X7033Y3642D01*
X6977D01*
X5280Y3926D02*
X5266Y3912D01*
Y3884D01*
X5280Y3870D01*
X5336D01*
X5350Y3884D01*
Y3912D01*
X5336Y3926D01*
X5280Y3954D02*
X5266Y3968D01*
Y3996D01*
X5280Y4010D01*
X5294D01*
X5308Y3996D01*
Y3982D01*
Y3996D01*
X5322Y4010D01*
X5336D01*
X5350Y3996D01*
Y3968D01*
X5336Y3954D01*
X5280Y4038D02*
X5266Y4052D01*
Y4079D01*
X5280Y4093D01*
X5336D01*
X5350Y4079D01*
Y4052D01*
X5336Y4038D01*
X5280D01*
M02*
